<?xml version="1.0" encoding="utf-8"?>
<svg version="1.1" xmlns:xlink="http://www.w3.org/1999/xlink" width="70px" height="73px" xmlns="http://www.w3.org/2000/svg">
  <g transform="matrix(1 0 0 1 -465 -163 )">
    <path d="M 63.6416666666667 58.4751470588235  C 68.1598484848485 59.2158823529412  71.0977272727273 54.2561764705882  68.9765151515152 50.3807352941176  L 61.0962121212121 37.23  C 60.1208115422248 35.7648758925918  59.9604600490566 33.8943066658435  60.6719696969697 32.2810294117647  L 67.0356060606061 18.3251470588235  C 67.3114263131761 17.6537265593022  67.453417728377 16.9337466230274  67.453417728377 16.2065963174921  C 67.453417728377 13.159121555264  65.0126912585151 10.6886551410215  62.0019025768618 10.6886551410215  C 61.6190563875905 10.6886551410215  61.2372752097302 10.7294757248499  60.8628787878788 10.8104411764706  L 46.014393939394 14.2672058823529  C 44.2690256887469 14.7258720877761  42.4135633495532 14.2339963722269  41.114393939394 12.9682352941176  L 29.8083333333333 2.54426470588235  C 28.8224167457995 1.59452782882771  27.513474490096 1.0648428302801  26.1524287630743 1.0648428302801  C 23.3930263055543 1.0648428302801  21.0947484470693 3.20676259450571  20.8674242424243 5.99029411764704  L 19.5840909090909 21.2880882352941  C 19.4090166184014 23.0909523846997  18.3756986368738 24.6938777960136  16.8159090909091 25.5822058823529  L 3.62196969696972 33.0969117647059  C 1.99697751970735 34.0765001178203  1.00139484404423 35.8495590169075  1.00139484404423 37.7639611994593  C 1.00139484404423 39.9386598639546  2.28279474849557 41.903765343298  4.25833333333335 42.7586764705882  L 18.3113636363636 48.8348529411765  C 19.9423467044662 49.5111874906483  21.1347608245419 50.9635428787572  21.4931818181818 52.7102941176471  L 24.4734848484849 67.7397058823529  C 25.0321084425018 70.2337840217856  27.2221257349295 72.0041919009747  29.7487088428422 72.0041919009747  C 31.3186813619002 72.0041919009747  32.8111964574876 71.3137596918276  33.8386363636364 70.112205882353  L 43.8401515151515 58.4751470588236  C 45.0563834234882 57.1997980343158  46.7870849617888 56.5656659371614  48.5280303030303 56.7575  L 63.6416666666667 58.4751470588235  Z M 58.1699308291343 53.6852523042138  C 58.0350269430979 53.6852523042138  57.9001998310743 53.6787392336099  57.7659090909091 53.6657352941176  L 46.014393939394 52.3345588235294  C 44.6635911403934 52.1845915490429  43.3203032169499 52.6761288929674  42.3765151515152 53.6657352941176  L 34.6022727272727 62.7155882352941  C 33.7976543375285 63.6219518475441  32.6504923542121 64.1396337507396  31.4466459461405 64.1396337507396  C 29.4931494209172 64.1396337507396  27.7921759047952 62.7894190236566  27.3265151515152 60.8691176470588  L 25.0037878787879 49.1461764705883  C 24.7322524950618 47.7914383856642  23.8143967530916 46.6613078433452  22.5537878787879 46.1295588235294  L 11.6401515151515 41.4489705882353  C 10.1053300084822 40.7816961789781  9.11055603822831 39.2533640096431  9.11055603822831 37.5625981474692  C 9.11055603822831 36.0758955858002  9.88169357827584 34.6983516522289  11.1416666666667 33.9342647058824  L 21.3977272727273 28.0727941176471  C 22.5951033243582 27.3658261070012  23.3842036163896 26.1198301147887  23.5189393939394 24.7233823529412  L 24.5159090909091 12.8286764705882  C 24.7251765860618 10.6863788136884  26.5053724570997 9.05386491346131  28.6322011157481 9.05386491346131  C 29.6838659419796 9.05386491346131  30.6960433091871 9.45932876679662  31.4628787878788 10.1877941176471  L 40.2234848484849 18.2177941176471  C 41.2341221303886 19.1993575896208  42.6748581607022 19.5811942871705  44.0310606060606 19.2269117647059  L 55.6128787878788 16.5430882352941  C 55.9064891480554 16.4790645815685  56.2059864449506 16.4467812376483  56.5063328717648 16.4467812376483  C 58.8493590831682 16.4467812376483  60.7487571141891 18.3693231942572  60.7487571141891 20.7408988847071  C 60.7487571141891 21.3122408957486  60.6361132412153 21.8778385613892  60.4174242424243 22.4045588235294  L 55.4325757575758 33.2364705882353  C 54.877075130028 34.4923619632573  55.0013879783644 35.949526573444  55.7613636363637 37.0904411764706  L 61.8810606060606 47.3104411764706  C 62.229531551381 47.9472136694973  62.4123550715585 48.6632002480374  62.4123550715585 49.391134657155  C 62.4123550715585 51.7627103476049  60.5129570405376 53.6852523042138  58.1699308291343 53.6852523042138  Z " fill-rule="nonzero" fill="#abefd2" stroke="none" transform="matrix(1 0 0 1 465 163 )" />
  </g>
</svg>