<?xml version="1.0" encoding="utf-8"?>
<svg version="1.1" xmlns:xlink="http://www.w3.org/1999/xlink" width="184px" height="187px" xmlns="http://www.w3.org/2000/svg">
  <defs>
    <mask fill="white" id="clip753">
      <path d="M 166.261951219512 150.568795180723  C 177.885365853659 152.236024096386  185.716585365854 139.461445783133  180.084390243902 129.480602409639  C 180.084390243902 129.480602409639  159.64243902439 95.685421686747  159.64243902439 95.685421686747  C 157.087136312776 91.9108065181804  156.662529272457 84.8232029168223  158.520487804878 80.6578313253012  C 158.520487804878 80.6578313253012  175.125365853659 44.6096385542169  175.125365853659 44.6096385542169  C 179.613170731707 34.0430120481928  170.143902439024 22.3949397590362  159.081463414634 25.1661445783133  C 159.081463414634 25.1661445783133  120.374146341463 34.0430120481928  120.374146341463 34.0430120481928  C 115.855088834652 35.2253567484537  111.048575538794 33.971954137337  107.673658536585 30.7310843373494  C 107.673658536585 30.7310843373494  76.1243902439025 3.98783132530121  76.1243902439025 3.98783132530123  C 73.5615051676562 1.58949064957085  70.1883502859188 0.255900310584796  66.6849237506398 0.255900310584796  C 59.5372469149423 0.255900310584796  53.5644691472023 5.71908259791607  52.9 12.8646987951807  C 52.9 12.8646987951807  49.5790243902439 52.2924096385542  49.5790243902439 52.2924096385542  C 49.1170651660732 56.937736839378  46.4404316280578 61.0697679556752  42.3985365853659 63.3772289156626  C 42.3985365853659 63.3772289156626  8.11170731707319 82.8207228915662  8.11170731707319 82.8207228915662  C -1.82878048780484 88.3631325301205  -0.729268292682901 105.598674698795  9.77219512195126 110.059638554217  C 9.77219512195126 110.059638554217  46.2580487804879 125.582891566265  46.2580487804879 125.582891566265  C 50.5108224290167 127.322646029041  53.6230665520545 131.072500773619  54.5604878048781 135.586265060241  C 54.5604878048781 135.586265060241  62.3019512195122 174.450722891566  62.3019512195122 174.450722891566  C 63.7719410275914 180.864331153748  69.4582052507248 185.409024466183  76.012843001703 185.409024466183  C 80.0830603629032 185.409024466183  83.9538209311339 183.639177623822  86.6258536585366 180.556385542169  C 86.6258536585366 180.556385542169  114.854146341463 150.568795180723  114.854146341463 150.568795180723  C 117.987965657994 147.246975924434  122.484425262615 145.581029814213  127.016097560976 146.062771084337  C 127.016097560976 146.062771084337  166.261951219512 150.568795180723  166.261951219512 150.568795180723  Z M 150.980975609756 137.951927710843  C 150.980975609756 137.951927710843  150.913658536585 137.951927710843  150.913658536585 137.951927710843  C 150.913658536585 137.951927710843  120.419024390244 134.504819277108  120.419024390244 134.504819277108  C 116.900767748907 134.115391745967  113.401960977365 135.389066327508  110.949756097561 137.951927710843  C 110.949756097561 137.951927710843  88.5107317073171 161.248072289157  88.5107317073171 161.248072289157  C 86.4391337696087 163.65964226092  83.4244988849192 165.046150872247  80.2527085707571 165.046150872247  C 75.1585461006156 165.046150872247  70.7430526780371 161.505081125767  69.6170731707317 156.516746987952  C 69.6170731707317 156.516746987952  63.6034146341464 126.303855421687  63.6034146341464 126.303855421687  C 62.8729359196421 122.799189074809  60.4486451301602 119.891752765196  57.1409756097561 118.553493975904  C 57.1409756097561 118.553493975904  28.8678048780488 106.47734939759  28.8678048780488 106.47734939759  C 24.8523843883038 104.769277036449  22.2439278536529 100.815303457741  22.2439278536529 96.4366857349407  C 22.2439278536529 92.5856348844857  24.2669976749236 86.7671347653072  27.5663414634147 84.8033734939759  C 27.5663414634147 84.8033734939759  54.2014634146342 69.820843373494  54.2014634146342 69.8208433734939  C 57.3402117193454 68.0168155523137  59.4203686409279 64.8042272872012  59.7887804878049 61.1918072289157  C 59.7887804878049 61.1918072289157  62.3019512195122 30.4381927710843  62.3019512195122 30.4381927710843  C 62.848517031803 24.9186930439097  67.4732202598221 20.7140043420622  72.9975077295116 20.7140043420622  C 75.683261381954 20.7140043420622  78.2717033440914 21.7235905286533  80.2531707317073 23.5439759036144  C 80.2531707317073 23.5439759036144  105.272682926829 44.249156626506  105.272682926829 44.249156626506  C 107.903474725424 46.7720962247575  111.645458130888 47.7518583607058  115.168292682927 46.8401204819277  C 115.168292682927 46.8401204819277  145.326341463415 39.9233734939759  145.326341463415 39.9233734939759  C 146.090998039837 39.7574703840479  146.871078376663 39.673811073664  147.653383558343 39.673811073664  C 153.738214465503 39.673811073664  158.670944533952 44.6265666308671  158.670944533952 50.7361002302905  C 158.670944533952 52.2149578589095  158.375622113381 53.6788038714216  157.80243902439 55.0410843373494  C 157.80243902439 55.0410843373494  144.9 83.0685542168675  144.9 83.0685542168675  C 143.469932665614 86.3084060634934  143.791709427062 92.3108823242686  145.752682926829 95.2573493975903  C 145.752682926829 95.2573493975903  161.729268292683 121.640120481928  161.729268292683 121.640120481928  C 162.660738540829 123.290053153936  163.150357058757 125.154238141457  163.150357058757 127.050807060656  C 163.150357058757 133.110568492264  158.257812163981 138.022975735355  152.222552180708 138.022975735355  C 151.807685657877 138.022975735355  151.393155749634 137.999254660255  150.980975609756 137.951927710843  Z " fill-rule="evenodd" />
    </mask>
  </defs>
  <g transform="matrix(1 0 0 1 -584 -209 )">
    <path d="M 166.261951219512 150.568795180723  C 177.885365853659 152.236024096386  185.716585365854 139.461445783133  180.084390243902 129.480602409639  C 180.084390243902 129.480602409639  159.64243902439 95.685421686747  159.64243902439 95.685421686747  C 157.087136312776 91.9108065181804  156.662529272457 84.8232029168223  158.520487804878 80.6578313253012  C 158.520487804878 80.6578313253012  175.125365853659 44.6096385542169  175.125365853659 44.6096385542169  C 179.613170731707 34.0430120481928  170.143902439024 22.3949397590362  159.081463414634 25.1661445783133  C 159.081463414634 25.1661445783133  120.374146341463 34.0430120481928  120.374146341463 34.0430120481928  C 115.855088834652 35.2253567484537  111.048575538794 33.971954137337  107.673658536585 30.7310843373494  C 107.673658536585 30.7310843373494  76.1243902439025 3.98783132530121  76.1243902439025 3.98783132530123  C 73.5615051676562 1.58949064957085  70.1883502859188 0.255900310584796  66.6849237506398 0.255900310584796  C 59.5372469149423 0.255900310584796  53.5644691472023 5.71908259791607  52.9 12.8646987951807  C 52.9 12.8646987951807  49.5790243902439 52.2924096385542  49.5790243902439 52.2924096385542  C 49.1170651660732 56.937736839378  46.4404316280578 61.0697679556752  42.3985365853659 63.3772289156626  C 42.3985365853659 63.3772289156626  8.11170731707319 82.8207228915662  8.11170731707319 82.8207228915662  C -1.82878048780484 88.3631325301205  -0.729268292682901 105.598674698795  9.77219512195126 110.059638554217  C 9.77219512195126 110.059638554217  46.2580487804879 125.582891566265  46.2580487804879 125.582891566265  C 50.5108224290167 127.322646029041  53.6230665520545 131.072500773619  54.5604878048781 135.586265060241  C 54.5604878048781 135.586265060241  62.3019512195122 174.450722891566  62.3019512195122 174.450722891566  C 63.7719410275914 180.864331153748  69.4582052507248 185.409024466183  76.012843001703 185.409024466183  C 80.0830603629032 185.409024466183  83.9538209311339 183.639177623822  86.6258536585366 180.556385542169  C 86.6258536585366 180.556385542169  114.854146341463 150.568795180723  114.854146341463 150.568795180723  C 117.987965657994 147.246975924434  122.484425262615 145.581029814213  127.016097560976 146.062771084337  C 127.016097560976 146.062771084337  166.261951219512 150.568795180723  166.261951219512 150.568795180723  Z M 150.980975609756 137.951927710843  C 150.980975609756 137.951927710843  150.913658536585 137.951927710843  150.913658536585 137.951927710843  C 150.913658536585 137.951927710843  120.419024390244 134.504819277108  120.419024390244 134.504819277108  C 116.900767748907 134.115391745967  113.401960977365 135.389066327508  110.949756097561 137.951927710843  C 110.949756097561 137.951927710843  88.5107317073171 161.248072289157  88.5107317073171 161.248072289157  C 86.4391337696087 163.65964226092  83.4244988849192 165.046150872247  80.2527085707571 165.046150872247  C 75.1585461006156 165.046150872247  70.7430526780371 161.505081125767  69.6170731707317 156.516746987952  C 69.6170731707317 156.516746987952  63.6034146341464 126.303855421687  63.6034146341464 126.303855421687  C 62.8729359196421 122.799189074809  60.4486451301602 119.891752765196  57.1409756097561 118.553493975904  C 57.1409756097561 118.553493975904  28.8678048780488 106.47734939759  28.8678048780488 106.47734939759  C 24.8523843883038 104.769277036449  22.2439278536529 100.815303457741  22.2439278536529 96.4366857349407  C 22.2439278536529 92.5856348844857  24.2669976749236 86.7671347653072  27.5663414634147 84.8033734939759  C 27.5663414634147 84.8033734939759  54.2014634146342 69.820843373494  54.2014634146342 69.8208433734939  C 57.3402117193454 68.0168155523137  59.4203686409279 64.8042272872012  59.7887804878049 61.1918072289157  C 59.7887804878049 61.1918072289157  62.3019512195122 30.4381927710843  62.3019512195122 30.4381927710843  C 62.848517031803 24.9186930439097  67.4732202598221 20.7140043420622  72.9975077295116 20.7140043420622  C 75.683261381954 20.7140043420622  78.2717033440914 21.7235905286533  80.2531707317073 23.5439759036144  C 80.2531707317073 23.5439759036144  105.272682926829 44.249156626506  105.272682926829 44.249156626506  C 107.903474725424 46.7720962247575  111.645458130888 47.7518583607058  115.168292682927 46.8401204819277  C 115.168292682927 46.8401204819277  145.326341463415 39.9233734939759  145.326341463415 39.9233734939759  C 146.090998039837 39.7574703840479  146.871078376663 39.673811073664  147.653383558343 39.673811073664  C 153.738214465503 39.673811073664  158.670944533952 44.6265666308671  158.670944533952 50.7361002302905  C 158.670944533952 52.2149578589095  158.375622113381 53.6788038714216  157.80243902439 55.0410843373494  C 157.80243902439 55.0410843373494  144.9 83.0685542168675  144.9 83.0685542168675  C 143.469932665614 86.3084060634934  143.791709427062 92.3108823242686  145.752682926829 95.2573493975903  C 145.752682926829 95.2573493975903  161.729268292683 121.640120481928  161.729268292683 121.640120481928  C 162.660738540829 123.290053153936  163.150357058757 125.154238141457  163.150357058757 127.050807060656  C 163.150357058757 133.110568492264  158.257812163981 138.022975735355  152.222552180708 138.022975735355  C 151.807685657877 138.022975735355  151.393155749634 137.999254660255  150.980975609756 137.951927710843  Z " fill-rule="nonzero" fill="#efacda" stroke="none" transform="matrix(1 0 0 1 584 209 )" />
    <path d="M 166.261951219512 150.568795180723  C 177.885365853659 152.236024096386  185.716585365854 139.461445783133  180.084390243902 129.480602409639  C 180.084390243902 129.480602409639  159.64243902439 95.685421686747  159.64243902439 95.685421686747  C 157.087136312776 91.9108065181804  156.662529272457 84.8232029168223  158.520487804878 80.6578313253012  C 158.520487804878 80.6578313253012  175.125365853659 44.6096385542169  175.125365853659 44.6096385542169  C 179.613170731707 34.0430120481928  170.143902439024 22.3949397590362  159.081463414634 25.1661445783133  C 159.081463414634 25.1661445783133  120.374146341463 34.0430120481928  120.374146341463 34.0430120481928  C 115.855088834652 35.2253567484537  111.048575538794 33.971954137337  107.673658536585 30.7310843373494  C 107.673658536585 30.7310843373494  76.1243902439025 3.98783132530121  76.1243902439025 3.98783132530123  C 73.5615051676562 1.58949064957085  70.1883502859188 0.255900310584796  66.6849237506398 0.255900310584796  C 59.5372469149423 0.255900310584796  53.5644691472023 5.71908259791607  52.9 12.8646987951807  C 52.9 12.8646987951807  49.5790243902439 52.2924096385542  49.5790243902439 52.2924096385542  C 49.1170651660732 56.937736839378  46.4404316280578 61.0697679556752  42.3985365853659 63.3772289156626  C 42.3985365853659 63.3772289156626  8.11170731707319 82.8207228915662  8.11170731707319 82.8207228915662  C -1.82878048780484 88.3631325301205  -0.729268292682901 105.598674698795  9.77219512195126 110.059638554217  C 9.77219512195126 110.059638554217  46.2580487804879 125.582891566265  46.2580487804879 125.582891566265  C 50.5108224290167 127.322646029041  53.6230665520545 131.072500773619  54.5604878048781 135.586265060241  C 54.5604878048781 135.586265060241  62.3019512195122 174.450722891566  62.3019512195122 174.450722891566  C 63.7719410275914 180.864331153748  69.4582052507248 185.409024466183  76.012843001703 185.409024466183  C 80.0830603629032 185.409024466183  83.9538209311339 183.639177623822  86.6258536585366 180.556385542169  C 86.6258536585366 180.556385542169  114.854146341463 150.568795180723  114.854146341463 150.568795180723  C 117.987965657994 147.246975924434  122.484425262615 145.581029814213  127.016097560976 146.062771084337  C 127.016097560976 146.062771084337  166.261951219512 150.568795180723  166.261951219512 150.568795180723  Z " stroke-width="2" stroke="#231815" fill="none" transform="matrix(1 0 0 1 584 209 )" mask="url(#clip753)" />
    <path d="M 150.980975609756 137.951927710843  C 150.980975609756 137.951927710843  150.913658536585 137.951927710843  150.913658536585 137.951927710843  C 150.913658536585 137.951927710843  120.419024390244 134.504819277108  120.419024390244 134.504819277108  C 116.900767748907 134.115391745967  113.401960977365 135.389066327508  110.949756097561 137.951927710843  C 110.949756097561 137.951927710843  88.5107317073171 161.248072289157  88.5107317073171 161.248072289157  C 86.4391337696087 163.65964226092  83.4244988849192 165.046150872247  80.2527085707571 165.046150872247  C 75.1585461006156 165.046150872247  70.7430526780371 161.505081125767  69.6170731707317 156.516746987952  C 69.6170731707317 156.516746987952  63.6034146341464 126.303855421687  63.6034146341464 126.303855421687  C 62.8729359196421 122.799189074809  60.4486451301602 119.891752765196  57.1409756097561 118.553493975904  C 57.1409756097561 118.553493975904  28.8678048780488 106.47734939759  28.8678048780488 106.47734939759  C 24.8523843883038 104.769277036449  22.2439278536529 100.815303457741  22.2439278536529 96.4366857349407  C 22.2439278536529 92.5856348844857  24.2669976749236 86.7671347653072  27.5663414634147 84.8033734939759  C 27.5663414634147 84.8033734939759  54.2014634146342 69.820843373494  54.2014634146342 69.8208433734939  C 57.3402117193454 68.0168155523137  59.4203686409279 64.8042272872012  59.7887804878049 61.1918072289157  C 59.7887804878049 61.1918072289157  62.3019512195122 30.4381927710843  62.3019512195122 30.4381927710843  C 62.848517031803 24.9186930439097  67.4732202598221 20.7140043420622  72.9975077295116 20.7140043420622  C 75.683261381954 20.7140043420622  78.2717033440914 21.7235905286533  80.2531707317073 23.5439759036144  C 80.2531707317073 23.5439759036144  105.272682926829 44.249156626506  105.272682926829 44.249156626506  C 107.903474725424 46.7720962247575  111.645458130888 47.7518583607058  115.168292682927 46.8401204819277  C 115.168292682927 46.8401204819277  145.326341463415 39.9233734939759  145.326341463415 39.9233734939759  C 146.090998039837 39.7574703840479  146.871078376663 39.673811073664  147.653383558343 39.673811073664  C 153.738214465503 39.673811073664  158.670944533952 44.6265666308671  158.670944533952 50.7361002302905  C 158.670944533952 52.2149578589095  158.375622113381 53.6788038714216  157.80243902439 55.0410843373494  C 157.80243902439 55.0410843373494  144.9 83.0685542168675  144.9 83.0685542168675  C 143.469932665614 86.3084060634934  143.791709427062 92.3108823242686  145.752682926829 95.2573493975903  C 145.752682926829 95.2573493975903  161.729268292683 121.640120481928  161.729268292683 121.640120481928  C 162.660738540829 123.290053153936  163.150357058757 125.154238141457  163.150357058757 127.050807060656  C 163.150357058757 133.110568492264  158.257812163981 138.022975735355  152.222552180708 138.022975735355  C 151.807685657877 138.022975735355  151.393155749634 137.999254660255  150.980975609756 137.951927710843  Z " stroke-width="2" stroke="#231815" fill="none" transform="matrix(1 0 0 1 584 209 )" mask="url(#clip753)" />
  </g>
</svg>