<?xml version="1.0" encoding="utf-8"?>
<svg version="1.1" xmlns:xlink="http://www.w3.org/1999/xlink" width="88px" height="89px" xmlns="http://www.w3.org/2000/svg">
  <defs>
    <mask fill="white" id="clip754">
      <path d="M 79.5165853658537 71.6610843373494  C 85.0756097560976 72.454578313253  88.8209756097561 66.3746987951807  86.1273170731708 61.6244578313253  C 86.1273170731708 61.6244578313253  76.3507317073171 45.5401204819277  76.3507317073171 45.5401204819277  C 75.1286304104581 43.7436458829843  74.9255574781315 40.3704013882202  75.8141463414634 38.3879518072289  C 75.8141463414634 38.3879518072289  83.7556097560976 21.2313253012048  83.7556097560976 21.2313253012048  C 85.9019512195122 16.2022891566265  81.3731707317073 10.6585542168675  76.0824390243903 11.9774698795181  C 76.0824390243903 11.9774698795181  57.570243902439 16.2022891566265  57.570243902439 16.2022891566265  C 55.4089555296163 16.7650093615635  53.1101883011625 16.1684701509251  51.4960975609756 14.6260240963855  C 51.4960975609756 14.6260240963855  36.4073170731707 1.89795180722892  36.4073170731707 1.89795180722893  C 35.1815894280095 0.756495549795754  33.5683414410916 0.121792126428058  31.8927896198712 0.121792126428058  C 28.4743354810593 0.121792126428058  25.6177895921402 2.72191631665524  25.3 6.12277108433735  C 25.3 6.12277108433735  23.7117073170732 24.8878313253012  23.7117073170732 24.8878313253012  C 23.4907702968176 27.0987089770302  22.2106412134189 29.0652906313106  20.2775609756098 30.1634939759036  C 20.2775609756098 30.1634939759036  3.87951219512196 39.4173493975904  3.87951219512196 39.4173493975904  C -0.874634146341446 42.0551807228915  -0.348780487804866 50.2581927710843  4.67365853658539 52.3813253012048  C 4.67365853658539 52.3813253012048  22.1234146341464 59.7693975903614  22.1234146341464 59.7693975903615  C 24.1573498573558 60.597409072645  25.6458144379391 62.3820992986741  26.0941463414634 64.5303614457831  C 26.0941463414634 64.5303614457831  29.7965853658537 83.0273493975904  29.7965853658537 83.0273493975904  C 30.4996239697176 86.079815361944  33.219141641651 88.2427977405898  36.3539683921188 88.2427977405898  C 38.3005940866059 88.2427977405898  40.1518274018467 87.4004642166855  41.429756097561 85.9332530120482  C 41.429756097561 85.9332530120482  54.930243902439 71.6610843373494  54.930243902439 71.6610843373494  C 56.4290270538232 70.0801115362279  58.5795077342939 69.2872280933954  60.7468292682927 69.5165060240964  C 60.7468292682927 69.5165060240964  79.5165853658537 71.6610843373494  79.5165853658537 71.6610843373494  Z M 72.2082926829268 65.6562650602409  C 72.2082926829268 65.6562650602409  72.1760975609756 65.656265060241  72.1760975609756 65.656265060241  C 72.1760975609756 65.656265060241  57.5917073170732 64.0156626506024  57.5917073170732 64.0156626506024  C 55.9090628364336 63.8303201357809  54.2357204674356 64.4365075034665  53.0629268292683 65.656265060241  C 53.0629268292683 65.656265060241  42.3312195121951 76.743734939759  42.3312195121951 76.743734939759  C 41.3404552811172 77.8914874931653  39.898673379744 78.5513766183422  38.3817301860143 78.5513766183422  C 35.9453916133379 78.5513766183422  33.833633889496 76.86605465344  33.2951219512195 74.4919277108434  C 33.2951219512195 74.4919277108434  30.4190243902439 60.1125301204819  30.4190243902439 60.1125301204819  C 30.0696650050462 58.4445338377432  28.9102215839896 57.0607807278207  27.3282926829269 56.4238554216868  C 27.3282926829269 56.4238554216868  13.8063414634146 50.6763855421687  13.8063414634146 50.6763855421687  C 11.8859229683192 49.8634527071869  10.638400277834 47.9816150146469  10.638400277834 45.8976739594103  C 10.638400277834 44.0648208808515  11.6059554097461 41.2955882038093  13.1839024390244 40.3609638554217  C 13.1839024390244 40.3609638554217  25.9224390243903 33.2302409638554  25.9224390243902 33.2302409638554  C 27.4235795179478 32.3716394874648  28.4184371760959 30.842653628668  28.5946341463415 29.1233734939759  C 28.5946341463415 29.1233734939759  29.7965853658537 14.4866265060241  29.7965853658537 14.4866265060241  C 30.0579864065145 11.8596988283848  32.269800993828 9.85853682590125  34.9118515228099 9.85853682590125  C 36.196342400065 9.85853682590125  37.4342929036959 10.3390350644393  38.3819512195122 11.205421686747  C 38.3819512195122 11.205421686747  50.3478048780488 21.0597590361446  50.3478048780488 21.0597590361446  C 51.6060096512898 22.260516385045  53.3956538886856 22.7268202893199  55.0804878048781 22.2928915662651  C 55.0804878048781 22.2928915662651  69.5039024390244 19.0009638554217  69.5039024390244 19.0009638554217  C 69.8696077581831 18.9220046212848  70.2426896584041 18.882188158054  70.6168356148595 18.882188158054  C 73.5269721356753 18.882188158054  75.8861039075425 21.2393819793967  75.8861039075425 24.1471279170901  C 75.8861039075425 24.850969248358  75.7448627498779 25.5476660136712  75.4707317073171 26.1960240963855  C 75.4707317073171 26.1960240963855  69.3 39.5353012048193  69.3 39.5353012048193  C 68.6160547531199 41.0772627788819  68.7699479868555 43.9340562933685  69.7078048780488 45.3363855421687  C 69.7078048780488 45.3363855421687  77.3487804878049 57.8928915662651  77.3487804878049 57.8928915662651  C 77.7942662586574 58.6781536401086  78.0284316367968 59.5653860673244  78.0284316367968 60.468031167906  C 78.0284316367968 63.3520887476549  75.6885188610344 65.6900793606771  72.8020901733822 65.6900793606771  C 72.6036757494196 65.6900793606771  72.4054223150424 65.6787896511376  72.2082926829268 65.6562650602409  Z " fill-rule="evenodd" />
    </mask>
  </defs>
  <g transform="matrix(1 0 0 1 -456 -156 )">
    <path d="M 79.5165853658537 71.6610843373494  C 85.0756097560976 72.454578313253  88.8209756097561 66.3746987951807  86.1273170731708 61.6244578313253  C 86.1273170731708 61.6244578313253  76.3507317073171 45.5401204819277  76.3507317073171 45.5401204819277  C 75.1286304104581 43.7436458829843  74.9255574781315 40.3704013882202  75.8141463414634 38.3879518072289  C 75.8141463414634 38.3879518072289  83.7556097560976 21.2313253012048  83.7556097560976 21.2313253012048  C 85.9019512195122 16.2022891566265  81.3731707317073 10.6585542168675  76.0824390243903 11.9774698795181  C 76.0824390243903 11.9774698795181  57.570243902439 16.2022891566265  57.570243902439 16.2022891566265  C 55.4089555296163 16.7650093615635  53.1101883011625 16.1684701509251  51.4960975609756 14.6260240963855  C 51.4960975609756 14.6260240963855  36.4073170731707 1.89795180722892  36.4073170731707 1.89795180722893  C 35.1815894280095 0.756495549795754  33.5683414410916 0.121792126428058  31.8927896198712 0.121792126428058  C 28.4743354810593 0.121792126428058  25.6177895921402 2.72191631665524  25.3 6.12277108433735  C 25.3 6.12277108433735  23.7117073170732 24.8878313253012  23.7117073170732 24.8878313253012  C 23.4907702968176 27.0987089770302  22.2106412134189 29.0652906313106  20.2775609756098 30.1634939759036  C 20.2775609756098 30.1634939759036  3.87951219512196 39.4173493975904  3.87951219512196 39.4173493975904  C -0.874634146341446 42.0551807228915  -0.348780487804866 50.2581927710843  4.67365853658539 52.3813253012048  C 4.67365853658539 52.3813253012048  22.1234146341464 59.7693975903614  22.1234146341464 59.7693975903615  C 24.1573498573558 60.597409072645  25.6458144379391 62.3820992986741  26.0941463414634 64.5303614457831  C 26.0941463414634 64.5303614457831  29.7965853658537 83.0273493975904  29.7965853658537 83.0273493975904  C 30.4996239697176 86.079815361944  33.219141641651 88.2427977405898  36.3539683921188 88.2427977405898  C 38.3005940866059 88.2427977405898  40.1518274018467 87.4004642166855  41.429756097561 85.9332530120482  C 41.429756097561 85.9332530120482  54.930243902439 71.6610843373494  54.930243902439 71.6610843373494  C 56.4290270538232 70.0801115362279  58.5795077342939 69.2872280933954  60.7468292682927 69.5165060240964  C 60.7468292682927 69.5165060240964  79.5165853658537 71.6610843373494  79.5165853658537 71.6610843373494  Z M 72.2082926829268 65.6562650602409  C 72.2082926829268 65.6562650602409  72.1760975609756 65.656265060241  72.1760975609756 65.656265060241  C 72.1760975609756 65.656265060241  57.5917073170732 64.0156626506024  57.5917073170732 64.0156626506024  C 55.9090628364336 63.8303201357809  54.2357204674356 64.4365075034665  53.0629268292683 65.656265060241  C 53.0629268292683 65.656265060241  42.3312195121951 76.743734939759  42.3312195121951 76.743734939759  C 41.3404552811172 77.8914874931653  39.898673379744 78.5513766183422  38.3817301860143 78.5513766183422  C 35.9453916133379 78.5513766183422  33.833633889496 76.86605465344  33.2951219512195 74.4919277108434  C 33.2951219512195 74.4919277108434  30.4190243902439 60.1125301204819  30.4190243902439 60.1125301204819  C 30.0696650050462 58.4445338377432  28.9102215839896 57.0607807278207  27.3282926829269 56.4238554216868  C 27.3282926829269 56.4238554216868  13.8063414634146 50.6763855421687  13.8063414634146 50.6763855421687  C 11.8859229683192 49.8634527071869  10.638400277834 47.9816150146469  10.638400277834 45.8976739594103  C 10.638400277834 44.0648208808515  11.6059554097461 41.2955882038093  13.1839024390244 40.3609638554217  C 13.1839024390244 40.3609638554217  25.9224390243903 33.2302409638554  25.9224390243902 33.2302409638554  C 27.4235795179478 32.3716394874648  28.4184371760959 30.842653628668  28.5946341463415 29.1233734939759  C 28.5946341463415 29.1233734939759  29.7965853658537 14.4866265060241  29.7965853658537 14.4866265060241  C 30.0579864065145 11.8596988283848  32.269800993828 9.85853682590125  34.9118515228099 9.85853682590125  C 36.196342400065 9.85853682590125  37.4342929036959 10.3390350644393  38.3819512195122 11.205421686747  C 38.3819512195122 11.205421686747  50.3478048780488 21.0597590361446  50.3478048780488 21.0597590361446  C 51.6060096512898 22.260516385045  53.3956538886856 22.7268202893199  55.0804878048781 22.2928915662651  C 55.0804878048781 22.2928915662651  69.5039024390244 19.0009638554217  69.5039024390244 19.0009638554217  C 69.8696077581831 18.9220046212848  70.2426896584041 18.882188158054  70.6168356148595 18.882188158054  C 73.5269721356753 18.882188158054  75.8861039075425 21.2393819793967  75.8861039075425 24.1471279170901  C 75.8861039075425 24.850969248358  75.7448627498779 25.5476660136712  75.4707317073171 26.1960240963855  C 75.4707317073171 26.1960240963855  69.3 39.5353012048193  69.3 39.5353012048193  C 68.6160547531199 41.0772627788819  68.7699479868555 43.9340562933685  69.7078048780488 45.3363855421687  C 69.7078048780488 45.3363855421687  77.3487804878049 57.8928915662651  77.3487804878049 57.8928915662651  C 77.7942662586574 58.6781536401086  78.0284316367968 59.5653860673244  78.0284316367968 60.468031167906  C 78.0284316367968 63.3520887476549  75.6885188610344 65.6900793606771  72.8020901733822 65.6900793606771  C 72.6036757494196 65.6900793606771  72.4054223150424 65.6787896511376  72.2082926829268 65.6562650602409  Z " fill-rule="nonzero" fill="#efacda" stroke="none" transform="matrix(1 0 0 1 456 156 )" />
    <path d="M 79.5165853658537 71.6610843373494  C 85.0756097560976 72.454578313253  88.8209756097561 66.3746987951807  86.1273170731708 61.6244578313253  C 86.1273170731708 61.6244578313253  76.3507317073171 45.5401204819277  76.3507317073171 45.5401204819277  C 75.1286304104581 43.7436458829843  74.9255574781315 40.3704013882202  75.8141463414634 38.3879518072289  C 75.8141463414634 38.3879518072289  83.7556097560976 21.2313253012048  83.7556097560976 21.2313253012048  C 85.9019512195122 16.2022891566265  81.3731707317073 10.6585542168675  76.0824390243903 11.9774698795181  C 76.0824390243903 11.9774698795181  57.570243902439 16.2022891566265  57.570243902439 16.2022891566265  C 55.4089555296163 16.7650093615635  53.1101883011625 16.1684701509251  51.4960975609756 14.6260240963855  C 51.4960975609756 14.6260240963855  36.4073170731707 1.89795180722892  36.4073170731707 1.89795180722893  C 35.1815894280095 0.756495549795754  33.5683414410916 0.121792126428058  31.8927896198712 0.121792126428058  C 28.4743354810593 0.121792126428058  25.6177895921402 2.72191631665524  25.3 6.12277108433735  C 25.3 6.12277108433735  23.7117073170732 24.8878313253012  23.7117073170732 24.8878313253012  C 23.4907702968176 27.0987089770302  22.2106412134189 29.0652906313106  20.2775609756098 30.1634939759036  C 20.2775609756098 30.1634939759036  3.87951219512196 39.4173493975904  3.87951219512196 39.4173493975904  C -0.874634146341446 42.0551807228915  -0.348780487804866 50.2581927710843  4.67365853658539 52.3813253012048  C 4.67365853658539 52.3813253012048  22.1234146341464 59.7693975903614  22.1234146341464 59.7693975903615  C 24.1573498573558 60.597409072645  25.6458144379391 62.3820992986741  26.0941463414634 64.5303614457831  C 26.0941463414634 64.5303614457831  29.7965853658537 83.0273493975904  29.7965853658537 83.0273493975904  C 30.4996239697176 86.079815361944  33.219141641651 88.2427977405898  36.3539683921188 88.2427977405898  C 38.3005940866059 88.2427977405898  40.1518274018467 87.4004642166855  41.429756097561 85.9332530120482  C 41.429756097561 85.9332530120482  54.930243902439 71.6610843373494  54.930243902439 71.6610843373494  C 56.4290270538232 70.0801115362279  58.5795077342939 69.2872280933954  60.7468292682927 69.5165060240964  C 60.7468292682927 69.5165060240964  79.5165853658537 71.6610843373494  79.5165853658537 71.6610843373494  Z " stroke-width="2" stroke="#231815" fill="none" transform="matrix(1 0 0 1 456 156 )" mask="url(#clip754)" />
    <path d="M 72.2082926829268 65.6562650602409  C 72.2082926829268 65.6562650602409  72.1760975609756 65.656265060241  72.1760975609756 65.656265060241  C 72.1760975609756 65.656265060241  57.5917073170732 64.0156626506024  57.5917073170732 64.0156626506024  C 55.9090628364336 63.8303201357809  54.2357204674356 64.4365075034665  53.0629268292683 65.656265060241  C 53.0629268292683 65.656265060241  42.3312195121951 76.743734939759  42.3312195121951 76.743734939759  C 41.3404552811172 77.8914874931653  39.898673379744 78.5513766183422  38.3817301860143 78.5513766183422  C 35.9453916133379 78.5513766183422  33.833633889496 76.86605465344  33.2951219512195 74.4919277108434  C 33.2951219512195 74.4919277108434  30.4190243902439 60.1125301204819  30.4190243902439 60.1125301204819  C 30.0696650050462 58.4445338377432  28.9102215839896 57.0607807278207  27.3282926829269 56.4238554216868  C 27.3282926829269 56.4238554216868  13.8063414634146 50.6763855421687  13.8063414634146 50.6763855421687  C 11.8859229683192 49.8634527071869  10.638400277834 47.9816150146469  10.638400277834 45.8976739594103  C 10.638400277834 44.0648208808515  11.6059554097461 41.2955882038093  13.1839024390244 40.3609638554217  C 13.1839024390244 40.3609638554217  25.9224390243903 33.2302409638554  25.9224390243902 33.2302409638554  C 27.4235795179478 32.3716394874648  28.4184371760959 30.842653628668  28.5946341463415 29.1233734939759  C 28.5946341463415 29.1233734939759  29.7965853658537 14.4866265060241  29.7965853658537 14.4866265060241  C 30.0579864065145 11.8596988283848  32.269800993828 9.85853682590125  34.9118515228099 9.85853682590125  C 36.196342400065 9.85853682590125  37.4342929036959 10.3390350644393  38.3819512195122 11.205421686747  C 38.3819512195122 11.205421686747  50.3478048780488 21.0597590361446  50.3478048780488 21.0597590361446  C 51.6060096512898 22.260516385045  53.3956538886856 22.7268202893199  55.0804878048781 22.2928915662651  C 55.0804878048781 22.2928915662651  69.5039024390244 19.0009638554217  69.5039024390244 19.0009638554217  C 69.8696077581831 18.9220046212848  70.2426896584041 18.882188158054  70.6168356148595 18.882188158054  C 73.5269721356753 18.882188158054  75.8861039075425 21.2393819793967  75.8861039075425 24.1471279170901  C 75.8861039075425 24.850969248358  75.7448627498779 25.5476660136712  75.4707317073171 26.1960240963855  C 75.4707317073171 26.1960240963855  69.3 39.5353012048193  69.3 39.5353012048193  C 68.6160547531199 41.0772627788819  68.7699479868555 43.9340562933685  69.7078048780488 45.3363855421687  C 69.7078048780488 45.3363855421687  77.3487804878049 57.8928915662651  77.3487804878049 57.8928915662651  C 77.7942662586574 58.6781536401086  78.0284316367968 59.5653860673244  78.0284316367968 60.468031167906  C 78.0284316367968 63.3520887476549  75.6885188610344 65.6900793606771  72.8020901733822 65.6900793606771  C 72.6036757494196 65.6900793606771  72.4054223150424 65.6787896511376  72.2082926829268 65.6562650602409  Z " stroke-width="2" stroke="#231815" fill="none" transform="matrix(1 0 0 1 456 156 )" mask="url(#clip754)" />
  </g>
</svg>