<?xml version="1.0" encoding="utf-8"?>
<svg version="1.1" xmlns:xlink="http://www.w3.org/1999/xlink" width="148px" height="153px" xmlns="http://www.w3.org/2000/svg">
  <g transform="matrix(1 0 0 1 -602 -224 )">
    <path d="M 134.556666666667 122.5575  C 144.109393939394 124.11  150.320909090909 113.715  145.836060606061 105.5925  L 129.174848484848 78.0299999999999  C 127.112572974989 74.9592604324185  126.77354410372 71.0387523270419  128.277878787879 67.6575  L 141.732424242424 38.4075  C 142.315587062144 37.000276213332  142.615797482854 35.4912771688108  142.615797482854 33.9672498161136  C 142.615797482854 27.5800766843205  137.455404375146 22.4022498161136  131.089736876794 22.4022498161136  C 130.280290648048 22.4022498161136  129.473096157715 22.4878052863293  128.681515151515 22.6575  L 97.2875757575758 29.9025  C 93.597368599065 30.8638141017773  89.6743910819124 29.8328965061743  86.9275757575758 27.18  L 63.0233333333333 5.33249999999999  C 60.9388239768331 3.34195558644711  58.1713460647745 2.23179387716241  55.2937065276428 2.23179387716241  C 49.4595413317434 2.23179387716241  44.6003252880893 6.72102297204622  44.119696969697 12.555  L 41.4063636363637 44.6175  C 41.0362065646201 48.3961056830007  38.8514771179618 51.7556616820559  35.5536363636364 53.6175  L 7.65787878787883 69.3675  C 4.22218104166697 71.4206098359794  2.11723481312208 75.1367469806418  2.11723481312208 79.1491241577709  C 2.11723481312208 83.7070542354118  4.82648032539063 87.8256999660903  9.00333333333337 89.6175  L 38.7154545454545 102.3525  C 42.1638187465856 103.770023096838  44.6849228861743 106.81400082808  45.4427272727273 110.475  L 51.7439393939394 141.975  C 52.9250292784323 147.202314456619  57.5553515538509 150.912895354098  62.8972701248665 150.912895354098  C 66.2166405937318 150.912895354098  69.3722439386881 149.465825107529  71.5445454545455 146.9475  L 92.6906060606061 122.5575  C 95.2620678096608 119.884508208908  98.9212653477821 118.555436827201  102.602121212121 118.9575  L 134.556666666667 122.5575  Z M 122.987853753027 112.518405514311  C 122.702628393978 112.518405514311  122.417565357129 112.504754832086  122.133636363636 112.4775  L 97.2875757575758 109.6875  C 94.4315926968318 109.373185027446  91.5914982301226 110.403393433206  89.5960606060606 112.4775  L 73.1590909090909 131.445  C 71.4578977422031 133.344638803757  69.0324695489055 134.429643340591  66.4871942861257 134.429643340591  C 62.3569444899391 134.429643340591  58.760600484424 131.599741241362  57.7760606060606 127.575  L 52.8651515151516 103.005  C 52.2910481324164 100.165617438447  50.3504388493937 97.7969876716686  47.6851515151515 96.6825  L 24.6106060606061 86.8725  C 21.3655548750766 85.4739659641596  19.2623184808256 82.2707492256903  19.2623184808256 78.7270892679834  C 19.2623184808256 75.6111236250332  20.8927235654975 72.7239425039865  23.5566666666667 71.1225  L 45.2409090909091 58.8375  C 47.7725041715002 57.3557725256326  49.4408876460809 54.7443014734612  49.7257575757576 51.8175  L 51.8336363636364 26.8875  C 52.276087639102 22.3974788834839  56.0399303378679 18.9759086542408  60.5366537875818 18.9759086542408  C 62.7601737058998 18.9759086542408  64.9002058537098 19.8257164564368  66.5215151515152 21.3525  L 85.0439393939395 38.1825  C 87.1807153613931 40.2397494686573  90.2268429683418 41.0400373416038  93.0942424242425 40.2975  L 117.581515151515 34.6725  C 118.202291341603 34.5383134380819  118.835514197896 34.4706510871258  119.470532357446 34.4706510871258  C 124.424359204413 34.4706510871258  128.440229327143 38.5000883386487  128.440229327143 43.4706510871258  C 128.440229327143 44.6681213294457  128.202067995712 45.8535520533226  127.739696969697 46.9575  L 117.200303030303 69.66  C 116.025815989202 72.2922106901147  116.288648868542 75.3462680237936  117.895454545455 77.7375  L 130.834242424242 99.1575  C 131.571009565777 100.492105362097  131.957550722724 101.992734766435  131.957550722724 103.518405514311  C 131.957550722724 108.488968262788  127.941680599994 112.518405514311  122.987853753027 112.518405514311  Z " fill-rule="nonzero" fill="#abefd2" stroke="none" transform="matrix(1 0 0 1 602 224 )" />
  </g>
</svg>