<?xml version="1.0" encoding="utf-8"?>
<svg version="1.1" xmlns:xlink="http://www.w3.org/1999/xlink" width="72px" height="72px" xmlns="http://www.w3.org/2000/svg">
  <defs>
    <filter x="0px" y="-6px" width="72px" height="72px" filterUnits="userSpaceOnUse" id="filter759">
      <feOffset dx="0" dy="0" in="SourceAlpha" result="shadowOffsetInner" />
      <feGaussianBlur stdDeviation="3" in="shadowOffsetInner" result="shadowGaussian" />
      <feComposite in2="shadowGaussian" operator="atop" in="SourceAlpha" result="shadowComposite" />
      <feColorMatrix type="matrix" values="0 0 0 0 0  0 0 0 0 0  0 0 0 0 0  0 0 0 0.349019607843137 0  " in="shadowComposite" />
    </filter>
    <g id="widget760">
      <path d="M 36 0  C 52.8 0  66 13.2  66 30  C 66 46.8  52.8 60  36 60  C 19.2 60  6 46.8  6 30  C 6 13.2  19.2 0  36 0  Z " fill-rule="nonzero" fill="#fff4f4" stroke="none" />
      <path d="M 36 0.5  C 52.52 0.5  65.5 13.48  65.5 30  C 65.5 46.52  52.52 59.5  36 59.5  C 19.48 59.5  6.5 46.52  6.5 30  C 6.5 13.48  19.48 0.5  36 0.5  Z " stroke-width="1" stroke="#ffffff" fill="none" />
    </g>
  </defs>
  <g transform="matrix(1 0 0 1 0 6 )">
    <use xlink:href="#widget760" filter="url(#filter759)" />
    <use xlink:href="#widget760" />
  </g>
</svg>