<?xml version="1.0" encoding="utf-8"?>
<svg version="1.1" xmlns:xlink="http://www.w3.org/1999/xlink" width="47px" height="36px" xmlns="http://www.w3.org/2000/svg">
  <g transform="matrix(1 0 0 1 -14 -12 )">
    <path d="M 43.9248571428571 14.25  C 42.5047857142857 12.6  40.42 11.64  37.882 11.52  C 35.7972142857143 11.46  32.2319285714286 12.36  30.1471428571429 15.57  C 29.9356428571429 14.49  29.7543571428571 13.44  29.6032857142857 12.51  C 29.1500714285714 9.9  28.7875 7.83  28.1227857142857 6.51  C 24.9200714285714 0.360000000000002  20.116 0.960000000000001  18.2125 1.5  C 16.6715714285714 1.95  15.2515 2.76  14.0429285714286 3.87  C 12.6228571428571 2.52  10.9912857142857 1.68  9.20864285714286 1.38  C 5.25057142857143 0.69  2.10828571428572 2.91  1.74571428571429 3.15  C 0.778857142857144 3.87  0.567357142857144 5.25  1.2925 6.21  C 2.01764285714286 7.17  3.4075 7.38  4.37435714285714 6.66  C 4.40457142857143 6.66  6.30807142857143 5.31  8.42307142857143 5.7  C 9.72228571428571 5.94  10.9308571428571 6.78  12 8.22  L 12 22.56  C 12.0185714285714 23.76  13.0156428571429 24.75  14.2242142857143 24.75  C 15.4327857142857 24.75  16.4298571428571 23.76  16.4298571428571 22.56  C 16.4298571428571 22.56  16.4298571428571 22.56  17 22.56  L 17 7.71  C 16.8226428571429 7.08  18.4844285714286 5.61  20.3275 5.55  C 21.8382142857143 5.52  23.1072142857143 6.51  24.1647142857143 8.52  C 24.5272857142857 9.24  24.8898571428571 11.37  25.2222142857143 13.26  C 25.8265 16.74  26.5214285714286 20.7  28.0623571428571 23.73  C 27.7602142857143 24.87  27.307 25.92  26.7027142857143 26.55  C 24.346 28.14  20.3577142857143 30.33  18.5146428571429 30.36  C 17.3060714285714 30.36  16.309 31.35  16.3392142857143 32.58  C 16.3392142857143 33.78  17.3362857142857 34.77  18.5750714285714 34.74  L 18.6355 34.74  C 22.4727142857143 34.65  28.2738571428571 30.81  29.3917857142857 30.03  C 29.4824285714286 29.97  29.5730714285714 29.91  29.6637142857143 29.82  C 30.3586428571429 29.16  30.9327142857143 28.35  31.3557142857143 27.48  C 31.6578571428571 27.66  31.9902142857143 27.84  32.3225714285714 27.96  C 32.9570714285714 28.2  38.728 30.09  42.7162857142857 27.57  C 44.0457142857143 26.73  45.7377142857143 25.02  46.0700714285714 21.75  C 46.0700714285714 21.3  46.4326428571429 17.22  43.9248571428571 14.25  Z M 40.5408571428571 17.1  C 41.6587857142857 18.36  41.7192142857143 20.55  41.6285714285714 21.3  C 41.4472857142857 22.98  40.7825714285714 23.58  40.3293571428571 23.88  C 38.5165 25.02  35.0116428571429 24.24  33.8332857142857 23.85  C 33.4405 23.67  33.0779285714286 23.34  32.7455714285714 22.95  C 32.9570714285714 21.69  33.0175 20.67  33.0477142857143 20.25  C 33.652 16.11  37.0964285714286 15.9  37.7007142857143 15.9  C 38.9999285714286 15.96  39.9063571428571 16.35  40.5408571428571 17.1  Z " fill-rule="nonzero" fill="#ffffff" stroke="none" transform="matrix(1 0 0 1 14 12 )" />
  </g>
</svg>