<?xml version="1.0" encoding="utf-8"?>
<svg version="1.1" xmlns:xlink="http://www.w3.org/1999/xlink" width="11px" height="11px" xmlns="http://www.w3.org/2000/svg">
  <g transform="matrix(1 0 0 1 -42 -8 )">
    <path d="M 10.0375 7.3115625  C 10.346875 7.8684375  9.91375 8.58  9.26406250000001 8.4871875  L 7.0675 8.2396875  C 6.82 8.20875  6.57250000000001 8.3015625  6.386875 8.4871875  L 4.93281250000001 10.1578125  C 4.49968750000001 10.6528125  3.72625000000001 10.43625  3.57156250000001 9.8175  L 3.13843750000001 7.651875  C 3.07656250000001 7.404375  2.921875 7.1878125  2.67437500000001 7.095  L 0.632500000000006 6.22875  C 0.0446875000000082 5.98125  -0.0171874999999893 5.1459375  0.539687500000007 4.8365625  L 2.45781250000001 3.75375  C 2.67437500000001 3.63  2.82906250000001 3.4134375  2.86000000000001 3.135  L 3.045625 0.938437500000001  C 3.10750000000001 0.288750000000001  3.88093750000001 0.0103125000000004  4.34500000000001 0.443437500000002  L 5.98468750000001 1.9284375  C 6.17031250000001 2.1140625  6.44875000000001 2.1759375  6.69625000000002 2.1140625  L 8.86187500000002 1.6190625  C 9.48062500000001 1.464375  10.0065625 2.1140625  9.75906250000001 2.701875  L 8.83093750000002 4.7128125  C 8.73812500000001 4.929375  8.73812500000001 5.2078125  8.89281250000001 5.424375  L 10.0375 7.3115625  Z " fill-rule="nonzero" fill="#efacda" stroke="none" transform="matrix(1 0 0 1 42 8 )" />
  </g>
</svg>