<?xml version="1.0" encoding="utf-8"?>
<svg version="1.1" xmlns:xlink="http://www.w3.org/1999/xlink" width="373px" height="476px" xmlns="http://www.w3.org/2000/svg">
  <defs>
    <mask fill="white" id="clip767">
      <path d="M 0 457.657032755299  L 0 18.3429672447013  C 0 8.07090558766859  8.8 0  20 0  L 353 0  C 364.2 0  373 8.07090558766859  373 18.3429672447013  L 373 457.657032755299  C 373 467.929094412331  364.2 476  353 476  L 20 476  C 8.8 476  0 467.929094412331  0 457.657032755299  Z " fill-rule="evenodd" />
    </mask>
  </defs>
  <g transform="matrix(1 0 0 1 -406 -420 )">
    <path d="M 0 457.657032755299  L 0 18.3429672447013  C 0 8.07090558766859  8.8 0  20 0  L 353 0  C 364.2 0  373 8.07090558766859  373 18.3429672447013  L 373 457.657032755299  C 373 467.929094412331  364.2 476  353 476  L 20 476  C 8.8 476  0 467.929094412331  0 457.657032755299  Z " fill-rule="nonzero" fill="#fdfdfd" stroke="none" transform="matrix(1 0 0 1 406 420 )" />
    <path d="M 0 457.657032755299  L 0 18.3429672447013  C 0 8.07090558766859  8.8 0  20 0  L 353 0  C 364.2 0  373 8.07090558766859  373 18.3429672447013  L 373 457.657032755299  C 373 467.929094412331  364.2 476  353 476  L 20 476  C 8.8 476  0 467.929094412331  0 457.657032755299  Z " stroke-width="2" stroke="#ffebeb" fill="none" transform="matrix(1 0 0 1 406 420 )" mask="url(#clip767)" />
  </g>
</svg>