<?xml version="1.0" encoding="utf-8"?>
<svg version="1.1" xmlns:xlink="http://www.w3.org/1999/xlink" width="8px" height="8px" xmlns="http://www.w3.org/2000/svg">
  <g transform="matrix(1 0 0 1 -443 -327 )">
    <path d="M 7.12 5.42133333333334  C 7.30666666666667 5.75733333333334  7.04533333333334 6.18666666666667  6.65333333333334 6.13066666666667  L 5.328 5.98133333333334  C 5.17866666666667 5.96266666666667  5.02933333333334 6.01866666666667  4.91733333333334 6.13066666666667  L 4.04 7.13866666666667  C 3.77866666666667 7.43733333333333  3.312 7.30666666666667  3.21866666666667 6.93333333333334  L 2.95733333333333 5.62666666666667  C 2.92 5.47733333333333  2.82666666666667 5.34666666666667  2.67733333333333 5.29066666666667  L 1.44533333333334 4.76800000000001  C 1.09066666666667 4.61866666666667  1.05333333333333 4.11466666666667  1.38933333333334 3.928  L 2.54666666666667 3.27466666666667  C 2.67733333333334 3.2  2.77066666666667 3.06933333333334  2.78933333333333 2.90133333333334  L 2.90133333333333 1.576  C 2.93866666666667 1.184  3.40533333333333 1.016  3.68533333333333 1.27733333333334  L 4.67466666666667 2.17333333333334  C 4.78666666666667 2.28533333333334  4.95466666666667 2.32266666666667  5.104 2.28533333333334  L 6.41066666666667 1.98666666666667  C 6.784 1.89333333333334  7.10133333333333 2.28533333333334  6.952 2.64000000000001  L 6.392 3.85333333333334  C 6.336 3.984  6.336 4.15200000000001  6.42933333333334 4.28266666666667  L 7.12 5.42133333333334  Z " fill-rule="nonzero" fill="#ffffff" stroke="none" fill-opacity="0.996078431372549" transform="matrix(1 0 0 1 443 327 )" />
  </g>
</svg>