<?xml version="1.0" encoding="utf-8"?>
<svg version="1.1" xmlns:xlink="http://www.w3.org/1999/xlink" width="36px" height="36px" xmlns="http://www.w3.org/2000/svg">
  <g transform="matrix(1 0 0 1 -426 -310 )">
    <path d="M 34.9615384615385 12.141  C 34.9615384615385 5.904  30.6775384615385 0.822  25.4049230769231 0.822  C 22.4778461538462 0.822  19.764 2.418  17.9612307692308 5.043  C 16.1778461538462 2.418  13.4446153846154 0.821999999999999  10.5175384615385 0.821999999999999  C 5.24492307692307 0.821999999999999  0.960923076923075 5.904  0.960923076923075 12.141  C 0.960923076923075 15.858  2.49230769230769 18.483  3.73292307692308 20.583  C 7.31907692307692 26.694  16.3523076923077 34.275  16.74 34.59  C 17.1083076923077 34.905  17.5347692307692 35.052  17.9612307692308 35.052  C 18.3876923076923 35.052  18.8141538461538 34.905  19.1824615384615 34.59  C 19.5701538461538 34.275  28.584 26.673  32.1895384615385 20.583  C 33.4301538461539 18.483  34.9615384615385 15.858  34.9615384615385 12.141  Z M 29.7276923076923 20.52  C 26.4129230769231 25.56  19.3956923076923 31.314  19.0467692307692 31.587  C 18.7172307692308 31.86  18.3295384615385 32.007  17.9612307692308 32.007  C 17.5735384615385 32.007  17.2052307692308 31.881  16.8756923076923 31.587  C 16.5267692307692 31.314  9.64523076923077 25.497  6.19476923076923 20.31  C 5.08984615384616 18.42  3.32584615384616 16.068  3.32584615384616 12.75  C 3.32584615384616 7.164  6.19476923076923 3.237  10.9052307692308 3.237  C 13.5221538461539 3.237  16.3716923076923 5.946  17.9612307692308 8.298  C 19.5701538461539 5.946  22.4003076923077 3.237  25.0172307692308 3.237  C 29.7470769230769 3.237  32.8098461538462 7.164  32.8098461538462 12.75  C 32.8098461538462 16.068  30.852 18.651  29.7276923076923 20.52  Z " fill-rule="nonzero" fill="#4d4b4b" stroke="none" transform="matrix(1 0 0 1 426 310 )" />
  </g>
</svg>