<?xml version="1.0" encoding="utf-8"?>
<svg version="1.1" xmlns:xlink="http://www.w3.org/1999/xlink" width="22px" height="20px" xmlns="http://www.w3.org/2000/svg">
  <defs>
    <linearGradient gradientUnits="userSpaceOnUse" x1="16.4220532319392" y1="7.8174904942966" x2="11" y2="19.8" id="LinearGradient769">
      <stop id="Stop770" stop-color="#d16ba5" stop-opacity="0.745098039215686" offset="0" />
      <stop id="Stop771" stop-color="#5c38ad" stop-opacity="0.513725490196078" offset="1" />
    </linearGradient>
  </defs>
  <g transform="matrix(1 0 0 1 -435 -322 )">
    <path d="M 18.97225 11.6942857142857  C 16.7585 14.9342857142857  12.0615 18.6142857142857  11.8305 18.7942857142857  C 11.61875 18.9742857142857  11.34925 19.0542857142857  11.099 19.0542857142857  C 10.84875 19.0542857142857  10.5985 18.9742857142857  10.3675 18.7942857142857  C 10.1365 18.6142857142857  5.53575 14.8942857142857  3.22575 11.5542857142857  C 2.49425 10.3342857142857  1.30075 8.83428571428572  1.30075 6.71428571428571  C 1.30075 3.13428571428572  3.22575 0.614285714285714  6.3635 0.614285714285714  C 8.11525 0.614285714285714  10.021 2.35428571428571  11.07975 3.85428571428572  C 12.15775 2.35428571428571  14.04425 0.614285714285714  15.796 0.614285714285714  C 18.953 0.614285714285714  21.01275 3.13428571428571  21.01275 6.71428571428571  C 21.032 8.83428571428572  19.723 10.4942857142857  18.97225 11.6942857142857  Z " fill-rule="nonzero" fill="url(#LinearGradient769)" stroke="none" transform="matrix(1 0 0 1 435 322 )" />
  </g>
</svg>