<?xml version="1.0" encoding="utf-8"?>
<svg version="1.1" xmlns:xlink="http://www.w3.org/1999/xlink" width="25px" height="19px" xmlns="http://www.w3.org/2000/svg">
  <g transform="matrix(1 0 0 1 -420 -594 )">
    <path d="M 22.0903225806452 15.8558823529412  L 2.37419354838707 17.9735294117647  C 1.9870967741936 18.0132352941176  1.65161290322578 17.7352941176471  1.61290322580646 17.3382352941176  L 1.16129032258068 13.0367647058824  C 1.12258064516136 12.6397058823529  1.39354838709676 12.2823529411764  1.78064516129034 12.2558823529412  C 2.92903225806447 12.1367647058823  3.76774193548383 11.064705882353  3.65161290322581 9.88676470588234  C 3.53548387096775 8.70882352941175  2.49032258064513 7.84852941176473  1.341935483871 7.96764705882356  C 0.954838709677424 8.00735294117646  0.606451612903165 7.7294117647059  0.580645161290286 7.33235294117645  L 0.129032258064617 3.04411764705884  C 0.0903225806451883 2.64705882352945  0.361290322580589 2.28970588235291  0.748387096774168 2.26323529411764  L 21.6645161290323 0.013235294117635  C 22.0516129032258 -0.02647058823527  22.4 0.25147058823535  22.425806451613 0.648529411764741  L 22.8645161290322 5.00294117647053  C 22.9032258064515 5.36029411764707  22.6451612903226 5.67794117647065  22.2967741935484 5.73088235294119  C 21.1612903225807 5.85000000000002  20.2967741935484 6.84264705882356  20.3483870967742 7.99411764705883  C 20.4258064516129 9.23823529411766  21.483870967742 10.1514705882353  22.6709677419355 10.0191176470588  C 23.058064516129 9.9794117647059  23.4064516129033 10.2573529411765  23.4322580645162 10.6544117647058  L 23.8709677419354 14.9426470588235  C 23.9096774193548 15.339705882353  23.6387096774194 15.6970588235293  23.2387096774194 15.7367647058824  L 22.0903225806452 15.8558823529412  Z M 2.86451612903216 15.7632352941176  C 2.89032258064515 16.1470588235294  3.23870967741936 16.4382352941176  3.62580645161293 16.3852941176471  L 21.7419354838709 14.4397058823529  C 22.1290322580646 14.4  22.4 14.0426470588235  22.3612903225807 13.6588235294117  L 22.1806451612903 11.9779411764706  C 22.1548387096775 11.6735294117647  21.9354838709677 11.4220588235295  21.6387096774194 11.3426470588236  C 20.2451612903226 10.9985294117647  19.1354838709678 9.76764705882357  18.9935483870967 8.21911764705879  C 18.8258064516129 6.67058823529408  19.6645161290323 5.2411764705883  20.9677419354839 4.59264705882356  C 21.2387096774194 4.46029411764709  21.3935483870968 4.16911764705884  21.3677419354839 3.86470588235289  L 21.1870967741936 2.18382352941182  C 21.1483870967743 1.78676470588238  20.8 1.5088235294117  20.4258064516129 1.54852941176472  L 2.29677419354837 3.5205882352941  C 1.90967741935485 3.560294117647  1.63870967741934 3.91764705882355  1.67741935483877 4.30147058823525  L 1.85806451612898 5.98235294117643  C 1.88387096774186 6.28676470588238  2.10322580645166 6.53823529411761  2.40000000000005 6.6044117647059  C 3.79354838709682 6.94852941176475  4.90322580645152 8.17941176470589  5.05806451612902 9.72794117647055  C 5.22580645161284 11.2764705882353  4.38709677419354 12.7191176470588  3.08387096774197 13.3544117647059  C 2.8129032258064 13.4867647058824  2.65806451612907 13.7647058823529  2.68387096774195 14.0691176470588  L 2.86451612903216 15.7632352941176  Z " fill-rule="nonzero" fill="#4d4b4b" stroke="none" transform="matrix(1 0 0 1 420 594 )" />
  </g>
</svg>