<?xml version="1.0" encoding="utf-8"?>
<svg version="1.1" xmlns:xlink="http://www.w3.org/1999/xlink" width="20px" height="14px" xmlns="http://www.w3.org/2000/svg">
  <defs>
    <linearGradient gradientUnits="userSpaceOnUse" x1="14.7303370786517" y1="0" x2="10" y2="13.86" id="LinearGradient778">
      <stop id="Stop779" stop-color="#d16ba5" stop-opacity="0.745098039215686" offset="0" />
      <stop id="Stop780" stop-color="#5c38ad" stop-opacity="0.513725490196078" offset="1" />
    </linearGradient>
  </defs>
  <g transform="matrix(1 0 0 1 -424 -597 )">
    <path d="M 1.14666666666667 13.3066666666667  C 1.19999999999999 13.68  1.53333333333335 13.96  1.89333333333333 13.9066666666666  L 19.3733333333333 12.08  C 19.7333333333334 12.04  20.0133333333333 11.72  19.9866666666667 11.3333333333334  L 19.8133333333334 9.77333333333331  C 19.7866666666666 9.48000000000008  19.5733333333333 9.25333333333333  19.28 9.18666666666661  C 17.92 8.8533333333333  16.88 7.70666666666676  16.72 6.26666666666671  C 16.5733333333334 4.79999999999995  17.3733333333334 3.48000000000002  18.6266666666668 2.88  C 18.88 2.75999999999999  19.04 2.48000000000008  19.0133333333333 2.20000000000005  L 18.8399999999999 0.613333333333287  C 18.8 0.253333333333273  18.4800000000001 -0.0266666666666424  18.0933333333333 0.0266666666666424  L 0.626666666666736 1.86666666666667  C 0.266666666666641 1.90666666666669  -0.0133333333332887 2.22666666666669  0.0133333333332887 2.61333333333334  L 0.186666666666638 4.17333333333329  C 0.213333333333378 4.4666666666667  0.426666666666701 4.69333333333338  0.706666666666576 4.74666666666667  C 2.06666666666668 5.06666666666666  3.10666666666667 6.22666666666669  3.26666666666667 7.66666666666674  C 3.41333333333334 9.13333333333333  2.61333333333331 10.4666666666666  1.35999999999994 11.0533333333334  C 1.10666666666665 11.1733333333333  0.946666666666639 11.4399999999999  0.973333333333325 11.72  L 1.14666666666667 13.3066666666667  Z " fill-rule="nonzero" fill="url(#LinearGradient778)" stroke="none" transform="matrix(1 0 0 1 424 597 )" />
  </g>
</svg>