<?xml version="1.0" encoding="utf-8"?>
<svg version="1.1" xmlns:xlink="http://www.w3.org/1999/xlink" width="15px" height="14px" xmlns="http://www.w3.org/2000/svg">
  <defs>
    <linearGradient gradientUnits="userSpaceOnUse" x1="9.88764044943817" y1="3.38202247191002" x2="7.5" y2="13.86" id="LinearGradient775">
      <stop id="Stop776" stop-color="#d16ba5" stop-opacity="0.745098039215686" offset="0" />
      <stop id="Stop777" stop-color="#5c38ad" stop-opacity="0.513725490196078" offset="1" />
    </linearGradient>
  </defs>
  <g transform="matrix(1 0 0 1 -428 -718 )">
    <path d="M 7.03058823529412 10.20775  C 8.10529411764706 9.84025  9.10588235294118 9.25225  9.93352941176471 8.46825  L 10.2917647058824 8.1375  L 12.2682352941176 9.24  C 12.5894117647059 9.42375  13.0094117647059 9.30125  13.1823529411765 8.98275  L 14.5041176470588 6.63075  C 14.6894117647059 6.30000000000001  14.5658823529412 5.89575  14.2447058823529 5.71200000000001  L 12.2558823529412 4.59725  L 12.3547058823529 4.1195  C 12.4782352941176 3.49475  12.5276470588235 2.87  12.5029411764706 2.24525  C 11.1811764705882 0.983500000000004  9.37764705882353 0.199500000000003  7.38882352941177 0.199500000000003  C 3.31235294117647 0.199500000000003  0.0141176470588235 3.47025  0.0141176470588235 7.51275  C 0.0141176470588235 8.19875  0.112941176470588 8.87250000000001  0.298235294117646 9.49725  C 0.841764705882353 9.828  1.43470588235294 10.08525  2.05235294117647 10.269  L 2.52176470588235 10.416  L 2.55882352941176 12.6945  C 2.55882352941176 13.062  2.86764705882353 13.36825  3.23823529411765 13.356  L 5.93117647058824 13.31925  C 6.30176470588235 13.31925  6.59823529411765 13.013  6.59823529411765 12.63325  L 6.56117647058823 10.367  L 7.03058823529412 10.20775  Z " fill-rule="nonzero" fill="url(#LinearGradient775)" stroke="none" transform="matrix(1 0 0 1 428 718 )" />
  </g>
</svg>