<?xml version="1.0" encoding="utf-8"?>
<svg version="1.1" xmlns:xlink="http://www.w3.org/1999/xlink" width="9px" height="9px" xmlns="http://www.w3.org/2000/svg">
  <g transform="matrix(1 0 0 1 -536 -325 )">
    <path d="M 8.2134 6.00570000000001  C 8.45640000000001 6.4431  8.1162 7.002  7.60590000000001 6.9291  L 5.88060000000001 6.7347  C 5.6862 6.71040000000001  5.49180000000001 6.7833  5.346 6.9291  L 4.20390000000001 8.2413  C 3.8637 8.6301  3.2562 8.46000000000001  3.1347 7.97400000000001  L 2.7945 6.27300000000001  C 2.7459 6.0786  2.6244 5.9085  2.43 5.8356  L 0.826200000000003 5.15520000000001  C 0.364500000000001 4.96080000000001  0.315900000000006 4.30470000000001  0.753300000000003 4.06170000000001  L 2.25990000000001 3.21120000000001  C 2.43000000000001 3.114  2.5515 2.94390000000001  2.57580000000001 2.72520000000001  L 2.7216 0.999900000000007  C 2.7702 0.48960000000001  3.3777 0.270900000000008  3.7422 0.611100000000008  L 5.03010000000001 1.77750000000001  C 5.1759 1.92330000000001  5.3946 1.97190000000001  5.589 1.92330000000001  L 7.29 1.53450000000001  C 7.776 1.41300000000001  8.1891 1.92330000000001  7.9947 2.38500000000001  L 7.2657 3.96450000000001  C 7.1928 4.13460000000001  7.1928 4.35330000000001  7.3143 4.52340000000001  L 8.2134 6.00570000000001  Z " fill-rule="nonzero" fill="#ffffff" stroke="none" fill-opacity="0.980392156862745" transform="matrix(1 0 0 1 536 325 )" />
  </g>
</svg>