<?xml version="1.0" encoding="utf-8"?>
<svg version="1.1" xmlns:xlink="http://www.w3.org/1999/xlink" width="24px" height="26px" xmlns="http://www.w3.org/2000/svg">
  <g transform="matrix(1 0 0 1 -420 -707 )">
    <path d="M 22.1446153846154 5.27799999999999  C 21.5243076923077 4.29  20.232 3.952  19.2369230769231 4.55  L 18.0738461538462 5.252  C 17.2596923076923 4.602  16.3421538461538 4.095  15.3729230769231 3.744  L 15.36 2.379  C 15.3470769230769 1.209  14.3907692307692 0.273  13.2276923076923 0.286  L 10.4233846153846 0.325  C 9.26030769230769 0.338  8.32984615384616 1.3  8.35569230769231 2.47  L 8.36861538461538 3.822  C 7.39938461538461 4.212  6.50769230769231 4.745  5.70646153846154 5.421  L 4.53046153846154 4.758  C 3.52246153846154 4.186  2.23015384615385 4.55  1.66153846153846 5.577  L 0.304615384615385 8.034  C -0.264 9.061  0.0978461538461539 10.348  1.10584615384615 10.92  L 2.29476923076923 11.583  C 2.13969230769231 12.61  2.15261538461538 13.663  2.33353846153846 14.69  L 1.17046153846154 15.392  C 0.175384615384616 15.99  -0.147692307692308 17.277  0.446769230769231 18.291  L 1.88123076923077 20.709  C 2.47569230769231 21.71  3.768 22.035  4.76307692307692 21.45  L 5.92615384615385 20.748  C 6.74030769230769 21.398  7.65784615384616 21.905  8.62707692307693 22.256  L 8.64 23.621  C 8.65292307692308 24.791  9.60923076923077 25.727  10.7723076923077 25.714  L 13.5766153846154 25.675  C 13.9384615384615 25.675  14.3003076923077 25.571  14.6233846153846 25.376  C 14.7784615384615 25.285  14.9335384615385 25.168  15.0627692307692 25.025  C 15.4504615384615 24.622  15.6701538461538 24.076  15.6572307692308 23.517  L 15.6443076923077 22.165  C 16.6135384615385 21.775  17.5052307692308 21.242  18.3064615384615 20.566  L 19.4824615384615 21.229  C 20.4904615384615 21.801  21.7827692307692 21.437  22.3513846153846 20.41  L 23.7212307692308 17.953  C 24.2898461538462 16.926  23.928 15.639  22.9070769230769 15.067  L 21.7181538461539 14.404  C 21.8732307692308 13.377  21.8603076923077 12.324  21.6793846153846 11.297  L 22.8424615384615 10.595  C 23.8375384615385 9.99699999999999  24.1606153846154 8.69699999999999  23.5790769230769 7.69599999999999  L 22.1446153846154 5.27799999999999  Z M 20.904 6.032  L 22.3513846153846 8.437  C 22.5452307692308 8.775  22.4418461538462 9.204  22.1058461538462 9.399  L 20.0769230769231 10.608  L 20.1932307692308 11.102  C 20.4516923076923 12.259  20.4646153846154 13.468  20.232 14.638  L 20.1286153846154 15.145  L 22.1963076923077 16.302  C 22.5323076923077 16.497  22.6615384615385 16.926  22.4676923076923 17.264  L 21.0978461538462 19.721  C 20.904 20.059  20.4775384615385 20.176  20.1415384615385 19.994  L 18.0867692307692 18.837  L 17.712 19.188  C 16.8461538461539 20.007  15.8123076923077 20.618  14.688 20.995  L 14.2098461538462 21.164  L 14.2486153846154 23.53  C 14.2486153846154 23.92  13.9384615384615 24.245  13.5636923076923 24.245  L 10.7593846153846 24.284  C 10.3716923076923 24.284  10.0486153846154 23.972  10.0486153846154 23.582  L 10.0227692307692 21.203  L 9.53169230769231 21.047  C 8.39446153846154 20.696  7.34769230769231 20.111  6.456 19.331  L 6.06830769230769 18.993  L 4.03938461538461 20.202  C 3.70338461538461 20.397  3.27692307692307 20.293  3.08307692307692 19.955  L 1.64861538461538 17.537  C 1.45476923076923 17.199  1.55815384615384 16.77  1.89415384615384 16.575  L 3.92307692307692 15.366  L 3.80676923076923 14.872  C 3.54830769230769 13.715  3.53538461538461 12.506  3.768 11.336  L 3.87138461538461 10.829  L 1.8036923076923 9.672  C 1.4676923076923 9.477  1.33846153846153 9.048  1.53230769230769 8.71  L 2.90215384615384 6.253  C 3.096 5.915  3.52246153846153 5.798  3.85846153846153 5.98  L 5.90030769230769 7.15  L 6.27507692307692 6.799  C 7.14092307692307 5.98  8.17476923076923 5.369  9.29907692307692 4.992  L 9.77723076923077 4.823  L 9.73846153846154 2.457  C 9.73846153846154 2.067  10.0486153846154 1.755  10.4233846153846 1.742  L 13.2276923076923 1.703  C 13.6153846153846 1.703  13.9384615384615 2.015  13.9384615384615 2.405  L 13.9643076923077 4.784  L 14.4553846153846 4.94  C 15.5926153846154 5.291  16.6393846153846 5.876  17.5310769230769 6.656  L 17.9187692307692 6.994  L 19.9476923076923 5.785  C 20.2836923076923 5.59  20.7101538461538 5.694  20.904 6.032  Z " fill-rule="nonzero" fill="#4d4b4b" stroke="none" transform="matrix(1 0 0 1 420 707 )" />
  </g>
</svg>