<?xml version="1.0" encoding="utf-8"?>
<svg version="1.1" xmlns:xlink="http://www.w3.org/1999/xlink" width="10px" height="10px" xmlns="http://www.w3.org/2000/svg">
  <g transform="matrix(1 0 0 1 -428 -716 )">
    <path d="M 8.612 7.758  C 9.2 7.842  9.578 7.226  9.312 6.736  L 8.304 5.084  C 8.164 4.888  8.164 4.65  8.248 4.454  L 9.06 2.69  C 9.284 2.172  8.822 1.598  8.276 1.738  L 6.372 2.172  C 6.148 2.228  5.91 2.172  5.742 2.004  L 4.3 0.702000000000002  C 3.894 0.324000000000002  3.208 0.562000000000003  3.152 1.136  L 2.984 3.068  C 2.956 3.306  2.816 3.502  2.634 3.614  L 0.954000000000002 4.566  C 0.464000000000002 4.832  0.520000000000003 5.574  1.038 5.784  L 2.83 6.54  C 3.054 6.624  3.18 6.806  3.236 7.03  L 3.614 8.934  C 3.754 9.48  4.426 9.662  4.804 9.22800000000001  L 6.078 7.758  C 6.246 7.59  6.456 7.52  6.68 7.53400000000001  L 8.612 7.758  Z M 8.276 6.344  C 8.472 6.694  8.192 7.156  7.758 7.1  L 6.302 6.932  C 6.134 6.918  5.966 6.974  5.854 7.1  L 4.888 8.206  C 4.594 8.542  4.09 8.388  3.978 7.982  L 3.67 6.54  C 3.628 6.372  3.53 6.232  3.362 6.176  L 2.004 5.602  C 1.612 5.434  1.57 4.888  1.948 4.678  L 3.222 3.964  C 3.362 3.88  3.474 3.74000000000001  3.488 3.558  L 3.614 2.102  C 3.656 1.668  4.174 1.486  4.482 1.766  L 5.574 2.76  C 5.7 2.886  5.882 2.928  6.05 2.886  L 7.492 2.55  C 7.898 2.452  8.248 2.886  8.094 3.264  L 7.478 4.608  C 7.422 4.748  7.422 4.944  7.52 5.084  L 8.276 6.344  Z " fill-rule="nonzero" fill="#4d4b4b" stroke="none" transform="matrix(1 0 0 1 428 716 )" />
  </g>
</svg>