<?xml version="1.0" encoding="utf-8"?>
<svg version="1.1" xmlns:xlink="http://www.w3.org/1999/xlink" width="8px" height="8px" xmlns="http://www.w3.org/2000/svg">
  <g transform="matrix(1 0 0 1 -430 -600 )">
    <path d="M 7.82666666666671 5.49508196721308  C 8.03999999999996 5.90163934426232  7.70666666666665 6.45245901639345  7.19999999999993 6.38688524590157  L 5.4933333333334 6.20327868852451  C 5.30666666666667 6.17704918032786  5.10666666666668 6.25573770491815  4.96000000000004 6.38688524590157  L 3.82666666666671 7.67213114754099  C 3.4933333333334 8.05245901639341  2.88 7.88196721311476  2.75999999999999 7.40983606557376  L 2.42666666666668 5.74426229508185  C 2.37333333333328 5.56065573770491  2.25333333333333 5.3901639344262  2.06666666666672 5.31147540983613  L 0.479999999999961 4.6426229508196  C 0.0266666666666424 4.45901639344265  -0.0266666666666424 3.81639344262294  0.413333333333355 3.58032786885246  L 1.89333333333332 2.75409836065569  C 2.06666666666672 2.66229508196716  2.18666666666672 2.49180327868856  2.21333333333337 2.28196721311474  L 2.35999999999996 0.603278688524597  C 2.41333333333336 0.104918032786884  3.01333333333332 -0.104918032786884  3.37333333333328 0.222950819672121  L 4.65333333333336 1.36393442622949  C 4.80000000000007 1.50819672131144  5.01333333333332 1.54754098360655  5.21333333333337 1.50819672131144  L 6.90666666666664 1.12786885245907  C 7.38666666666671 1.00983606557372  7.80000000000007 1.50819672131144  7.59999999999997 1.95409836065573  L 6.88 3.50163934426229  C 6.81333333333328 3.67213114754099  6.81333333333328 3.88196721311476  6.93333333333328 4.05245901639341  L 7.82666666666671 5.49508196721308  Z " fill-rule="nonzero" fill="#efacda" stroke="none" transform="matrix(1 0 0 1 430 600 )" />
  </g>
</svg>