<?xml version="1.0" encoding="utf-8"?>
<svg version="1.1" xmlns:xlink="http://www.w3.org/1999/xlink" width="36px" height="33px" xmlns="http://www.w3.org/2000/svg">
  <g transform="matrix(1 0 0 1 -518 -313 )">
    <path d="M 10.5885 31.7067567567568  C 10.1997 31.9957297297297  9.738 32.1402162162162  9.252 32.1402162162162  C 8.8875 32.1402162162162  8.523 32.0438918918919  8.2071 31.8753243243243  C 7.4781 31.465945945946  7.065 30.6712702702703  7.1865 29.8525135135135  C 7.2351 29.4912972972973  7.2837 29.106  7.3323 28.7447837837838  C 7.5024 27.4925675675676  7.6725 26.2162702702703  7.794 25.2048648648649  C 3.4686 22.4837027027027  0.892800000000001 18.2213513513514  0.892800000000001 13.7181891891892  C 0.892800000000001 5.91591891891893  8.4015 0.040135135135143  18.3402 0.040135135135143  C 28.3275 0.040135135135143  35.8605 5.91591891891893  35.8605 13.7181891891892  C 35.8605 21.664945945946  28.0116 28.1427567567568  18.3888 28.1427567567568  C 17.3196 28.1427567567568  16.2504 28.0705135135135  15.2055 27.901945945946  C 13.7718 29.1300810810811  11.9007 30.6712702702703  10.5885 31.7067567567568  Z M 33.8922 13.6941081081081  C 33.9165 6.97548648648649  27.2097 1.91845945945946  18.3402 1.91845945945946  C 9.495 1.91845945945946  2.8368 6.97548648648649  2.8368 13.670027027027  C 2.8368 17.5952432432432  5.1939 21.3518918918919  9.1062 23.7118378378378  C 9.5679 23.9767297297297  9.8109 24.4824324324324  9.7623 24.9881351351351  C 9.6651 26.0958648648649  9.4464 27.5648108108108  9.252 28.9855945945946  C 9.2034 29.3708918918919  9.1548 29.7321081081081  9.1062 30.0933243243243  C 9.1062 30.1174054054054  9.1062 30.1414864864865  9.1548 30.1896486486487  C 9.20340000000001 30.2137297297297  9.27630000000001 30.2378108108108  9.34920000000001 30.1655675675676  C 10.71 29.0819189189189  12.6783 27.4925675675676  14.0877 26.2403513513514  C 14.4036 25.9754594594595  14.8167 25.8550540540541  15.2298 25.9272972972973  C 16.2504 26.0958648648649  17.2953 26.1921891891892  18.3645 26.1921891891892  C 26.9424 26.1921891891892  33.8922 20.5812972972973  33.8922 13.6941081081081  Z " fill-rule="nonzero" fill="#4d4b4b" stroke="none" transform="matrix(1 0 0 1 518 313 )" />
  </g>
</svg>