<?xml version="1.0" encoding="utf-8"?>
<svg version="1.1" xmlns:xlink="http://www.w3.org/1999/xlink" width="25px" height="30px" xmlns="http://www.w3.org/2000/svg">
  <g transform="matrix(1 0 0 1 -421 -531 )">
    <path d="M 12.3777173913043 29.804347826087  L 12.2472826086957 29.8369565217391  L 12.133152173913 29.804347826087  C 4.48641304347826 27.2445652173913  1.91032608695652 21.6684782608696  1.0625 18.5869565217391  C 0.78532608695652 17.5597826086957  0.638586956521738 16.4836956521739  0.638586956521738 15.4239130434783  L 0.638586956521738 6.2445652173913  L 1.11141304347826 6.22826086956522  C 9.67119565217391 5.95108695652174  12.1005434782609 0.929347826086957  12.116847826087 0.880434782608696  L 12.5244565217391 0  L 12.9972826086957 0.831521739130435  C 16.1114130434783 6.39130434782609  23.9211956521739 6.27717391304348  24.0027173913043 6.27717391304348  L 24.508152173913 6.26086956521739  L 24.508152173913 15.6847826086957  C 24.508152173913 16.2880434782609  24.4266304347826 16.8913043478261  24.2635869565217 17.4782608695652  C 22.5842391304348 23.1521739130435  19.4701086956522 26.2010869565217  17.1385869565217 27.75  C 14.5951086956522 29.445652173913  12.4592391304348 29.7880434782609  12.3777173913043 29.804347826087  Z M 12.5733695652174 2.0054347826087  C 11.5461956521739 3.52173913043478  8.51358695652174 6.81521739130435  1.61684782608696 7.17391304347826  L 1.61684782608696 15.4076086956522  C 1.61684782608696 16.3858695652174  1.74728260869565 17.3804347826087  2.00815217391304 18.3260869565217  C 2.8070652173913 21.2119565217391  5.22010869565217 26.4130434782609  12.3288043478261 28.8423913043478  C 12.7853260869565 28.7445652173913  14.5788043478261 28.320652173913  16.616847826087 26.9347826086957  C 18.8016304347826 25.4673913043478  21.7201086956522 22.5815217391304  23.3179347826087 17.2173913043478  C 23.4646739130435 16.7282608695652  23.5298913043478 16.2065217391304  23.5298913043478 15.7010869565217  L 23.5298913043478 7.23913043478261  C 21.7364130434783 7.19021739130435  15.7038043478261 6.63586956521739  12.5733695652174 2.0054347826087  Z " fill-rule="nonzero" fill="#4d4b4b" stroke="none" transform="matrix(1 0 0 1 421 531 )" />
  </g>
</svg>