<?xml version="1.0" encoding="utf-8"?>
<svg version="1.1" xmlns:xlink="http://www.w3.org/1999/xlink" width="23px" height="29px" xmlns="http://www.w3.org/2000/svg">
  <defs>
    <linearGradient gradientUnits="userSpaceOnUse" x1="11.5" y1="0" x2="11.5" y2="28.71" id="LinearGradient781">
      <stop id="Stop782" stop-color="#d16ba5" stop-opacity="0.745098039215686" offset="0" />
      <stop id="Stop783" stop-color="#5c38ad" stop-opacity="0.513725490196078" offset="1" />
    </linearGradient>
  </defs>
  <g transform="matrix(1 0 0 1 -422 -532 )">
    <path d="M 22.9211956521739 6.04347826086957  C 22.9211956521739 6.04347826086957  14.866847826087 6.22282608695652  11.6059782608696 0.385869565217391  C 11.6059782608696 0.385869565217391  9.16032608695652 5.70108695652174  0.290760869565215 5.9945652173913  L 0.290760869565215 14.6521739130435  C 0.290760869565215 15.679347826087  0.42119565217391 16.6902173913043  0.682065217391302 17.6847826086957  C 1.49728260869565 20.6684782608696  3.97554347826087 26.0326086956522  11.3288043478261 28.5108695652174  C 11.3288043478261 28.5108695652174  19.5788043478261 27.2391304347826  22.6929347826087 16.5923913043478  C 22.8396739130435 16.054347826087  22.9211956521739 15.5  22.9211956521739 14.945652173913  L 22.9211956521739 6.04347826086957  Z M 20.4429347826087 14.8152173913043  C 20.4429347826087 15.2391304347826  20.3777173913043 15.6630434782609  20.2635869565217 16.0869565217391  C 17.8342391304348 24.3858695652174  11.3940217391304 25.3804347826087  11.3940217391304 25.3804347826087  C 5.67119565217391 23.4565217391304  3.73097826086956 19.2663043478261  3.09510869565217 16.9510869565217  C 2.88315217391304 16.1847826086957  2.78532608695652 15.3858695652174  2.78532608695652 14.5869565217391  L 2.78532608695652 7.83695652173913  C 9.69836956521739 7.60869565217391  11.6059782608696 3.46739130434783  11.6059782608696 3.46739130434783  C 14.1494565217391 8.03260869565218  20.4266304347826 7.88586956521739  20.4266304347826 7.88586956521739  L 20.4429347826087 14.8152173913043  Z " fill-rule="nonzero" fill="url(#LinearGradient781)" stroke="none" transform="matrix(1 0 0 1 422 532 )" />
  </g>
</svg>