<?xml version="1.0" encoding="utf-8"?>
<svg version="1.1" xmlns:xlink="http://www.w3.org/1999/xlink" width="1px" height="1px" xmlns="http://www.w3.org/2000/svg">
  <g transform="matrix(1 0 0 1 -431 -545 )">
    <path d="M 431.5 545  C 431.78 545  432 545.22  432 545.5  C 432 545.78  431.78 546  431.5 546  C 431.22 546  431 545.78  431 545.5  C 431 545.22  431.22 545  431.5 545  Z " fill-rule="nonzero" fill="#898989" stroke="none" />
    <path d="M 431.5 545.163043478261  C 431.688695652174 545.163043478261  431.836956521739 545.311304347826  431.836956521739 545.5  C 431.836956521739 545.688695652174  431.688695652174 545.836956521739  431.5 545.836956521739  C 431.311304347826 545.836956521739  431.163043478261 545.688695652174  431.163043478261 545.5  C 431.163043478261 545.311304347826  431.311304347826 545.163043478261  431.5 545.163043478261  Z " stroke-width="0.326086956521739" stroke="#898989" fill="none" />
  </g>
</svg>