<?xml version="1.0" encoding="utf-8"?>
<svg version="1.1" xmlns:xlink="http://www.w3.org/1999/xlink" width="17px" height="18px" xmlns="http://www.w3.org/2000/svg">
  <defs>
    <linearGradient gradientUnits="userSpaceOnUse" x1="8.5" y1="0" x2="8.5" y2="17.82" id="LinearGradient784">
      <stop id="Stop785" stop-color="#d16ba5" stop-opacity="0.745098039215686" offset="0" />
      <stop id="Stop786" stop-color="#5c38ad" stop-opacity="0.513725490196078" offset="1" />
    </linearGradient>
  </defs>
  <g transform="matrix(1 0 0 1 -424 -476 )">
    <path d="M 0.599473684210527 17.8294736842105  L 16.2197894736842 17.8294736842105  L 16.2197894736842 15.3625263157895  C 16.2197894736842 14.7524210526316  15.7938947368421 14.2351578947368  15.2803157894737 14.2351578947368  L 11.4597894736842 14.2351578947368  C 11.1967368421053 14.2351578947368  10.9462105263158 14.0892631578947  10.8084210526316 13.824  C 10.5954736842105 13.4526315789474  10.4451578947368 13.0016842105263  10.4075789473684 12.5374736842105  C 10.4075789473684 12.4976842105263  10.4075789473684 12.4578947368421  10.4075789473684 12.4048421052632  C 10.4201052631579 11.7947368421053  10.6455789473684 9.15536842105263  11.3971578947368 8.12084210526316  C 12.0109473684211 7.20568421052632  12.3616842105263 6.06505263157895  12.3992631578947 4.84484210526316  C 12.3992631578947 3.70421052631579  11.9608421052632 2.56357894736842  11.2217894736842 1.76778947368421  C 10.4827368421053 0.958736842105264  9.48063157894737 0.547578947368422  8.49105263157895 0.64042105263158  C 8.44094736842105 0.64042105263158  8.41589473684211 0.64042105263158  8.36578947368421 0.64042105263158  C 7.36368421052631 0.547578947368422  6.34905263157895 0.972000000000002  5.61 1.78105263157895  C 4.87094736842105 2.5901052631579  4.45757894736842 3.744  4.45757894736842 4.92442105263158  C 4.50768421052631 6.07831578947369  4.8458947368421 7.21894736842105  5.48473684210526 8.17389473684211  C 6.22378947368421 9.16863157894737  6.43673684210526 11.8345263157895  6.44926315789474 12.4446315789474  C 6.44926315789474 12.4844210526316  6.44926315789474 12.5242105263158  6.44926315789474 12.5507368421053  C 6.42421052631579 13.0149473684211  6.2738947368421 13.4526315789474  6.04842105263158 13.8372631578947  C 5.89810526315789 14.0892631578947  5.6601052631579 14.2484210526316  5.39705263157895 14.2484210526316  L 1.53894736842105 14.2484210526316  C 1.02536842105263 14.2484210526316  0.599473684210527 14.7391578947368  0.599473684210527 15.3757894736842  L 0.599473684210527 17.8294736842105  Z " fill-rule="nonzero" fill="url(#LinearGradient784)" stroke="none" transform="matrix(1 0 0 1 424 476 )" />
  </g>
</svg>