<?xml version="1.0" encoding="utf-8"?>
<svg version="1.1" xmlns:xlink="http://www.w3.org/1999/xlink" width="5px" height="4px" xmlns="http://www.w3.org/2000/svg">
  <g transform="matrix(1 0 0 1 -437 -540 )">
    <path d="M 4.23641304347825 2.90217391304348  C 4.35054347826087 3.08152173913043  4.20380434782609 3.32608695652174  3.99184782608695 3.29347826086957  L 3.27445652173913 3.21195652173913  C 3.1929347826087 3.19565217391304  3.11141304347826 3.22826086956522  3.04619565217391 3.29347826086957  L 2.57336956521738 3.84782608695652  C 2.4266304347826 4.01086956521739  2.1820652173913 3.94565217391304  2.11684782608695 3.73369565217391  L 1.97010869565217 3.01630434782609  C 1.95380434782609 2.93478260869565  1.90489130434782 2.8695652173913  1.82336956521738 2.83695652173913  L 1.15489130434782 2.54347826086957  C 0.959239130434774 2.46195652173913  0.942934782608688 2.18478260869565  1.12228260869565 2.08695652173913  L 1.75815217391304 1.72826086956522  C 1.82336956521739 1.67934782608696  1.88858695652173 1.61413043478261  1.88858695652173 1.51630434782609  L 1.95380434782609 0.798913043478263  C 1.97010869565217 0.586956521739134  2.23097826086956 0.489130434782611  2.37771739130434 0.635869565217394  L 2.91576086956521 1.125  C 2.98097826086956 1.19021739130435  3.06249999999999 1.20652173913044  3.14402173913043 1.19021739130435  L 3.86141304347826 1.02717391304348  C 4.07336956521738 0.97826086956522  4.23641304347826 1.19021739130435  4.15489130434782 1.38586956521739  L 3.84510869565217 2.05434782608696  C 3.81249999999999 2.11956521739131  3.81249999999999 2.21739130434783  3.86141304347826 2.28260869565218  L 4.23641304347825 2.90217391304348  Z " fill-rule="nonzero" fill="#efacda" stroke="none" transform="matrix(1 0 0 1 437 540 )" />
  </g>
</svg>