<?xml version="1.0" encoding="utf-8"?>
<svg version="1.1" xmlns:xlink="http://www.w3.org/1999/xlink" width="6px" height="7px" xmlns="http://www.w3.org/2000/svg">
  <g transform="matrix(1 0 0 1 -429 -478 )">
    <path d="M 5.94 4.556  C 6.108 4.836  5.884 5.214  5.548 5.172  L 4.4 5.046  C 4.274 5.032  4.148 5.074  4.05 5.172  L 3.294 6.04  C 3.07 6.292  2.664 6.18  2.58 5.858  L 2.356 4.724  C 2.328 4.598  2.244 4.486  2.118 4.43  L 1.04 3.982  C 0.732000000000001 3.856  0.704000000000001 3.422  0.998000000000001 3.254  L 1.992 2.694  C 2.104 2.624  2.188 2.512  2.202 2.372  L 2.3 1.224  C 2.328 0.888  2.734 0.734  2.972 0.972000000000001  L 3.826 1.742  C 3.924 1.84  4.064 1.868  4.204 1.84  L 5.338 1.588  C 5.66 1.504  5.94 1.84  5.8 2.148  L 5.31 3.198  C 5.268 3.31  5.268 3.45  5.338 3.576  L 5.94 4.556  Z " fill-rule="nonzero" fill="#efacda" stroke="none" transform="matrix(1 0 0 1 429 478 )" />
  </g>
</svg>