<?xml version="1.0" encoding="utf-8"?>
<svg version="1.1" xmlns:xlink="http://www.w3.org/1999/xlink" width="24px" height="24px" xmlns="http://www.w3.org/2000/svg">
  <g transform="matrix(1 0 0 1 -420 -473 )">
    <path d="M 23.8633846153846 18.71616  C 23.8763076923077 16.848  22.4289230769231 15.34272  20.6455384615385 15.34272  L 16.0578461538462 15.35616  C 16.1224615384615 14.25408  16.9624615384615 12.45312  17.3113846153846 12.02304  C 18.3581538461538 10.61184  18.9526153846154 8.90496  19.0172307692308 7.07712  C 19.0172307692308 5.19552  18.2289230769231 3.35424  16.8849230769231 2.07744  C 15.5538461538462 0.814079999999999  13.7833846153846 0.142079999999999  11.9870769230769 0.263039999999999  C 10.1778461538462 0.155519999999999  8.39446153846154 0.800639999999999  7.07630769230769 2.09088  C 5.73230769230769 3.39456  4.96984615384615 5.24928  4.96984615384615 7.18464  C 5.03446153846154 8.95872  5.62892307692308 10.65216  6.71446153846154 12.10368  C 7.05046153846154 12.50688  7.81292307692308 14.3616  7.86461538461538 15.46368  L 3.35446153846154 15.40992  C 1.57107692307692 15.40992  0.123692307692306 16.9152  0.123692307692306 18.76992  L 0.123692307692306 22.50624  C 0.123692307692306 23.08416  0.575999999999998 23.55456  1.13169230769231 23.55456  L 22.8036923076923 23.55456  C 23.3593846153846 23.55456  23.8375384615385 23.08416  23.8633846153846 22.50624  L 23.8633846153846 18.71616  Z M 22.584 22.1568  L 22.5969230769231 22  L 1.26092307692308 22  L 1.26092307692308 19.15968  C 1.26092307692308 18.42048  1.81661538461538 16.76736  2.52738461538462 16.76736  L 7.74830769230769 16.76736  C 8.11015384615385 16.76736  8.44615384615385 16.59264  8.65292307692308 16.27008  C 8.95015384615385 15.81312  9.16984615384616 15.26208  9.19569230769231 14.71104  C 9.19569230769231 14.67072  9.19569230769231 14.6304  9.19569230769231 14.59008  C 9.01476923076923 12.85632  8.31692307692308 11.09568  7.89046153846154 10.464  C 7.02461538461539 9.29472  6.54646153846154 7.92384  6.49476923076923 6.4992  C 6.49476923076923 5.04768  7.07630769230769 3.66336  8.08430769230769 2.6688  C 9.10523076923077 1.67424  10.4750769230769 1.16352  11.8449230769231 1.28448  C 11.8966153846154 1.28448  11.9612307692308 1.28448  12.0129230769231 1.28448  C 13.3698461538462 1.1904  14.7396923076923 1.67424  15.7476923076923 2.65536  C 16.7686153846154 3.64992  17.3630769230769 5.00736  17.3630769230769 6.40512  C 17.3113846153846 7.87008  16.8332307692308 9.2544  16.0061538461539 10.38336  C 14.9852307692308 12.48  14.7655384615385 13.12512  14.6233846153846 14.54976  C 14.6233846153846 14.60352  14.6233846153846 14.67072  14.6233846153846 14.71104  C 14.6750769230769 15.28896  14.8689230769231 15.82656  15.1661538461538 16.27008  C 15.3729230769231 16.59264  15.7089230769231 16.76736  16.0707692307692 16.76736  L 21.2787692307692 16.76736  C 21.9766153846154 16.76736  22.584 18.40704  22.584 19.15968  L 22.584 22.1568  Z " fill-rule="nonzero" fill="#4d4b4b" stroke="none" transform="matrix(1 0 0 1 420 473 )" />
  </g>
</svg>