<?xml version="1.0" encoding="utf-8"?>
<svg version="1.1" xmlns:xlink="http://www.w3.org/1999/xlink" width="36px" height="36px" xmlns="http://www.w3.org/2000/svg">
  <g transform="matrix(1 0 0 1 -718 -314 )">
    <path d="M 30.6578918918919 5.36594594594595  C 27.3205945945946 2.00481081081081  22.7675675675676 0.121621621621622  18.0238378378378 0.121621621621622  C 13.2562702702703 0.0977837837837832  8.70324324324324 2.00481081081081  5.36594594594595 5.36594594594595  C 2.00481081081081 8.70324324324324  0.121621621621622 13.2562702702703  0.121621621621622 18  C 0.121621621621622 21.4564864864865  1.12281081081081 24.8414594594595  3.006 27.7496756756757  C 3.41124324324324 28.440972972973  4.41243243243243 28.584  5.00837837837838 27.9403783783784  C 5.12756756756757 27.7973513513514  5.22291891891892 27.6304864864865  5.27059459459459 27.4397837837838  C 5.36594594594595 27.0583783783784  5.29443243243243 26.676972972973  5.07989189189189 26.3909189189189  C 3.45891891891892 23.9117837837838  2.60075675675676 20.9797297297297  2.60075675675676 18  C 2.60075675675676 9.51372972972973  9.48989189189189 2.62459459459459  18 2.60075675675676  C 26.4862702702703 2.60075675675676  33.3992432432432 9.51372972972973  33.3992432432432 18  C 33.3992432432432 26.4862702702703  26.4862702702703 33.3992432432432  18 33.3992432432432  C 15.1871351351351 33.3992432432432  12.4457837837838 32.6364324324324  10.0381621621622 31.1823243243243  C 9.44221621621621 30.8485945945946  8.6794054054054 31.0631351351351  8.34567567567567 31.6829189189189  C 8.03578378378378 32.255027027027  8.20264864864865 32.9701621621622  8.75091891891892 33.3277297297297  C 11.5399459459459 34.9963783783784  14.7342162162162 35.8783783783784  18 35.8783783783784  C 22.7437297297297 35.9022162162162  27.2967567567568 33.9951891891892  30.6340540540541 30.634054054054  C 33.9951891891892 27.2967567567567  35.8783783783784 22.7437297297297  35.8783783783784 17.9761621621622  C 35.9022162162162 13.2562702702703  34.019027027027 8.70324324324324  30.6578918918919 5.36594594594595  Z M 18.9058378378378 7.34448648648649  C 18.882 6.24794594594595  17.8092972972973 5.43745945945946  16.6650810810811 5.89037837837838  C 16.092972972973 6.12875675675676  15.7592432432432 6.67702702702703  15.7592432432432 7.29681081081081  L 16 7.34448648648649  L 16 18.6674594594595  C 15.7592432432432 18.7151351351351  15.7830810810811 18.7866486486487  15.7830810810811 18.8343243243243  C 15.8784324324324 19.6448108108108  16.5458918918919 20.2407567567568  17.3563783783784 20.2169189189189  L 17.3563783783784 20.1930810810811  L 26.2955675675676 20.1930810810811  C 27.3444324324324 20.2407567567568  28.1787567567568 19.2395675675676  27.845027027027 18.143027027027  C 27.8211891891892 18.0476756756757  27.7735135135135 17.9523243243243  27.7258378378378 17.8808108108108  C 27.3921081081081 17.3087027027027  26.8438378378378 17.0464864864865  26.2955675675676 17.0703243243243  L 18.9058378378378 17.0703243243243  L 18.9058378378378 7.34448648648649  Z " fill-rule="nonzero" fill="#4d4b4b" stroke="none" transform="matrix(1 0 0 1 718 314 )" />
  </g>
</svg>