<?xml version="1.0" encoding="utf-8"?>
<svg version="1.1" xmlns:xlink="http://www.w3.org/1999/xlink" width="24px" height="28px" xmlns="http://www.w3.org/2000/svg">
  <g transform="matrix(1 0 0 1 -420 -650 )">
    <path d="M 23.0537142857143 8.14530769230771  C 23.5497142857143 8.14530769230771  23.9394285714286 7.77807692307692  23.9394285714286 7.31069230769231  L 23.9394285714286 5.84176923076927  C 23.9394285714286 4.25599999999997  22.5754285714286 2.95399999999995  20.8748571428572 2.95399999999995  L 16.9245714285714 2.95399999999995  L 16.9245714285714 1.5518461538461  C 16.9245714285714 1.11784615384613  16.588 0.733923076923134  16.1274285714286 0.683846153846162  C 15.596 0.63376923076919  15.1531428571428 1.03438461538462  15.1531428571428 1.51846153846157  L 15.1531428571428 2.95399999999995  L 8.75828571428573 2.95399999999995  L 8.75828571428573 1.5518461538461  C 8.75828571428573 1.11784615384613  8.42171428571431 0.733923076923134  7.96114285714283 0.683846153846162  C 7.4297142857143 0.63376923076919  6.98685714285713 1.03438461538462  6.98685714285713 1.51846153846157  L 6.98685714285713 2.95399999999995  L 3.19600000000001 2.95399999999995  C 1.51314285714285 2.95399999999995  0.131428571428545 4.23930769230765  0.131428571428545 5.84176923076927  L 0.131428571428545 25.0546153846154  C 0.131428571428545 26.6403846153846  1.4954285714286 27.9423846153846  3.19600000000001 28  L 20.8748571428572 28  C 22.5577142857143 27.9423846153846  23.9394285714286 26.6570769230769  23.9394285714286 25.0546153846154  L 23.9394285714286 15.2562307692308  C 23.9394285714286 14.8222307692307  23.6028571428572 14.4383076923077  23.1422857142857 14.3882307692307  C 22.6108571428571 14.3381538461539  22.168 14.7387692307692  22.168 15.2228461538461  L 22.168 25.0546153846154  C 22.168 25.7223076923077  21.6011428571429 26.2731538461538  20.8748571428572 26  L 3.19600000000001 26  C 2.48742857142855 26.2731538461538  1.90285714285714 25.739  2 25.0546153846154  L 2 5.84176923076927  C 1.90285714285714 5.17407692307688  2.4697142857143 4.63992307692308  3.19600000000001 4.63992307692308  L 6.98685714285713 4.63992307692308  L 6.98685714285713 5.22415384615385  C 6.98685714285713 5.65815384615382  7.32342857142855 6.04207692307693  7.78400000000003 6.09215384615379  C 8.31542857142856 6.14223076923076  8.75828571428573 5.74161538461533  8.75828571428573 5.2575384615385  L 8.75828571428573 4.63992307692308  L 15.1531428571428 4.63992307692308  L 15.1531428571428 5.22415384615385  C 15.1531428571428 5.65815384615382  15.4897142857143 6.04207692307693  15.9502857142857 6.09215384615379  C 16.4817142857143 6.14223076923076  16.9245714285714 5.74161538461533  16.9245714285714 5.2575384615385  L 16.9245714285714 4.63992307692308  L 20.8748571428572 4.63992307692308  C 21.5834285714286 4.63992307692308  22.168 5.17407692307688  22.168 5.84176923076927  L 22.168 7.31069230769231  C 22.168 7.7613846153846  22.5577142857143 8.14530769230771  23.0537142857143 8.14530769230771  Z " fill-rule="nonzero" fill="#4d4b4b" stroke="none" transform="matrix(1 0 0 1 420 650 )" />
  </g>
</svg>