<?xml version="1.0" encoding="utf-8"?>
<svg version="1.1" xmlns:xlink="http://www.w3.org/1999/xlink" width="20px" height="20px" xmlns="http://www.w3.org/2000/svg">
  <defs>
    <linearGradient gradientUnits="userSpaceOnUse" x1="3.95767895519924" y1="14.7604562737643" x2="14.3954372623575" y2="11.0988593155894" id="LinearGradient793">
      <stop id="Stop794" stop-color="#d16ba5" stop-opacity="0.745098039215686" offset="0" />
      <stop id="Stop795" stop-color="#5c38ad" stop-opacity="0.513725490196078" offset="1" />
    </linearGradient>
  </defs>
  <g transform="matrix(1 0 0 1 -726 -321 )">
    <path d="M 19.0533333333333 13.892380952381  C 19.6133333333333 14.8957142857143  18.7966666666667 16.2490476190476  17.56 16.0857142857143  L 13.4066666666667 15.6190476190476  C 12.94 15.5490476190476  12.4733333333333 15.7357142857143  12.1233333333333 16.0857142857143  L 9.37 19.2590476190476  C 8.55333333333333 20.192380952381  7.08333333333334 19.7957142857143  6.78 18.6057142857143  L 5.96333333333334 14.4990476190476  C 5.84666666666667 14.032380952381  5.54333333333334 13.6123809523809  5.07666666666667 13.4490476190476  L 1.20333333333334 11.8157142857143  C 0.0833333333333387 11.3490476190476  -0.0333333333333284 9.76238095238095  1.01666666666667 9.17904761904762  L 4.65666666666667 7.12571428571429  C 5.07666666666667 6.89238095238095  5.35666666666667 6.47238095238095  5.42666666666667 5.95904761904762  L 5.77666666666667 1.80571428571428  C 5.89333333333334 0.569047619047619  7.36333333333334 0.0557142857142844  8.25 0.872380952380951  L 11.3533333333333 3.69571428571428  C 11.7033333333333 4.04571428571428  12.24 4.16238095238095  12.7066666666667 4.04571428571428  L 16.8133333333333 3.11238095238095  C 17.98 2.80904761904762  18.9833333333333 4.04571428571428  18.5166666666667 5.16571428571428  L 16.7666666666667 8.96904761904762  C 16.58 9.38904761904761  16.58 9.90238095238095  16.8833333333333 10.322380952381  L 19.0533333333333 13.892380952381  Z " fill-rule="nonzero" fill="url(#LinearGradient793)" stroke="none" transform="matrix(1 0 0 1 726 321 )" />
  </g>
</svg>