<?xml version="1.0" encoding="utf-8"?>
<svg version="1.1" xmlns:xlink="http://www.w3.org/1999/xlink" width="16px" height="12px" xmlns="http://www.w3.org/2000/svg">
  <g transform="matrix(1 0 0 1 -423 -659 )">
    <path d="M 15.9579022222222 1.67945454545452  C 15.9579022222222 2.15290909090913  15.5522844444444 2.52490909090909  15.0761244444445 2.52490909090909  L 1.84945777777775 2.52490909090909  C 1.35566222222224 2.52490909090909  0.967679999999988 2.15290909090913  0.967679999999988 1.67945454545452  C 0.967679999999988 1.20600000000002  1.35566222222224 0.833999999999946  1.84945777777775 1  L 15.0761244444445 1  C 15.56992 0.833999999999946  15.9579022222222 1.20600000000002  15.9579022222222 1.67945454545452  Z M 11.8664533333333 6.87054545454544  L 1.84945777777775 6.87054545454544  C 1.35566222222224 6.87054545454544  0.967679999999988 6.49854545454548  0.967679999999988 6.02509090909086  C 0.967679999999988 5.55163636363636  1.35566222222224 5.1796363636364  1.84945777777775 5.1796363636364  L 11.8664533333333 5.1796363636364  C 12.3602488888889 5.1796363636364  12.7482311111111 5.55163636363636  12.7482311111111 6.02509090909086  C 12.7482311111111 6.49854545454548  12.3602488888889 6.87054545454544  11.8664533333333 6.87054545454544  Z M 9.50328888888889 10.1847272727273  C 9.50328888888889 10.6581818181818  9.09767111111111 11.0301818181819  8.62151111111113 11.0301818181819  L 1.84945777777775 11.0301818181819  C 1.35566222222224 11.0301818181819  0.967679999999988 10.6581818181818  0.967679999999988 10.1847272727273  C 0.967679999999988 9.71127272727267  1.35566222222224 9.33927272727271  1.84945777777775 9.33927272727271  L 8.62151111111113 9.33927272727271  C 9.11530666666664 9.33927272727271  9.50328888888889 9.71127272727267  9.50328888888889 10.1847272727273  Z " fill-rule="nonzero" fill="#4d4b4b" stroke="none" transform="matrix(1 0 0 1 423 659 )" />
  </g>
</svg>