<?xml version="1.0" encoding="utf-8"?>
<svg version="1.1" xmlns:xlink="http://www.w3.org/1999/xlink" width="36px" height="34px" xmlns="http://www.w3.org/2000/svg">
  <g transform="matrix(1 0 0 1 -626 -312 )">
    <path d="M 35.4476842105263 29.2935757575758  C 35.4078947368421 31.5437575757576  33.7367368421053 33.3612121212121  31.6875789473684 33  L 4.33231578947368 33  C 2.28315789473684 33.3612121212121  0.592105263157895 31.5437575757576  1 29.2935757575758  L 1 4.95266666666667  C 0.592105263157895 2.72412121212121  2.26326315789474 0.885030303030303  4.33231578947368 1  L 31.6875789473684 1  C 33.7367368421053 0.885030303030303  35.4277894736842 2.70248484848485  35.4277894736842 4.95266666666667  L 35.4277894736842 7.65721212121212  C 35.4277894736842 8.39284848484848  34.8707368421053 8.99866666666667  34.1744210526316 8.99866666666667  C 33.4781052631579 8.99866666666667  32.9210526315789 8.39284848484849  32.9210526315789 7.65721212121212  L 32.9210526315789 4.95266666666667  C 32.9210526315789 4.2170303030303  32.364 3.58957575757576  31.6676842105263 4  L 4.33231578947368 4  C 3.65589473684211 3.58957575757576  3.07894736842105 4.19539393939394  3 4.95266666666667  L 3 29.2935757575758  C 3.07894736842105 30.0292121212121  3.636 30.6566666666667  4.33231578947368 30  L 31.6875789473684 30  C 32.364 30.6566666666667  32.9409473684211 30.0508484848485  32.9409473684211 29.2935757575758  L 32.9409473684211 26.5890303030303  C 32.9409473684211 25.8533939393939  33.498 25.2259393939394  34.1943157894737 25.2259393939394  C 34.8906315789474 25.2259393939394  35.4476842105263 25.8317575757576  35.4476842105263 26.5890303030303  L 35.4476842105263 29.2935757575758  Z M 29.2007368421053 17.112303030303  C 29.2007368421053 17.8695757575758  28.6237894736842 18.4753939393939  27.9473684210526 18.4753939393939  L 26.694 18.4753939393939  C 26.0175789473684 18.4753939393939  25.4406315789474 17.8695757575758  25.4406315789474 17.112303030303  C 25.4406315789474 16.3766666666667  25.9976842105263 15.7492121212121  26.694 15.7492121212121  L 27.9473684210526 15.7492121212121  C 28.6237894736842 15.7492121212121  29.2007368421053 16.3550303030303  29.2007368421053 17.112303030303  Z M 35.4277894736842 21.1799393939394  C 35.4078947368421 21.9372121212121  34.8508421052632 22.5430303030303  34.1744210526316 22.5430303030303  L 24.2270526315789 22.5430303030303  C 22.1778947368421 22.5430303030303  20.4868421052632 20.7255757575758  20.4868421052632 18.4753939393939  L 20.4868421052632 15.7708484848485  C 20.4868421052632 13.542303030303  22.158 11.7032121212121  24.2270526315789 11.7032121212121  L 34.1744210526316 11.7032121212121  C 34.8508421052632 11.7032121212121  35.4277894736842 12.3090303030303  35.4277894736842 13.066303030303  L 35.4277894736842 21.1799393939394  Z M 24.2270526315789 14.4510303030303  L 24.2270526315789 14.4293939393939  C 23.5506315789474 14.4293939393939  22.9736842105263 15.0352121212121  22.9736842105263 15.7924848484848  L 22.9736842105263 18.4970303030303  C 22.9736842105263 19.2326666666667  23.5307368421053 19.8601212121212  24.2270526315789 19.8601212121212  L 32.9210526315789 19.8601212121212  L 32.9210526315789 14.4510303030303  L 24.2270526315789 14.4510303030303  Z " fill-rule="nonzero" fill="#4d4b4b" stroke="none" transform="matrix(1 0 0 1 626 312 )" />
  </g>
</svg>