<?xml version="1.0" encoding="utf-8"?>
<svg version="1.1" xmlns:xlink="http://www.w3.org/1999/xlink" width="20px" height="23px" xmlns="http://www.w3.org/2000/svg">
  <defs>
    <linearGradient gradientUnits="userSpaceOnUse" x1="14.0418250950571" y1="10.9581749049429" x2="10" y2="22.77" id="LinearGradient790">
      <stop id="Stop791" stop-color="#d16ba5" stop-opacity="0.745098039215686" offset="0" />
      <stop id="Stop792" stop-color="#5c38ad" stop-opacity="0.513725490196078" offset="1" />
    </linearGradient>
  </defs>
  <g transform="matrix(1 0 0 1 -637 -320 )">
    <path d="M 19.6745454545455 16.031  C 20.2663636363636 17.2604545454545  19.4454545454545 18.8631363636364  18.1854545454545 18.6435909090909  L 13.9281818181818 18.0947272727273  C 13.4509090909091 18.0288636363636  12.9736363636364 18.2264545454545  12.6109090909091 18.6435909090909  L 9.80454545454545 22.3539090909091  C 8.96454545454545 23.4516363636364  7.47545454545454 22.9686363636364  7.17 21.6074545454545  L 6.33 16.7774545454546  C 6.21545454545454 16.2285909090909  5.90999999999999 15.7455909090909  5.43272727272727 15.548  L 1.48090909090909 13.616  C 0.33545454545454 13.0671363636364  0.220909090909086 11.201  1.3090909090909 10.5204090909091  L 5.01272727272727 8.1054090909091  C 5.43272727272727 7.82  5.73818181818181 7.35895454545455  5.79545454545454 6.72227272727273  L 6.15818181818181 1.8264090909091  C 6.27272727272727 0.377409090909097  7.78090909090909 -0.237318181818175  8.67818181818181 0.728681818181825  L 11.8472727272727 4.04381818181819  C 12.21 4.46095454545455  12.7445454545455 4.59268181818182  13.2218181818182 4.46095454545455  L 17.4218181818182 3.36322727272728  C 18.6245454545454 3.01195454545455  19.6363636363636 4.46095454545455  19.1590909090909 5.77822727272728  L 17.3454545454545 10.2569545454545  C 17.1736363636364 10.7399545454545  17.1736363636364 11.3546818181818  17.46 11.8376818181818  L 19.6745454545455 16.031  Z " fill-rule="nonzero" fill="url(#LinearGradient790)" stroke="none" transform="matrix(1 0 0 1 637 320 )" />
  </g>
</svg>