<?xml version="1.0" encoding="utf-8"?>
<svg version="1.1" xmlns:xlink="http://www.w3.org/1999/xlink" width="9px" height="10px" xmlns="http://www.w3.org/2000/svg">
  <defs>
    <linearGradient gradientUnits="userSpaceOnUse" x1="6.62865168539327" y1="0" x2="4.5" y2="9.9" id="LinearGradient787">
      <stop id="Stop788" stop-color="#d16ba5" stop-opacity="0.745098039215686" offset="0" />
      <stop id="Stop789" stop-color="#5c38ad" stop-opacity="0.513725490196078" offset="1" />
    </linearGradient>
  </defs>
  <g transform="matrix(1 0 0 1 -433 -666 )">
    <path d="M 8.74912499999999 6.66888888888889  C 9.01068750000002 7.09944444444443  8.64449999999999 7.68500000000006  8.121375 7.59888888888884  L 6.30787500000002 7.39222222222224  C 6.09862500000003 7.375  5.9068125 7.44388888888886  5.74987500000003 7.59888888888884  L 4.54668750000002 8.95944444444444  C 4.19793750000002 9.35555555555561  3.55275 9.18333333333339  3.43068749999998 8.68388888888887  L 3.08193749999998 6.92722222222221  C 3.02962500000001 6.72055555555562  2.90756249999998 6.54833333333329  2.69831249999999 6.47944444444443  L 1.02431250000001 5.77333333333331  C 0.536062500000014 5.56666666666672  0.483749999999986 4.89499999999998  0.954562500000009 4.63666666666666  L 2.52393749999999 3.75833333333333  C 2.69831249999999 3.65499999999997  2.83781249999998 3.48277777777776  2.85525000000001 3.25888888888892  L 3.01218749999998 1.46777777777777  C 3.06450000000001 0.933888888888873  3.69225 0.710000000000036  4.075875 1.07166666666672  L 5.41856250000001 2.27722222222224  C 5.57549999999998 2.43222222222221  5.8021875 2.48388888888894  6.0114375 2.43222222222221  L 7.79006249999998 2.03611111111115  C 8.29575 1.91555555555556  8.73168750000002 2.43222222222221  8.52243750000002 2.91444444444448  L 7.75518749999998 4.55055555555555  C 7.68543749999998 4.72277777777776  7.68543749999998 4.94666666666672  7.8075 5.13611111111118  L 8.74912499999999 6.66888888888889  Z " fill-rule="nonzero" fill="url(#LinearGradient787)" stroke="none" transform="matrix(1 0 0 1 433 666 )" />
  </g>
</svg>