<?xml version="1.0" encoding="utf-8"?>
<svg version="1.1" xmlns:xlink="http://www.w3.org/1999/xlink" width="24px" height="24px" xmlns="http://www.w3.org/2000/svg">
  <g transform="matrix(1 0 0 1 -429 -583 )">
    <path d="M 23.7455357142857 7.965  C 23.9151785714286 8.155  24 8.38  24 8.64  C 24 8.9  23.9151785714286 9.125  23.7455357142857 9.315  L 16.8883928571429 16.995  C 16.71875 17.185  16.5178571428571 17.28  16.2857142857143 17.28  C 16.0535714285714 17.28  15.8526785714286 17.185  15.6830357142857 16.995  C 15.5133928571429 16.805  15.4285714285714 16.58  15.4285714285714 16.32  L 15.4285714285714 12.48  L 12.4285714285714 12.48  C 11.5535714285714 12.48  10.7700892857143 12.51  10.078125 12.57  C 9.38616071428572 12.63  8.69866071428572 12.7375  8.015625 12.8925  C 7.33258928571428 13.0475  6.73883928571429 13.26  6.234375 13.53  C 5.72991071428572 13.8  5.25892857142857 14.1475  4.82142857142857 14.5725  C 4.38392857142857 14.9975  4.02678571428571 15.5025  3.75 16.0875  C 3.47321428571429 16.6725  3.25669642857143 17.365  3.10044642857143 18.165  C 2.94419642857143 18.965  2.86607142857143 19.87  2.86607142857143 20.88  C 2.86607142857143 21.43  2.88839285714286 22.045  2.93303571428571 22.725  C 2.93303571428571 22.785  2.94419642857143 22.9025  2.96651785714286 23.0775  C 2.98883928571429 23.2525  3 23.385  3 23.475  C 3 23.625  2.96205357142857 23.75  2.88616071428571 23.85  C 2.81026785714286 23.95  2.70535714285714 24  2.57142857142857 24  C 2.42857142857143 24  2.30357142857143 23.915  2.19642857142857 23.745  C 2.13392857142857 23.655  2.07589285714286 23.545  2.02232142857143 23.415  C 1.96875 23.285  1.90848214285714 23.135  1.84151785714286 22.965  C 1.77455357142857 22.795  1.72767857142857 22.675  1.70089285714286 22.605  C 0.566964285714286 19.755  0 17.5  0 15.84  C 0 13.85  0.236607142857143 12.185  0.709821428571429 10.845  C 2.15625 6.815  6.0625 4.8  12.4285714285714 4.8  L 15.4285714285714 4.8  L 15.4285714285714 0.960000000000001  C 15.4285714285714 0.699999999999998  15.5133928571429 0.474999999999997  15.6830357142857 0.284999999999999  C 15.8526785714286 0.0949999999999989  16.0535714285714 0  16.2857142857143 0  C 16.5178571428571 0  16.71875 0.0949999999999989  16.8883928571429 0.284999999999999  L 23.7455357142857 7.965  Z " fill-rule="nonzero" fill="#4d4b4b" stroke="none" transform="matrix(1 0 0 1 429 583 )" />
  </g>
</svg>