<?xml version="1.0" encoding="utf-8"?>
<svg version="1.1" xmlns:xlink="http://www.w3.org/1999/xlink" width="24px" height="24px" xmlns="http://www.w3.org/2000/svg">
  <g transform="matrix(1 0 0 1 -736 -583 )">
    <path d="M 19.7678571428571 12.875  C 21.4464285714286 10.9166666666667  22.2857142857143 9.0625  22.2857142857143 7.3125  C 22.2857142857143 6.46875  22.1897321428571 5.72395833333333  21.9977678571429 5.078125  C 21.8058035714286 4.43229166666666  21.5602678571429 3.91927083333333  21.2611607142857 3.5390625  C 20.9620535714286 3.15885416666667  20.5982142857143 2.84895833333333  20.1696428571429 2.609375  C 19.7410714285714 2.36979166666666  19.3214285714286 2.20833333333333  18.9107142857143 2.125  C 18.5 2.04166666666666  18.0625 2  17.5982142857143 2  C 17.1339285714286 2  16.6339285714286 2.1328125  16.0982142857143 2.3984375  C 15.5625 2.6640625  15.0691964285714 2.99739583333333  14.6183035714286 3.3984375  C 14.1674107142857 3.79947916666666  13.78125 4.17447916666666  13.4598214285714 4.5234375  C 13.1383928571429 4.87239583333333  12.8705357142857 5.19270833333333  12.65625 5.484375  C 12.4955357142857 5.71354166666667  12.2767857142857 5.828125  12 5.828125  C 11.7232142857143 5.828125  11.5044642857143 5.71354166666667  11.34375 5.484375  C 11.1294642857143 5.19270833333333  10.8616071428571 4.87239583333333  10.5401785714286 4.5234375  C 10.21875 4.17447916666666  9.83258928571429 3.79947916666666  9.38169642857143 3.3984375  C 8.93080357142857 2.99739583333333  8.4375 2.6640625  7.90178571428572 2.3984375  C 7.36607142857143 2.1328125  6.86607142857143 2  6.40178571428572 2  C 5.9375 2  5.5 2.04166666666666  5.08928571428571 2.125  C 4.67857142857143 2.20833333333333  4.25892857142857 2.36979166666666  3.83035714285714 2.609375  C 3.40178571428571 2.84895833333333  3.03794642857143 3.15885416666667  2.73883928571429 3.5390625  C 2.43973214285714 3.91927083333333  2.19419642857143 4.43229166666666  2.00223214285714 5.078125  C 1.81026785714286 5.72395833333333  1.71428571428571 6.46875  1.71428571428571 7.3125  C 1.71428571428571 9.0625  2.54910714285714 10.9114583333333  4.21875 12.859375  L 12 21.609375  L 19.7678571428571 12.875  Z M 22.2991071428571 1.9375  C 23.4330357142857 3.22916666666667  24 5.02083333333333  24 7.3125  C 24 9.61458333333333  22.9776785714286 11.9583333333333  20.9330357142857 14.34375  L 12.5892857142857 23.71875  C 12.4285714285714 23.90625  12.2321428571429 24  12 24  C 11.7678571428571 24  11.5714285714286 23.90625  11.4107142857143 23.71875  L 3.05357142857143 14.3125  C 2.96428571428571 14.2291666666667  2.84151785714286 14.09375  2.68526785714286 13.90625  C 2.52901785714286 13.71875  2.28125 13.3776041666667  1.94196428571429 12.8828125  C 1.60267857142857 12.3880208333333  1.29910714285714 11.8802083333333  1.03125 11.359375  C 0.763392857142857 10.8385416666667  0.524553571428572 10.2083333333333  0.314732142857143 9.46875  C 0.104910714285714 8.72916666666666  0 8.01041666666666  0 7.3125  C 0 5.02083333333333  0.566964285714286 3.22916666666667  1.70089285714286 1.9375  C 2.83482142857143 0.645833333333333  4.40178571428571 0  6.40178571428572 0  C 6.95535714285714 0  7.52008928571428 0.111979166666665  8.09598214285714 0.335937500000001  C 8.671875 0.559895833333331  9.20758928571428 0.861979166666665  9.703125 1.2421875  C 10.1986607142857 1.62239583333333  10.625 1.97916666666666  10.9821428571429 2.3125  C 11.3392857142857 2.64583333333333  11.6785714285714 3  12 3.375  C 12.3214285714286 3  12.6607142857143 2.64583333333333  13.0178571428571 2.3125  C 13.375 1.97916666666666  13.8013392857143 1.62239583333333  14.296875 1.2421875  C 14.7924107142857 0.861979166666665  15.328125 0.559895833333331  15.9040178571429 0.335937500000001  C 16.4799107142857 0.111979166666665  17.0446428571429 0  17.5982142857143 0  C 19.5982142857143 0  21.1651785714286 0.645833333333333  22.2991071428571 1.9375  Z " fill-rule="nonzero" fill="#4d4b4b" stroke="none" transform="matrix(1 0 0 1 736 583 )" />
  </g>
</svg>