<?xml version="1.0" encoding="utf-8"?>
<svg version="1.1" xmlns:xlink="http://www.w3.org/1999/xlink" width="161px" height="154px" xmlns="http://www.w3.org/2000/svg">
  <defs>
    <linearGradient gradientUnits="userSpaceOnUse" x1="80.5" y1="0" x2="80.5" y2="154" id="LinearGradient693">
      <stop id="Stop694" stop-color="#d16ba5" offset="0" />
      <stop id="Stop695" stop-color="#9a9ae1" offset="0.51" />
      <stop id="Stop696" stop-color="#5d55bf" offset="1" />
    </linearGradient>
  </defs>
  <g transform="matrix(1 0 0 1 -570 -270 )">
    <path d="M 20.0191754554171 1  L 140.057526366251 1  C 151.102588686481 0.29817833173538  160.076701821668 9.27229146692234  160 20.3173537871524  L 160 113.663470757431  C 160.076701821668 124.708533077661  151.102588686481 133.682646212848  140.057526366251 133  L 101.246404602109 133  L 63.0488974113135 152.934803451582  C 59.7507190795781 154.622243528284  55.7622243528284 153.241610738255  54.0747842761266 150.020134228188  C 53.614573346117 149.099712368169  53.3844678811122 148.025886864813  54 147.028763183126  L 54 133  L 20.0191754554171 133  C 9.43432406519655 133.682646212848  0.690316395014383 125.398849472675  0.0767018216682657 114.813998082454  L 0 113.663470757431  L 0 20.3173537871524  C 0 9.27229146692234  8.97411313518696 0.29817833173538  20.0191754554171 0.29817833173538  C 20.0191754554171 0.29817833173538  20.0191754554171 0.29817833173538  20.0191754554171 1  Z M 86.673058485139 113.663470757431  C 86.673058485139 109.981783317354  83.6816874400767 106.990412272291  80 106.990412272291  C 76.3183125599233 106.990412272291  73.326941514861 109.981783317354  73.326941514861 113.663470757431  C 73.326941514861 117.345158197507  76.3183125599233 120.336529242569  80 120.336529242569  C 83.6816874400767 120.336529242569  86.673058485139 117.345158197507  86.673058485139 113.663470757431  Z M 104.467881112176 21.6979865771812  C 98.56184084372 16.3288590604027  90.7382550335571 13.6442953020134  80.9204218600192 13.6442953020134  C 70.2588686481304 13.6442953020134  61.8983700862896 16.7890699904123  55.8389261744966 23.07861936721  C 50.1629913710451 28.9846596356663  47.0949185043145 36.5781399808245  46.7114093959732 46.0124640460211  L 46.6347075743049 48  L 59.9808245445829 48  C 60.2109300095877 41.8705656759348  61.2847555129434 37.1150527325024  63.0488974113135 33.816874400767  C 66.2703739213806 27.8341323106424  72.0230105465005 24.8427612655801  80.3835091083413 24.8427612655801  C 87.1332694151486 24.8427612655801  91.9654841802493 26.6069031639501  94.8801534036433 29.9817833173538  C 97.7948226270374 33.4333652924257  99.2521572387344 37.4985618408437  99.2521572387344 42.1773729626079  C 99.2521572387344 45.5522531160115  98.255033557047 48.7737296260786  96.2607861936721 51.8418024928092  C 95.3403643336529 53.2991371045062  94.189837008629 54.679769894535  92.9626078619367 55.9837008628955  L 85.9060402684564 62.6567593480345  C 80.1534036433365 68.0258868648131  76.4717162032598 72.8581016299137  74.784276126558 77.0767018216683  C 73.2502396931927 80.8350910834132  72.4065196548418 85.5906040268457  72.2531160115053 91.4199424736338  L 72.2531160115053 93  L 85.5992329817833 93  C 85.5992329817833 87.5848513902205  86.2895493767977 83.0594439117929  87.7468839884947 79.9913710450624  C 89.2042186001917 76.9232981783318  92.2722914669223 73.1649089165868  97.0278044103547 68.6395014381592  C 103.624161073825 62.503355704698  107.996164908917 57.9012464046021  110.143815915628 54.679769894535  C 112.291466922339 51.5349952061362  113.365292425695 47.3930968360499  113.365292425695 42.3307766059444  C 113.365292425695 33.9702780441036  110.373921380633 27.0671140939597  104.467881112176 21.6979865771812  Z " fill-rule="nonzero" fill="url(#LinearGradient693)" stroke="none" transform="matrix(1 0 0 1 570 270 )" />
  </g>
</svg>