<?xml version="1.0" encoding="utf-8"?>
<svg version="1.1" xmlns:xlink="http://www.w3.org/1999/xlink" width="31px" height="31px" xmlns="http://www.w3.org/2000/svg">
  <g transform="matrix(1 0 0 1 -608 -356 )">
    <path d="M 29.8092042186002 21.4928092042185  C 30.9597315436242 23.1802492809204  29.6558005752637 25.2511984659636  27.7382550335571 25.0210930009588  L 21.2186001917546 24.2540747842761  C 20.4515819750719 24.1773729626079  19.7612655800575 24.4074784276127  19.2243528283797 25.0210930009588  L 14.9290508149569 29.9300095877277  C 13.6251198465964 31.3873441994247  11.4007670182167 30.7737296260786  10.9405560882071 28.9328859060403  L 9.6366251198466 22.5666347075743  C 9.48322147651007 21.7996164908917  9.02301054650049 21.1860019175455  8.25599232981784 20.9558964525408  L 2.19654841802493 18.424736337488  C 0.432406519654847 17.6577181208054  0.279002876318316 15.2032598274209  1.88974113135187 14.2828379674017  L 7.56567593480345 11.0613614573346  C 8.17929050814956 10.6778523489933  8.63950143815916 10.0642377756472  8.71620325982742 9.22051773729626  L 9.25311601150528 2.70086289549376  C 9.40651965484182 0.78331735378714  11.7075743048897 -0.0604026845637549  13.0882070949185 1.24352828379673  L 17.9204218600192 5.6155321188878  C 18.457334611697 6.15244487056565  19.3010546500479 6.38255033557046  19.9913710450623 6.15244487056565  L 26.3576222435283 4.69511025886861  C 28.1984659635666 4.23489932885903  29.7325023969319 6.15244487056565  29.0421860019175 7.91658676893572  L 26.28092042186 13.8226270373921  C 25.974113135187 14.4362416107382  25.974113135187 15.2799616490891  26.4343240651966 15.8935762224352  L 29.8092042186002 21.4928092042185  Z " fill-rule="nonzero" fill="#fcfafb" stroke="none" transform="matrix(1 0 0 1 608 356 )" />
  </g>
</svg>