<?xml version="1.0" encoding="utf-8"?>
<svg version="1.1" xmlns:xlink="http://www.w3.org/1999/xlink" width="14px" height="15px" xmlns="http://www.w3.org/2000/svg">
  <defs>
    <mask fill="white" id="clip606">
      <path d="M 12.33225 9.93833333333333  C 12.69975 10.5683333333333  12.18525 11.3733333333333  11.4135 11.2683333333333  C 11.4135 11.2683333333333  8.80425 10.9883333333333  8.80425 10.9883333333333  C 8.51025000000001 10.9533333333333  8.21625000000001 11.0583333333333  7.99575 11.2683333333333  C 7.99575 11.2683333333333  5.901 13.1583333333333  5.901 13.1583333333333  C 5.3865 13.7183333333333  4.46775 13.4733333333333  4.284 12.7733333333333  C 4.284 12.7733333333333  3.7695 10.3233333333333  3.7695 10.3233333333333  C 3.69599999999999 10.0433333333333  3.51225 9.79833333333334  3.21824999999999 9.69333333333334  C 3.21824999999999 9.69333333333334  0.792749999999996 8.71333333333333  0.792749999999996 8.71333333333333  C 0.0944999999999974 8.43333333333334  0.0209999999999946 7.13833333333334  0.682499999999998 6.78833333333333  C 0.682499999999998 6.78833333333333  2.96099999999999 5.56333333333334  2.96099999999999 5.56333333333334  C 3.21824999999999 5.42333333333334  3.402 5.17833333333334  3.43874999999999 4.86333333333334  C 3.43874999999999 4.86333333333334  3.65924999999999 2.37833333333334  3.65924999999999 2.37833333333334  C 3.73274999999999 1.64333333333334  4.65149999999999 1.32833333333334  5.20274999999999 1.81833333333334  C 5.20274999999999 1.81833333333334  7.51799999999999 3.49833333333334  7.51799999999999 3.49833333333334  C 7.73849999999999 3.70833333333334  8.06924999999999 3.77833333333334  8.36324999999999 3.70833333333334  C 8.36324999999999 3.70833333333334  10.93575 3.14833333333334  10.93575 3.14833333333334  C 11.67075 2.97333333333334  12.2955 3.70833333333334  12.0015 4.37333333333334  C 12.0015 4.37333333333334  10.899 6.64833333333334  10.899 6.64833333333334  C 10.78875 6.89333333333333  10.78875 7.55833333333333  10.9725 7.80333333333333  C 10.9725 7.80333333333333  12.33225 9.93833333333333  12.33225 9.93833333333333  Z " fill-rule="evenodd" />
    </mask>
  </defs>
  <g transform="matrix(1 0 0 1 -437 -825 )">
    <path d="M 12.33225 9.93833333333333  C 12.69975 10.5683333333333  12.18525 11.3733333333333  11.4135 11.2683333333333  C 11.4135 11.2683333333333  8.80425 10.9883333333333  8.80425 10.9883333333333  C 8.51025000000001 10.9533333333333  8.21625000000001 11.0583333333333  7.99575 11.2683333333333  C 7.99575 11.2683333333333  5.901 13.1583333333333  5.901 13.1583333333333  C 5.3865 13.7183333333333  4.46775 13.4733333333333  4.284 12.7733333333333  C 4.284 12.7733333333333  3.7695 10.3233333333333  3.7695 10.3233333333333  C 3.69599999999999 10.0433333333333  3.51225 9.79833333333334  3.21824999999999 9.69333333333334  C 3.21824999999999 9.69333333333334  0.792749999999996 8.71333333333333  0.792749999999996 8.71333333333333  C 0.0944999999999974 8.43333333333334  0.0209999999999946 7.13833333333334  0.682499999999998 6.78833333333333  C 0.682499999999998 6.78833333333333  2.96099999999999 5.56333333333334  2.96099999999999 5.56333333333334  C 3.21824999999999 5.42333333333334  3.402 5.17833333333334  3.43874999999999 4.86333333333334  C 3.43874999999999 4.86333333333334  3.65924999999999 2.37833333333334  3.65924999999999 2.37833333333334  C 3.73274999999999 1.64333333333334  4.65149999999999 1.32833333333334  5.20274999999999 1.81833333333334  C 5.20274999999999 1.81833333333334  7.51799999999999 3.49833333333334  7.51799999999999 3.49833333333334  C 7.73849999999999 3.70833333333334  8.06924999999999 3.77833333333334  8.36324999999999 3.70833333333334  C 8.36324999999999 3.70833333333334  10.93575 3.14833333333334  10.93575 3.14833333333334  C 11.67075 2.97333333333334  12.2955 3.70833333333334  12.0015 4.37333333333334  C 12.0015 4.37333333333334  10.899 6.64833333333334  10.899 6.64833333333334  C 10.78875 6.89333333333333  10.78875 7.55833333333333  10.9725 7.80333333333333  C 10.9725 7.80333333333333  12.33225 9.93833333333333  12.33225 9.93833333333333  Z " fill-rule="nonzero" fill="#ffffff" stroke="none" fill-opacity="0" transform="matrix(1 0 0 1 437 825 )" />
    <path d="M 12.33225 9.93833333333333  C 12.69975 10.5683333333333  12.18525 11.3733333333333  11.4135 11.2683333333333  C 11.4135 11.2683333333333  8.80425 10.9883333333333  8.80425 10.9883333333333  C 8.51025000000001 10.9533333333333  8.21625000000001 11.0583333333333  7.99575 11.2683333333333  C 7.99575 11.2683333333333  5.901 13.1583333333333  5.901 13.1583333333333  C 5.3865 13.7183333333333  4.46775 13.4733333333333  4.284 12.7733333333333  C 4.284 12.7733333333333  3.7695 10.3233333333333  3.7695 10.3233333333333  C 3.69599999999999 10.0433333333333  3.51225 9.79833333333334  3.21824999999999 9.69333333333334  C 3.21824999999999 9.69333333333334  0.792749999999996 8.71333333333333  0.792749999999996 8.71333333333333  C 0.0944999999999974 8.43333333333334  0.0209999999999946 7.13833333333334  0.682499999999998 6.78833333333333  C 0.682499999999998 6.78833333333333  2.96099999999999 5.56333333333334  2.96099999999999 5.56333333333334  C 3.21824999999999 5.42333333333334  3.402 5.17833333333334  3.43874999999999 4.86333333333334  C 3.43874999999999 4.86333333333334  3.65924999999999 2.37833333333334  3.65924999999999 2.37833333333334  C 3.73274999999999 1.64333333333334  4.65149999999999 1.32833333333334  5.20274999999999 1.81833333333334  C 5.20274999999999 1.81833333333334  7.51799999999999 3.49833333333334  7.51799999999999 3.49833333333334  C 7.73849999999999 3.70833333333334  8.06924999999999 3.77833333333334  8.36324999999999 3.70833333333334  C 8.36324999999999 3.70833333333334  10.93575 3.14833333333334  10.93575 3.14833333333334  C 11.67075 2.97333333333334  12.2955 3.70833333333334  12.0015 4.37333333333334  C 12.0015 4.37333333333334  10.899 6.64833333333334  10.899 6.64833333333334  C 10.78875 6.89333333333333  10.78875 7.55833333333333  10.9725 7.80333333333333  C 10.9725 7.80333333333333  12.33225 9.93833333333333  12.33225 9.93833333333333  Z " stroke-width="4" stroke="#4d4b4b" fill="none" transform="matrix(1 0 0 1 437 825 )" mask="url(#clip606)" />
  </g>
</svg>