<?xml version="1.0" encoding="utf-8"?>
<svg version="1.1" xmlns:xlink="http://www.w3.org/1999/xlink" width="14px" height="12px" xmlns="http://www.w3.org/2000/svg">
  <defs>
    <radialGradient cx="13.1830335359802" cy="1.97265054081368" r="24.4930136023592" gradientTransform="matrix(-1 -4.94983411422224E-15 2.04696888399516E-15 -0.413542926239417 26.3660670719604 2.78842621790961 )" gradientUnits="userSpaceOnUse" id="RadialGradient611">
      <stop id="Stop612" stop-color="#5c0e98" offset="0" />
      <stop id="Stop613" stop-color="#86a8e7" stop-opacity="0.996078431372549" offset="0.48" />
      <stop id="Stop614" stop-color="#d16ba5" offset="1" />
    </radialGradient>
    <radialGradient cx="13.1830335359802" cy="1.97265054081368" r="24.4930136023594" gradientTransform="matrix(-1 -1.88746421718143E-14 7.80547475545446E-15 -0.413542926239442 26.3660670719604 2.78842621790984 )" gradientUnits="userSpaceOnUse" id="RadialGradient615">
      <stop id="Stop616" stop-color="#5c0e98" offset="0" />
      <stop id="Stop617" stop-color="#86a8e7" stop-opacity="0.996078431372549" offset="0.48" />
      <stop id="Stop618" stop-color="#d16ba5" offset="1" />
    </radialGradient>
    <mask fill="white" id="clip619">
      <path d="M 12.1485 8.328  C 12.516 8.976  12.0015 9.804  11.22975 9.696  L 8.6205 9.408  C 8.3265 9.372  8.03250000000001 9.48  7.812 9.696  L 6.08475 11.64  C 5.57025 12.216  4.6515 11.964  4.46775 11.244  L 3.95325 8.724  C 3.87974999999999 8.436  3.69599999999999 8.184  3.402 8.076  L 0.976499999999997 7.068  C 0.278249999999995 6.78  0.204749999999995 5.808  0.866249999999996 5.448  L 3.14474999999999 4.188  C 3.402 4.044  3.58575 3.79200000000001  3.62249999999999 3.46800000000001  L 3.84299999999999 0.912000000000006  C 3.91649999999999 0.156000000000008  4.83524999999999 -0.167999999999995  5.38649999999999 0.336000000000009  L 7.33424999999999 2.06400000000001  C 7.55474999999999 2.28  7.88549999999999 2.35200000000001  8.17949999999999 2.28  L 10.752 1.70400000000001  C 11.487 1.524  12.11175 2.28  11.81775 2.964  L 10.71525 5.30400000000001  C 10.605 5.556  10.605 5.88  10.78875 6.132  L 12.1485 8.328  Z " fill-rule="evenodd" />
    </mask>
  </defs>
  <g transform="matrix(1 0 0 1 -437 -827 )">
    <path d="M 12.1485 8.328  C 12.516 8.976  12.0015 9.804  11.22975 9.696  L 8.6205 9.408  C 8.3265 9.372  8.03250000000001 9.48  7.812 9.696  L 6.08475 11.64  C 5.57025 12.216  4.6515 11.964  4.46775 11.244  L 3.95325 8.724  C 3.87974999999999 8.436  3.69599999999999 8.184  3.402 8.076  L 0.976499999999997 7.068  C 0.278249999999995 6.78  0.204749999999995 5.808  0.866249999999996 5.448  L 3.14474999999999 4.188  C 3.402 4.044  3.58575 3.79200000000001  3.62249999999999 3.46800000000001  L 3.84299999999999 0.912000000000006  C 3.91649999999999 0.156000000000008  4.83524999999999 -0.167999999999995  5.38649999999999 0.336000000000009  L 7.33424999999999 2.06400000000001  C 7.55474999999999 2.28  7.88549999999999 2.35200000000001  8.17949999999999 2.28  L 10.752 1.70400000000001  C 11.487 1.524  12.11175 2.28  11.81775 2.964  L 10.71525 5.30400000000001  C 10.605 5.556  10.605 5.88  10.78875 6.132  L 12.1485 8.328  Z " fill-rule="nonzero" fill="url(#RadialGradient611)" stroke="none" transform="matrix(1 0 0 1 437 827 )" />
    <path d="M 12.1485 8.328  C 12.516 8.976  12.0015 9.804  11.22975 9.696  L 8.6205 9.408  C 8.3265 9.372  8.03250000000001 9.48  7.812 9.696  L 6.08475 11.64  C 5.57025 12.216  4.6515 11.964  4.46775 11.244  L 3.95325 8.724  C 3.87974999999999 8.436  3.69599999999999 8.184  3.402 8.076  L 0.976499999999997 7.068  C 0.278249999999995 6.78  0.204749999999995 5.808  0.866249999999996 5.448  L 3.14474999999999 4.188  C 3.402 4.044  3.58575 3.79200000000001  3.62249999999999 3.46800000000001  L 3.84299999999999 0.912000000000006  C 3.91649999999999 0.156000000000008  4.83524999999999 -0.167999999999995  5.38649999999999 0.336000000000009  L 7.33424999999999 2.06400000000001  C 7.55474999999999 2.28  7.88549999999999 2.35200000000001  8.17949999999999 2.28  L 10.752 1.70400000000001  C 11.487 1.524  12.11175 2.28  11.81775 2.964  L 10.71525 5.30400000000001  C 10.605 5.556  10.605 5.88  10.78875 6.132  L 12.1485 8.328  Z " stroke-width="4" stroke="url(#RadialGradient615)" fill="none" transform="matrix(1 0 0 1 437 827 )" mask="url(#clip619)" />
  </g>
</svg>