<?xml version="1.0" encoding="utf-8"?>
<svg version="1.1" xmlns:xlink="http://www.w3.org/1999/xlink" width="36px" height="36px" xmlns="http://www.w3.org/2000/svg">
  <g transform="matrix(1 0 0 1 -723 -815 )">
    <path d="M 10.7157894736842 16.248128342246  C 11.0315789473684 16.5754010695187  11.3473684210526 16.8641711229947  11.7052631578947 17.1529411764706  C 12.5894736842105 17.8459893048128  12.6947368421053 19.0588235294118  11.9157894736842 19.8673796791444  C 11.7052631578947 20.0983957219251  11.4526315789474 20.2716577540107  11.1578947368421 20.3871657754011  C 5.89473684210526 22.4470588235294  2.10526315789474 26.4320855614973  2.10526315789474 29.627807486631  C 2.10526315789474 32.8042780748663  5.81052631578947 34.0171122994652  17.8947368421053 34.0171122994652  C 29.9789473684211 34.0171122994652  33.6842105263158 32.8042780748663  33.6842105263158 29.627807486631  C 33.6842105263158 26.4320855614973  29.8947368421053 22.4470588235294  24.6315789473684 20.3871657754011  C 23.5578947368421 19.9636363636364  23.0736842105263 18.8470588235294  23.5157894736842 17.8652406417112  C 23.6421052631579 17.5957219251337  23.8315789473684 17.3647058823529  24.0842105263158 17.172192513369  C 28.0421052631579 14.0534759358289  28.4842105263158 8.58609625668449  25.0736842105263 4.9475935828877  C 21.6631578947368 1.30909090909091  15.6631578947368 0.904812834224599  11.7052631578947 4.02352941176471  C 7.74736842105263 7.14224598930481  7.30526315789474 12.6096256684492  10.7157894736842 16.248128342246  Z M 10.3368421052632 18.6160427807487  C 10 18.3465240641711  9.66315789473684 18.0577540106952  9.34736842105263 17.7497326203209  L 9.49473684210526 16.8449197860963  C 9.26315789473684 16.9411764705882  9.01052631578947 17.0374331550802  8.77894736842105 17.1336898395722  C 4.84210526315789 12.5326203208556  5.70526315789474 5.8716577540107  10.7368421052632 2.2716577540107  C 15.7684210526316 -1.3283422459893  23.0526315789474 -0.53903743315508  26.9894736842105 4.0620320855615  C 30.2947368421053 7.89304812834225  30.2947368421053 13.3026737967914  26.9894736842105 17.1529411764706  C 26.7578947368421 17.0566844919786  26.5052631578947 16.9604278074866  26.2736842105263 16.8641711229947  L 26.4210526315789 17.7689839572193  C 26.1052631578947 18.0770053475936  25.7894736842105 18.3657754010695  25.4526315789474 18.6352941176471  C 25.8736842105263 18.7893048128342  26.2736842105263 18.9625668449198  26.6736842105263 19.1550802139037  L 26.8421052631579 20.0983957219251  C 27.0736842105263 19.9251336898396  27.2842105263158 19.7326203208556  27.4947368421053 19.5401069518717  C 32.3157894736842 22.0042780748663  35.8105263157895 25.9700534759358  35.8105263157895 29.627807486631  C 35.8105263157895 34.6524064171123  30.378947368421 35.9422459893048  17.9157894736842 35.9422459893048  C 5.45263157894737 35.9422459893048  0.0210526315789462 34.6524064171123  0.0210526315789462 29.627807486631  C 0.0210526315789462 25.9700534759358  3.49473684210526 21.9850267379679  8.33684210526316 19.5208556149733  C 8.54736842105263 19.7133689839572  8.7578947368421 19.8866310160428  8.98947368421053 20.0598930481283  L 9.1578947368421 19.1165775401069  C 9.51578947368421 18.9433155080214  9.91578947368421 18.7700534759358  10.3368421052632 18.6160427807487  Z " fill-rule="nonzero" fill="#4d4b4b" stroke="none" transform="matrix(1 0 0 1 723 815 )" />
  </g>
</svg>