<?xml version="1.0" encoding="utf-8"?>
<svg version="1.1" xmlns:xlink="http://www.w3.org/1999/xlink" width="36px" height="36px" xmlns="http://www.w3.org/2000/svg">
  <defs>
    <radialGradient cx="33.8992290925205" cy="5.91795162244105" r="62.9820349774952" gradientTransform="matrix(-1 -5.78185751233937E-15 2.78955398721088E-15 -0.48246674727932 67.798458185041 8.77316649227675 )" gradientUnits="userSpaceOnUse" id="RadialGradient632">
      <stop id="Stop633" stop-color="#5c0e98" offset="0" />
      <stop id="Stop634" stop-color="#86a8e7" stop-opacity="0.996078431372549" offset="0.48" />
      <stop id="Stop635" stop-color="#d16ba5" offset="1" />
    </radialGradient>
  </defs>
  <g transform="matrix(1 0 0 1 -723 -815 )">
    <path d="M 10.3368421052632 18.6160427807487  C 10 18.3465240641711  9.66315789473684 18.0577540106952  9.34736842105263 17.7497326203209  L 9.49473684210526 16.8449197860963  C 9.26315789473684 16.9411764705882  9.01052631578947 17.0374331550802  8.77894736842105 17.1336898395722  C 4.84210526315789 12.5326203208556  5.70526315789474 5.8716577540107  10.7368421052632 2.2716577540107  C 15.7684210526316 -1.3283422459893  23.0526315789474 -0.53903743315508  26.9894736842105 4.0620320855615  C 30.2947368421053 7.89304812834225  30.2947368421053 13.3026737967914  26.9894736842105 17.1529411764706  C 26.7578947368421 17.0566844919786  26.5052631578947 16.9604278074866  26.2736842105263 16.8641711229947  L 26.4210526315789 17.7689839572193  C 26.1052631578947 18.0770053475936  25.7894736842105 18.3657754010695  25.4526315789474 18.6352941176471  C 25.8736842105263 18.7893048128342  26.2736842105263 18.9625668449198  26.6736842105263 19.1550802139037  L 26.8421052631579 20.0983957219251  C 27.0736842105263 19.9251336898396  27.2842105263158 19.7326203208556  27.4947368421053 19.5401069518717  C 32.3157894736842 22.0042780748663  35.8105263157895 25.9700534759358  35.8105263157895 29.627807486631  C 35.8105263157895 34.6524064171123  30.378947368421 35.9422459893048  17.9157894736842 35.9422459893048  C 5.45263157894737 35.9422459893048  0.0210526315789462 34.6524064171123  0.0210526315789462 29.627807486631  C 0.0210526315789462 25.9700534759358  3.49473684210526 21.9850267379679  8.33684210526316 19.5208556149733  C 8.54736842105263 19.7133689839572  8.7578947368421 19.8866310160428  8.98947368421053 20.0598930481283  L 9.1578947368421 19.1165775401069  C 9.51578947368421 18.9433155080214  9.91578947368421 18.7700534759358  10.3368421052632 18.6160427807487  Z " fill-rule="nonzero" fill="url(#RadialGradient632)" stroke="none" transform="matrix(1 0 0 1 723 815 )" />
  </g>
</svg>