<?xml version="1.0" encoding="utf-8"?>
<svg version="1.1" xmlns:xlink="http://www.w3.org/1999/xlink" width="30px" height="34px" xmlns="http://www.w3.org/2000/svg">
  <g transform="matrix(1 0 0 1 -491 -584 )">
    <path d="M 29.9668965517241 26.6993865030675  C 29.9793103448276 26.1737423312883  29.9255172413793 25.6439263803681  29.8179310344828 25.1558282208589  C 29.8137931034483 25.1349693251534  29.768275862069 24.9096932515337  29.7020689655172 24.6260122699387  C 29.6065007310576 24.2078083574123  29.3486540564451 23.8456733295658  28.9862068965517 23.6206134969325  C 28.6253836022483 23.3917772965437  28.1881801575812 23.3195676445089  27.7737931034483 23.4203680981595  C 27.3558620689655 23.5163190184049  27 23.7749693251534  26.7765517241379 24.1420858895705  C 26.5495722069166 24.5058607036638  26.4779484344114 24.9466404546267  26.5779310344828 25.3644171779141  C 26.631724137931 25.6063803680982  26.6689655172414 25.7899386503067  26.6772413793103 25.8274846625767  C 26.7393103448276 26.1111656441718  26.768275862069 26.4031901840491  26.768275862069 26.6993865030675  C 26.768275862069 28.0260122699387  24.9144827586207 30.7334969325153  22.7668965517241 30.7334969325153  C 20.4786206896552 30.7334969325153  18.4675862068966 28.8603680981595  18.4675862068966 26.7244171779141  C 18.4675862068966 26.5658895705522  18.488275862069 26.3698159509202  18.5296551724138 26.1403680981595  L 18.5668965517241 25.9860122699386  C 18.5751724137931 25.9234355828221  18.5875862068966 25.8608588957055  18.6 25.8066257668712  C 18.6620689655172 25.560490797546  18.7448275862069 25.3060122699386  18.8441379310345 25.0640490797546  C 19.1834482758621 24.2880981595092  19.68 23.7040490797546  19.68 23.6957055214724  L 19.7131034482759 23.6581595092024  C 20.3337931034483 22.919754601227  20.8137931034483 22.4274846625767  21.2772413793103 21.9477300613497  C 22.0179310344828 21.1884662576687  22.7131034482759 20.4709202453988  23.7144827586207 19.0358282208589  C 27.3020689655172 13.8878527607362  27.6579310344827 8.71484662576686  24.711724137931 4.46380368098158  L 24.6868965517241 4.43042944785275  C 21.8110344827586 0.500613496932504  15.8689655172414 -1.63950920245399  10.5227586206896 2.13177914110429  C 6.21517241379308 5.22723926380367  6.64965517241378 10.3752147239264  7.8455172413793 14.2633128834356  C 7.52689655172414 14.2174233128834  7.21241379310344 14.1965644171779  6.90620689655172 14.1965644171779  C 3.12413793103449 14.1965644171779  0.0455172413792945 17.3003680981595  0.0455172413792945 21.1133742331288  C 0.0455172413792945 24.9263803680981  3.12413793103447 28.0301840490797  6.90620689655172 28.0301840490797  C 10.688275862069 28.0301840490797  13.7668965517241 24.9263803680981  13.7668965517241 21.1133742331288  C 13.7668965517241 20.3541104294479  13.6386206896552 19.5906748466258  13.3862068965517 18.8606134969325  C 13.3655172413793 18.7938650306748  13.3448275862069 18.7312883435583  13.32 18.6770552147239  C 13.0965517241379 18.0846625766871  12.7944827586207 17.5256441717791  12.4386206896552 17.0458895705521  C 11.0648275862069 14.3300613496932  8.31310344827585 7.69693251533741  12.3724137931034 4.77668711656441  C 16.0758620689655 2.16515337423312  20.0648275862069 3.58355828220858  22.088275862069 6.3327607361963  C 23.6330181241452 8.57379116400906  23.8504031275419 11.2496288181619  22.765062987695 14.0755150264654  C 22.3734837209763 15.0950649432627  21.8123299942886 16.1341465338526  21.0827586206897 17.1793865030675  C 20.2344827586207 18.3975460122699  19.68 18.9649079754601  18.9806896551724 19.6866257668712  C 18.5048275862069 20.1788957055215  17.9627586206897 20.7337423312883  17.271724137931 21.5555828220859  C 17.1475862068966 21.6974233128834  16.4896551724138 22.4733742331288  15.9765517241379 23.5788957055215  L 15.9475862068966 23.6289570552147  C 15.9186206896552 23.6915337423313  15.8855172413793 23.7707975460123  15.8524137931034 23.8542331288343  C 15.6620689655172 24.3089570552147  15.5172413793103 24.7678527607362  15.4303448275862 25.2100613496932  C 15.3103448275862 25.7440490797546  15.248275862069 26.2530061349693  15.248275862069 26.7285889570552  C 15.248275862069 30.6542331288343  18.6868965517241 33.9707975460123  22.7544827586207 33.9707975460123  C 26.8675862068966 33.9707975460123  29.9668965517241 29.561226993865  29.9668965517241 26.6993865030675  Z M 6.91862068965517 17.4296932515337  C 8.92965517241378 17.4296932515337  10.568275862069 19.0775460122699  10.568275862069 21.1092024539877  C 10.568275862069 23.1408588957055  8.92965517241378 24.7887116564417  6.91862068965517 24.7887116564417  C 4.90758620689655 24.7887116564417  3.26896551724137 23.1366871165644  3.26896551724137 21.1092024539877  C 3.26896551724137 19.0775460122699  4.90758620689655 17.4296932515337  6.91862068965517 17.4296932515337  Z " fill-rule="nonzero" fill="#9a9ae1" stroke="none" transform="matrix(1 0 0 1 491 584 )" />
  </g>
</svg>