<?xml version="1.0" encoding="utf-8"?>
<svg version="1.1" xmlns:xlink="http://www.w3.org/1999/xlink" width="35px" height="35px" xmlns="http://www.w3.org/2000/svg">
  <g transform="matrix(1 0 0 1 -659 -584 )">
    <path d="M 676.5 584  C 686.3 584  694 591.7  694 601.5  C 694 611.3  686.3 619  676.5 619  C 666.7 619  659 611.3  659 601.5  C 659 591.7  666.7 584  676.5 584  Z " fill-rule="nonzero" fill="#8d94df" stroke="none" />
    <path d="M 676.5 584.5  C 686.02 584.5  693.5 591.98  693.5 601.5  C 693.5 611.02  686.02 618.5  676.5 618.5  C 666.98 618.5  659.5 611.02  659.5 601.5  C 659.5 591.98  666.98 584.5  676.5 584.5  Z " stroke-width="1" stroke="#797979" fill="none" />
  </g>
</svg>