<?xml version="1.0" encoding="utf-8"?>
<svg version="1.1" xmlns:xlink="http://www.w3.org/1999/xlink" width="45px" height="45px" xmlns="http://www.w3.org/2000/svg">
  <g transform="matrix(1 0 0 1 -23 -362 )">
    <path d="M 33.10546875 26.3232421875  C 33.33984375 26.7822265625  33.37890625 27.255859375  33.22265625 27.744140625  C 32.5 30.107421875  31.15234375 32.01171875  29.1796875 33.45703125  C 27.20703125 34.90234375  24.98046875 35.625  22.5 35.625  C 20.01953125 35.625  17.79296875 34.90234375  15.8203125 33.45703125  C 13.84765625 32.01171875  12.5 30.107421875  11.77734375 27.744140625  C 11.62109375 27.255859375  11.66015625 26.7822265625  11.89453125 26.3232421875  C 12.12890625 25.8642578125  12.5 25.556640625  13.0078125 25.400390625  C 13.49609375 25.244140625  13.9697265625 25.283203125  14.4287109375 25.517578125  C 14.8876953125 25.751953125  15.1953125 26.123046875  15.3515625 26.630859375  C 15.83984375 28.193359375  16.7431640625 29.4580078125  18.0615234375 30.4248046875  C 19.3798828125 31.3916015625  20.859375 31.875  22.5 31.875  C 24.140625 31.875  25.6201171875 31.3916015625  26.9384765625 30.4248046875  C 28.2568359375 29.4580078125  29.16015625 28.193359375  29.6484375 26.630859375  C 29.8046875 26.123046875  30.1171875 25.751953125  30.5859375 25.517578125  C 31.0546875 25.283203125  31.533203125 25.244140625  32.021484375 25.400390625  C 32.509765625 25.556640625  32.87109375 25.8642578125  33.10546875 26.3232421875  Z M 17.6513671875 12.3486328125  C 18.3837890625 13.0810546875  18.75 13.96484375  18.75 15  C 18.75 16.03515625  18.3837890625 16.9189453125  17.6513671875 17.6513671875  C 16.9189453125 18.3837890625  16.03515625 18.75  15 18.75  C 13.96484375 18.75  13.0810546875 18.3837890625  12.3486328125 17.6513671875  C 11.6162109375 16.9189453125  11.25 16.03515625  11.25 15  C 11.25 13.96484375  11.6162109375 13.0810546875  12.3486328125 12.3486328125  C 13.0810546875 11.6162109375  13.96484375 11.25  15 11.25  C 16.03515625 11.25  16.9189453125 11.6162109375  17.6513671875 12.3486328125  Z M 32.6513671875 12.3486328125  C 33.3837890625 13.0810546875  33.75 13.96484375  33.75 15  C 33.75 16.03515625  33.3837890625 16.9189453125  32.6513671875 17.6513671875  C 31.9189453125 18.3837890625  31.03515625 18.75  30 18.75  C 28.96484375 18.75  28.0810546875 18.3837890625  27.3486328125 17.6513671875  C 26.6162109375 16.9189453125  26.25 16.03515625  26.25 15  C 26.25 13.96484375  26.6162109375 13.0810546875  27.3486328125 12.3486328125  C 28.0810546875 11.6162109375  28.96484375 11.25  30 11.25  C 31.03515625 11.25  31.9189453125 11.6162109375  32.6513671875 12.3486328125  Z M 39.755859375 29.7802734375  C 40.751953125 27.4658203125  41.25 25.0390625  41.25 22.5  C 41.25 19.9609375  40.751953125 17.5341796875  39.755859375 15.2197265625  C 38.759765625 12.9052734375  37.4267578125 10.9130859375  35.7568359375 9.2431640625  C 34.0869140625 7.5732421875  32.0947265625 6.240234375  29.7802734375 5.244140625  C 27.4658203125 4.248046875  25.0390625 3.75  22.5 3.75  C 19.9609375 3.75  17.5341796875 4.248046875  15.2197265625 5.244140625  C 12.9052734375 6.240234375  10.9130859375 7.5732421875  9.2431640625 9.2431640625  C 7.5732421875 10.9130859375  6.240234375 12.9052734375  5.244140625 15.2197265625  C 4.248046875 17.5341796875  3.75 19.9609375  3.75 22.5  C 3.75 25.0390625  4.248046875 27.4658203125  5.244140625 29.7802734375  C 6.240234375 32.0947265625  7.5732421875 34.0869140625  9.2431640625 35.7568359375  C 10.9130859375 37.4267578125  12.9052734375 38.759765625  15.2197265625 39.755859375  C 17.5341796875 40.751953125  19.9609375 41.25  22.5 41.25  C 25.0390625 41.25  27.4658203125 40.751953125  29.7802734375 39.755859375  C 32.0947265625 38.759765625  34.0869140625 37.4267578125  35.7568359375 35.7568359375  C 37.4267578125 34.0869140625  38.759765625 32.0947265625  39.755859375 29.7802734375  Z M 41.982421875 11.2060546875  C 43.994140625 14.6533203125  45 18.41796875  45 22.5  C 45 26.58203125  43.994140625 30.3466796875  41.982421875 33.7939453125  C 39.970703125 37.2412109375  37.2412109375 39.970703125  33.7939453125 41.982421875  C 30.3466796875 43.994140625  26.58203125 45  22.5 45  C 18.41796875 45  14.6533203125 43.994140625  11.2060546875 41.982421875  C 7.7587890625 39.970703125  5.029296875 37.2412109375  3.017578125 33.7939453125  C 1.005859375 30.3466796875  0 26.58203125  0 22.5  C 0 18.41796875  1.005859375 14.6533203125  3.017578125 11.2060546875  C 5.029296875 7.7587890625  7.7587890625 5.029296875  11.2060546875 3.017578125  C 14.6533203125 1.005859375  18.41796875 0  22.5 0  C 26.58203125 0  30.3466796875 1.005859375  33.7939453125 3.017578125  C 37.2412109375 5.029296875  39.970703125 7.7587890625  41.982421875 11.2060546875  Z " fill-rule="nonzero" fill="#ffffff" stroke="none" transform="matrix(1 0 0 1 23 362 )" />
  </g>
</svg>