<?xml version="1.0" encoding="utf-8"?>
<svg version="1.1" xmlns:xlink="http://www.w3.org/1999/xlink" width="32px" height="32px" xmlns="http://www.w3.org/2000/svg">
  <g transform="matrix(1 0 0 1 -651 -817 )">
    <path d="M 9.556 17.044  C 12.544 17.044  14.956 19.456  14.884 22.444  L 14.884 26.566  C 14.884 29.5  12.49 31.894  9.556 31.894  L 5.434 31.894  C 2.518 31.894  0.105999999999999 29.5  0.105999999999999 26.566  L 0.105999999999999 22.372  C 0.105999999999999 19.456  2.5 17.044  5.434 17.044  L 9.556 17.044  Z M 5.434 29.644  C 5.434 29.644  9.556 29.644  9.556 29.644  C 11.212 29.644  12.634 28.294  12.634 26.566  L 12.634 22.444  C 12.634 20.788  11.284 19.366  9.556 19.366  L 5.434 19.366  C 3.778 19.366  2.356 20.716  2.356 22.444  L 2.356 26.566  C 2.356 28.222  3.706 29.644  5.434 29.644  Z M 26.494 17.044  C 29.428 17.044  31.822 19.456  31.822 22.444  L 31.822 26.566  C 31.822 29.5  29.428 31.894  26.494 31.894  L 22.372 31.894  C 19.438 31.894  17.044 29.5  17.044 26.566  L 17.044 22.372  C 17.044 19.456  19.438 17.044  22.372 17.044  L 26.494 17.044  Z M 19.294 26.566  C 19.294 28.222  20.644 29.644  22.372 29.644  L 26.494 29.644  C 28.15 29.644  29.572 28.294  29.572 26.566  L 29.572 22.444  C 29.572 20.788  28.222 19.366  26.494 19.366  L 22.372 19.366  C 20.716 19.366  19.294 20.716  19.294 22.444  L 19.294 26.566  Z M 9.556 0.106  C 12.544 0.106  14.956 2.5  14.884 5.434  L 14.884 9.556  C 14.884 12.49  12.49 14.884  9.556 14.884  L 5.434 14.884  C 2.518 14.884  0.105999999999999 12.49  0.105999999999999 9.556  L 0.105999999999999 5.434  C 0.106 2.5  2.5 0.106  5.434 0.106  L 9.556 0.106  Z M 2.356 9.628  C 2.356 11.284  3.706 12.706  5.434 12.706  L 9.556 12.706  C 11.212 12.706  12.634 11.356  12.634 9.628  L 12.634 5.506  C 12.634 3.85  11.284 2.428  9.556 2.428  L 5.434 2.428  C 3.778 2.428  2.356 3.778  2.356 5.506  L 2.356 9.628  Z " fill-rule="nonzero" fill="#4d4b4b" stroke="none" transform="matrix(1 0 0 1 651 817 )" />
  </g>
</svg>