<?xml version="1.0" encoding="utf-8"?>
<svg version="1.1" xmlns:xlink="http://www.w3.org/1999/xlink" width="15px" height="15px" xmlns="http://www.w3.org/2000/svg">
  <g transform="matrix(1 0 0 1 -668 -817 )">
    <path d="M 13.112 11.824  C 14.03 11.95  14.642 10.96  14.21 10.186  L 12.626 7.576  C 12.41 7.27  12.41 6.892  12.536 6.586  L 13.814 3.796  C 14.156 2.986  13.436 2.086  12.572 2.302  L 9.566 2.986  C 9.224 3.076  8.846 2.986  8.576 2.734  L 6.308 0.682  C 5.66 0.088000000000001  4.598 0.466000000000001  4.508 1.366  L 4.256 4.408  C 4.22 4.786  4.004 5.092  3.698 5.272  L 1.034 6.766  C 0.259999999999998 7.198  0.349999999999998 8.35  1.16 8.692  L 3.986 9.898  C 4.328 10.024  4.544 10.33  4.634 10.672  L 5.228 13.678  C 5.444 14.542  6.506 14.83  7.118 14.146  L 9.134 11.824  C 9.386 11.572  9.728 11.446  10.07 11.482  L 13.112 11.824  Z M 11.618 9.088  C 11.852 9.556  11.492 10.15  10.952 10.078  L 9.116 9.88  C 8.918 9.862  8.70199999999999 9.934  8.54 10.078  L 7.334 11.464  C 6.974 11.878  6.326 11.698  6.2 11.176  L 5.84 9.376  C 5.786 9.178  5.66 8.998  5.462 8.908  L 3.752 8.188  C 3.266 7.99  3.212 7.288  3.68 7.036  L 5.282 6.136  C 5.462 6.028  5.588 5.848  5.624 5.614  L 5.786 3.778  C 5.84 3.238  6.488 3.004  6.866 3.364  L 8.234 4.606  C 8.396 4.768  8.612 4.804  8.828 4.768  L 10.628 4.354  C 11.15 4.228  11.582 4.768  11.384 5.254  L 10.61 6.928  C 10.538 7.108  10.538 7.342  10.664 7.522  L 11.618 9.088  Z " fill-rule="nonzero" fill="#4d4b4b" stroke="none" transform="matrix(1 0 0 1 668 817 )" />
  </g>
</svg>