<?xml version="1.0" encoding="utf-8"?>
<svg version="1.1" xmlns:xlink="http://www.w3.org/1999/xlink" width="32px" height="32px" xmlns="http://www.w3.org/2000/svg">
  <defs>
    <radialGradient cx="30.1326480822395" cy="5.2604014421695" r="54.7435868350448" gradientTransform="matrix(-0.986850521028817 0.161635544188622 -0.0779837752494074 -0.476122560931676 60.2792935059633 2.89449027772689 )" gradientUnits="userSpaceOnUse" id="RadialGradient586">
      <stop id="Stop587" stop-color="#5c0e98" offset="0" />
      <stop id="Stop588" stop-color="#86a8e7" stop-opacity="0.996078431372549" offset="0.6" />
      <stop id="Stop589" stop-color="#d16ba5" offset="1" />
    </radialGradient>
  </defs>
  <g transform="matrix(1 0 0 1 -651 -817 )">
    <path d="M 14.6217142857143 11.4331428571429  C 14.6011428571429 13.1611428571429  13.1611428571429 14.6011428571429  11.4331428571429 14.6011428571429  L 3.24571428571429 14.6011428571429  C 1.47657142857143 14.6011428571429  0.0571428571428569 13.1817142857143  0.0571428571428569 11.4125714285714  L 0.0571428571428569 3.22514285714286  C 0.0571428571428569 1.47657142857143  1.47657142857143 0.0571428571428569  3.24571428571429 0.0571428571428569  L 11.4331428571429 0.0571428571428569  C 13.2022857142857 0.0571428571428569  14.6217142857143 1.47657142857143  14.6217142857143 3.24571428571429  L 14.6217142857143 11.4331428571429  Z M 11.4331428571429 31.9634285714286  L 3.24571428571429 31.9634285714286  C 1.47657142857143 31.9634285714286  0.0571428571428569 30.544  0.0571428571428569 28.7748571428571  L 0.0571428571428569 20.5874285714286  C 0.0571428571428569 18.8182857142857  1.47657142857143 17.3988571428571  3.24571428571429 17.3988571428571  L 11.4331428571429 17.3988571428571  C 13.2022857142857 17.3988571428571  14.6217142857143 18.8182857142857  14.6217142857143 20.5874285714286  L 14.6217142857143 28.7542857142857  C 14.6011428571429 30.5234285714286  13.1611428571429 31.9634285714286  11.4331428571429 31.9634285714286  Z M 28.7542857142857 31.9634285714286  L 20.5668571428571 31.9634285714286  C 18.7977142857143 31.9634285714286  17.3782857142857 30.544  17.3782857142857 28.7748571428571  L 17.3782857142857 20.5874285714286  C 17.3782857142857 18.8182857142857  18.7977142857143 17.3988571428571  20.5668571428571 17.3988571428571  L 28.7542857142857 17.3988571428571  C 30.5234285714286 17.3988571428571  31.9428571428571 18.8182857142857  31.9428571428571 20.5874285714286  L 31.9428571428571 28.7542857142857  C 31.9634285714286 30.5234285714286  30.5234285714286 31.9634285714286  28.7542857142857 31.9634285714286  Z " fill-rule="nonzero" fill="url(#RadialGradient586)" stroke="none" transform="matrix(1 0 0 1 651 817 )" />
  </g>
</svg>