<?xml version="1.0" encoding="utf-8"?>
<svg version="1.1" xmlns:xlink="http://www.w3.org/1999/xlink" width="19px" height="19px" xmlns="http://www.w3.org/2000/svg">
  <defs>
    <radialGradient cx="16.3069306930683" cy="2.49504950495155" r="25.5888670834764" gradientTransform="matrix(0.46602099895577 -0.552124458870891 0.764178241332641 0.64500512825384 6.80089601885033 9.88918506376605 )" gradientUnits="userSpaceOnUse" id="RadialGradient590">
      <stop id="Stop591" stop-color="#5c0e98" offset="0" />
      <stop id="Stop592" stop-color="#86a8e7" stop-opacity="0.996078431372549" offset="0.44" />
      <stop id="Stop593" stop-color="#d16ba5" offset="1" />
    </radialGradient>
  </defs>
  <g transform="matrix(1 0 0 1 -666 -815 )">
    <path d="M 17.7612 13.0492  C 18.2856 14.0296  17.5104 15.2836  16.3704 15.124  L 12.5172 14.6908  C 12.084 14.6452  11.6508 14.8048  11.3316 15.124  L 8.778 18.0652  C 8.0256 18.9316  6.6576 18.544  6.384 17.4724  L 5.63160000000001 13.6648  C 5.51760000000001 13.2316  5.24400000000001 12.844  4.81080000000001 12.6844  L 1.23120000000001 11.1568  C 0.205200000000008 10.7236  0.091200000000008 9.2644  1.0716 8.7172  L 4.44600000000001 6.8248  C 4.83360000000001 6.5968  5.10720000000001 6.232  5.15280000000001 5.7304  L 5.472 1.8772  C 5.586 0.737200000000003  6.93120000000001 0.258400000000003  7.75200000000001 1.0108  L 10.6248 3.61  C 10.944 3.9292  11.4456 4.0432  11.8788 3.9292  L 15.6864 3.0628  C 16.7808 2.7892  17.6928 3.9292  17.2596 4.9552  L 15.6408 8.4892  C 15.4812 8.8768  15.4812 9.3556  15.7548 9.7432  L 17.7612 13.0492  Z " fill-rule="nonzero" fill="url(#RadialGradient590)" stroke="none" transform="matrix(1 0 0 1 666 815 )" />
  </g>
</svg>