<?xml version="1.0" encoding="utf-8"?>
<svg version="1.1" xmlns:xlink="http://www.w3.org/1999/xlink" width="36px" height="36px" xmlns="http://www.w3.org/2000/svg">
  <g transform="matrix(1 0 0 1 -499 -815 )">
    <path d="M 4.8 31.4752293577982  C 5.77021276595747 31.4752293577982  6.71489361702133 31.4752293577982  7.99148936170213 31.0458715596332  L 8.62978723404267 31.0458715596332  C 11.1829787234043 33.9522935779815  14.3744680851064 36  18.2042553191489 36  C 25.8638297872341 36  31.9148936170213 28.1394495412844  31.9148936170213 18.2311926605502  C 31.9148936170213 17.4055045871561  31.9148936170213 16.1504587155963  31.5829787234043 15.3247706422019  L 32.5531914893616 14.0697247706423  C 35.4382978723405 10.337614678899  36.3829787234043 7.03486238532105  35.4382978723405 4.55779816513772  C 34.4936170212765 2.08073394495423  30.9702127659575 1.65137614678889  25.8638297872341 3.30275229357793  C 23.6170212765957 0.825688073394601  21.0638297872341 0  18.2042553191489 0  C 10.5446808510637 0  4.1617021276596 7.82752293577988  4.1617021276596 17.7357798165137  L 4.1617021276596 18.1651376146789  C 0.638297872340399 22.7229357798164  -0.638297872340399 26.4220183486239  0.331914893617068 28.8990825688073  C 0.970212765957331 30.6165137614677  2.5531914893616 31.4422018348623  4.8 31.4752293577982  Z M 30.3319148936171 17.8018348623854  C 30 26.5211009174312  24.5872340425532 33.5229357798167  18.2042553191489 33.5229357798167  C 15.3191489361703 33.5229357798167  12.7659574468085 32.2678899082569  10.8510638297872 30.2201834862386  C 14.0425531914893 28.965137614679  17.8723404255319 27.3137614678898  21.3957446808511 24.4403669724772  C 24.9191489361703 21.9633027522935  27.7787234042553 19.4862385321102  30.3319148936171 16.5798165137615  L 30.3319148936171 17.8018348623854  Z M 26.8085106382979 3.79816513761466  C 30.9702127659575 2.54311926605503  33.8297872340425 2.97247706422006  34.8 5.05321100917429  C 35.4382978723405 6.70458715596333  34.4680851063829 9.61100917431185  31.9148936170213 13.3100917431192  L 31.5829787234043 13.7394495412842  C 30.6382978723405 9.57798165137608  29.0553191489361 6.27522935779815  26.8085106382979 3.79816513761466  Z M 18.2042553191489 2.14678899082577  C 24.2553191489363 2.14678899082577  29.3617021276596 7.92660550458735  30 15.3577981651375  C 27.4468085106383 18.2642201834863  24.2553191489363 21.1376146788992  20.7319148936171 23.6146788990826  C 16.9021276595744 26.0917431192659  13.072340425532 28.1724770642201  9.88085106382973 29.394495412844  C 7.327659574468 26.5211009174312  6.0510638297872 22.3926605504585  6.0510638297872 17.8348623853211  C 6.0510638297872 9.18165137614682  11.4893617021277 2.14678899082577  18.2042553191489 2.14678899082577  Z M 0.970212765957331 28.5688073394495  C 0.331914893617068 26.4880733944956  1.60851063829787 23.6146788990826  4.1617021276596 19.9155963302751  C 4.49361702127653 23.6146788990826  5.74468085106387 27.3467889908258  7.68510638297867 29.8238532110092  C 4.1617021276596 30.6495412844038  1.94042553191493 30.2532110091742  0.970212765957331 28.5688073394495  Z " fill-rule="nonzero" fill="#4d4b4b" stroke="none" transform="matrix(1 0 0 1 499 815 )" />
  </g>
</svg>