<?xml version="1.0" encoding="utf-8"?>
<svg version="1.1" xmlns:xlink="http://www.w3.org/1999/xlink" width="36px" height="36px" xmlns="http://www.w3.org/2000/svg">
  <g transform="matrix(1 0 0 1 -427 -815 )">
    <path d="M 445 816  C 454.52 816  462 823.48  462 833  C 462 842.52  454.52 850  445 850  C 435.48 850  428 842.52  428 833  C 428 823.48  435.48 816  445 816  Z " fill-rule="nonzero" fill="#ffffff" stroke="none" fill-opacity="0" />
    <path d="M 445 816  C 454.52 816  462 823.48  462 833  C 462 842.52  454.52 850  445 850  C 435.48 850  428 842.52  428 833  C 428 823.48  435.48 816  445 816  Z " stroke-width="2" stroke="#4d4b4b" fill="none" />
  </g>
</svg>