<?xml version="1.0" encoding="utf-8"?>
<svg version="1.1" xmlns:xlink="http://www.w3.org/1999/xlink" width="29px" height="28px" xmlns="http://www.w3.org/2000/svg">
  <g transform="matrix(1 0 0 1 -447 -499 )">
    <path d="M 21.8255208333333 1.0625  L 27.7161458333333 5.9375  C 28.0685763888889 6.22916666666666  28.3706597222222 6.625  28.6223958333333 7.125  C 28.8741319444444 7.625  29 8.08333333333333  29 8.5  L 29 26.5  C 29 26.9166666666667  28.8237847222222 27.2708333333333  28.4713541666667 27.5625  C 28.1189236111111 27.8541666666667  27.6909722222222 28  27.1875 28  L 1.8125 28  C 1.30902777777778 28  0.881076388888889 27.8541666666667  0.528645833333333 27.5625  C 0.176215277777778 27.2708333333333  0 26.9166666666667  0 26.5  L 0 1.5  C 0 1.08333333333333  0.176215277777778 0.729166666666666  0.528645833333333 0.4375  C 0.881076388888889 0.145833333333334  1.30902777777778 0  1.8125 0  L 18.7291666666667 0  C 19.2326388888889 0  19.7864583333333 0.104166666666668  20.390625 0.3125  C 20.9947916666667 0.520833333333333  21.4730902777778 0.770833333333332  21.8255208333333 1.0625  Z M 20.107421875 2.46875  C 19.9563802083333 2.34375  19.6983506944444 2.22916666666666  19.3333333333333 2.125  L 19.3333333333333 8  L 26.4322916666667 8  C 26.3064236111111 7.69791666666666  26.16796875 7.484375  26.0169270833333 7.359375  L 20.107421875 2.46875  Z M 2.41666666666667 26  L 26.5833333333333 26  L 26.5833333333333 10  L 18.7291666666667 10  C 18.2256944444444 10  17.7977430555556 9.85416666666666  17.4453125 9.5625  C 17.0928819444444 9.27083333333333  16.9166666666667 8.91666666666666  16.9166666666667 8.5  L 16.9166666666667 2  L 2.41666666666667 2  L 2.41666666666667 26  Z M 7.25 12  L 14.5 12  C 15.1545138888889 12  15.7209201388889 12.1979166666667  16.19921875 12.59375  C 16.6775173611111 12.9895833333333  16.9166666666667 13.4583333333333  16.9166666666667 14  L 16.9166666666667 20  C 16.9166666666667 20.5416666666667  16.6775173611111 21.0104166666667  16.19921875 21.40625  C 15.7209201388889 21.8020833333333  15.1545138888889 22  14.5 22  L 7.25 22  C 6.59548611111111 22  6.02907986111111 21.8020833333333  5.55078125 21.40625  C 5.07248263888889 21.0104166666667  4.83333333333333 20.5416666666667  4.83333333333333 20  L 4.83333333333333 14  C 4.83333333333333 13.4583333333333  5.07248263888889 12.9895833333333  5.55078125 12.59375  C 6.02907986111111 12.1979166666667  6.59548611111111 12  7.25 12  Z M 23.5625 12  C 23.6128472222222 12  23.6883680555556 12.0104166666667  23.7890625 12.03125  C 24.0407986111111 12.1145833333333  24.1666666666667 12.2708333333333  24.1666666666667 12.5  L 24.1666666666667 21.5  C 24.1666666666667 21.7291666666667  24.0407986111111 21.8854166666667  23.7890625 21.96875  C 23.6883680555556 21.9895833333333  23.6128472222222 22  23.5625 22  C 23.3862847222222 22  23.2415364583333 21.953125  23.1282552083333 21.859375  L 18.125 17.703125  L 18.125 16.296875  L 23.1282552083333 12.140625  C 23.2415364583333 12.046875  23.3862847222222 12  23.5625 12  Z " fill-rule="nonzero" fill="#ffffff" stroke="none" transform="matrix(1 0 0 1 447 499 )" />
  </g>
</svg>