<?xml version="1.0" encoding="utf-8"?>
<svg version="1.1" xmlns:xlink="http://www.w3.org/1999/xlink" width="18px" height="28px" xmlns="http://www.w3.org/2000/svg">
  <g transform="matrix(1 0 0 1 -422 -134 )">
    <path d="M 17.6907216494845 1.68336673346693  C 17.8969072164948 1.87040748162992  18 2.08550434201736  18 2.32865731462926  C 18 2.57181028724115  17.8969072164948 2.78690714762859  17.6907216494845 2.97394789579158  L 5.5360824742268 14  L 17.6907216494845 25.0260521042084  C 17.8969072164948 25.2130928523714  18 25.4281897127589  18 25.6713426853707  C 18 25.9144956579826  17.8969072164948 26.1295925183701  17.6907216494845 26.3166332665331  L 16.1443298969072 27.7194388777555  C 15.9381443298969 27.9064796259185  15.7010309278351 28  15.4329896907216 28  C 15.1649484536083 28  14.9278350515464 27.9064796259185  14.7216494845361 27.7194388777555  L 0.309278350515464 14.6452905811623  C 0.103092783505155 14.4582498329993  0 14.2431529726119  0 14  C 0 13.7568470273881  0.103092783505155 13.5417501670007  0.309278350515464 13.3547094188377  L 14.7216494845361 0.280561122244489  C 14.9278350515464 0.0935203740814954  15.1649484536083 0  15.4329896907216 0  C 15.7010309278351 0  15.9381443298969 0.0935203740814954  16.1443298969072 0.280561122244489  L 17.6907216494845 1.68336673346693  Z " fill-rule="nonzero" fill="#000000" stroke="none" transform="matrix(1 0 0 1 422 134 )" />
  </g>
</svg>