<?xml version="1.0" encoding="utf-8"?>
<svg version="1.1" xmlns:xlink="http://www.w3.org/1999/xlink" width="40px" height="41px" xmlns="http://www.w3.org/2000/svg">
  <g transform="matrix(1 0 0 1 -614 -796 )">
    <path d="M 38.1647058823529 31.9147727272727  C 39.8117647058824 31.2159090909091  39.9294117647059 28.5369318181818  39.8117647058824 26.90625  L 39.8117647058824 26.7897727272727  C 39.1058823529412 22.7130681818182  36.5176470588235 19.9176136363636  35.3411764705882 18.7528409090909  C 35.5764705882353 15.7244318181818  34.6352941176471 14.2102272727273  33.9294117647059 13.6278409090909  C 33.3411764705882 2.91193181818182  24.8705882352941 0.116477272727273  20.2823529411765 0.116477272727273  L 19.8117647058824 0.116477272727273  C 15.1058823529412 0.116477272727273  6.63529411764706 2.91193181818182  6.04705882352941 13.6278409090909  C 5.34117647058823 14.3267045454545  4.4 15.7244318181818  4.63529411764706 18.7528409090909  C 3.57647058823529 19.8011363636364  0.988235294117644 22.7130681818182  0.164705882352939 26.7897727272727  L 0.164705882352939 26.90625  C 0.0470588235294091 28.5369318181818  0.164705882352939 31.3323863636364  1.92941176470588 31.9147727272727  C 2.16470588235294 32.03125  2.4 32.03125  2.51764705882353 32.03125  C 3.45882352941176 32.03125  4.4 31.3323863636364  5.2235294117647 30.2840909090909  C 5.57647058823529 30.9829545454545  6.04705882352941 31.6818181818182  6.51764705882353 32.4971590909091  C 5.2235294117647 33.3125  3.81176470588235 34.8267045454545  4.04705882352941 36.9232954545455  C 4.04705882352941 37.2727272727273  4.16470588235294 38.2045454545455  5.10588235294117 39.0198863636364  C 6.4 40.3011363636364  8.63529411764706 40.8835227272727  11.9294117647059 40.8835227272727  L 12.7529411764706 40.8835227272727  C 13.3411764705882 40.8835227272727  17.8117647058824 40.4176136363636  19.9294117647059 38.4375  L 20.2823529411765 38.4375  C 22.4 40.4176136363636  26.9882352941176 40.7670454545455  27.5764705882353 40.8835227272727  L 28.2823529411765 40.8835227272727  C 31.4588235294118 40.8835227272727  33.8117647058824 40.1846590909091  34.9882352941176 39.0198863636364  C 35.8117647058824 38.0880681818182  36.0470588235294 37.2727272727273  36.0470588235294 36.9232954545455  C 36.2823529411765 34.8267045454545  34.8705882352941 33.3125  33.5764705882353 32.4971590909091  C 34.1647058823529 31.6818181818182  34.5176470588235 30.9829545454545  34.8705882352941 30.2840909090909  C 35.6941176470588 31.2159090909091  36.6352941176471 32.03125  37.5764705882353 32.03125  C 37.8117647058823 32.03125  38.0470588235294 32.03125  38.1647058823529 31.9147727272727  Z M 37.2235294117647 29.46875  C 37.1058823529412 29.3522727272727  36.7529411764706 29.1193181818182  36.4 28.6534090909091  C 35.9294117647059 28.0710227272727  35.3411764705882 27.8380681818182  34.6352941176471 27.8380681818182  L 34.4 27.8380681818182  C 33.5764705882353 27.9545454545455  32.9882352941176 28.4204545454545  32.6352941176471 29.1193181818182  C 32.2823529411765 29.8181818181818  31.8117647058823 30.5170454545455  31.4588235294118 31.0994318181818  C 31.1058823529412 31.5653409090909  30.9882352941176 32.2642045454545  31.1058823529412 32.8465909090909  C 31.2235294117647 33.4289772727273  31.5764705882353 34.0113636363636  32.1647058823529 34.3607954545455  C 33.2235294117647 34.9431818181818  33.6941176470588 35.7585227272727  33.5764705882353 36.5738636363636  L 33.5764705882353 36.6903409090909  C 33.5764705882353 36.6903409090909  33.5764705882353 36.9232954545455  33.2235294117647 37.2727272727273  C 32.7529411764706 37.7386363636364  31.4588235294118 38.5539772727273  28.1647058823529 38.5539772727273  L 27.5764705882353 38.5539772727273  C 25.8117647058824 38.4375  22.9882352941176 37.8551136363636  21.8117647058823 36.8068181818182  C 21.3411764705882 36.3409090909091  20.7529411764706 36.2244318181818  20.1647058823529 36.2244318181818  L 19.8117647058824 36.2244318181818  C 19.2235294117647 36.2244318181818  18.6352941176471 36.4573863636364  18.1647058823529 36.8068181818182  C 16.9882352941176 37.8551136363636  14.1647058823529 38.4375  12.4 38.5539772727273  L 11.6941176470588 38.5539772727273  C 8.28235294117647 38.5539772727273  6.98823529411764 37.7386363636364  6.63529411764706 37.2727272727273  C 6.28235294117647 36.9232954545455  6.28235294117647 36.6903409090909  6.28235294117647 36.6903409090909  L 6.28235294117647 36.5738636363636  C 6.16470588235294 35.7585227272727  6.63529411764706 34.9431818181818  7.69411764705882 34.3607954545455  C 8.28235294117647 34.0113636363636  8.63529411764706 33.4289772727273  8.75294117647059 32.8465909090909  C 8.87058823529411 32.2642045454545  8.75294117647059 31.5653409090909  8.4 31.0994318181818  C 7.92941176470588 30.5170454545455  7.57647058823529 29.8181818181818  7.2235294117647 29.1193181818182  C 6.87058823529411 28.4204545454545  6.16470588235294 27.9545454545455  5.45882352941176 27.8380681818182  L 5.2235294117647 27.8380681818182  C 4.51764705882353 27.8380681818182  3.92941176470588 28.1875  3.45882352941176 28.6534090909091  C 3.10588235294117 29.1193181818182  2.87058823529411 29.3522727272727  2.63529411764706 29.46875  C 2.51764705882353 29.1193181818182  2.28235294117647 28.3039772727273  2.4 27.0227272727273  C 2.98823529411764 23.6448863636364  5.2235294117647 21.1988636363636  6.16470588235294 20.3835227272727  C 6.63529411764706 19.9176136363636  6.87058823529411 19.21875  6.87058823529411 18.5198863636364  C 6.75294117647059 16.1903409090909  7.34117647058823 15.4914772727273  7.57647058823529 15.2585227272727  C 8.04705882352941 14.7926136363636  8.28235294117647 14.3267045454545  8.4 13.6278409090909  C 8.87058823529411 2.79545454545455  18.6352941176471 2.44602272727273  19.6941176470588 2.44602272727273  L 20.1647058823529 2.44602272727273  C 21.1058823529412 2.44602272727273  24.2823529411765 2.5625  27.1058823529412 4.65909090909091  C 29.8117647058824 6.63920454545455  31.2235294117647 9.66761363636364  31.4588235294118 13.6278409090909  C 31.4588235294118 14.2102272727273  31.8117647058823 14.7926136363636  32.2823529411765 15.2585227272727  C 32.5176470588235 15.4914772727273  33.1058823529412 16.1903409090909  32.9882352941176 18.5198863636364  C 32.9882352941176 19.21875  33.2235294117647 19.9176136363636  33.6941176470588 20.3835227272727  C 34.6352941176471 21.3153409090909  36.7529411764706 23.7613636363636  37.4588235294118 27.0227272727273  C 37.5764705882353 28.4204545454545  37.4588235294118 29.1193181818182  37.2235294117647 29.46875  Z " fill-rule="nonzero" fill="#898989" stroke="none" transform="matrix(1 0 0 1 614 796 )" />
  </g>
</svg>