<?xml version="1.0" encoding="utf-8"?>
<svg version="1.1" xmlns:xlink="http://www.w3.org/1999/xlink" width="27px" height="29px" xmlns="http://www.w3.org/2000/svg">
  <g transform="matrix(1 0 0 1 -626 -806 )">
    <path d="M 26.6383928571429 20.5088  C 26.5419642857143 20.416  26.2767857142857 20.2536  26.0116071428571 19.8824  C 25.65 19.4416  25.2160714285714 19.256  24.6616071428571 19.256  L 24.4928571428571 19.256  C 23.8660714285714 19.3488  22.9741071428571 18.908  22.7089285714286 19.4184  C 22.44375 19.9288  21.43125 20.996  21.1660714285714 21.4368  C 20.9008928571429 21.7848  21.9133928571429 22.5968  21.9857142857143 23.0144  C 22.0821428571429 23.4552  22.3473214285714 23.896  22.78125 24.1512  C 23.5767857142857 24.592  23.9383928571429 25.1952  23.8660714285714 25.8216  L 23.8660714285714 25.9144  C 23.8660714285714 25.9144  23.8660714285714 26.1  23.6008928571429 26.3552  C 23.2392857142857 26.7032  22.7571428571429 28.2112  20.25 28.2112  L 19.2857142857143 28.3272  C 19.2857142857143 28.3272  19.2857142857143 28.3272  19.2616071428572 28.3272  C 17.9116071428572 28.2344  16.4410714285714 29.464  15.5491071428572 28.6752  C 15.1875 28.3272  14.4642857142857 28.536  14.0303571428572 28.536  C 14.00625 28.536  14.00625 28.536  13.9821428571429 28.5592  L 13.2348214285714 28.9536  C 13.2107142857143 28.9536  13.1866071428572 28.9768  13.1866071428572 28.9768  C 12.7767857142857 28.9536  12.7044642857143 28.6752  12.31875 28.4432  C 12.2946428571429 28.4432  12.2946428571429 28.42  12.2705357142857 28.42  C 10.8723214285714 28.188  9.08839285714287 27.2832  7.73839285714287 27.376  L 7.15982142857144 27.376  C 4.55625000000001 27.376  3.56785714285715 26.7496  3.30267857142858 26.4016  C 3.03750000000001 26.1464  3.03750000000001 25.9608  3.03750000000001 25.9608  L 3.03750000000001 25.8912  C 2.94107142857144 25.2648  3.30267857142858 24.6616  4.12232142857144 24.2208  C 4.58035714285715 23.9656  4.84553571428572 23.5248  4.91785714285715 23.084  C 4.99017857142858 22.6432  4.91785714285715 22.1096  4.65267857142858 21.7616  C 4.29107142857144 21.3208  4.02589285714287 20.7872  3.7607142857143 20.2768  C 3.49553571428572 19.7664  2.96517857142858 19.3952  2.4107142857143 19.3024  L 2.2419642857143 19.3024  C 1.71160714285715 19.3024  1.25357142857144 19.5576  0.891964285714297 19.9288  C 0.699107142857154 20.184  0.530357142857154 20.3696  0.385714285714298 20.4624  C 0.337500000000012 20.5088  0.241071428571442 20.4856  0.216964285714297 20.416  C 0.120535714285725 20.1144  0.0241071428571552 19.5344  0.0964285714285831 18.6992  C 0.0964285714285831 18.6992  0.0964285714285831 18.6992  0.0964285714285831 18.676  C 0.554464285714299 16.124  2.2419642857143 14.2912  2.96517857142858 13.6648  C 3.32678571428573 13.3168  3.49553571428573 12.7832  3.49553571428573 12.2496  C 3.39910714285716 10.4864  3.85714285714287 9.97600000000001  4.02589285714287 9.79040000000001  C 4.38750000000001 9.44240000000001  4.55625000000002 9.09440000000001  4.65267857142858 8.56080000000001  C 4.65267857142858 8.56080000000001  4.65267857142858 8.56080000000001  4.65267857142858 8.53760000000001  C 5.01428571428573 0.371200000000012  12.4633928571429 0.0928000000000129  13.2589285714286 0.0928000000000129  L 13.6205357142857 0.0928000000000129  C 14.34375 0.0928000000000129  16.7544642857143 0.185600000000013  18.9241071428572 1.76320000000001  C 20.9973214285714 3.24800000000001  22.0580357142857 5.54480000000001  22.2508928571429 8.53760000000001  C 22.2508928571429 8.97840000000001  22.5160714285714 9.41920000000001  22.8776785714286 9.76720000000001  C 23.0464285714286 9.95280000000001  24.7339285714286 9.34960000000001  24.6375 11.1128  C 24.6375 11.6464  24.6616071428572 12.992  25.0232142857143 13.34  C 25.7464285714286 14.036  26.2767857142857 16.1704  26.83125 18.6296  C 26.83125 18.6296  26.83125 18.6296  26.83125 18.6528  C 26.9035714285714 19.72  26.8071428571429 20.2536  26.6383928571429 20.5088  Z " fill-rule="nonzero" fill="#9a9ae1" stroke="none" transform="matrix(1 0 0 1 626 806 )" />
  </g>
</svg>