<?xml version="1.0" encoding="utf-8"?>
<svg version="1.1" xmlns:xlink="http://www.w3.org/1999/xlink" width="8px" height="9px" xmlns="http://www.w3.org/2000/svg">
  <g transform="matrix(1 0 0 1 -622 -805 )">
    <path d="M 7.87878787878788 6.22058823529411  C 8.12121212121212 6.69705882352941  7.78181818181818 7.30588235294117  7.27272727272727 7.22647058823529  L 5.55151515151515 7.01470588235294  C 5.35757575757576 6.98823529411765  5.16363636363637 7.06764705882353  5.01818181818182 7.22647058823529  L 3.87878787878788 8.65588235294118  C 3.53939393939394 9.07941176470588  2.93333333333333 8.89411764705883  2.81212121212121 8.36470588235294  L 2.47272727272727 6.51176470588235  C 2.42424242424242 6.3  2.3030303030303 6.11470588235294  2.10909090909091 6.03529411764706  L 0.509090909090909 5.29411764705882  C 0.0484848484848492 5.08235294117647  0 4.36764705882353  0.436363636363637 4.10294117647059  L 1.93939393939394 3.17647058823529  C 2.10909090909091 3.07058823529412  2.23030303030303 2.88529411764706  2.25454545454545 2.64705882352941  L 2.4 0.767647058823529  C 2.44848484848485 0.211764705882352  3.05454545454545 -0.0264705882352945  3.41818181818182 0.344117647058823  L 4.7030303030303 1.61470588235294  C 4.84848484848485 1.7735294117647  5.06666666666666 1.82647058823529  5.26060606060606 1.7735294117647  L 6.95757575757575 1.35  C 7.44242424242424 1.21764705882353  7.85454545454545 1.7735294117647  7.66060606060606 2.27647058823529  L 6.93333333333333 3.99705882352941  C 6.86060606060606 4.18235294117647  6.86060606060606 4.42058823529411  6.98181818181818 4.60588235294117  L 7.87878787878788 6.22058823529411  Z " fill-rule="nonzero" fill="#636fce" stroke="none" transform="matrix(1 0 0 1 622 805 )" />
  </g>
</svg>