<?xml version="1.0" encoding="utf-8"?>
<svg version="1.1" xmlns:xlink="http://www.w3.org/1999/xlink" width="3px" height="3px" xmlns="http://www.w3.org/2000/svg">
  <g transform="matrix(1 0 0 1 -632 -813 )">
    <path d="M 2.94 2.12  C 2.98 2.3  2.86 2.5  2.68 2.46  L 2.08 2.4  C 2.02 2.4  1.94 2.42  1.9 2.46  L 1.5 2.92  C 1.38 3.06  1.16 3  1.12 2.82  L 1 2.22  C 0.980000000000001 2.16  0.940000000000001 2.1  0.880000000000001 2.06  L 0.320000000000002 1.82  C 0.160000000000002 1.76  0.140000000000001 1.52  0.300000000000003 1.44  L 0.820000000000002 1.14  C 0.880000000000001 1.1  0.920000000000002 1.04  0.940000000000001 0.959999999999997  L 1 0.359999999999997  C 1.02 0.179999999999995  1.22 0.0999999999999972  1.36 0.219999999999996  L 1.82 0.619999999999996  C 1.88 0.679999999999996  1.94 0.679999999999996  2.02 0.679999999999996  L 2.62 0.539999999999995  C 2.8 0.499999999999994  2.94 0.679999999999996  2.86 0.839999999999995  L 2.6 1.4  C 2.58 1.46  2.58 1.54  2.62 1.6  L 2.94 2.12  Z " fill-rule="nonzero" fill="#636fce" stroke="none" transform="matrix(1 0 0 1 632 813 )" />
  </g>
</svg>