<?xml version="1.0" encoding="utf-8"?>
<svg version="1.1" xmlns:xlink="http://www.w3.org/1999/xlink" width="48px" height="40px" xmlns="http://www.w3.org/2000/svg">
  <g transform="matrix(1 0 0 1 -530 -798 )">
    <path d="M 23.3033846153846 12.6206060606061  C 24.5218461538462 12.6206060606061  25.3341538461538 11.8206060606061  25.3341538461538 10.5939393939394  C 25.3341538461538 9.36727272727273  24.5218461538462 8.56727272727273  23.3033846153846 8.56727272727273  C 22.0849230769231 8.56727272727273  20.8664615384615 9.36727272727273  20.8664615384615 10.5939393939394  C 20.8664615384615 11.8206060606061  22.0849230769231 12.6206060606061  23.3033846153846 12.6206060606061  Z M 11.9852307692308 8.59393939393939  C 10.7667692307692 8.59393939393939  9.54830769230769 9.39393939393939  9.54830769230769 10.6206060606061  C 9.54830769230769 11.8206060606061  10.7667692307692 12.6472727272727  11.9852307692308 12.6472727272727  C 13.2036923076923 12.6472727272727  13.9889230769231 11.8206060606061  13.9889230769231 10.6206060606061  C 14.016 9.39393939393939  13.2036923076923 8.59393939393939  11.9852307692308 8.59393939393939  Z M 47.4830769230769 25.5806060606061  C 47.4830769230769 19.1806060606061  41.5532307692308 13.7406060606061  34.2695384615385 13.1539393939394  C 34.2695384615385 13.0739393939394  34.2966153846154 12.9939393939394  34.2695384615385 12.9139393939394  C 32.8073846153846 6.11393939393939  25.4966153846154 0.967272727272725  17.2381538461538 0.967272727272725  C 7.9236923076923 0.967272727272725  0.342153846153842 7.47393939393939  0.342153846153842 15.4739393939394  C 0.342153846153842 19.7672727272727  2.53538461538461 23.6339393939394  6.67815384615384 26.6739393939394  L 5.24307692307692 31.0206060606061  C 5.16184615384615 31.3139393939394  5.24307692307692 31.6072727272727  5.45969230769231 31.8206060606061  C 5.59507692307692 31.9272727272727  5.75753846153846 32.0072727272727  5.94707692307692 32.0072727272727  C 6.05538461538461 32.0072727272727  6.1636923076923 31.9806060606061  6.272 31.9272727272727  L 11.6873846153846 29.2072727272727  L 12.3643076923077 29.3406060606061  C 14.0430769230769 29.6872727272727  15.4781538461538 29.9806060606061  17.2652307692308 29.9806060606061  C 17.7796923076923 29.9806060606061  18.3212307692308 29.9539393939394  18.8356923076923 29.9006060606061  C 19.0523076923077 29.8739393939394  19.2147692307692 29.7672727272727  19.3501538461538 29.6339393939394  C 21.2996923076923 34.5406060606061  26.688 38.060606060606  33.0510769230769 38.060606060606  C 34.6756923076923 38.060606060606  36.3273846153846 37.6606060606061  37.7895384615385 37.2872727272727  L 41.9593846153846 39.5806060606061  C 42.0676923076923 39.6339393939394  42.2030769230769 39.6606060606061  42.3113846153846 39.6606060606061  C 42.4738461538462 39.6606060606061  42.6363076923077 39.6072727272727  42.7716923076923 39.5006060606061  C 43.0153846153846 39.3139393939394  43.0966153846154 38.9939393939394  43.0153846153846 38.7272727272727  L 41.9593846153846 35.1806060606061  C 45.5064615384615 32.3272727272727  47.4830769230769 28.9406060606061  47.4830769230769 25.5806060606061  Z M 18.7003076923077 28.4339393939394  C 18.2129230769231 28.4872727272727  17.7255384615385 28.4872727272727  17.2381538461538 28.4872727272727  C 15.6135384615385 28.4872727272727  14.2326153846154 28.1939393939394  12.6350769230769 27.8739393939394  L 11.7144615384615 27.6872727272727  C 11.552 27.6606060606061  11.3895384615385 27.6872727272727  11.2541538461538 27.7406060606061  L 7.19261538461538 29.7672727272727  L 8.24861538461538 26.5939393939394  C 8.35692307692308 26.2739393939394  8.24861538461538 25.9539393939394  7.97784615384615 25.7672727272727  C 3.88923076923077 22.9406060606061  1.80430769230769 19.4739393939394  1.80430769230769 15.4739393939394  C 1.80430769230769 8.30060606060606  8.736 2.46060606060606  17.2381538461538 2.46060606060606  C 24.7655384615385 2.46060606060606  31.4264615384615 7.04727272727273  32.7803076923077 13.1272727272727  C 24.9009230769231 13.2339393939394  18.5107692307692 18.7806060606061  18.5107692307692 25.5806060606061  C 18.5107692307692 26.5672727272727  18.6732307692308 27.5272727272727  18.9169230769231 28.4606060606061  C 18.8627692307692 28.4339393939394  18.7815384615385 28.4072727272727  18.7003076923077 28.4339393939394  Z M 40.6326153846154 34.3006060606061  C 40.3889230769231 34.4872727272727  40.2806153846154 34.8072727272727  40.3618461538461 35.1006060606061  L 41.0658461538462 37.4206060606061  L 38.1956923076923 35.8472727272727  C 38.0873846153846 35.7939393939394  37.9790769230769 35.7672727272727  37.8436923076923 35.7672727272727  C 37.7895384615385 35.7672727272727  37.7353846153846 35.7672727272727  37.6541538461538 35.7939393939394  C 36.1107692307692 36.1672727272727  34.5403076923077 36.5939393939394  32.9969230769231 36.5939393939394  C 25.8215384615385 36.5939393939394  19.9729230769231 31.6606060606061  19.9729230769231 25.5806060606061  C 19.9729230769231 19.5006060606061  25.8215384615385 14.5939393939394  32.9969230769231 14.5939393939394  C 40.0369230769231 14.5939393939394  45.9938461538462 19.6339393939394  45.9938461538462 25.5806060606061  C 46.0209230769231 28.5939393939394  44.0984615384615 31.6872727272727  40.6326153846154 34.3006060606061  Z M 28.5563076923077 20.3272727272727  C 27.744 20.3272727272727  26.9316923076923 21.1539393939394  26.9316923076923 21.9539393939394  C 26.9316923076923 22.7806060606061  27.744 23.5806060606061  28.5563076923077 23.5806060606061  C 29.7747692307692 23.5806060606061  30.5870769230769 22.7806060606061  30.5870769230769 21.9539393939394  C 30.5870769230769 21.1272727272727  29.7747692307692 20.3272727272727  28.5563076923077 20.3272727272727  Z M 37.4375384615385 20.3272727272727  C 36.6252307692308 20.3272727272727  35.84 21.1539393939394  35.84 21.9539393939394  C 35.84 22.7806060606061  36.6523076923077 23.5806060606061  37.4375384615385 23.5806060606061  C 38.656 23.5806060606061  39.4683076923077 22.7806060606061  39.4683076923077 21.9539393939394  C 39.4683076923077 21.1272727272727  38.656 20.3272727272727  37.4375384615385 20.3272727272727  Z " fill-rule="nonzero" fill="#898989" stroke="none" transform="matrix(1 0 0 1 530 798 )" />
  </g>
</svg>