<?xml version="1.0" encoding="utf-8"?>
<svg version="1.1" xmlns:xlink="http://www.w3.org/1999/xlink" width="10px" height="10px" xmlns="http://www.w3.org/2000/svg">
  <g transform="matrix(1 0 0 1 -560 -823 )">
    <path d="M 9.495 6.86750000000001  C 9.77 7.3625  9.385 7.995  8.8075 7.9125  L 6.855 7.6925  C 6.635 7.665  6.41500000000001 7.74749999999999  6.25000000000001 7.9125  L 4.95750000000001 9.3975  C 4.57250000000001 9.8375  3.88500000000001 9.645  3.74750000000001 9.095  L 3.36250000000001 7.17000000000001  C 3.30750000000001 6.95  3.17000000000001 6.75750000000001  2.95000000000001 6.675  L 1.13500000000001 5.905  C 0.612500000000007 5.68499999999999  0.557500000000011 4.9425  1.05250000000001 4.6675  L 2.7575 3.705  C 2.95 3.595  3.0875 3.4025  3.11500000000001 3.155  L 3.28 1.2025  C 3.335 0.625  4.0225 0.3775  4.435 0.762499999999999  L 5.89250000000001 2.0825  C 6.0575 2.2475  6.30500000000001 2.30250000000001  6.52500000000001 2.2475  L 8.45000000000001 1.8075  C 9.00000000000001 1.67  9.46750000000001 2.2475  9.24750000000001 2.77  L 8.42250000000001 4.55750000000001  C 8.34000000000001 4.75  8.34000000000001 4.9975  8.4775 5.19000000000001  L 9.495 6.86750000000001  Z " fill-rule="nonzero" fill="#c777b9" stroke="none" transform="matrix(1 0 0 1 560 823 )" />
  </g>
</svg>