<?xml version="1.0" encoding="utf-8"?>
<svg version="1.1" xmlns:xlink="http://www.w3.org/1999/xlink" width="23px" height="23px" xmlns="http://www.w3.org/2000/svg">
  <g transform="matrix(1 0 0 1 -581 -456 )">
    <path d="M 16.9205729166667 13.4541015625  C 17.0403645833333 13.6886935763889  17.0603298611111 13.9307725694444  16.98046875 14.1803385416667  C 16.6111111111111 15.3882378472222  15.9223090277778 16.3615451388889  14.9140625 17.1002604166667  C 13.9058159722222 17.8389756944444  12.7677951388889 18.2083333333333  11.5 18.2083333333333  C 10.2322048611111 18.2083333333333  9.09418402777778 17.8389756944444  8.0859375 17.1002604166667  C 7.07769097222222 16.3615451388889  6.38888888888889 15.3882378472222  6.01953125 14.1803385416667  C 5.93967013888889 13.9307725694444  5.95963541666667 13.6886935763889  6.07942708333333 13.4541015625  C 6.19921875 13.2195095486111  6.38888888888889 13.0622829861111  6.6484375 12.982421875  C 6.89800347222222 12.9025607638889  7.14008246527778 12.9225260416667  7.37467447916667 13.0423177083333  C 7.60926649305556 13.162109375  7.76649305555556 13.3517795138889  7.84635416666667 13.611328125  C 8.09592013888889 14.4099392361111  8.5576171875 15.0563151041667  9.2314453125 15.5504557291667  C 9.9052734375 16.0445963541667  10.6614583333333 16.2916666666667  11.5 16.2916666666667  C 12.3385416666667 16.2916666666667  13.0947265625 16.0445963541667  13.7685546875 15.5504557291667  C 14.4423828125 15.0563151041667  14.9040798611111 14.4099392361111  15.1536458333333 13.611328125  C 15.2335069444444 13.3517795138889  15.3932291666667 13.162109375  15.6328125 13.0423177083333  C 15.8723958333333 12.9225260416667  16.1169704861111 12.9025607638889  16.3665364583333 12.982421875  C 16.6161024305556 13.0622829861111  16.80078125 13.2195095486111  16.9205729166667 13.4541015625  Z M 9.02180989583333 6.3115234375  C 9.39615885416667 6.68587239583333  9.58333333333333 7.13758680555555  9.58333333333333 7.66666666666667  C 9.58333333333333 8.19574652777778  9.39615885416667 8.6474609375  9.02180989583333 9.02180989583333  C 8.6474609375 9.39615885416667  8.19574652777778 9.58333333333333  7.66666666666667 9.58333333333333  C 7.13758680555556 9.58333333333333  6.68587239583333 9.39615885416667  6.3115234375 9.02180989583333  C 5.93717447916667 8.6474609375  5.75 8.19574652777778  5.75 7.66666666666667  C 5.75 7.13758680555555  5.93717447916667 6.68587239583333  6.3115234375 6.3115234375  C 6.68587239583333 5.93717447916667  7.13758680555556 5.75  7.66666666666667 5.75  C 8.19574652777778 5.75  8.6474609375 5.93717447916667  9.02180989583333 6.3115234375  Z M 16.6884765625 6.3115234375  C 17.0628255208333 6.68587239583333  17.25 7.13758680555555  17.25 7.66666666666667  C 17.25 8.19574652777778  17.0628255208333 8.6474609375  16.6884765625 9.02180989583333  C 16.3141276041667 9.39615885416667  15.8624131944444 9.58333333333333  15.3333333333333 9.58333333333333  C 14.8042534722222 9.58333333333333  14.3525390625 9.39615885416667  13.9781901041667 9.02180989583333  C 13.6038411458333 8.6474609375  13.4166666666667 8.19574652777778  13.4166666666667 7.66666666666667  C 13.4166666666667 7.13758680555555  13.6038411458333 6.68587239583333  13.9781901041667 6.3115234375  C 14.3525390625 5.93717447916667  14.8042534722222 5.75  15.3333333333333 5.75  C 15.8624131944444 5.75  16.3141276041667 5.93717447916667  16.6884765625 6.3115234375  Z M 20.3196614583333 15.2210286458333  C 20.8287760416667 14.0380859375  21.0833333333333 12.7977430555556  21.0833333333333 11.5  C 21.0833333333333 10.2022569444444  20.8287760416667 8.9619140625  20.3196614583333 7.77897135416667  C 19.810546875 6.59602864583333  19.1292317708333 5.57779947916667  18.2757161458333 4.72428385416667  C 17.4222005208333 3.87076822916667  16.4039713541667 3.189453125  15.2210286458333 2.68033854166667  C 14.0380859375 2.17122395833333  12.7977430555556 1.91666666666667  11.5 1.91666666666667  C 10.2022569444444 1.91666666666667  8.9619140625 2.17122395833333  7.77897135416667 2.68033854166667  C 6.59602864583333 3.189453125  5.57779947916667 3.87076822916667  4.72428385416667 4.72428385416667  C 3.87076822916667 5.57779947916667  3.189453125 6.59602864583333  2.68033854166667 7.77897135416667  C 2.17122395833333 8.9619140625  1.91666666666667 10.2022569444444  1.91666666666667 11.5  C 1.91666666666667 12.7977430555556  2.17122395833333 14.0380859375  2.68033854166667 15.2210286458333  C 3.189453125 16.4039713541667  3.87076822916667 17.4222005208333  4.72428385416667 18.2757161458333  C 5.57779947916667 19.1292317708333  6.59602864583333 19.810546875  7.77897135416667 20.3196614583333  C 8.9619140625 20.8287760416667  10.2022569444444 21.0833333333333  11.5 21.0833333333333  C 12.7977430555556 21.0833333333333  14.0380859375 20.8287760416667  15.2210286458333 20.3196614583333  C 16.4039713541667 19.810546875  17.4222005208333 19.1292317708333  18.2757161458333 18.2757161458333  C 19.1292317708333 17.4222005208333  19.810546875 16.4039713541667  20.3196614583333 15.2210286458333  Z M 21.4576822916667 5.7275390625  C 22.4858940972222 7.48947482638889  23 9.41362847222222  23 11.5  C 23 13.5863715277778  22.4858940972222 15.5105251736111  21.4576822916667 17.2724609375  C 20.4294704861111 19.0343967013889  19.0343967013889 20.4294704861111  17.2724609375 21.4576822916667  C 15.5105251736111 22.4858940972222  13.5863715277778 23  11.5 23  C 9.41362847222222 23  7.48947482638889 22.4858940972222  5.7275390625 21.4576822916667  C 3.96560329861111 20.4294704861111  2.57052951388889 19.0343967013889  1.54231770833333 17.2724609375  C 0.514105902777778 15.5105251736111  0 13.5863715277778  0 11.5  C 0 9.41362847222222  0.514105902777778 7.48947482638889  1.54231770833333 5.7275390625  C 2.57052951388889 3.96560329861111  3.96560329861111 2.57052951388889  5.7275390625 1.54231770833333  C 7.48947482638889 0.514105902777776  9.41362847222222 0  11.5 0  C 13.5863715277778 0  15.5105251736111 0.514105902777776  17.2724609375 1.54231770833333  C 19.0343967013889 2.57052951388889  20.4294704861111 3.96560329861111  21.4576822916667 5.7275390625  Z " fill-rule="nonzero" fill="#797979" stroke="none" transform="matrix(1 0 0 1 581 456 )" />
  </g>
</svg>