<?xml version="1.0" encoding="utf-8"?>
<svg version="1.1" xmlns:xlink="http://www.w3.org/1999/xlink" width="32px" height="32px" xmlns="http://www.w3.org/2000/svg">
  <g transform="matrix(1 0 0 1 -734 -134 )">
    <path d="M 1.6778885483871 17.1234721290323  L 1.67939003225806 17.1234721290323  C 2.40009383870968 17.1234721290323  2.98566567741935 16.5379002903226  2.98566567741935 15.817196483871  C 2.98566567741935 8.6236715483871  8.81285629032258 2.770956  15.9748504516129 2.770956  C 19.0642769060825 2.76225654858889  22.0534642749684 3.86667813242718  24.3950733225806 5.88199412903226  L 23.1969032258065 5.88199412903226  C 22.4754670990007 5.88199412903226  21.8906275645161 6.4668336635168  21.8906275645161 7.18826979032258  C 21.8906275645161 7.90970591712836  22.4754670990007 8.4945454516129  23.1969032258065 8.4945454516129  L 27.4865923870968 8.4945454516129  C 28.2072961935484 8.4945454516129  28.7928680322581 7.90897361290323  28.7928680322581 7.18826980645161  L 28.7928680322581 2.87906158064516  C 28.7928680322581 2.15762545383938  28.2080284977735 1.57278591935484  27.4865923709677 1.57278591935484  C 26.765156244162 1.57278591935484  26.1803167096774 2.15762545383938  26.1803167096774 2.87906158064516  L 26.1803167096774 3.96912609677419  C 23.3541101068227 1.5005761929869  19.7258216131888 0.145438729284337  15.9733489677419 0.156903225806452  C 7.37144867741935 0.156903225806452  0.371612903225807 7.18226393548387  0.371612903225807 15.817196483871  C 0.371612903225807 16.5379002903226  0.957184741935484 17.1234721290323  1.6778885483871 17.1234721290323  Z M 30.4354721290323 14.5619706774194  L 30.4354721290323 14.5604691935484  C 30.4349713466398 14.5604686175981  30.4344705639594 14.5604683296229  30.4339697812358 14.5604683296229  C 29.7125336633378 14.5604683296229  29.1276941360745 15.1453078568862  29.1276941360745 15.8667439747842  C 29.1276941360745 15.8672447575078  29.1276944240497 15.8677455401882  29.127695 15.8682463225806  C 29.127695 23.0602697741936  23.3020058387097 28.9129853225806  16.1385102580645 28.9129853225806  C 13.0861420072581 28.9222527862107  10.1300876149685 27.8450014173561  7.79936658064516 25.8740175806452  L 9.05459238709677 25.8740175806452  C 9.77644312831676 25.8740175806452  10.3616187741935 25.2888419347684  10.3616187741935 24.5669911935484  C 10.3616187741935 23.8451404523284  9.77644312831676 23.2599648064516  9.05459238709677 23.2599648064516  L 4.76490322580645 23.2599648064516  L 4.73187096774194 23.2629677419355  C 4.68232258064516 23.2629677419355  4.63277419354839 23.2719765483871  4.58172435483871 23.2779824193548  C 4.54719064516129 23.2839882903226  4.50965396774193 23.2869912258065  4.47361877419355 23.2944985483871  C 4.43007625806452 23.3050088064516  4.38803519354839 23.320023483871  4.34599412903226 23.3350381290323  C 4.306956 23.3500528064516  4.26641641935484 23.3605630645161  4.22887977419355 23.3770791935484  C 4.19284458064516 23.3935953225806  4.15831087096774 23.4146158387097  4.12377712903226 23.4341349032258  C 4.0832375483871 23.4581583548387  4.04269793548387 23.4791789032258  4.00365983870968 23.5077067419355  C 3.99465103225806 23.5152140645161  3.98263932258064 23.518217  3.97363048387097 23.5257243548387  C 3.95110848387097 23.5437419354839  3.93459235483871 23.564762483871  3.91357183870968 23.5827800645161  C 3.81227047971478 23.6655417314318  3.72593286004702 23.7650839306642  3.65832258064516 23.8770674516129  C 3.54621842982525 24.0618758715788  3.48029538497717 24.270975529802  3.46613490322581 24.4866627419355  C 3.4646334516129 24.5136891290323  3.45862758064516 24.5392140645161  3.45862758064516 24.5677419354839  L 3.45862758064516 28.8769501612903  C 3.45862758064516 29.5983862791883  4.04346710790849 30.1832258064516  4.76490322580645 30.1832258064516  C 5.48633934370441 30.1832258064516  6.07117887096774 29.5983862791883  6.07117887096774 28.8769501612903  L 6.07117887096774 27.8364340322581  C 8.87857852441569 30.2293451900542  12.4496912669542 31.538486889169  16.1385102580645 31.5270381290323  C 24.7419120322581 31.5270381290323  31.7417478064516 24.5016774193548  31.7417478064516 15.8682463225806  C 31.7417478064516 15.1468102046827  31.1569082791883 14.5619706774194  30.4354721612903 14.5619706774194  Z " fill-rule="nonzero" fill="#ffffff" stroke="none" transform="matrix(1 0 0 1 734 134 )" />
  </g>
</svg>