<?xml version="1.0" encoding="utf-8"?>
<svg version="1.1" xmlns:xlink="http://www.w3.org/1999/xlink" width="32px" height="32px" xmlns="http://www.w3.org/2000/svg">
  <g transform="matrix(1 0 0 1 -734 -233 )">
    <path d="M 12.0669693243536 0.313719894363464  C 12.0707900036813 0.313719894363464  12.0746106827797 0.313721755556256  12.0784313602941 0.313725477941176  C 17.2602965347428 0.313525569176079  21.8326333261293 3.70249396845319  23.3396078308823 8.66039216911765  C 28.2950619323558 10.1669114717574  31.68233899425 14.7370359177064  31.68233899425 19.9164302607774  C 31.68233899425 26.4138979058456  26.4151007569652 31.6811361431303  19.9176331118971 31.6811361431303  C 14.7387035301072 31.6811361431303  10.1688743964894 28.2944562585987  8.66196077205882 23.3396078308823  C 3.6979678796786 21.8386607570508  0.302263442000677 17.2643748271839  0.302263442000677 12.0784257767164  C 0.302263442000677 5.58095813164825  5.56950167928546 0.313719894363464  12.0669693243536 0.313719894363464  Z M 23.8196078308824 11.3537254779412  L 23.8211764705882 11.3537254779412  L 23.8368627573529 11.6988235294118  L 23.8431372426471 12.0784313602941  C 23.8431372488289 18.5762803896686  18.5758990115441 23.8435186269534  12.0784313664759 23.8435186269534  C 11.8366905661173 23.8435186269534  11.5950071923851 23.8360677040173  11.3537254779412 23.8211764705882  C 12.8827201594618 27.1769673715443  16.2306785520027 29.3306377316481  19.9183820795464 29.3306377316481  C 25.1163561956009 29.3306377316481  29.3301467854287 25.1168471418203  29.3301467854287 19.9188730257658  C 29.3301467854287 16.230740654719  27.1759813613617 12.8824756570942  23.8196078308824 11.3537254779412  Z M 20.6462745220588 8.17882352941176  C 19.1179098274368 4.82065971289041  15.7680331686212 2.66550288909428  12.0784313602941 2.66666665441177  C 12.0758430861477 2.66666451905236  12.0732548112262 2.66666345137252  12.070666536199 2.66666345137252  C 6.87269242014444 2.66666345137252  2.65890183031662 6.88045404120034  2.65890183031662 12.0784281572549  C 2.65890183031662 15.770293474906  4.81737890126406 19.1212261017843  8.17882352941177 20.647843125  L 8.16313724264706 20.3027451102941  L 8.15686275735294 19.9215686397059  C 8.15686275117115 13.4237196103314  13.4241009884559 8.15648137304657  19.9215686335241 8.15648137304657  C 20.1633094338827 8.15648137304657  20.4049928076149 8.16393229598265  20.6462745220588 8.17882352941176  Z " fill-rule="nonzero" fill="#ffffff" stroke="none" transform="matrix(1 0 0 1 734 233 )" />
  </g>
</svg>