<?xml version="1.0" encoding="utf-8"?>
<svg version="1.1" xmlns:xlink="http://www.w3.org/1999/xlink" width="34px" height="32px" xmlns="http://www.w3.org/2000/svg">
  <g transform="matrix(1 0 0 1 -732 -328 )">
    <path d="M 31.044921875 31.3717105263158  C 26.5193359375 31.3618421052632  21.9970703125 31.3618421052632  17.471484375 31.3618421052632  C 12.9193359375 31.3618421052632  8.3638671875 31.3618421052632  3.81171875 31.3651315789474  C 3.300390625 31.3651315789474  2.901953125 31.1776315789474  2.6330078125 30.7434210526316  C 2.4736328125 30.4835526315789  2.4537109375 30.1907894736842  2.4669921875 29.8980263157895  C 2.4869140625 29.4506578947368  2.5068359375 29.0032894736842  2.5533203125 28.5592105263158  C 2.649609375 27.6447368421053  2.82890625 26.75  3.0912109375 25.8684210526316  C 3.50625 24.4868421052632  4.1205078125 23.2006578947368  4.9140625 21.9934210526316  C 5.624609375 20.9144736842105  6.4712890625 19.9506578947368  7.4341796875 19.0855263157895  C 8.5431640625 18.0921052631579  9.7783203125 17.2861842105263  11.1330078125 16.6578947368421  C 12.424609375 16.0559210526316  13.7759765625 15.6546052631579  15.1904296875 15.4440789473684  C 16.1267578125 15.3059210526316  17.0697265625 15.2434210526316  18.016015625 15.2828947368421  C 19.9583984375 15.358552631579  21.8244140625 15.7697368421053  23.60078125 16.5657894736842  C 24.8890625 17.1447368421053  26.077734375 17.8782894736842  27.1568359375 18.7828947368421  C 28.521484375 19.9276315789474  29.6470703125 21.2697368421053  30.5302734375 22.8125  C 31.323828125 24.2039473684211  31.88828125 25.6809210526316  32.19375 27.2532894736842  C 32.3431640625 28.0230263157895  32.439453125 28.8026315789474  32.4626953125 29.5888157894737  C 32.4693359375 29.8421052631579  32.5025390625 30.0953947368421  32.459375 30.3519736842105  C 32.3630859375 30.921052631579  31.8650390625 31.3519736842105  31.2806640625 31.3684210526316  C 31.2009765625 31.3717105263158  31.124609375 31.3717105263158  31.044921875 31.3717105263158  Z M 5.2294921875 28.9078947368421  C 9.3068359375 28.9046052631579  13.3908203125 28.9046052631579  17.471484375 28.9046052631579  L 20.2705078125 28.9046052631579  C 23.4380859375 28.9046052631579  26.608984375 28.9046052631579  29.7765625 28.9078947368421  C 29.8927734375 28.9078947368421  29.94921875 28.8881578947368  29.916015625 28.7598684210526  C 29.8994140625 28.6940789473684  29.8994140625 28.6217105263158  29.889453125 28.5526315789474  C 29.7267578125 27.2105263157895  29.33828125 25.9342105263158  28.740625 24.7203947368421  C 27.9703125 23.1611842105263  26.92109375 21.8157894736842  25.586328125 20.6875  C 24.391015625 19.6776315789474  23.0529296875 18.9177631578947  21.5720703125 18.4078947368421  C 20.0580078125 17.8848684210526  18.50078125 17.6677631578947  16.900390625 17.7434210526316  C 16.329296875 17.7697368421053  15.7615234375 17.8322368421053  15.1970703125 17.9342105263158  C 13.872265625 18.1710526315789  12.623828125 18.6217105263158  11.441796875 19.2664473684211  C 10.126953125 19.9835526315789  8.978125 20.9078947368421  7.9986328125 22.0296052631579  C 6.793359375 23.4111842105263  5.93671875 24.9835526315789  5.4287109375 26.7401315789474  C 5.2328125 27.4177631578947  5.1 28.1052631578947  5.026953125 28.8059210526316  C 5.0203125 28.8815789473684  5.0369140625 28.9144736842105  5.1166015625 28.9078947368421  C 5.153125 28.9046052631579  5.1896484375 28.9078947368421  5.2294921875 28.9078947368421  Z M 17.49140625 0.769736842105262  C 21.2732421875 0.789473684210525  24.3279296875 3.8125  24.3212890625 7.55592105263158  C 24.3212890625 11.2467105263158  21.3263671875 14.3388157894737  17.471484375 14.3355263157895  C 13.633203125 14.3322368421053  10.61171875 11.2730263157895  10.625 7.52960526315789  C 10.63828125 3.72039473684211  13.779296875 0.746710526315789  17.49140625 0.769736842105262  Z M 13.10859375 7.55921052631579  C 13.115234375 10.0657894736842  15.18046875 11.8881578947368  17.46484375 11.8717105263158  C 19.8123046875 11.8914473684211  21.827734375 10.0032894736842  21.841015625 7.57565789473684  C 21.854296875 5.12171052631579  19.85546875 3.22697368421053  17.4814453125 3.22368421052632  C 15.1041015625 3.22039473684211  13.0986328125 5.10197368421053  13.10859375 7.55921052631579  Z M 30.015625 17.9671052631579  C 29.769921875 18.4046052631579  29.398046875 18.6282894736842  28.8833984375 18.6414473684211  C 28.415234375 18.6217105263158  28.05 18.4111842105263  27.8142578125 17.9967105263158  C 27.512109375 17.4638157894737  27.21328125 16.9276315789474  26.927734375 16.3848684210526  C 26.84140625 16.2203947368421  26.7251953125 16.1085526315789  26.5625 16.0197368421053  C 26.01796875 15.7335526315789  25.4767578125 15.4375  24.935546875 15.141447368421  C 24.324609375 14.8059210526316  24.1087890625 14.0822368421053  24.4375 13.4736842105263  C 24.54375 13.2763157894737  24.696484375 13.1217105263158  24.8923828125 13.0131578947368  C 25.4701171875 12.6973684210526  26.0478515625 12.3815789473684  26.6255859375 12.0690789473684  C 26.73515625 12.0098684210526  26.8181640625 11.9407894736842  26.8779296875 11.828947368421  C 27.1833984375 11.2631578947368  27.4955078125 10.7039473684211  27.8109375 10.141447368421  C 28.05 9.7203947368421  28.415234375 9.49342105263158  28.906640625 9.49342105263158  C 29.398046875 9.49342105263158  29.76328125 9.7203947368421  30.00234375 10.1447368421053  C 30.314453125 10.6973684210526  30.6166015625 11.2532894736842  30.91875 11.8092105263158  C 30.9818359375 11.9276315789474  31.06484375 12.0065789473684  31.184375 12.0723684210526  C 31.748828125 12.3717105263158  32.3099609375 12.6743421052632  32.8677734375 12.9802631578947  C 33.2994140625 13.2171052631579  33.528515625 13.5921052631579  33.5251953125 14.0789473684211  C 33.5185546875 14.5592105263158  33.2828125 14.9243421052632  32.8544921875 15.1578947368421  C 32.2767578125 15.4736842105263  31.6990234375 15.7861842105263  31.11796875 16.0953947368421  C 31.0416015625 16.1348684210526  30.991796875 16.1907894736842  30.9486328125 16.2664473684211  C 30.63984375 16.8355263157895  30.327734375 17.4013157894737  30.015625 17.9671052631579  Z M 28.6576171875 14.4572368421053  C 28.75390625 14.5657894736842  28.8103515625 14.6973684210526  28.906640625 14.8388157894737  C 28.953125 14.7598684210526  28.99296875 14.6940789473684  29.0328125 14.6282894736842  C 29.1490234375 14.4375  29.2984375 14.2828947368421  29.49765625 14.1809210526316  C 29.5375 14.1611842105263  29.5740234375 14.1315789473684  29.6138671875 14.1118421052632  C 29.676953125 14.078947368421  29.6703125 14.0493421052632  29.610546875 14.0197368421053  C 29.31171875 13.8782894736842  29.092578125 13.6578947368421  28.9498046875 13.3618421052632  C 28.9232421875 13.3059210526316  28.8900390625 13.2927631578947  28.86015625 13.3585526315789  C 28.720703125 13.6578947368421  28.4982421875 13.875  28.202734375 14.0197368421053  C 28.1296875 14.0559210526316  28.1462890625 14.0888157894737  28.2060546875 14.1184210526316  C 28.375390625 14.2072368421053  28.5314453125 14.3157894736842  28.6576171875 14.4572368421053  Z M 6.1525390625 14.7171052631579  C 5.9234375 15.1019736842105  5.5548828125 15.2828947368421  5.13984375 15.2927631578947  C 4.6484375 15.2828947368421  4.28984375 15.0921052631579  4.057421875 14.7072368421053  C 3.8216796875 14.3223684210526  3.6125 13.9177631578947  3.393359375 13.5230263157895  C 3.28046875 13.3223684210526  3.167578125 13.1217105263158  3.061328125 12.9177631578947  C 3.021484375 12.8421052631579  2.9650390625 12.7894736842105  2.888671875 12.7467105263158  L 1.175390625 11.8190789473684  C 0.524609375 11.4671052631579  0.298828125 10.7368421052632  0.65078125 10.1118421052632  C 0.7603515625 9.91776315789474  0.91640625 9.76315789473684  1.1123046875 9.6546052631579  C 1.6966796875 9.33552631578947  2.2810546875 9.01644736842105  2.86875 8.70065789473684  C 2.96171875 8.65131578947369  3.0248046875 8.58881578947369  3.074609375 8.49671052631579  C 3.38671875 7.92105263157895  3.7021484375 7.34868421052632  4.02421875 6.7796052631579  C 4.269921875 6.35197368421053  4.6484375 6.13157894736842  5.153125 6.14802631578948  C 5.6279296875 6.16447368421053  5.9798828125 6.39144736842105  6.2056640625 6.80263157894737  C 6.5244140625 7.375  6.83984375 7.94736842105263  7.1552734375 8.51973684210527  C 7.1984375 8.59539473684211  7.2515625 8.64802631578947  7.3279296875 8.69078947368421  C 7.8990234375 9  8.4701171875 9.3125  9.0412109375 9.61842105263158  C 9.7716796875 10.0098684210526  9.9509765625 10.8782894736842  9.4296875 11.5164473684211  C 9.303515625 11.6710526315789  9.1375 11.7697368421053  8.96484375 11.8618421052632  C 8.4169921875 12.1611842105263  7.8658203125 12.4572368421053  7.3146484375 12.7532894736842  C 7.2416015625 12.7927631578947  7.191796875 12.8453947368421  7.1552734375 12.9144736842105  C 6.8232421875 13.5164473684211  6.501171875 14.125  6.1525390625 14.7171052631579  Z M 4.6318359375 10.9013157894737  C 4.84765625 11.0427631578947  4.973828125 11.2565789473684  5.0966796875 11.4802631578947  C 5.1431640625 11.4572368421053  5.153125 11.4243421052632  5.16640625 11.3947368421053  C 5.305859375 11.1217105263158  5.5083984375 10.9144736842105  5.7873046875 10.7796052631579  C 5.8171875 10.7664473684211  5.8603515625 10.7598684210526  5.863671875 10.7236842105263  C 5.8669921875 10.6809210526316  5.8171875 10.6710526315789  5.783984375 10.6546052631579  C 5.4984375 10.5164473684211  5.2892578125 10.3026315789474  5.153125 10.0164473684211  C 5.1431640625 9.99342105263158  5.1365234375 9.96052631578947  5.08671875 9.96052631578947  C 4.947265625 10.2763157894737  4.721484375 10.5164473684211  4.402734375 10.6710526315789  C 4.34296875 10.7006578947368  4.3396484375 10.7302631578947  4.3994140625 10.7631578947368  C 4.4791015625 10.8092105263158  4.55546875 10.8519736842105  4.6318359375 10.9013157894737  Z " fill-rule="nonzero" fill="#ffffff" stroke="none" transform="matrix(1 0 0 1 732 328 )" />
  </g>
</svg>