<?xml version="1.0" encoding="utf-8"?>
<svg version="1.1" xmlns:xlink="http://www.w3.org/1999/xlink" width="36px" height="32px" xmlns="http://www.w3.org/2000/svg">
  <g transform="matrix(1 0 0 1 -449 -247 )">
    <path d="M 14.184375 14.5480769230769  C 15.240625 13.4647435897436  16.5125 12.9230769230769  18 12.9230769230769  C 19.4875 12.9230769230769  20.759375 13.4647435897436  21.815625 14.5480769230769  C 22.871875 15.6314102564103  23.4 16.9358974358974  23.4 18.4615384615385  C 23.4 19.9871794871795  22.871875 21.2916666666667  21.815625 22.375  C 20.759375 23.4583333333333  19.4875 24  18 24  C 16.5125 24  15.240625 23.4583333333333  14.184375 22.375  C 13.128125 21.2916666666667  12.6 19.9871794871795  12.6 18.4615384615385  C 12.6 16.9358974358974  13.128125 15.6314102564103  14.184375 14.5480769230769  Z M 27 4.92307692307692  L 31.2 4.92307692307692  C 32.525 4.92307692307692  33.65625 5.40384615384615  34.59375 6.36538461538462  C 35.53125 7.32692307692308  36 8.48717948717949  36 9.84615384615385  L 36 27.0769230769231  C 36 28.4358974358974  35.53125 29.5961538461538  34.59375 30.5576923076923  C 33.65625 31.5192307692308  32.525 32  31.2 32  L 4.8 32  C 3.475 32  2.34375 31.5192307692308  1.40625 30.5576923076923  C 0.46875 29.5961538461538  0 28.4358974358974  0 27.0769230769231  L 0 9.84615384615385  C 0 8.48717948717949  0.46875 7.32692307692308  1.40625 6.36538461538462  C 2.34375 5.40384615384615  3.475 4.92307692307692  4.8 4.92307692307692  L 9 4.92307692307692  L 9.95625 2.30769230769231  C 10.19375 1.67948717948718  10.628125 1.13782051282051  11.259375 0.682692307692307  C 11.890625 0.227564102564106  12.5375 0  13.2 0  L 22.8 0  C 23.4625 0  24.109375 0.227564102564106  24.740625 0.682692307692307  C 25.371875 1.13782051282051  25.80625 1.67948717948718  26.04375 2.30769230769231  L 27 4.92307692307692  Z M 12.065625 24.5480769230769  C 13.709375 26.2339743589744  15.6875 27.0769230769231  18 27.0769230769231  C 20.3125 27.0769230769231  22.290625 26.2339743589744  23.934375 24.5480769230769  C 25.578125 22.8621794871795  26.4 20.8333333333333  26.4 18.4615384615385  C 26.4 16.0897435897436  25.578125 14.0608974358974  23.934375 12.375  C 22.290625 10.6891025641026  20.3125 9.84615384615385  18 9.84615384615385  C 15.6875 9.84615384615385  13.709375 10.6891025641026  12.065625 12.375  C 10.421875 14.0608974358974  9.6 16.0897435897436  9.6 18.4615384615385  C 9.6 20.8333333333333  10.421875 22.8621794871795  12.065625 24.5480769230769  Z " fill-rule="nonzero" fill="#ffffff" stroke="none" transform="matrix(1 0 0 1 449 247 )" />
  </g>
</svg>