<?xml version="1.0" encoding="utf-8"?>
<svg version="1.1" xmlns:xlink="http://www.w3.org/1999/xlink" width="399px" height="827px" xmlns="http://www.w3.org/2000/svg">
  <defs>
    <radialGradient cx="768.716455775436" cy="210.948499771076" r="698.050887667238" gradientTransform="matrix(-0.482870549969299 0.875691744835103 -0.875691744835103 -0.482870549969299 1324.63285338105 -360.349336570713 )" gradientUnits="userSpaceOnUse" id="RadialGradient572">
      <stop id="Stop573" stop-color="#5c0e98" offset="0" />
      <stop id="Stop574" stop-color="#86a8e7" stop-opacity="0.996078431372549" offset="0.48" />
      <stop id="Stop575" stop-color="#d16ba5" offset="1" />
    </radialGradient>
  </defs>
  <g transform="matrix(1 0 0 1 -393 -75 )">
    <path d="M 393.5 99  A 23.5 23.5 0 0 1 417 75.5 L 768 75.5  A 23.5 23.5 0 0 1 791.5 99 L 791.5 878  A 23.5 23.5 0 0 1 768 901.5 L 417 901.5  A 23.5 23.5 0 0 1 393.5 878 L 393.5 99  Z " fill-rule="nonzero" fill="url(#RadialGradient572)" stroke="none" />
    <path d="M 393.5 99  A 23.5 23.5 0 0 1 417 75.5 L 768 75.5  A 23.5 23.5 0 0 1 791.5 99 L 791.5 878  A 23.5 23.5 0 0 1 768 901.5 L 417 901.5  A 23.5 23.5 0 0 1 393.5 878 L 393.5 99  Z " stroke-width="1" stroke="#797979" fill="none" />
  </g>
</svg>