<?xml version="1.0" encoding="utf-8"?>
<svg version="1.1" xmlns:xlink="http://www.w3.org/1999/xlink" width="63px" height="49px" xmlns="http://www.w3.org/2000/svg">
  <g transform="matrix(1 0 0 1 -561 -251 )">
    <path d="M 62.9025773195876 11.9375838926174  C 62.9350515463918 13.3845637583893  61.7659793814433 14.5684563758389  60.3046391752577 14.5684563758389  C 58.8432989690722 14.5684563758389  57.6742268041237 13.3845637583893  57.6742268041237 11.9046979865772  C 57.6742268041237 8.25436241610738  54.7515463917526 5.26174496644295  51.1144329896907 5.26174496644295  C 49.2634020618557 5.26174496644295  47.6072164948454 6.0510067114094  46.4381443298969 7.3006711409396  C 44.4572164948454 9.63557046979866  42.7036082474227 12.1348993288591  41.1773195876289 14.7328859060403  C 46.3407216494845 18.0214765100671  49.8154639175258 23.8093959731544  49.8154639175258 30.4523489932886  C 49.8154639175258 40.7127516778524  41.5994845360825 49  31.5 49  C 21.4005154639175 49  13.1845360824742 40.6798657718121  13.1845360824742 30.4523489932886  C 13.1845360824742 23.8093959731544  16.6592783505155 18.0214765100671  21.8226804123711 14.7328859060403  C 20.2963917525773 12.1677852348993  18.5427835051546 9.66845637583893  16.529381443299 7.33355704697986  C 15.3278350515464 6.08389261744966  13.7041237113402 5.29463087248322  11.8530927835052 5.29463087248322  C 8.24845360824742 5.29463087248322  5.29329896907217 8.25436241610738  5.29329896907217 11.9375838926174  C 5.29329896907217 13.4174496644295  4.12422680412371 14.6013422818792  2.66288659793814 14.6013422818792  C 1.20154639175258 14.6013422818792  0.0324742268041242 13.4174496644295  0.0324742268041242 11.9375838926174  C 0.0324742268041242 5.36040268456376  5.29329896907217 0  11.820618556701 0  C 15.6850515463918 0  19.0948453608247 1.8744966442953  21.2381443298969 4.76845637583893  L 21.2056701030928 4.8013422818792  C 22.7319587628866 6.6758389261745  24.160824742268 8.6489932885906  25.4273195876289 10.6879194630872  C 26.4015463917526 11.4114093959732  28.7072164948454 11.9375838926174  31.4675257731959 11.9375838926174  C 34.1953608247423 11.9375838926174  36.5010309278351 11.4114093959732  37.4752577319588 10.6879194630872  C 38.7417525773196 8.6489932885906  40.170618556701 6.70872483221476  41.729381443299 4.8013422818792  L 41.6969072164948 4.76845637583893  C 43.840206185567 1.8744966442953  47.25 0  51.1144329896907 0  C 57.6092783505155 0  62.9025773195876 5.32751677852349  62.9025773195876 11.9375838926174  Z M 44.5871134020619 30.4852348993289  C 44.5871134020619 23.151677852349  38.7417525773196 17.1993288590604  31.5 17.1993288590604  C 24.2582474226804 17.1993288590604  18.4128865979381 23.1187919463087  18.4128865979381 30.4523489932886  C 18.4128865979381 37.7859060402685  24.2582474226804 43.738255033557  31.5 43.738255033557  C 38.7417525773196 43.738255033557  44.5871134020619 37.8187919463087  44.5871134020619 30.4852348993289  Z " fill-rule="nonzero" fill="#c777b9" stroke="none" transform="matrix(1 0 0 1 561 251 )" />
  </g>
</svg>