<?xml version="1.0" encoding="utf-8"?>
<svg version="1.1" xmlns:xlink="http://www.w3.org/1999/xlink" width="31px" height="31px" xmlns="http://www.w3.org/2000/svg">
  <g transform="matrix(1 0 0 1 -440 -251 )">
    <path d="M 15.621568627451 25.3166666666667  C 15.0745098039216 25.3166666666667  14.4970588235294 25.2862745098039  13.95 25.1950980392157  C 14.193137254902 25.2254901960784  14.4362745098039 25.2558823529412  14.6794117647059 25.2862745098039  C 13.5852941176471 25.1343137254902  12.4911764705882 24.8303921568627  11.4578431372549 24.4049019607843  C 11.6705882352941 24.4960784313725  11.8833333333333 24.5872549019608  12.0960784313725 24.678431372549  C 11.093137254902 24.2529411764706  10.1509803921569 23.7058823529412  9.3 23.0372549019608  C 9.48235294117647 23.1892156862745  9.66470588235294 23.3107843137255  9.84705882352941 23.4627450980392  C 8.9656862745098 22.7941176470588  8.17549019607843 22.0039215686274  7.50686274509803 21.1225490196078  C 7.65882352941176 21.3049019607843  7.78039215686274 21.4872549019608  7.93235294117646 21.6696078431373  C 7.26372549019607 20.8186274509804  6.71666666666666 19.8460784313725  6.29117647058823 18.8735294117647  C 6.38235294117647 19.0862745098039  6.4735294117647 19.2990196078431  6.56470588235294 19.5117647058823  C 6.1392156862745 18.478431372549  5.83529411764705 17.4147058823529  5.68333333333333 16.2901960784314  C 5.71372549019607 16.5333333333333  5.74411764705882 16.7764705882353  5.77450980392156 17.0196078431373  C 5.62254901960784 15.8950980392157  5.62254901960784 14.7705882352941  5.77450980392156 13.6764705882353  C 5.74411764705882 13.9196078431372  5.71372549019607 14.1627450980392  5.68333333333333 14.4058823529412  C 5.83529411764705 13.3117647058824  6.1392156862745 12.2176470588235  6.56470588235294 11.1843137254902  C 6.4735294117647 11.3970588235294  6.38235294117646 11.6098039215686  6.29117647058823 11.8225490196078  C 6.71666666666666 10.8196078431373  7.26372549019607 9.87745098039215  7.93235294117646 9.02647058823529  C 7.78039215686274 9.20882352941176  7.65882352941176 9.39117647058823  7.50686274509803 9.5735294117647  C 8.17549019607843 8.69215686274509  8.9656862745098 7.90196078431372  9.84705882352941 7.23333333333333  C 9.66470588235294 7.38529411764705  9.48235294117647 7.50686274509803  9.3 7.65882352941176  C 10.1509803921569 6.99019607843137  11.1235294117647 6.44313725490195  12.0960784313725 6.01764705882352  C 11.8833333333333 6.10882352941176  11.6705882352941 6.19999999999999  11.4578431372549 6.29117647058823  C 12.4911764705882 5.8656862745098  13.5549019607843 5.56176470588235  14.6794117647059 5.40980392156862  C 14.4362745098039 5.44019607843137  14.193137254902 5.47058823529411  13.95 5.50098039215686  C 15.0745098039216 5.34901960784313  16.1990196078431 5.34901960784313  17.293137254902 5.50098039215686  C 17.05 5.47058823529411  16.806862745098 5.44019607843137  16.5637254901961 5.40980392156862  C 17.6578431372549 5.56176470588235  18.7519607843137 5.8656862745098  19.7852941176471 6.29117647058823  C 19.5725490196078 6.19999999999999  19.3598039215686 6.10882352941176  19.1470588235294 6.01764705882352  C 20.15 6.44313725490195  21.0921568627451 6.99019607843137  21.943137254902 7.65882352941176  C 21.7607843137255 7.50686274509803  21.578431372549 7.38529411764705  21.3960784313726 7.23333333333333  C 22.2774509803922 7.90196078431372  23.0676470588235 8.69215686274509  23.7362745098039 9.5735294117647  C 23.5843137254902 9.39117647058823  23.4627450980392 9.20882352941176  23.3107843137255 9.02647058823529  C 23.9794117647059 9.87745098039215  24.5264705882353 10.85  24.9519607843137 11.8225490196078  C 24.8607843137255 11.6098039215686  24.7696078431373 11.3970588235294  24.678431372549 11.1843137254902  C 25.1039215686275 12.2176470588235  25.4078431372549 13.2813725490196  25.5598039215686 14.4058823529412  C 25.5294117647059 14.1627450980392  25.4990196078431 13.9196078431373  25.4686274509804 13.6764705882353  C 25.5294117647059 14.2235294117647  25.5901960784314 14.8009803921569  25.5901960784314 15.3480392156863  C 25.5901960784314 16.0774509803922  25.8941176470588 16.7460784313725  26.3803921568627 17.2627450980392  C 27.4441176470588 18.3264705882353  29.1460784313726 18.3264705882353  30.2098039215686 17.2627450980392  C 30.7264705882353 16.7460784313725  31 16.0470588235294  31 15.3480392156863  C 31 10.4549019607843  28.6598039215686 5.83529411764706  24.7088235294118 2.94803921568627  C 20.9705882352941 0.182352941176471  15.8647058823529 -0.668627450980392  11.4274509803922 0.577450980392156  C 6.77745098039216 1.8843137254902  3.00882352941176 5.31862745098039  1.27647058823529 9.84705882352941  C -0.486274509803921 14.1627450980392  0 19.3294117647059  2.40098039215686 23.2803921568627  C 3.64705882352941 25.3166666666667  5.31862745098039 27.0186274509804  7.29411764705882 28.3254901960784  C 9.33039215686274 29.6323529411765  11.6705882352941 30.4225490196078  14.071568627451 30.6656862745098  C 14.5882352941176 30.7264705882353  15.0745098039216 30.756862745098  15.5911764705882 30.756862745098  C 16.3205882352941 30.756862745098  16.9892156862745 30.4529411764706  17.5058823529412 29.9666666666667  C 18.5696078431373 28.9029411764706  18.5696078431373 27.1705882352941  17.5058823529412 26.106862745098  C 16.9892156862745 25.5901960784314  16.3205882352941 25.3166666666667  15.621568627451 25.3166666666667  Z " fill-rule="nonzero" fill="#ba83ca" stroke="none" transform="matrix(1 0 0 1 440 251 )" />
  </g>
</svg>