<?xml version="1.0" encoding="utf-8"?>
<svg version="1.1" xmlns:xlink="http://www.w3.org/1999/xlink" width="31px" height="31px" xmlns="http://www.w3.org/2000/svg">
  <g transform="matrix(1 0 0 1 -466 -251 )">
    <path d="M 5.61683168316832 15.6534653465347  C 5.61683168316832 15.039603960396  5.64752475247524 14.4257425742574  5.73960396039604 13.8118811881188  C 5.70891089108911 14.0574257425743  5.67821782178218 14.3029702970297  5.64752475247525 14.5485148514852  C 5.8009900990099 13.4742574257426  6.07722772277228 12.4  6.50693069306931 11.3871287128713  C 6.41485148514852 11.6019801980198  6.32277227722773 11.8168316831683  6.23069306930693 12.0316831683168  C 6.66039603960396 11.0188118811881  7.21287128712871 10.0673267326733  7.88811881188119 9.20792079207921  C 7.73465346534654 9.3920792079208  7.61188118811881 9.57623762376238  7.45841584158416 9.76039603960396  C 8.13366336633663 8.90099009900991  8.9009900990099 8.13366336633664  9.76039603960396 7.45841584158416  C 9.57623762376238 7.61188118811882  9.39207920792079 7.73465346534654  9.20792079207921 7.88811881188119  C 10.0673267326733 7.21287128712872  11.0188118811881 6.66039603960396  12.0316831683168 6.23069306930693  C 11.8168316831683 6.32277227722773  11.6019801980198 6.41485148514852  11.3871287128713 6.50693069306931  C 12.4 6.07722772277228  13.4742574257426 5.80099009900991  14.5485148514852 5.64752475247525  C 14.3029702970297 5.67821782178218  14.0574257425743 5.70891089108911  13.8118811881188 5.73960396039604  C 14.9475247524752 5.58613861386139  16.1138613861386 5.58613861386139  17.280198019802 5.73960396039604  C 17.0346534653465 5.70891089108911  16.7891089108911 5.67821782178218  16.5435643564356 5.64752475247525  C 17.6178217821782 5.80099009900991  18.6920792079208 6.07722772277228  19.7049504950495 6.50693069306931  C 19.490099009901 6.41485148514852  19.2752475247525 6.32277227722773  19.060396039604 6.23069306930693  C 20.0732673267327 6.66039603960396  21.0247524752475 7.21287128712872  21.8841584158416 7.88811881188119  C 21.7 7.73465346534654  21.5158415841584 7.61188118811882  21.3316831683168 7.45841584158416  C 22.1910891089109 8.13366336633664  22.9584158415842 8.90099009900991  23.6336633663366 9.76039603960396  C 23.480198019802 9.57623762376238  23.3574257425743 9.3920792079208  23.2039603960396 9.20792079207921  C 23.8792079207921 10.0673267326733  24.4316831683168 11.0188118811881  24.8613861386139 12.0316831683168  C 24.7693069306931 11.8168316831683  24.6772277227723 11.6019801980198  24.5851485148515 11.3871287128713  C 25.0148514851485 12.4  25.2910891089109 13.4742574257426  25.4445544554455 14.5485148514852  C 25.4138613861386 14.3029702970297  25.3831683168317 14.0574257425743  25.3524752475248 13.8118811881188  C 25.5059405940594 14.9475247524753  25.5059405940594 16.1138613861386  25.3524752475248 17.280198019802  C 25.3831683168317 17.0346534653465  25.4138613861386 16.7891089108911  25.4445544554455 16.5435643564356  C 25.2910891089109 17.6178217821782  25.0148514851485 18.6920792079208  24.5851485148515 19.7049504950495  C 24.6772277227723 19.490099009901  24.7693069306931 19.2752475247525  24.8613861386139 19.060396039604  C 24.4316831683168 20.0732673267327  23.8792079207921 21.0247524752475  23.2039603960396 21.8841584158416  C 23.3574257425743 21.7  23.480198019802 21.5158415841584  23.6336633663366 21.3316831683168  C 22.9584158415842 22.1910891089109  22.1910891089109 22.9584158415842  21.3316831683168 23.6336633663366  C 21.5158415841584 23.480198019802  21.7 23.3574257425743  21.8841584158416 23.2039603960396  C 21.0247524752475 23.8792079207921  20.0732673267327 24.4316831683168  19.060396039604 24.8613861386139  C 19.2752475247525 24.7693069306931  19.490099009901 24.6772277227723  19.7049504950495 24.5851485148515  C 18.6920792079208 25.0148514851485  17.6178217821782 25.2910891089109  16.5435643564356 25.4445544554455  C 16.7891089108911 25.4138613861386  17.0346534653465 25.3831683168317  17.280198019802 25.3524752475248  C 16.7584158415842 25.4138613861386  16.2059405940594 25.4752475247525  15.6841584158416 25.4752475247525  C 14.9475247524753 25.4752475247525  14.2722772277228 25.7821782178218  13.750495049505 26.2732673267327  C 12.6762376237624 27.3475247524753  12.6762376237624 29.0663366336634  13.750495049505 30.1405940594059  C 14.2722772277228 30.6623762376238  14.9782178217822 30.9386138613861  15.6841584158416 30.9386138613861  C 20.5950495049505 30.9079207920792  25.1683168316832 28.5138613861386  28.0227722772277 24.5544554455446  C 30.8158415841584 20.809900990099  31.6445544554456 15.6841584158416  30.3247524752475 11.2336633663366  C 28.9742574257426 6.5990099009901  25.5059405940594 2.88514851485149  20.9940594059406 1.16633663366337  C 20.0425742574257 0.7980198019802  19.060396039604 0.521782178217823  18.0782178217822 0.368316831683169  C 14.4257425742574 -0.245544554455445  10.6811881188119 0.491089108910892  7.51980198019802 2.3940594059406  C 3.34554455445545 4.88019801980198  0.613861386138614 9.23861386138614  0.184158415841582 14.0881188118812  C 0.12277227722772 14.609900990099  0.0920792079207912 15.1009900990099  0.12277227722772 15.6227722772277  C 0.12277227722772 16.3594059405941  0.429702970297027 17.0346534653465  0.920792079207917 17.5564356435644  C 1.99504950495049 18.6306930693069  3.71386138613861 18.6306930693069  4.78811881188118 17.5564356435644  C 5.30990099009901 17.0653465346535  5.61683168316832 16.390099009901  5.61683168316832 15.6534653465347  Z " fill-rule="nonzero" fill="#ba83ca" stroke="none" transform="matrix(1 0 0 1 466 251 )" />
  </g>
</svg>