<?xml version="1.0" encoding="utf-8"?>
<svg version="1.1" xmlns:xlink="http://www.w3.org/1999/xlink" width="52px" height="49px" xmlns="http://www.w3.org/2000/svg">
  <g transform="matrix(1 0 0 1 -687 -251 )">
    <path d="M 50.1506086956522 4.91367441860465  C 46.8271304347826 7.43432558139535  43.1554782608696 9.57209302325582  39 11.0398139534884  L 39 36.9801860465116  C 43.1554782608696 38.4479069767442  46.8587826086956 40.4261395348837  50.1506086956522 43.1063255813954  C 50.1506086956522 43.1063255813954  51.0685217391304 43.7763720930233  51.0685217391304 45.3717209302326  C 51.0685217391304 46.8394418604651  49.8657391304348 48.02  48.4413913043478 48.02  C 47.5234782608696 48.02  46.9853913043478 47.4775813953488  46.1940869565217 46.6799069767442  C 40.528347826087 42.5639069767442  33.5332173913043 40.0432558139535  26 40.0432558139535  C 18.4667826086956 40.0432558139535  11.5033043478261 42.5639069767442  5.8375652173913 46.6799069767442  C 4.91965217391304 47.6052093023256  4.50817391304347 48.02  3.59026086956521 48.02  C 2.13426086956521 48.02  0.963130434782603 46.8075348837209  0.963130434782603 45.3717209302326  C 0.963130434782603 43.7763720930233  1.88104347826086 43.1063255813954  1.88104347826086 43.1063255813954  C 5.17286956521739 40.5856744186046  8.87617391304347 38.4479069767442  13 36.9801860465116  L 13 11.0398139534884  C 8.84452173913044 9.57209302325582  5.17286956521739 7.5619534883721  1.84939130434783 4.91367441860465  C 1.84939130434783 4.91367441860465  0.931478260869566 4.24362790697675  0.931478260869566 2.64827906976744  C 0.931478260869566 1.18055813953488  2.13426086956522 0  3.55860869565218 0  C 4.47652173913044 0  4.888 0.414790697674419  5.80591304347826 1.34009302325582  C 9.09773913043479 3.73311627906977  12.8010434782609 5.58372093023256  16.7575652173913 6.66855813953488  L 18.0869565217391 7.0833488372093  C 20.5874782608696 7.75339534883721  23.2462608695652 8.0086511627907  26 8.0086511627907  C 28.7537391304348 8.0086511627907  31.4125217391304 7.59386046511628  33.9130434782609 7.0833488372093  L 35.2424347826087 6.66855813953488  C 39.1989565217391 5.488  42.9022608695652 3.73311627906977  46.1940869565217 1.34009302325581  C 46.9853913043478 0.414790697674418  47.5234782608696 0  48.4413913043478 0  C 49.8973913043478 0  51.0685217391304 1.18055813953488  51.0685217391304 2.64827906976744  C 51.0685217391304 4.24362790697675  50.1506086956522 4.91367441860465  50.1506086956522 4.91367441860465  Z M 34 12.5075348837209  C 31.4125217391304 13.0180465116279  28.7853913043478 13.3052093023256  26 13.3052093023256  C 23.2146086956522 13.3052093023256  20.5874782608696 13.0499534883721  18 12.5075348837209  L 18 35.5124651162791  C 20.5874782608696 34.9700465116279  23.2462608695652 34.7147906976744  26 34.7147906976744  C 28.7537391304348 34.7147906976744  31.4125217391304 34.9700465116279  34 35.5124651162791  L 34 12.5075348837209  Z " fill-rule="nonzero" fill="#d16ba5" stroke="none" transform="matrix(1 0 0 1 687 251 )" />
  </g>
</svg>