<?xml version="1.0" encoding="utf-8"?>
<svg version="1.1" xmlns:xlink="http://www.w3.org/1999/xlink" width="43px" height="43px" xmlns="http://www.w3.org/2000/svg">
  <g transform="matrix(1 0 0 1 -447 -388 )">
    <path d="M 37.9833333333333 31.4565476190476  C 37.9833333333333 31.8660714285714  37.9577380952381 32.25  37.9065476190476 32.6595238095238  C 37.9321428571429 32.4547619047619  37.9577380952381 32.2244047619048  37.9833333333333 32.0196428571429  C 37.8809523809524 32.7875  37.6761904761905 33.5553571428571  37.3690476190476 34.2720238095238  C 37.4458333333333 34.0672619047619  37.522619047619 33.8880952380952  37.625 33.6833333333333  C 37.3178571428571 34.4  36.9339285714286 35.0910714285714  36.4476190476191 35.7053571428571  C 36.5755952380952 35.5517857142857  36.7035714285714 35.372619047619  36.8315476190476 35.2190476190476  C 36.3708333333333 35.8077380952381  35.8333333333333 36.3452380952381  35.2190476190476 36.8315476190476  C 35.372619047619 36.7035714285714  35.5517857142857 36.5755952380952  35.7053571428571 36.4476190476191  C 35.0910714285714 36.9339285714286  34.4 37.3178571428571  33.6833333333333 37.625  C 33.8880952380952 37.5482142857143  34.0672619047619 37.4714285714286  34.2720238095238 37.3690476190476  C 33.5553571428571 37.6761904761905  32.7875 37.8809523809524  32.0196428571429 37.9833333333333  C 32.2244047619048 37.9577380952381  32.4547619047619 37.9321428571429  32.6595238095238 37.9065476190476  C 31.8660714285714 38.0089285714286  31.0470238095238 38.0089285714286  30.2535714285714 37.9065476190476  C 30.4583333333333 37.9321428571429  30.6886904761905 37.9577380952381  30.8934523809524 37.9833333333333  C 30.1255952380952 37.8809523809524  29.3577380952381 37.6761904761905  28.6410714285714 37.3690476190476  C 28.8458333333333 37.4458333333333  29.025 37.522619047619  29.2297619047619 37.625  C 28.5130952380952 37.3178571428571  27.8220238095238 36.9339285714286  27.2077380952381 36.4476190476191  C 27.3613095238095 36.5755952380952  27.5404761904762 36.7035714285714  27.6940476190476 36.8315476190476  C 27.1053571428571 36.3708333333333  26.5678571428571 35.8333333333333  26.0815476190476 35.2190476190476  C 26.2095238095238 35.372619047619  26.3375 35.5517857142857  26.4654761904762 35.7053571428571  C 25.9791666666667 35.0910714285714  25.5952380952381 34.4  25.2880952380952 33.6833333333333  C 25.364880952381 33.8880952380952  25.4416666666667 34.0672619047619  25.5440476190476 34.2720238095238  C 25.2369047619048 33.5553571428571  25.0321428571429 32.7875  24.9297619047619 32.0196428571429  C 24.9553571428571 32.25  24.9809523809524 32.4547619047619  25.0065476190476 32.6595238095238  C 24.9041666666667 31.8660714285714  24.9041666666667 31.0470238095238  25.0065476190476 30.2535714285714  C 24.9809523809524 30.4583333333333  24.9553571428571 30.6886904761905  24.9297619047619 30.8934523809524  C 25.0321428571429 30.1255952380952  25.2369047619048 29.3577380952381  25.5440476190476 28.6410714285714  C 25.4672619047619 28.8458333333333  25.3904761904762 29.025  25.2880952380952 29.2297619047619  C 25.5952380952381 28.5130952380952  25.9791666666667 27.8220238095238  26.4654761904762 27.2077380952381  C 26.3375 27.3613095238095  26.2095238095238 27.5404761904762  26.0815476190476 27.6940476190476  C 26.5422619047619 27.1053571428571  27.0797619047619 26.5678571428571  27.6940476190476 26.0815476190476  C 27.5404761904762 26.2095238095238  27.3613095238095 26.3375  27.2077380952381 26.4654761904762  C 27.8220238095238 25.9791666666667  28.5130952380952 25.5952380952381  29.2297619047619 25.2880952380952  C 29.025 25.364880952381  28.8458333333333 25.4416666666667  28.6410714285714 25.5440476190476  C 29.3577380952381 25.2369047619048  30.1255952380952 25.0321428571429  30.8934523809524 24.9297619047619  C 30.6886904761905 24.9553571428571  30.4583333333333 24.9809523809524  30.2535714285714 25.0065476190476  C 31.0982142857143 24.9041666666667  31.9684523809524 24.9041666666667  32.8130952380952 25.0065476190476  C 32.6083333333333 24.9809523809524  32.3779761904762 24.9553571428571  32.1732142857143 24.9297619047619  C 32.9666666666667 25.0321428571429  33.760119047619 25.2369047619048  34.5023809523809 25.5696428571429  C 34.297619047619 25.4928571428571  34.1184523809524 25.4160714285714  33.9136904761905 25.3136904761905  C 34.5791666666667 25.5952380952381  35.2190476190476 25.9535714285714  35.7821428571429 26.3886904761905  C 35.6285714285714 26.2607142857143  35.4494047619048 26.1327380952381  35.2958333333333 26.0047619047619  C 35.8589285714286 26.439880952381  36.3708333333333 26.9517857142857  36.8059523809524 27.5148809523809  C 36.6779761904762 27.3613095238095  36.55 27.1821428571429  36.4220238095238 27.0285714285714  C 36.8827380952381 27.6172619047619  37.2666666666667 28.2571428571429  37.5482142857143 28.9482142857143  C 37.4714285714286 28.7434523809524  37.3946428571429 28.5642857142857  37.2922619047619 28.3595238095238  C 37.5994047619048 29.127380952381  37.8297619047619 29.9208333333333  37.9321428571429 30.739880952381  C 37.9065476190476 30.535119047619  37.8809523809524 30.3047619047619  37.8553571428571 30.1  C 37.9577380952381 30.5607142857143  37.9833333333333 31.0214285714286  37.9833333333333 31.4565476190476  C 37.9833333333333 32.8130952380952  39.0839285714286 33.8880952380952  40.414880952381 33.8880952380952  C 41.0547619047619 33.8880952380952  41.6690476190476 33.6321428571429  42.1297619047619 33.1714285714286  C 42.5648809523809 32.7107142857143  42.8208333333333 32.0964285714286  42.8464285714286 31.4565476190476  C 42.8720238095238 29.2041666666667  42.2321428571429 27.0029761904762  41.0291666666667 25.0833333333333  C 40.4404761904762 24.1875  39.7494047619048 23.3684523809524  38.9047619047619 22.7029761904762  C 37.9321428571429 21.8583333333333  36.8315476190476 21.2184523809524  35.6285714285714 20.8089285714286  C 34.5535714285714 20.425  33.4529761904762 20.1946428571429  32.3267857142857 20.1178571428571  C 31.1238095238095 20.0410714285714  29.9208333333333 20.1434523809524  28.7690476190476 20.425  C 26.5678571428571 20.9625  24.5970238095238 22.1398809523809  23.0869047619048 23.8035714285714  C 22.3190476190476 24.622619047619  21.7047619047619 25.5696428571429  21.2184523809524 26.5934523809524  C 20.9369047619048 27.2077380952381  20.7065476190476 27.8220238095238  20.5017857142857 28.4619047619048  C 20.322619047619 29.1017857142857  20.2202380952381 29.7672619047619  20.1690476190476 30.4583333333333  C 19.7339285714286 35.1166666666667  22.2166666666667 39.5702380952381  26.4142857142857 41.6690476190476  C 27.5404761904762 42.2065476190476  28.7178571428571 42.564880952381  29.9720238095238 42.7440476190476  C 31.2517857142857 42.9232142857143  32.5315476190476 42.8720238095238  33.7857142857143 42.6416666666667  C 38.3416666666667 41.7202380952381  41.8738095238095 38.1113095238095  42.6928571428571 33.5297619047619  C 42.7952380952381 32.8642857142857  42.8720238095238 32.1732142857143  42.8976190476191 31.5077380952381  C 42.8976190476191 30.8678571428571  42.6416666666667 30.2535714285714  42.1809523809524 29.7928571428571  C 41.2339285714286 28.8458333333333  39.6726190476191 28.8458333333333  38.7255952380952 29.7928571428571  C 38.2392857142857 30.2023809523809  37.9833333333333 30.8166666666667  37.9833333333333 31.4565476190476  Z M 18.0702380952381 11.5434523809524  C 18.0702380952381 11.9529761904762  18.0446428571429 12.3369047619048  17.9934523809524 12.7464285714286  C 18.0190476190476 12.5416666666667  18.0446428571429 12.3113095238095  18.0702380952381 12.1065476190476  C 17.9678571428571 12.8744047619048  17.7630952380952 13.6422619047619  17.4559523809524 14.3589285714286  C 17.5327380952381 14.1541666666667  17.6095238095238 13.975  17.7119047619048 13.7702380952381  C 17.4047619047619 14.4869047619048  17.0208333333333 15.1779761904762  16.5345238095238 15.7922619047619  C 16.6625 15.6386904761905  16.7904761904762 15.4595238095238  16.9184523809524 15.3059523809524  C 16.4577380952381 15.8946428571429  15.9202380952381 16.4321428571429  15.3059523809524 16.9184523809524  C 15.4595238095238 16.7904761904762  15.6386904761905 16.6625  15.7922619047619 16.5345238095238  C 15.1779761904762 17.0208333333333  14.4869047619048 17.4047619047619  13.7702380952381 17.7119047619048  C 13.975 17.635119047619  14.1541666666667 17.5583333333333  14.3589285714286 17.4559523809524  C 13.6422619047619 17.7630952380952  12.8744047619048 17.9678571428571  12.1065476190476 18.0702380952381  C 12.3113095238095 18.0446428571429  12.5416666666667 18.0190476190476  12.7464285714286 17.9934523809524  C 11.9529761904762 18.0958333333333  11.1339285714286 18.0958333333333  10.3404761904762 17.9934523809524  C 10.5452380952381 18.0190476190476  10.7755952380952 18.0446428571429  10.9803571428571 18.0702380952381  C 10.2125 17.9678571428571  9.44464285714286 17.7630952380952  8.72797619047619 17.4559523809524  C 8.93273809523809 17.5327380952381  9.11190476190476 17.6095238095238  9.31666666666666 17.7119047619048  C 8.6 17.4047619047619  7.90892857142857 17.0208333333333  7.29464285714286 16.5345238095238  C 7.44821428571428 16.6625  7.62738095238095 16.7904761904762  7.78095238095238 16.9184523809524  C 7.1922619047619 16.4577380952381  6.6547619047619 15.9202380952381  6.16845238095238 15.3059523809524  C 6.29642857142857 15.4595238095238  6.42440476190476 15.6386904761905  6.55238095238095 15.7922619047619  C 6.06607142857143 15.1779761904762  5.68214285714286 14.4869047619048  5.375 13.7702380952381  C 5.45178571428571 13.975  5.52857142857143 14.1541666666667  5.63095238095238 14.3589285714286  C 5.32380952380952 13.6422619047619  5.11904761904762 12.8744047619048  5.01666666666666 12.1065476190476  C 5.0422619047619 12.3369047619048  5.06785714285714 12.5416666666667  5.09345238095238 12.7464285714286  C 4.99107142857143 11.9529761904762  4.99107142857143 11.1339285714286  5.09345238095238 10.3404761904762  C 5.06785714285714 10.5452380952381  5.0422619047619 10.7755952380952  5.01666666666666 10.9803571428571  C 5.11904761904762 10.2125  5.32380952380952 9.44464285714286  5.63095238095238 8.72797619047619  C 5.55416666666667 8.93273809523809  5.47738095238095 9.11190476190476  5.375 9.31666666666666  C 5.68214285714286 8.6  6.06607142857143 7.90892857142857  6.55238095238095 7.29464285714286  C 6.42440476190476 7.44821428571428  6.29642857142857 7.62738095238095  6.16845238095238 7.78095238095238  C 6.62916666666666 7.1922619047619  7.16666666666667 6.6547619047619  7.78095238095238 6.16845238095238  C 7.62738095238095 6.29642857142857  7.44821428571428 6.42440476190476  7.29464285714286 6.55238095238095  C 7.90892857142857 6.06607142857143  8.6 5.68214285714286  9.31666666666666 5.375  C 9.11190476190476 5.45178571428571  8.93273809523809 5.52857142857143  8.72797619047619 5.63095238095238  C 9.44464285714285 5.32380952380952  10.2125 5.11904761904762  10.9803571428571 5.01666666666666  C 10.7755952380952 5.0422619047619  10.5452380952381 5.06785714285714  10.3404761904762 5.09345238095238  C 11.1339285714286 4.99107142857143  11.9529761904762 4.99107142857143  12.7464285714286 5.09345238095238  C 12.5416666666667 5.06785714285714  12.3113095238095 5.0422619047619  12.1065476190476 5.01666666666666  C 12.8744047619048 5.11904761904762  13.6422619047619 5.32380952380952  14.3589285714286 5.63095238095238  C 14.1541666666667 5.55416666666667  13.975 5.47738095238095  13.7702380952381 5.375  C 14.4869047619048 5.68214285714286  15.1779761904762 6.06607142857143  15.7922619047619 6.55238095238095  C 15.6386904761905 6.42440476190476  15.4595238095238 6.29642857142857  15.3059523809524 6.16845238095238  C 15.8946428571429 6.62916666666666  16.4321428571429 7.16666666666667  16.9184523809524 7.78095238095238  C 16.7904761904762 7.62738095238095  16.6625 7.44821428571428  16.5345238095238 7.29464285714286  C 17.0208333333333 7.90892857142857  17.4047619047619 8.6  17.7119047619048 9.31666666666666  C 17.635119047619 9.11190476190476  17.5583333333333 8.93273809523809  17.4559523809524 8.72797619047619  C 17.7630952380952 9.44464285714285  17.9678571428571 10.2125  18.0702380952381 10.9803571428571  C 18.0446428571429 10.7755952380952  18.0190476190476 10.5452380952381  17.9934523809524 10.3404761904762  C 18.0446428571429 10.75  18.0702380952381 11.1595238095238  18.0702380952381 11.5434523809524  C 18.0702380952381 12.9  19.1708333333333 13.975  20.5017857142857 13.975  C 21.1416666666667 13.975  21.7559523809524 13.7190476190476  22.2166666666667 13.2583333333333  C 22.677380952381 12.797619047619  22.9333333333333 12.1833333333333  22.9333333333333 11.5434523809524  C 22.9333333333333 9.23988095238095  22.2422619047619 7.01309523809524  20.9369047619048 5.11904761904762  C 20.5529761904762 4.58154761904762  20.1434523809524 4.06964285714286  19.6827380952381 3.58333333333333  C 19.2220238095238 3.14821428571428  18.7613095238095 2.71309523809524  18.2494047619048 2.3547619047619  C 17.3535714285714 1.68928571428571  16.3553571428571 1.15178571428571  15.3059523809524 0.793452380952379  C 10.8779761904762 -0.767857142857144  5.93809523809524 0.563095238095237  2.91785714285714 4.14642857142857  C 2.50833333333333 4.63273809523809  2.12440476190476 5.17023809523809  1.79166666666667 5.70773809523809  C 1.45892857142857 6.27083333333333  1.17738095238095 6.85952380952381  0.947023809523809 7.47380952380952  C -1.20297619047619 13.0279761904762  1.30535714285714 19.2732142857143  6.68035714285714 21.8071428571429  C 7.88333333333333 22.3958333333333  9.16309523809524 22.7541666666667  10.4940476190476 22.8565476190476  C 11.6714285714286 22.9845238095238  12.8488095238095 22.9077380952381  13.975 22.6517857142857  C 16.1761904761905 22.1910714285714  18.172619047619 21.064880952381  19.7339285714286 19.4267857142857  C 21.2952380952381 17.8142857142857  22.3446428571429 15.7410714285714  22.7285714285714 13.5142857142857  C 22.8309523809524 12.8488095238095  22.9077380952381 12.1833333333333  22.9077380952381 11.5178571428571  C 22.9077380952381 10.8779761904762  22.6517857142857 10.2636904761905  22.1910714285714 9.80297619047619  C 21.2440476190476 8.85595238095238  19.7083333333333 8.85595238095238  18.7613095238095 9.80297619047619  C 18.3261904761905 10.2892857142857  18.0702380952381 10.9035714285714  18.0702380952381 11.5434523809524  Z " fill-rule="nonzero" fill="#aa8fd8" stroke="none" transform="matrix(1 0 0 1 447 388 )" />
  </g>
</svg>