<?xml version="1.0" encoding="utf-8"?>
<svg version="1.1" xmlns:xlink="http://www.w3.org/1999/xlink" width="44px" height="49px" xmlns="http://www.w3.org/2000/svg">
  <g transform="matrix(1 0 0 1 -446 -386 )">
    <path d="M 8.54117647058824 8.48279569892473  C 9.39529411764706 8.00860215053764  10.2494117647059 7.58709677419355  11.1294117647059 7.19193548387097  C 10.9223529411765 7.27096774193548  10.7411764705882 7.35  10.5341176470588 7.45537634408602  C 12.8894117647059 6.45430107526882  15.4 5.74301075268817  17.9364705882353 5.4005376344086  C 17.7294117647059 5.42688172043011  17.4964705882353 5.45322580645161  17.2894117647059 5.47956989247312  C 19.8776470588235 5.13709677419355  22.4917647058824 5.13709677419355  25.08 5.47956989247312  C 24.8729411764706 5.45322580645161  24.64 5.42688172043011  24.4329411764706 5.4005376344086  C 26.9694117647059 5.74301075268817  29.4282352941177 6.42795698924731  31.7835294117647 7.42903225806452  C 31.5764705882353 7.35  31.3952941176471 7.27096774193548  31.1882352941177 7.16559139784946  C 33.5176470588235 8.16666666666667  35.6917647058823 9.45752688172043  37.6847058823529 11.0381720430108  C 37.5294117647059 10.9064516129032  37.3482352941176 10.7747311827957  37.1929411764706 10.6430107526882  C 38.0211764705882 11.3016129032258  38.8235294117647 11.9865591397849  39.5741176470588 12.7505376344086  C 40.04 13.2247311827957  40.6611764705882 13.4881720430108  41.3082352941176 13.4881720430108  C 42.68 13.4881720430108  43.7670588235294 12.355376344086  43.7670588235294 10.9854838709677  C 43.7670588235294 10.3268817204301  43.5082352941176 9.69462365591398  43.0423529411765 9.22043010752688  C 35.4847058823529 1.76505376344086  24.7435294117647 -1.31720430107527  14.4682352941176 0.948387096774194  C 11.5694117647059 1.58064516129032  8.72235294117647 2.66075268817204  6.05647058823529 4.16236559139785  C 4.89176470588235 4.87365591397849  4.50352941176471 6.42795698924731  5.20235294117647 7.61344086021505  C 5.90117647058823 8.77258064516129  7.37647058823529 9.16774193548387  8.54117647058824 8.48279569892473  Z M 35.4588235294118 40.5172043010753  C 34.6047058823529 40.9913978494624  33.7505882352941 41.4129032258065  32.8705882352941 41.808064516129  C 33.0776470588235 41.7290322580645  33.2588235294118 41.65  33.4658823529412 41.544623655914  C 31.1105882352941 42.5456989247312  28.6 43.2569892473118  26.0635294117647 43.5994623655914  C 26.2705882352941 43.5731182795699  26.5035294117647 43.5467741935484  26.7105882352941 43.5204301075269  C 24.1223529411765 43.8629032258065  21.5082352941177 43.8629032258065  18.92 43.5204301075269  C 19.1270588235294 43.5467741935484  19.36 43.5731182795699  19.5670588235294 43.5994623655914  C 17.0305882352941 43.2569892473118  14.5717647058824 42.5720430107527  12.2164705882353 41.5709677419355  C 12.4235294117647 41.65  12.6047058823529 41.7290322580645  12.8117647058824 41.8344086021505  C 10.4823529411765 40.8333333333333  8.30823529411765 39.5424731182796  6.31529411764707 37.9618279569893  C 6.47058823529412 38.0935483870968  6.65176470588236 38.2252688172043  6.80705882352942 38.3569892473118  C 5.97882352941177 37.6983870967742  5.1764705882353 37.0134408602151  4.42588235294118 36.2494623655914  C 3.96000000000001 35.7752688172043  3.33882352941177 35.5118279569893  2.69176470588236 35.5118279569893  C 1.32000000000001 35.5118279569893  0.232941176470594 36.644623655914  0.232941176470594 38.0145161290323  C 0.232941176470594 38.6731182795699  0.491764705882359 39.305376344086  0.957647058823536 39.7795698924731  C 8.51529411764706 47.2349462365592  19.2564705882353 50.3172043010753  29.5317647058824 48.0516129032258  C 32.4823529411765 47.3930107526882  35.3294117647059 46.3129032258065  37.9952941176471 44.8376344086022  C 39.16 44.1263440860215  39.5482352941177 42.5720430107527  38.8494117647059 41.386559139785  C 38.0988235294118 40.2274193548387  36.6235294117647 39.8322580645161  35.4588235294118 40.5172043010753  Z " fill-rule="nonzero" fill="#aa8fd8" stroke="none" transform="matrix(1 0 0 1 446 386 )" />
  </g>
</svg>