<?xml version="1.0" encoding="utf-8"?>
<svg version="1.1" xmlns:xlink="http://www.w3.org/1999/xlink" width="43px" height="49px" xmlns="http://www.w3.org/2000/svg">
  <g transform="matrix(1 0 0 1 -572 -386 )">
    <path d="M 42.9525517241379 38.4785276073619  C 42.9703448275862 37.720981595092  42.8932413793103 36.9574233128834  42.7390344827586 36.2539877300613  C 42.7331034482759 36.2239263803681  42.6678620689655 35.899263803681  42.5729655172414 35.4904294478528  C 42.4359843811825 34.8877238092119  42.0664041475713 34.3658233279037  41.5468965517241 34.041472392638  C 41.0297164965559 33.7116790450189  40.4030582258664 33.6076121935569  39.8091034482759 33.7528834355828  C 39.2100689655172 33.8911656441718  38.7 34.2639263803681  38.379724137931 34.7930061349693  C 38.0543868299138 35.3172698376331  37.9517260893231 35.9525112434326  38.0950344827586 36.5546012269939  C 38.1721379310345 36.9033128834356  38.2255172413793 37.1678527607362  38.2373793103448 37.221963190184  C 38.3263448275862 37.6307975460123  38.3678620689655 38.0516564417178  38.3678620689655 38.478527607362  C 38.3678620689655 40.3904294478528  35.7107586206897 44.2923926380368  32.6325517241379 44.2923926380368  C 29.3526896551724 44.2923926380368  26.4702068965517 41.5928834355828  26.4702068965517 38.5146012269939  C 26.4702068965517 38.2861349693252  26.4998620689655 38.0035582822086  26.5591724137931 37.6728834355828  L 26.6125517241379 37.4504294478528  C 26.6244137931034 37.360245398773  26.6422068965517 37.2700613496932  26.66 37.1919018404908  C 26.7489655172414 36.8371779141104  26.8675862068965 36.4704294478528  27.0099310344828 36.121717791411  C 27.496275862069 35.0034355828221  28.208 34.161717791411  28.208 34.1496932515337  L 28.2554482758621 34.0955828220859  C 29.1451034482759 33.0314110429448  29.8331034482759 32.321963190184  30.4973793103448 31.6305521472393  C 31.5590344827586 30.5363190184049  32.5554482758621 29.502208588957  33.9907586206896 27.4339877300613  C 39.1329655172414 20.0148466257669  39.6430344827586 12.5596319018405  35.4201379310345 6.43312883435582  L 35.3845517241379 6.38503067484661  C 31.2624827586207 0.721472392638025  22.7455172413793 -2.36282208588958  15.0826206896552 3.07226993865029  C 8.90841379310343 7.53337423312882  9.53117241379309 14.9525153374233  11.2452413793103 20.5559509202454  C 10.7885517241379 20.4898159509202  10.3377931034483 20.459754601227  9.89889655172413 20.459754601227  C 4.47793103448275 20.459754601227  0.065241379310335 24.9328834355828  0.065241379310335 30.4280981595092  C 0.065241379310335 35.9233128834356  4.47793103448275 40.3964417177914  9.89889655172413 40.3964417177914  C 15.3198620689655 40.3964417177914  19.7325517241379 35.9233128834356  19.7325517241379 30.4280981595092  C 19.7325517241379 29.3338650306748  19.5486896551724 28.2336196319018  19.1868965517241 27.181472392638  C 19.1572413793103 27.0852760736196  19.1275862068965 26.9950920245399  19.092 26.9169325153374  C 18.771724137931 26.0631901840491  18.3387586206896 25.2575460122699  17.8286896551724 24.5661349693251  C 15.8595862068965 20.6521472392638  11.9154482758621 11.0926380368098  17.7337931034483 6.88404907975459  C 23.0420689655172 3.12036809815949  28.7595862068965 5.1645398773006  31.6598620689655 9.12662576687115  C 34.6728275862069 13.5215950920245  34.1627586206897 19.0769325153374  30.2186206896552 24.7585276073619  C 29.0027586206897 26.5141104294478  28.208 27.3317791411043  27.2056551724138 28.3719018404908  C 26.5235862068966 29.0813496932515  25.7466206896552 29.880981595092  24.7561379310345 31.0653987730061  C 24.5782068965517 31.2698159509202  23.6351724137931 32.3880981595092  22.899724137931 33.9813496932515  L 22.8582068965517 34.0534969325153  C 22.8166896551724 34.1436809815951  22.7692413793103 34.2579141104294  22.7217931034483 34.3781595092024  C 22.4489655172414 35.0334969325153  22.2413793103448 35.6948466257669  22.1168275862069 36.3321472392638  C 21.9448275862069 37.101717791411  21.8558620689655 37.8352147239264  21.8558620689655 38.5206134969325  C 21.8558620689655 44.1781595092024  26.7845517241379 48.9579141104294  32.6147586206897 48.9579141104294  C 38.5102068965517 48.9579141104294  42.9525517241379 42.602944785276  42.9525517241379 38.4785276073619  Z M 9.91668965517241 25.119263803681  C 12.7991724137931 25.119263803681  15.1478620689655 27.4941104294478  15.1478620689655 30.4220858895706  C 15.1478620689655 33.3500613496932  12.7991724137931 35.7249079754601  9.91668965517241 35.7249079754601  C 7.03420689655173 35.7249079754601  4.68551724137931 33.3440490797546  4.68551724137931 30.4220858895706  C 4.68551724137931 27.4941104294479  7.03420689655173 25.119263803681  9.91668965517241 25.119263803681  Z " fill-rule="nonzero" fill="#9a9ae1" stroke="none" transform="matrix(1 0 0 1 572 386 )" />
  </g>
</svg>