<?xml version="1.0" encoding="utf-8"?>
<svg version="1.1" xmlns:xlink="http://www.w3.org/1999/xlink" width="57px" height="49px" xmlns="http://www.w3.org/2000/svg">
  <g transform="matrix(1 0 0 1 -683 -386 )">
    <path d="M 2.69510869565217 12.893125  C 2.69510869565217 12.893125  2.69510869565217 12.893125  2.72608695652174 12.893125  C 4.15108695652174 12.831875  5.26630434782609 11.606875  5.20434782608696 10.198125  C 4.95652173913043 7.870625  6.62934782608696 5.7575  8.98369565217391 5.420625  C 11.3380434782609 5.726875  13.041847826087 7.84  13 10.198125  L 13 36.505  C 12.6701086956522 37.91375  13.7853260869565 39.108125  15.2103260869565 39.2  C 15.2103260869565 39.2  15.2413043478261 39.2  15.2413043478261 39.2  C 16.6663043478261 39.13875  17.7815217391304 37.91375  18 36.505  L 18 10.198125  C 17.595652173913 7.686875  19.5782608695652 5.543125  22.1184782608696 5.420625  C 24.6586956521739 5.543125  26.6413043478261 7.65625  27 10.198125  L 27 36.505  C 26.3934782608696 37.8525  27.3538043478261 39.0775  28.716847826087 39.230625  C 30.0798913043478 39.38375  31.3190217391304 38.434375  31.4739130434783 37.086875  C 31.5048913043478 36.903125  31.5048913043478 36.68875  31 36.505  L 31 10.198125  C 31.3809782608696 7.686875  33.3635869565217 5.543125  35.9038043478261 5.420625  C 38.4440217391304 5.543125  40.4266304347826 7.65625  40.3027173913043 10.1675  C 40.3027173913043 10.1675  40.3027173913043 10.1675  40 10.1675  L 40 36.535625  C 40.3027173913043 37.331875  40.4266304347826 38.0975  40.6434782608696 38.863125  C 38.5369565217391 40.7925  36.2445652173913 42.5075  33.7972826086956 44.008125  C 32.6510869565217 44.77375  32.2173913043478 46.274375  32.8059782608696 47.499375  C 33.1777173913043 48.356875  34.0141304347826 48.908125  34.9744565217391 48.93875  C 35.3771739130435 48.93875  35.7798913043478 48.81625  36.1516304347826 48.6325  C 38.6918478260869 47.10125  41.0461956521739 45.325  43.245652173913 43.334375  C 45.4760869565217 45.539375  48.4809782608696 46.795  51.6407608695652 46.825625  C 53.0038043478261 46.764375  54.1190217391304 45.661875  54.1190217391304 44.314375  C 54.2429347826087 42.905625  53.220652173913 41.65  51.7646739130435 41.46625  C 49.9679347826087 41.435625  48.233152173913 40.85375  46.808152173913 39.781875  C 50.3086956521739 36.1375  53.0967391304348 31.91125  55.0483695652174 27.3175  C 58.8277173913043 18.0075  55.358152173913 12.985  53.7163043478261 11.239375  C 51.4239130434783 8.94249999999999  48.1711956521739 7.87062499999999  44.9494565217391 8.32999999999999  C 44.3608695652174 3.7975  40.5815217391304 0.30625  35.9347826086957 0.0306250000000004  C 33.1777173913043 0.0306250000000004  30.5755434782609 1.225  28.8407608695652 3.338125  C 25.8048913043478 -0.398124999999999  20.2597826086956 -0.979999999999999  16.4804347826087 2.02125  C 15.9847826086957 2.419375  15.5510869565217 2.848125  15.1483695652174 3.338125  C 13.6923913043478 1.378125  11.4309782608696 0.18375  8.98369565217391 0.0306250000000004  C 3.74836956521739 0.49  -0.154891304347826 5.0225  0.247826086956522 10.198125  C 0.154891304347826 11.606875  1.27010869565217 12.80125  2.69510869565217 12.893125  Z M 45 14.056875  C 47.1179347826087 13.53625  49.1005434782609 13.995625  50.4635869565217 15.281875  C 52.4152173913044 17.2725  52.508152173913 20.825  50.7114130434783 25.265625  C 49.379347826087 28.450625  47.5516304347826 31.42125  45 34.055  L 45 14.056875  Z " fill-rule="nonzero" fill="#8d94df" stroke="none" transform="matrix(1 0 0 1 683 386 )" />
  </g>
</svg>