<?xml version="1.0" encoding="utf-8"?>
<svg version="1.1" xmlns:xlink="http://www.w3.org/1999/xlink" width="64px" height="49px" xmlns="http://www.w3.org/2000/svg">
  <g transform="matrix(1 0 0 1 -437 -522 )">
    <path d="M 63.8840580163043 33.1267605633803  C 63.8840580163043 34.7083333557988  62.5797101222826 36.0023474403059  60.9855072690217 36  L 40.695652173913 36  C 39.1014492527174 36.0023474403059  37.7971014266304 34.7083333557988  37.7971014266304 33.1267605633803  C 37.7971014266304 31.5451877709617  38.0869565217391 30.9700704225352  39.8260869565217 29.1009389896017  L 40.5507246603261 28.5258216411752  L 39.8260869565217 29.1009389896017  C 43.0144927309783 26.8004695284991  45.0434782608696 23.0622065952355  45.0434782608696 18.7488263135453  C 45.0434782608696 11.5598591549296  39.2463768342391 5.80868546847491  32 5.80868546847491  C 24.7536231657609 5.80868546847491  18.9565217391304 11.5598591549296  18.9565217391304 18.7488263135453  C 18.9565217391304 23.0622065952355  24.1739130434783 29.1009389896017  24.1739130434783 29.1009389896017  C 25.6231883831522 30.6825117820202  26.2028985733696 31.5451878383583  26.2028985733696 33.1267605633803  C 26.2028985733696 34.7083333557989  24.8985507472826 36.0023474403059  23.304347826087 36  L 3.01449273097826 36  C 1.42028980978261 36.0023474403059  0.115941983695652 34.7083333557988  0.115941983695652 33.1267605633803  C 0.115941983695652 31.5451877709617  1.42028980978261 30.2511736864547  3.01449273097826 30  L 17.2173913043478 30  C 14.7536231657609 27.0880281690141  13.1594203125 23.0622065278389  13.1594203125 18.7488262461488  C 13.1594203125 8.39671357009243  21.5652173913043 0.0575117146236859  32 0.0575117146236859  C 42.4347826086956 0.0575117146236859  50.8405796875 8.39671357009244  50.8405796875 18.7488262461488  C 50.8405796875 23.0622065278389  49.2463767663043 27.0880281016175  46.7826086956522 30  L 60.9855072690217 30  C 62.5797101902174 30.2511736864547  63.8840580163043 31.5451877709617  63.8840580163043 33.1267605633803  Z M 0.115941983695652 46.0669014084507  C 0.115941983695652 44.4853286160321  1.42028987771739 43.1913145315251  3.01449273097826 43  L 60.985507201087 43  C 62.5797101222826 43.1913145315251  63.8840579483696 44.4853286160321  63.8840579483696 46.0669014084507  C 63.8840579483696 47.6484742008693  62.5797101222826 48.9424882853763  60.985507201087 49  L 3.01449273097826 49  C 1.42028980978261 48.9424882853763  0.115941983695652 47.6484742008693  0.115941983695652 46.0669014084507  Z " fill-rule="nonzero" fill="#7e8edc" stroke="none" transform="matrix(1 0 0 1 437 522 )" />
  </g>
</svg>