<?xml version="1.0" encoding="utf-8"?>
<svg version="1.1" xmlns:xlink="http://www.w3.org/1999/xlink" width="50px" height="49px" xmlns="http://www.w3.org/2000/svg">
  <g transform="matrix(1 0 0 1 -574 -522 )">
    <path d="M 42.3567708333333 47.0808333335566  C 41.9030671294081 47.5310208335566  41.3217592594808 47.7596875  40.733362268297 47.7596875  C 40.1449652777778 47.7596875  39.556568286594 47.5310208335566  39.1099537039252 47.0808333335566  C 38.2096354166667 46.1733125  38.2096354166667 44.7084166671133  39.1099537039252 43.8080416664434  L 43.6115451388889 39.2704375  L 39.1099537039252 34.7328333335566  C 38.2096354166667 33.8324583335566  38.2096354166667 32.3604166671133  39.1099537039252 31.4600416664434  C 40.0031828705919 30.5525208328867  41.4635416666667 30.5525208328867  42.3567708333333 31.4600416664434  L 48.4888599539252 37.6411875  C 48.9212962967393 38.0770833335566  49.1623263888889 38.6630416664434  49.1623263888889 39.2775833335566  C 49.1623263888889 39.892125  48.9212962960748 40.4852291671133  48.4888599539252 40.9139791664434  L 42.3567708333333 47.0808333335566  Z M 19 34.2897916664434  C 18.6294849539252 35.56175  17.6015625 36.6050416664434  16.3326099539252 36.6050416664434  C 15.0636574078505 36.6050416664434  14.0357349539252 35.5688958328867  14 34.2897916664434  L 14 10.0368333335566  C 14.0357349539252 7.74302083355664  12.1854745372586 5.87795833355664  9.90986689836969 5.87795833355664  C 7.6342592594808 5.87795833355664  5.78399884281413 7.74302083355664  6 10.0368333335566  L 6 34.2897916664434  C 5.78399884281413 35.5688958328867  4.75607638888889 36.6050416664434  3.48712384281413 36.6050416664434  C 2.21817129673937 36.6050416664434  1.19024884281413 35.5688958328867  2 34.2897916664434  L 2 10.0368333335566  C 1.19024884281413 5.19195833355664  5.10344328725858 1.24745833355664  9.90986689836969 1.24745833355664  C 14.7162905094808 1.24745833355664  18.6294849539252 5.19195833355664  19 10.0368333335566  L 19 34.2897916664434  Z " fill-rule="nonzero" fill="#6e88da" stroke="none" transform="matrix(1 0 0 1 574 522 )" />
  </g>
</svg>