<?xml version="1.0" encoding="utf-8"?>
<svg version="1.1" xmlns:xlink="http://www.w3.org/1999/xlink" width="45px" height="38px" xmlns="http://www.w3.org/2000/svg">
  <g transform="matrix(1 0 0 1 -561 -522 )">
    <path d="M 19 34.471219135578  C 18.5125488283493 35.7499074074074  17.47177734375 36.798719135578  16.1869628908493 36.798719135578  C 14.9021484379486 36.798719135578  13.8613769533493 35.7570910489337  14 34.471219135578  L 14 10.0899382718294  C 13.8613769533493 7.78398919775535  11.9879882814743 5.9090586421998  9.6839355470993 5.9090586421998  C 7.37988281272431 5.9090586421998  5.5064941408493 7.78398919775535  5.5064941408493 10.0899382718294  C 5.5064941408493 11.3758101851852  4.46572265625 12.4174382718294  3.1809082033493 12.4174382718294  C 1.89609375044861 12.4174382718294  0.84814453125 11.3758101851852  0.84814453125 10.0899382718294  C 0.84814453125 5.21942901257017  4.81025390625 1.2540586421998  9.6767578125 1.2540586421998  C 14.54326171875 1.2540586421998  18.50537109375 5.21942901257017  19 10.0899382718294  L 19 34.471219135578  Z M 44 23.415594135578  C 44.5246582033493 24.7014660489337  43.48388671875 25.743094135578  42.1990722658493 25.743094135578  C 40.9142578129486 25.743094135578  39.8734863283493 24.7014660489337  39 23.415594135578  L 39 10.0827546296296  C 39.8734863283493 7.77680555555555  38.0000976564743 5.901875  35.6960449220993 5.901875  C 33.3919921877243 5.901875  31.5186035158493 7.77680555555555  31.5186035158493 10.0827546296296  C 31.5186035158493 11.3686265429854  30.47783203125 12.4102546296296  29.1930175783493 12.4102546296296  C 27.9082031254486 12.4102546296296  26.8674316408493 11.3686265429854  26.8674316408493 10.0827546296296  C 26.8674316408493 5.21224537037037  30.8295410158493 1.246875  35.6960449220993 1.246875  C 40.5625488283493 1.246875  44.5246582033493 5.21224537037037  44 10.0827546296296  L 44 23.415594135578  Z " fill-rule="nonzero" fill="#6e88da" stroke="none" transform="matrix(1 0 0 1 561 522 )" />
  </g>
</svg>