<?xml version="1.0" encoding="utf-8"?>
<svg version="1.1" xmlns:xlink="http://www.w3.org/1999/xlink" width="18px" height="25px" xmlns="http://www.w3.org/2000/svg">
  <g transform="matrix(1 0 0 1 -600 -538 )">
    <path d="M 17.8763942309901 22.2850115738525  C 17.8763942309901 23.5539641199273  16.8516346153846 24.5818865738525  15.5865865386824 24.5818865738525  L 9.18360576945163 24.5818865738525  C 4.391971154067 24.5818865738525  0.490817307913169 20.6686921294081  0.490817307913169 15.862268518297  L 0.490817307913169 2.74030671274143  C 0.490817307913169 1.47135416666667  1.51557692351864 0.443431712741428  2.78062500022086 0.443431712741428  C 4.04567307692308 0.443431712741428  5.07043269252855 1.47135416666667  5 2.74030671274143  L 5 15.862268518297  C 5.07043269252855 18.1378761571859  6.91500000022086 19.9881365738525  9.18360576945163 19.9881365738525  L 15.5865865386824 19.9881365738525  C 16.8516346153846 19.9881365738525  17.8763942309901 21.0160590277778  17.8763942309901 22.2850115738525  Z " fill-rule="nonzero" fill="#6e88da" stroke="none" transform="matrix(1 0 0 1 600 538 )" />
  </g>
</svg>