<?xml version="1.0" encoding="utf-8"?>
<svg version="1.1" xmlns:xlink="http://www.w3.org/1999/xlink" width="48px" height="49px" xmlns="http://www.w3.org/2000/svg">
  <g transform="matrix(1 0 0 1 -688 -522 )">
    <path d="M 47.1713610197368 1.09885710685484  C 46.7217310855263 0.648743699596775  45.8235814144737 0.198506804435484  45.3738898026316 0.198506804435484  L 24.6984991776316 1.09885710685484  C 23.3507195723684 1.09885710685484  22.0017064144737 2.4480859375  22.0017064144737 3.79861139112903  C 22.0017064144737 5.14913684475806  23.3494860197368 6.49836567540322  24.6984991776316 6.49836567540322  L 38.6311677631579 6.04819052419355  L 17.0576891447368 27.6448664314516  L 11.6639802631579 22.2453578629032  C 10.7646587171053 21.3450075604839  8.9671875 21.3450075604839  7.61934621710526 22.2453578629032  C 6.72002467105263 23.1457081653226  6.72002467105263 24.9451121471774  7.61934621710526 26.2943409778226  L 13.0130550986842 31.693849546371  L 0.877919407894731 43.8420337701613  C -0.0214638157894788 44.7423840725806  -0.0214638157894788 46.5417880544355  0.877919407894731 47.8910168850807  C 1.32754934210526 48.3411302923387  2.22569901315789 48.7913671875  2.67539062499999 48.7913671875  C 3.57471217105263 48.7913671875  4.02317023026315 48.7913671875  4.47286184210526 47.8910168850807  L 16.6079358552632 35.7428326612903  L 22.0016447368421 41.1423412298387  C 22.4512746710526 41.5924546370968  23.3494243421053 42.0426297883065  23.7991159539474 42.0426297883065  C 24.6984375 42.0426297883065  25.1468955592105 42.0426297883065  25.5965871710526 41.1422794858871  C 26.4959087171053 40.2419909274194  26.4959087171053 38.4425252016129  25.5965871710526 37.0932963709677  L 20.2028782894737 31.6937878024194  L 41.3266652960526 10.5473487903226  L 40.8770353618421 24.0447618447581  C 40.8770353618421 25.3939906754032  42.2247532894737 26.7445161290323  43.573828125 26.7445161290323  C 44.9216077302632 26.7445161290323  46.2706825657895 25.3952872983871  46.2706825657895 24.0447618447581  L 47.1700657894737 3.34843623991936  C 48.0693873355263 2.44808593750001  47.6196957236842 1.54903225806452  47.1712993421053 1.09885710685485  Z " fill-rule="nonzero" fill="#636fce" stroke="none" transform="matrix(1 0 0 1 688 522 )" />
  </g>
</svg>