<?xml version="1.0" encoding="utf-8"?>
<svg version="1.1" xmlns:xlink="http://www.w3.org/1999/xlink" width="45px" height="49px" xmlns="http://www.w3.org/2000/svg">
  <g transform="matrix(1 0 0 1 -448 -658 )">
    <path d="M 35.1889534883721 13.0930107526882  C 33.0697674418605 13.0930107526882  31.1337209302326 13.7516129032258  29.5377906976744 14.910752688172  L 29.5377906976744 10.1161290322581  C 29.5377906976744 4.63655913978495  25.1424418604651 0.210752688172042  19.7005813953488 0.210752688172042  C 16.2470930232558 0.210752688172042  13.2383720930233 1.9758064516129  11.4854651162791 4.68924731182796  C 9.31395348837209 1.9494623655914  5.99127906976745 0.210752688172042  2.27616279069768 0.210752688172042  C 1.09883720930233 0.210752688172042  0.156976744186049 1.15913978494624  0.156976744186049 2.34462365591398  C 0.156976744186049 3.53010752688172  1.09883720930233 4.47849462365591  2.27616279069768 4.47849462365591  C 6.43604651162791 4.47849462365591  9.83720930232558 7.87688172043011  10 12.091935483871  L 10 25.1849462365591  C 9.83720930232558 26.3704301075269  10.7790697674419 27.3188172043011  11.9563953488372 27.3188172043011  C 13.1337209302326 27.3188172043011  14.0755813953488 26.3704301075269  14 25.1849462365591  L 14 10.1161290322581  C 14.0755813953488 6.98118279569893  16.6133720930233 4.45215053763441  19.7005813953488 4.45215053763441  C 22.7877906976744 4.45215053763441  25.3255813953488 7.00752688172043  25 10.1161290322581  L 25 25.7908602150538  C 25.3255813953488 27.4241935483871  25.3255813953488 29.0048387096774  24.7761627906977 30.3220430107527  C 24.1744186046512 31.7709677419355  23.5726744186047 33.0354838709677  22.9447674418605 34.089247311828  C 21.5581395348837 36.3811827956989  19.7790697674419 38.3569892473118  17.6337209302326 39.9639784946237  C 14.1802325581395 42.5720430107527  9.96802325581396 44.152688172043  5.36337209302326 44.5478494623656  C 4.18604651162791 44.6268817204301  3.34883720930233 45.6806451612903  3.42732558139535 46.8661290322581  C 3.50581395348838 47.9725806451613  4.44767441860466 48.8155913978495  5.54651162790698 48.8155913978495  L 5.72965116279071 48.8155913978495  C 11.093023255814 48.3677419354839  16.0901162790698 46.4709677419355  20.171511627907 43.3623655913979  C 22.7354651162791 41.4129032258065  24.8808139534884 39.041935483871  26.5290697674419 36.3021505376344  C 27.2877906976744 35.0639784946237  28.0203488372093 33.6150537634409  28.6744186046512 31.9290322580645  C 28.8575581395349 31.4811827956989  29.0145348837209 30.9806451612903  29.1191860465116 30.5327956989247  C 30.7674418604651 31.8763440860215  32.8604651162791 32.6666666666667  35.1627906976744 32.6666666666667  C 40.5261627906977 32.6666666666667  44.8953488372093 28.2935483870968  44.8953488372093 22.8666666666667  C 44.8953488372093 17.4661290322581  40.5523255813954 13.0930107526882  35.1889534883721 13.0930107526882  Z M 40.6831395348837 22.8666666666667  C 40.6831395348837 25.8962365591398  38.1976744186046 28.3989247311828  35.1889534883721 28.3989247311828  C 32.1802325581395 28.3989247311828  29.6947674418605 25.8962365591398  29.6947674418605 22.8666666666667  C 29.6947674418605 19.8370967741935  32.1802325581395 17.3344086021505  35.1889534883721 17.3344086021505  C 38.1976744186046 17.3344086021505  40.6831395348837 19.8370967741935  40.6831395348837 22.8666666666667  Z " fill-rule="nonzero" fill="#5d55bf" stroke="none" transform="matrix(1 0 0 1 448 658 )" />
  </g>
</svg>