<?xml version="1.0" encoding="utf-8"?>
<svg version="1.1" xmlns:xlink="http://www.w3.org/1999/xlink" width="70px" height="49px" xmlns="http://www.w3.org/2000/svg">
  <g transform="matrix(1 0 0 1 -558 -658 )">
    <path d="M 3.09042553191489 19.965671641791  C 3.83510638297872 19.965671641791  4.57978723404255 19.6731343283582  5.10106382978724 19.1611940298507  L 17.2393617021277 7.24029850746268  L 25.3936170212766 18.7955223880597  C 25.3936170212766 18.7955223880597  25.4308510638298 18.8320895522388  25.4308510638298 18.8320895522388  C 25.5053191489362 18.9417910447761  25.5797872340426 19.0149253731343  25.6542553191489 19.1246268656716  C 25.6914893617021 19.1611940298507  25.6914893617021 19.1611940298507  25.7287234042553 19.1977611940298  C 25.7659574468085 19.2343283582089  25.7659574468085 19.2343283582089  25.8031914893617 19.2708955223881  C 25.8404255319149 19.3074626865672  25.8776595744681 19.3440298507463  25.9148936170213 19.3440298507463  C 25.9521276595745 19.3805970149254  26.0265957446808 19.4171641791045  26.1010638297872 19.4902985074627  C 26.1382978723404 19.5268656716418  26.1382978723404 19.5268656716418  26.1755319148936 19.5634328358209  C 26.25 19.6365671641791  26.3617021276596 19.6731343283582  26.436170212766 19.7097014925373  C 26.436170212766 19.7097014925373  26.4734042553191 19.7097014925373  26.4734042553191 19.7462686567164  C 26.5478723404255 19.7828358208955  26.6223404255319 19.8194029850746  26.6968085106383 19.8559701492537  C 26.7340425531915 19.8559701492537  26.7712765957447 19.8925373134328  26.7712765957447 19.8925373134328  C 26.8829787234043 19.9291044776119  26.9946808510638 19.965671641791  27.0691489361702 19.965671641791  C 27.1436170212766 19.965671641791  27.218085106383 20.0022388059701  27.2925531914894 20.0022388059701  C 27.3297872340425 20.0022388059701  27.3670212765957 20.0022388059701  27.3670212765957 20.0022388059701  C 27.4787234042553 20.0022388059701  27.5531914893617 20.0022388059701  27.6648936170213 20.0022388059701  C 27.813829787234 20.0022388059701  27.9627659574468 20.0022388059701  28.1117021276596 19.965671641791  C 28.2234042553191 19.9291044776119  28.3351063829787 19.9291044776119  28.4840425531915 19.8925373134328  C 28.4840425531915 19.8925373134328  28.5212765957447 19.8925373134328  28.5212765957447 19.8925373134328  C 28.6329787234042 19.8559701492537  28.7446808510638 19.8194029850746  28.8563829787234 19.7828358208955  C 28.8936170212766 19.7828358208955  28.8936170212766 19.7462686567164  28.9308510638298 19.7462686567164  C 29.0425531914894 19.6731343283582  29.1542553191489 19.6365671641791  29.2659574468085 19.5634328358209  C 29.3031914893617 19.5634328358209  29.3031914893617 19.5268656716418  29.3404255319149 19.4902985074627  C 29.3776595744681 19.4537313432836  29.4148936170213 19.4171641791045  29.4521276595745 19.3805970149254  C 29.4893617021277 19.3440298507463  29.5265957446809 19.3074626865672  29.563829787234 19.2708955223881  C 29.6010638297872 19.234328358209  29.6010638297872 19.234328358209  29.6382978723404 19.1977611940299  L 41.7765957446808 7.27686567164179  L 49.9308510638298 18.8320895522388  C 49.9308510638298 18.8320895522388  49.968085106383 18.8686567164179  49.968085106383 18.8686567164179  C 50.0425531914894 18.9783582089552  50.1170212765957 19.0514925373134  50.1914893617021 19.1611940298507  C 50.2287234042553 19.1977611940298  50.2287234042553 19.1977611940298  50.2659574468085 19.234328358209  C 50.3031914893617 19.2708955223881  50.3404255319149 19.2708955223881  50.3404255319149 19.3074626865672  C 50.3776595744681 19.3440298507463  50.4148936170213 19.3805970149254  50.4521276595745 19.3805970149254  C 50.5265957446808 19.4171641791045  50.563829787234 19.4537313432836  50.6382978723404 19.5268656716418  C 50.6755319148936 19.5268656716418  50.6755319148936 19.5634328358209  50.7127659574468 19.5634328358209  C 50.7872340425532 19.6365671641791  50.8989361702128 19.6731343283582  50.9734042553191 19.7097014925373  C 50.9734042553191 19.7097014925373  51.0106382978723 19.7097014925373  51.0106382978723 19.7462686567164  C 51.0851063829787 19.7828358208955  51.1595744680851 19.8194029850746  51.2340425531915 19.8559701492537  C 51.2712765957447 19.8559701492537  51.2712765957447 19.8925373134328  51.3085106382978 19.8925373134328  C 51.4202127659574 19.9291044776119  51.531914893617 19.965671641791  51.6063829787234 19.965671641791  C 51.6808510638298 19.965671641791  51.7553191489362 20.0022388059701  51.8297872340425 20.0022388059701  C 51.8670212765957 20.0022388059701  51.9042553191489 20.0022388059701  51.9042553191489 20.0022388059701  C 52.0159574468085 20.0022388059701  52.0904255319149 20.0022388059701  52.2021276595744 20.0022388059701  C 52.3510638297872 20.0022388059701  52.5 20.0022388059701  52.6489361702127 19.965671641791  C 52.7606382978723 19.9291044776119  52.8723404255319 19.9291044776119  53.0212765957447 19.8925373134328  C 53.0212765957447 19.8925373134328  53.0585106382978 19.8925373134328  53.0585106382978 19.8925373134328  C 53.1702127659574 19.8559701492537  53.281914893617 19.8194029850746  53.3936170212766 19.7828358208955  C 53.4308510638298 19.7828358208955  53.4308510638298 19.7462686567164  53.4680851063829 19.7462686567164  C 53.5797872340425 19.6731343283582  53.6914893617021 19.6365671641791  53.8031914893617 19.5634328358209  C 53.8404255319149 19.5634328358209  53.8404255319149 19.5268656716418  53.877659574468 19.4902985074627  C 53.9148936170212 19.4537313432836  53.9521276595744 19.4171641791045  53.9893617021276 19.3805970149254  C 54.0265957446808 19.3440298507463  54.063829787234 19.3074626865672  54.1010638297872 19.2708955223881  C 54.1382978723404 19.234328358209  54.1382978723404 19.234328358209  54.1755319148936 19.1977611940299  L 68.8829787234043 4.86343283582089  C 70 3.76641791044776  70 2.01119402985075  68.9202127659574 0.914179104477612  C 67.8031914893617 -0.182835820895522  66.0159574468085 -0.182835820895522  64.8989361702128 0.877611940298507  C 64.8989361702128 0.877611940298507  64.8989361702128 0.877611940298507  64.8617021276596 0.914179104477612  L 52.7234042553191 12.8350746268657  L 44.5691489361702 1.27985074626865  C 44.5691489361702 1.24328358208955  44.531914893617 1.24328358208955  44.531914893617 1.20671641791044  C 44.4946808510638 1.17014925373134  44.4574468085106 1.13358208955223  44.4202127659574 1.06044776119403  C 44.3829787234043 1.02388059701492  44.3457446808511 0.987313432835817  44.3085106382979 0.950746268656714  C 44.2712765957447 0.914179104477609  44.2712765957447 0.914179104477609  44.2340425531915 0.877611940298504  C 44.2340425531915 0.877611940298504  44.2340425531915 0.877611940298504  44.1968085106383 0.877611940298504  C 44.1595744680851 0.841044776119399  44.1223404255319 0.804477611940294  44.0478723404255 0.767910447761192  C 44.0106382978723 0.731343283582087  44.0106382978723 0.731343283582087  43.9734042553191 0.694776119402982  C 43.936170212766 0.658208955223877  43.8989361702128 0.621641791044772  43.8244680851064 0.585074626865669  C 43.7872340425532 0.548507462686565  43.75 0.548507462686565  43.75 0.51194029850746  C 43.7127659574468 0.475373134328355  43.6755319148936 0.475373134328355  43.6382978723404 0.43880597014925  C 43.6010638297872 0.402238805970145  43.563829787234 0.402238805970145  43.5265957446808 0.36567164179104  C 43.4893617021277 0.329104477611935  43.4521276595745 0.329104477611935  43.4148936170213 0.329104477611935  C 43.3776595744681 0.29253731343283  43.3031914893617 0.29253731343283  43.2659574468085 0.255970149253725  C 43.2287234042553 0.255970149253725  43.1914893617021 0.21940298507462  43.1542553191489 0.21940298507462  C 43.1170212765957 0.21940298507462  43.0425531914894 0.182835820895515  43.0053191489362 0.182835820895515  C 42.968085106383 0.182835820895515  42.9308510638298 0.182835820895515  42.8936170212766 0.14626865671641  C 42.8563829787234 0.14626865671641  42.781914893617 0.109701492537305  42.7446808510638 0.109701492537305  C 42.7074468085106 0.109701492537305  42.6702127659574 0.109701492537305  42.6329787234043 0.109701492537305  C 42.5957446808511 0.109701492537305  42.5212765957447 0.109701492537305  42.4840425531915 0.0731343283581996  C 42.4468085106383 0.0731343283581996  42.3723404255319 0.0731343283581996  42.3351063829787 0.0731343283581996  C 42.2978723404255 0.0731343283581996  42.2606382978723 0.0731343283581996  42.2234042553191 0.0731343283581996  C 42.1489361702128 0.0731343283581996  42.1117021276596 0.0731343283581996  42.0372340425532 0.0731343283581996  C 42 0.0731343283581996  41.9627659574468 0.0731343283581996  41.9255319148936 0.0731343283581996  C 41.8510638297872 0.0731343283581996  41.813829787234 0.0731343283581996  41.7393617021277 0.109701492537305  C 41.7021276595745 0.109701492537305  41.6648936170213 0.109701492537305  41.6276595744681 0.109701492537305  C 41.5904255319149 0.109701492537305  41.5159574468085 0.14626865671641  41.4787234042553 0.14626865671641  C 41.4414893617021 0.14626865671641  41.4042553191489 0.14626865671641  41.3670212765957 0.182835820895515  C 41.3297872340425 0.182835820895515  41.2925531914894 0.21940298507462  41.218085106383 0.21940298507462  C 41.1808510638298 0.21940298507462  41.1436170212766 0.255970149253725  41.0691489361702 0.255970149253725  C 41.031914893617 0.255970149253725  40.9946808510638 0.29253731343283  40.9574468085106 0.29253731343283  C 40.9202127659574 0.329104477611935  40.8457446808511 0.329104477611935  40.8085106382979 0.36567164179104  C 40.7712765957447 0.36567164179104  40.7340425531915 0.402238805970145  40.7340425531915 0.402238805970145  C 40.6968085106383 0.43880597014925  40.6223404255319 0.475373134328355  40.5851063829787 0.511940298507457  C 40.5851063829787 0.511940298507457  40.5851063829787 0.511940298507457  40.5478723404255 0.511940298507457  C 40.5106382978723 0.511940298507457  40.5106382978723 0.548507462686562  40.4734042553191 0.585074626865667  C 40.4361702127659 0.621641791044772  40.3989361702128 0.658208955223877  40.3617021276596 0.694776119402979  C 40.3244680851064 0.731343283582084  40.2872340425532 0.767910447761189  40.25 0.804477611940292  C 40.2127659574468 0.841044776119397  40.2127659574468 0.841044776119397  40.1755319148936 0.877611940298502  L 28.1117021276596 12.8350746268657  L 19.9946808510638 1.31641791044776  C 19.9946808510638 1.27985074626866  19.9574468085106 1.27985074626866  19.9202127659574 1.24328358208955  C 19.8829787234043 1.20671641791045  19.8457446808511 1.17014925373134  19.8085106382979 1.13358208955224  C 19.7712765957447 1.09701492537313  19.7340425531915 1.06044776119403  19.6968085106383 1.02388059701493  C 19.6595744680851 0.987313432835822  19.6595744680851 0.987313432835822  19.6223404255319 0.950746268656717  C 19.6223404255319 0.950746268656717  19.6223404255319 0.950746268656717  19.5851063829787 0.950746268656717  C 19.5478723404255 0.914179104477612  19.5106382978723 0.877611940298507  19.436170212766 0.841044776119405  C 19.3989361702128 0.8044776119403  19.3989361702128 0.8044776119403  19.3617021276596 0.767910447761194  C 19.3244680851064 0.73134328358209  19.2872340425532 0.694776119402985  19.2127659574468 0.658208955223882  C 19.1755319148936 0.621641791044777  19.1382978723404 0.621641791044777  19.1382978723404 0.585074626865672  C 19.1010638297872 0.548507462686567  19.063829787234 0.548507462686567  19.0265957446809 0.511940298507462  C 18.9893617021277 0.475373134328357  18.9521276595745 0.475373134328357  18.9148936170213 0.438805970149252  C 18.8776595744681 0.402238805970147  18.8404255319149 0.402238805970147  18.8031914893617 0.402238805970147  C 18.7659574468085 0.365671641791042  18.7287234042553 0.365671641791042  18.6542553191489 0.329104477611937  C 18.6170212765957 0.329104477611937  18.5797872340426 0.292537313432832  18.5425531914894 0.292537313432832  C 18.5053191489362 0.292537313432832  18.4308510638298 0.255970149253727  18.3936170212766 0.255970149253727  C 18.3563829787234 0.255970149253727  18.3191489361702 0.255970149253727  18.281914893617 0.219402985074622  C 18.2446808510638 0.219402985074622  18.1702127659575 0.182835820895517  18.1329787234043 0.182835820895517  C 18.0957446808511 0.182835820895517  18.0585106382979 0.182835820895517  17.9840425531915 0.146268656716412  C 17.9468085106383 0.146268656716412  17.9095744680851 0.146268656716412  17.8723404255319 0.146268656716412  C 17.8351063829787 0.146268656716412  17.7606382978723 0.146268656716412  17.7234042553192 0.146268656716412  C 17.686170212766 0.146268656716412  17.6489361702128 0.146268656716412  17.6117021276596 0.146268656716412  C 17.5372340425532 0.146268656716412  17.5 0.146268656716412  17.4255319148936 0.146268656716412  C 17.3882978723404 0.146268656716412  17.3510638297872 0.146268656716412  17.3510638297872 0.146268656716412  C 17.2765957446809 0.146268656716412  17.2393617021277 0.146268656716412  17.1648936170213 0.182835820895517  C 17.1276595744681 0.182835820895517  17.0904255319149 0.182835820895517  17.0904255319149 0.182835820895517  C 17.0159574468085 0.182835820895517  16.9787234042553 0.219402985074622  16.9042553191489 0.219402985074622  C 16.8670212765958 0.219402985074622  16.8297872340426 0.219402985074622  16.7925531914894 0.255970149253727  C 16.7553191489362 0.255970149253727  16.6808510638298 0.292537313432832  16.6436170212766 0.292537313432832  C 16.6063829787234 0.292537313432832  16.5691489361702 0.329104477611937  16.531914893617 0.329104477611937  C 16.4946808510638 0.329104477611937  16.4574468085106 0.365671641791042  16.4202127659575 0.365671641791042  C 16.3829787234043 0.402238805970147  16.3085106382979 0.402238805970147  16.2712765957447 0.438805970149252  C 16.2340425531915 0.438805970149252  16.1968085106383 0.475373134328357  16.1968085106383 0.475373134328357  C 16.1595744680851 0.511940298507462  16.0851063829787 0.548507462686567  16.0478723404255 0.585074626865669  C 16.0478723404255 0.585074626865669  16.0478723404255 0.585074626865669  16.0106382978724 0.585074626865669  C 15.9734042553192 0.585074626865669  15.9734042553192 0.621641791044775  15.936170212766 0.65820895522388  C 15.8989361702128 0.694776119402985  15.8617021276596 0.73134328358209  15.8244680851064 0.767910447761192  C 15.7872340425532 0.804477611940297  15.75 0.841044776119402  15.7127659574468 0.877611940298504  C 15.6755319148936 0.914179104477609  15.6755319148936 0.914179104477609  15.6382978723404 0.950746268656714  L 1.11702127659574 15.2119402985075  C 0 16.3089552238806  0 18.0641791044776  1.11702127659574 19.1611940298507  C 1.63829787234043 19.6731343283582  2.34574468085106 19.965671641791  3.09042553191489 19.965671641791  Z M 64.8617021276596 29.8753731343284  L 52.7234042553191 41.7962686567164  L 44.5691489361702 30.2410447761194  C 44.5691489361702 30.2044776119403  44.531914893617 30.2044776119403  44.531914893617 30.1679104477612  C 44.4946808510638 30.1313432835821  44.4574468085106 30.094776119403  44.4202127659574 30.0216417910448  C 44.3829787234043 29.9850746268657  44.3457446808511 29.9485074626866  44.3085106382979 29.9119402985075  C 44.2712765957447 29.8753731343284  44.2712765957447 29.8753731343284  44.2340425531915 29.8388059701493  C 44.2340425531915 29.8388059701493  44.2340425531915 29.8388059701493  44.1968085106383 29.8388059701493  C 44.1595744680851 29.8022388059702  44.1223404255319 29.765671641791  44.0478723404255 29.7291044776119  C 44.0106382978723 29.6925373134328  44.0106382978723 29.6925373134328  43.9734042553191 29.6559701492537  C 43.936170212766 29.6194029850746  43.8617021276596 29.5828358208955  43.8244680851064 29.5462686567164  C 43.7872340425532 29.5097014925373  43.75 29.5097014925373  43.75 29.4731343283582  C 43.7127659574468 29.4365671641791  43.6755319148936 29.4365671641791  43.6010638297872 29.4  C 43.563829787234 29.3634328358209  43.5265957446808 29.3634328358209  43.4893617021277 29.3268656716418  C 43.4521276595745 29.2902985074627  43.4148936170213 29.2902985074627  43.3776595744681 29.2902985074627  C 43.3404255319149 29.2537313432836  43.3031914893617 29.2537313432836  43.2287234042553 29.2171641791045  C 43.1914893617021 29.2171641791045  43.1542553191489 29.1805970149254  43.1170212765957 29.1805970149254  C 43.0797872340425 29.1805970149254  43.0053191489362 29.1440298507463  42.968085106383 29.1440298507463  C 42.9308510638298 29.1440298507463  42.8936170212766 29.1074626865672  42.8563829787234 29.1074626865672  C 42.8191489361702 29.1074626865672  42.7446808510638 29.0708955223881  42.7074468085106 29.0708955223881  C 42.6702127659574 29.0708955223881  42.6329787234043 29.0708955223881  42.5585106382979 29.034328358209  C 42.5212765957447 29.034328358209  42.4840425531915 29.034328358209  42.4468085106383 29.034328358209  C 42.4095744680851 29.034328358209  42.3351063829787 29.034328358209  42.2978723404255 29.034328358209  C 42.2606382978723 29.034328358209  42.2234042553191 29.034328358209  42.1861702127659 29.034328358209  C 42.1117021276596 29.034328358209  42.0744680851064 29.034328358209  42 29.034328358209  C 41.9627659574468 29.034328358209  41.9255319148936 29.034328358209  41.9255319148936 29.034328358209  C 41.8510638297872 29.034328358209  41.813829787234 29.034328358209  41.7393617021276 29.0708955223881  C 41.7021276595745 29.0708955223881  41.6648936170213 29.0708955223881  41.6648936170213 29.0708955223881  C 41.6276595744681 29.0708955223881  41.5531914893617 29.1074626865672  41.5159574468085 29.1074626865672  C 41.4787234042553 29.1074626865672  41.4414893617021 29.1074626865672  41.4042553191489 29.1440298507463  C 41.3670212765957 29.1440298507463  41.3297872340425 29.1805970149254  41.2553191489362 29.1805970149254  C 41.218085106383 29.1805970149254  41.1808510638298 29.2171641791045  41.1063829787234 29.2171641791045  C 41.0691489361702 29.2171641791045  41.031914893617 29.2537313432836  40.9946808510638 29.2537313432836  C 40.9574468085106 29.2902985074627  40.8829787234042 29.2902985074627  40.845744680851 29.3268656716418  C 40.8085106382979 29.3268656716418  40.7712765957447 29.3634328358209  40.7712765957447 29.3634328358209  C 40.7340425531915 29.4  40.6595744680851 29.4365671641791  40.6223404255319 29.4731343283582  C 40.6223404255319 29.4731343283582  40.6223404255319 29.4731343283582  40.5851063829787 29.4731343283582  C 40.5478723404255 29.4731343283582  40.5478723404255 29.5097014925373  40.5106382978723 29.5462686567164  C 40.4734042553191 29.5828358208955  40.4361702127659 29.6194029850746  40.3989361702127 29.6559701492537  C 40.3617021276596 29.6925373134328  40.3244680851064 29.7291044776119  40.2872340425532 29.765671641791  C 40.25 29.8022388059701  40.25 29.8022388059701  40.2127659574468 29.8388059701493  L 28.0744680851064 41.7597014925373  L 19.9202127659574 30.2044776119403  C 19.9202127659574 30.1679104477612  19.8829787234042 30.1679104477612  19.845744680851 30.1313432835821  C 19.8085106382979 30.094776119403  19.7712765957447 30.0582089552239  19.7340425531915 30.0216417910448  C 19.6968085106383 29.9850746268657  19.6595744680851 29.9485074626866  19.6223404255319 29.9119402985075  C 19.5851063829787 29.8753731343284  19.5851063829787 29.8753731343284  19.5478723404255 29.8388059701493  C 19.5478723404255 29.8388059701493  19.5478723404255 29.8388059701493  19.5106382978723 29.8388059701493  C 19.4734042553191 29.8022388059702  19.4361702127659 29.765671641791  19.3617021276596 29.7291044776119  C 19.3244680851064 29.6925373134328  19.3244680851064 29.6925373134328  19.2872340425532 29.6559701492537  C 19.25 29.6194029850746  19.1755319148936 29.5828358208955  19.1382978723404 29.5462686567164  C 19.1010638297872 29.5097014925373  19.1010638297872 29.5097014925373  19.063829787234 29.4731343283582  C 19.0265957446808 29.4365671641791  18.9893617021276 29.4  18.9148936170213 29.4  C 18.8776595744681 29.3634328358209  18.8404255319149 29.3634328358209  18.8031914893617 29.3268656716418  C 18.7659574468085 29.2902985074627  18.7287234042553 29.2902985074627  18.6914893617021 29.2537313432836  C 18.6542553191489 29.2537313432836  18.6170212765957 29.2171641791045  18.5797872340425 29.2171641791045  C 18.5425531914893 29.2171641791045  18.5053191489362 29.1805970149254  18.468085106383 29.1805970149254  C 18.4308510638298 29.1805970149254  18.3936170212766 29.1440298507463  18.3191489361702 29.1440298507463  C 18.281914893617 29.1440298507463  18.2446808510638 29.1074626865672  18.1702127659574 29.1074626865672  C 18.1329787234042 29.1074626865672  18.095744680851 29.0708955223881  18.0585106382979 29.0708955223881  C 18.0212765957447 29.0708955223881  17.9468085106383 29.0708955223881  17.9095744680851 29.034328358209  C 17.8723404255319 29.034328358209  17.8351063829787 29.034328358209  17.7978723404255 29.034328358209  C 17.7234042553191 29.034328358209  17.6861702127659 29.034328358209  17.6117021276596 29.034328358209  C 17.5744680851064 29.034328358209  17.5744680851064 29.034328358209  17.5372340425532 29.034328358209  C 17.4627659574468 29.034328358209  17.3882978723404 29.034328358209  17.313829787234 29.034328358209  C 17.2765957446808 29.034328358209  17.2765957446808 29.034328358209  17.2393617021276 29.034328358209  C 17.1648936170213 29.034328358209  17.0904255319149 29.034328358209  17.0531914893617 29.0708955223881  C 17.0159574468085 29.0708955223881  17.0159574468085 29.0708955223881  16.9787234042553 29.0708955223881  C 16.9042553191489 29.0708955223881  16.8670212765957 29.1074626865672  16.7925531914893 29.1074626865672  C 16.7553191489362 29.1074626865672  16.718085106383 29.1074626865672  16.718085106383 29.1440298507463  C 16.6808510638298 29.1440298507463  16.6063829787234 29.1805970149254  16.5691489361702 29.1805970149254  C 16.531914893617 29.1805970149254  16.4946808510638 29.2171641791045  16.4574468085106 29.2171641791045  C 16.4202127659574 29.2171641791045  16.3829787234042 29.2537313432836  16.345744680851 29.2537313432836  C 16.3085106382979 29.2902985074627  16.2340425531915 29.2902985074627  16.1968085106383 29.3268656716418  C 16.1595744680851 29.3268656716418  16.1223404255319 29.3634328358209  16.1223404255319 29.3634328358209  C 16.0851063829787 29.4  16.0106382978723 29.4365671641791  15.9734042553191 29.4731343283582  L 15.9361702127659 29.4731343283582  C 15.8989361702128 29.4731343283582  15.8989361702128 29.5097014925373  15.8617021276596 29.5097014925373  C 15.8244680851064 29.5462686567164  15.7872340425532 29.5828358208955  15.75 29.6194029850746  C 15.7127659574468 29.6559701492537  15.6755319148936 29.6925373134328  15.6382978723404 29.7291044776119  C 15.6010638297872 29.765671641791  15.6010638297872 29.765671641791  15.563829787234 29.8022388059701  L 1.11702127659574 44.1365671641791  C 0 45.2335820895522  0 46.9888059701493  1.11702127659574 48.0858208955224  C 1.67553191489362 48.634328358209  2.38297872340426 48.8902985074627  3.12765957446809 48.8902985074627  C 3.87234042553191 48.8902985074627  4.57978723404255 48.634328358209  5.13829787234043 48.0858208955224  L 17.2765957446809 36.1649253731343  L 25.4308510638298 47.7201492537313  C 25.4308510638298 47.7201492537313  25.468085106383 47.7567164179104  25.468085106383 47.7567164179104  C 25.5425531914894 47.8664179104478  25.6170212765958 47.939552238806  25.6914893617021 48.0492537313433  C 25.7287234042553 48.0858208955224  25.7287234042553 48.0858208955224  25.7659574468085 48.1223880597015  C 25.8031914893617 48.1589552238806  25.8031914893617 48.1589552238806  25.8404255319149 48.1955223880597  C 25.8776595744681 48.2320895522388  25.9148936170213 48.2686567164179  25.9521276595745 48.2686567164179  C 25.9893617021277 48.305223880597  26.063829787234 48.3417910447761  26.1010638297872 48.3783582089552  C 26.1382978723404 48.4149253731343  26.1382978723404 48.4149253731343  26.1755319148936 48.4514925373134  C 26.25 48.5246268656716  26.3617021276596 48.5611940298507  26.436170212766 48.5977611940298  C 26.4734042553192 48.5977611940298  26.4734042553192 48.5977611940298  26.5106382978723 48.6343283582089  C 26.5851063829787 48.6708955223881  26.6595744680851 48.7074626865671  26.7340425531915 48.7440298507463  C 26.7712765957447 48.7440298507463  26.8085106382979 48.7805970149254  26.8085106382979 48.7805970149254  C 26.8829787234043 48.8171641791045  26.9574468085106 48.8171641791045  27.031914893617 48.8537313432836  C 27.0691489361702 48.8537313432836  27.1063829787234 48.8537313432836  27.1436170212766 48.8902985074627  C 27.218085106383 48.8902985074627  27.2925531914894 48.9268656716418  27.3670212765957 48.9268656716418  C 27.4042553191489 48.9268656716418  27.4414893617021 48.9268656716418  27.4787234042553 48.9268656716418  C 27.5904255319149 48.9268656716418  27.6648936170213 48.9268656716418  27.7765957446809 48.9268656716418  L 27.813829787234 48.9268656716418  C 27.9255319148936 48.9268656716418  28.0372340425532 48.9268656716418  28.1489361702128 48.8902985074627  C 28.2978723404255 48.8537313432836  28.4468085106383 48.8537313432836  28.5957446808511 48.7805970149253  C 28.5957446808511 48.7805970149253  28.6329787234043 48.7805970149253  28.6329787234043 48.7805970149253  C 28.7446808510638 48.7440298507463  28.8563829787234 48.7074626865671  28.968085106383 48.670895522388  C 29.0053191489362 48.670895522388  29.0053191489362 48.6343283582089  29.0425531914894 48.6343283582089  C 29.1542553191489 48.5611940298507  29.2659574468085 48.5246268656716  29.3776595744681 48.4514925373134  C 29.4148936170213 48.4514925373134  29.4148936170213 48.4149253731343  29.4521276595745 48.4149253731343  C 29.4893617021277 48.3783582089552  29.5265957446809 48.3417910447761  29.6010638297872 48.305223880597  C 29.6382978723404 48.2686567164179  29.6755319148936 48.2320895522388  29.7127659574468 48.1955223880597  C 29.75 48.1589552238806  29.75 48.1589552238806  29.7872340425532 48.1223880597015  L 41.9255319148936 36.2014925373134  L 50.0797872340426 47.7567164179104  C 50.0797872340426 47.7567164179104  50.1170212765958 47.7932835820895  50.1170212765958 47.7932835820895  C 50.1914893617021 47.9029850746268  50.2659574468085 47.976119402985  50.3404255319149 48.0858208955224  C 50.3776595744681 48.1223880597015  50.3776595744681 48.1223880597015  50.4148936170213 48.1589552238806  C 50.4521276595745 48.1955223880597  50.4893617021277 48.1955223880597  50.4893617021277 48.2320895522388  C 50.5265957446808 48.2686567164179  50.563829787234 48.305223880597  50.6010638297872 48.305223880597  C 50.6755319148936 48.3417910447761  50.7127659574468 48.3783582089552  50.7872340425532 48.4514925373134  C 50.8244680851064 48.4880597014925  50.8244680851064 48.4880597014925  50.8617021276596 48.5246268656716  C 50.936170212766 48.5977611940298  51.0478723404255 48.6343283582089  51.1223404255319 48.670895522388  C 51.1223404255319 48.670895522388  51.1595744680851 48.670895522388  51.1595744680851 48.7074626865671  C 51.2340425531915 48.7440298507462  51.3085106382979 48.7805970149253  51.3829787234043 48.8171641791044  C 51.4202127659574 48.8171641791044  51.4574468085106 48.8537313432835  51.4574468085106 48.8537313432835  C 51.6436170212766 48.9268656716418  51.7925531914893 48.9634328358209  51.9787234042553 48.9634328358209  C 52.0159574468085 48.9634328358209  52.0531914893617 48.9634328358209  52.0904255319149 48.9634328358209  C 52.2021276595745 48.9634328358209  52.2765957446808 48.9634328358209  52.3882978723404 48.9634328358209  L 52.4255319148936 48.9634328358209  C 52.5744680851064 48.9634328358209  52.7234042553191 48.9634328358209  52.8723404255319 48.9268656716418  C 52.9840425531915 48.8902985074627  53.095744680851 48.8902985074627  53.2446808510638 48.8537313432836  C 53.2446808510638 48.8537313432836  53.281914893617 48.8537313432836  53.281914893617 48.8537313432836  C 53.3936170212766 48.8171641791045  53.5053191489362 48.7805970149253  53.6170212765957 48.7440298507462  C 53.6542553191489 48.7440298507462  53.6542553191489 48.7074626865671  53.6914893617021 48.7074626865671  C 53.8031914893617 48.6343283582089  53.9148936170213 48.5977611940298  54.0265957446808 48.5246268656716  C 54.063829787234 48.5246268656716  54.063829787234 48.4880597014925  54.1010638297872 48.4514925373134  C 54.1382978723404 48.4149253731343  54.1755319148936 48.3783582089552  54.2127659574468 48.3417910447761  C 54.25 48.305223880597  54.2872340425532 48.2686567164179  54.3244680851064 48.2320895522388  C 54.3617021276596 48.1955223880597  54.3617021276596 48.1955223880597  54.3989361702128 48.1589552238806  L 68.9574468085106 33.8611940298507  C 70.0744680851064 32.7641791044776  70.0744680851064 31.0089552238806  68.9574468085106 29.9119402985074  C 67.7659574468085 28.7783582089552  65.9787234042553 28.7783582089552  64.8617021276596 29.8753731343284  Z " fill-rule="nonzero" fill="#5c38ad" stroke="none" transform="matrix(1 0 0 1 558 658 )" />
  </g>
</svg>