<?xml version="1.0" encoding="utf-8"?>
<svg version="1.1" xmlns:xlink="http://www.w3.org/1999/xlink" width="49px" height="49px" xmlns="http://www.w3.org/2000/svg">
  <g transform="matrix(1 0 0 1 -687 -658 )">
    <path d="M 48.9038036809816 25.1493251533742  C 48.8917791411043 23.7725153374233  47.7734969325153 22.6542331288344  46.3966871165644 23  L 32.9472392638037 23  C 33.7889570552147 11.9944785276074  42.639018404908 4.76171779141104  42.7292024539877 4.68957055214724  C 43.7989816791817 3.82880511386292  43.9735221504876 2.26599658617025  43.12 1.19042944785276  C 42.6469618608461 0.596096673068266  41.9287901183346 0.24982148064178  41.1691872429601 0.24982148064178  C 40.604438998626 0.24982148064178  40.0564205681837 0.441549989846589  39.6148466257669 0.79361963190184  C 39.1699386503067 1.14834355828221  28.7687116564417 9.58355828220859  27.939018404908 22.6542331288344  L 21.1090797546012 22.6542331288344  C 20.2793865030675 9.58355828220859  9.87815950920245 1.14834355828221  9.43926380368098 0.793619631901841  C 8.3636966653635 -0.0599025185857487  6.80088813767082 0.114637952720135  5.9401226993865 1.18441717791411  C 5.08148308097594 2.25947356664851  5.25349445063243 3.8263896371131  6.32490797546012 4.68957055214724  C 6.41509202453988 4.76171779141104  15.2651533742331 11.9884662576687  16.1068711656442 23  L 2.65141104294479 23  C 1.27460122699386 22.6542331288344  0.156319018404908 23.7725153374233  0.156319018404908 25.1493251533742  C 0.156319018404908 26.5261349693252  1.27460122699386 27.6444171779141  2.65141104294479 27  L 15.9024539877301 27  C 14.9825766871166 33.3620858895706  11.6878527607362 39.0917791411043  6.11447852760737 44.6771779141104  C 5.14650306748466 45.6511656441718  5.14650306748466 47.2323926380368  6.12049079754601 48.2003680981595  C 6.58944785276074 48.6693251533742  7.21472392638037 48.9278527607362  7.88208588957055 48.9278527607362  C 8.54944785276074 48.9278527607362  9.17472392638037 48.6693251533742  9.64969325153374 48.1943558282209  C 16.2331288343558 41.5928834355828  20.0328834355828 34.6727607361963  20.940736196319 27.6384049079755  L 28.1133742331288 27.6384049079755  C 29.021226993865 34.678773006135  32.820981595092 41.5928834355828  39.4044171779141 48.1943558282209  C 39.8733742331288 48.6693251533742  40.5046625766871 48.9278527607362  41.1720245398773 48.9278527607362  C 41.8393865030675 48.9278527607362  42.4586503067485 48.6693251533742  42.9336196319018 48.2003680981595  C 43.9060810428808 47.2282527379816  43.9087698588435 45.6526065837901  42.9396319018405 44.6771779141104  C 37.3662576687117 39.0917791411043  34.0775460122699 33.3620858895706  33.1576687116564 27  L 46.4087116564417 27  C 47.7855214723926 27.6444171779141  48.9038036809816 26.5261349693252  48.9038036809816 25.1493251533742  Z " fill-rule="nonzero" fill="#5c0e98" stroke="none" transform="matrix(1 0 0 1 687 658 )" />
  </g>
</svg>