<?xml version="1.0" encoding="utf-8"?>
<svg version="1.1" xmlns:xlink="http://www.w3.org/1999/xlink" width="8px" height="8px" xmlns="http://www.w3.org/2000/svg">
  <g transform="matrix(1 0 0 1 -521 -307 )">
    <path d="M 7.3 5.3175  C 7.525 5.7225  7.21 6.24  6.7375 6.1725  L 5.14 5.9925  C 4.96 5.97  4.78 6.0375  4.645 6.1725  L 3.58750000000001 7.3875  C 3.2725 7.7475  2.71 7.59  2.59750000000001 7.14  L 2.28250000000001 5.565  C 2.2375 5.385  2.125 5.2275  1.945 5.16  L 0.460000000000004 4.53  C 0.032500000000006 4.35  -0.0124999999999922 3.7425  0.392500000000005 3.5175  L 1.78750000000001 2.73  C 1.94500000000001 2.64  2.05750000000001 2.4825  2.08000000000001 2.28  L 2.215 0.682500000000001  C 2.26000000000001 0.210000000000001  2.82250000000001 0.00750000000000028  3.16000000000001 0.322500000000002  L 4.35250000000001 1.4025  C 4.48750000000001 1.5375  4.69000000000001 1.5825  4.87000000000001 1.5375  L 6.44500000000001 1.1775  C 6.89500000000001 1.065  7.27750000000001 1.5375  7.09750000000001 1.965  L 6.42250000000001 3.4275  C 6.35500000000001 3.585  6.35500000000001 3.7875  6.46750000000001 3.945  L 7.3 5.3175  Z " fill-rule="nonzero" fill="#efacda" stroke="none" transform="matrix(1 0 0 1 521 307 )" />
  </g>
</svg>