<?xml version="1.0" encoding="utf-8"?>
<svg version="1.1" xmlns:xlink="http://www.w3.org/1999/xlink" width="35px" height="27px" xmlns="http://www.w3.org/2000/svg">
  <g transform="matrix(1 0 0 1 -500 -310 )">
    <path d="M 32.71 10.6875  C 31.6525 9.45  30.1 8.73  28.21 8.64  C 26.6575 8.595  24.0025 9.27  22.45 11.6775  C 22.2925 10.8675  22.1575 10.08  22.045 9.3825  C 21.7075 7.425  21.4375 5.8725  20.9425 4.8825  C 18.5575 0.270000000000001  14.98 0.720000000000001  13.5625 1.125  C 12.415 1.4625  11.3575 2.07  10.4575 2.9025  C 9.4 1.89  8.185 1.26  6.8575 1.035  C 3.91 0.5175  1.57 2.1825  1.3 2.3625  C 0.580000000000001 2.9025  0.422500000000001 3.9375  0.962500000000001 4.6575  C 1.5025 5.3775  2.5375 5.535  3.2575 4.995  C 3.28 4.995  4.6975 3.9825  6.2725 4.275  C 7.24 4.455  8.14 5.085  9 6.165  L 9 16.92  C 8.95 17.82  9.6925 18.5625  10.5925 18.5625  C 11.4925 18.5625  12.235 17.82  12.235 16.92  L 12.235 5.7825  C 12.5275 5.31  13.765 4.2075  15.1375 4.1625  C 16.2625 4.14  17.2075 4.8825  17.995 6.39  C 18.265 6.93  18.535 8.5275  18.7825 9.945  C 19.2325 12.555  19.75 15.525  20.8975 17.7975  C 20.6725 18.6525  20.335 19.44  19.885 19.9125  C 18.13 21.105  15.16 22.7475  13.7875 22.77  C 12.8875 22.77  12.145 23.5125  12.1675 24.435  C 12.1675 25.335  12.91 26.0775  13.8325 26.055  L 13.8775 26.055  C 16.735 25.9875  21.055 23.1075  21.8875 22.5225  C 21.955 22.4775  22.0225 22.4325  22.09 22.365  C 22.6075 21.87  23.035 21.2625  23.35 20.61  C 23.575 20.745  23.8225 20.88  24.07 20.97  C 24.5425 21.15  28.84 22.5675  31.81 20.6775  C 32.8 20.0475  34.06 18.765  34.3075 16.3125  C 34.3075 15.975  34.5775 12.915  32.71 10.6875  Z M 30.19 12.825  C 31.0225 13.77  31.0675 15.4125  31 15.975  C 30.865 17.235  30.37 17.685  30.0325 17.91  C 28.6825 18.765  26.0725 18.18  25.195 17.8875  C 24.9025 17.7525  24.6325 17.505  24.385 17.2125  C 24.5425 16.2675  24.5875 15.5025  24.61 15.1875  C 25.06 12.0825  27.625 11.925  28.075 11.925  C 29.0425 11.97  29.7175 12.2625  30.19 12.825  Z " fill-rule="nonzero" fill="#ffffff" stroke="none" transform="matrix(1 0 0 1 500 310 )" />
  </g>
</svg>