<?xml version="1.0" encoding="utf-8"?>
<svg version="1.1" xmlns:xlink="http://www.w3.org/1999/xlink" width="30px" height="28px" xmlns="http://www.w3.org/2000/svg">
  <g transform="matrix(1 0 0 1 -574 -190 )">
    <path d="M 27.57 11.9827956989247  L 21.33 11.9827956989247  C 22.2 7.34623655913978  25.56 4.15483870967742  25.65 4.09462365591398  C 26.55 3.28172043010752  26.61 1.89677419354839  25.8 0.993548387096773  C 24.99 0.0903225806451604  23.61 0.0301075268817187  22.71 0.843010752688171  C 22.5 1.05376344086022  17.82 5.38924731182795  16.92 11.9827956989247  L 12.96 11.9827956989247  C 12.06 5.41935483870968  7.38 1.05376344086022  7.17 0.843010752688171  C 6.27 0.0301075268817187  4.89 0.0903225806451604  4.08 0.993548387096773  C 3.27 1.89677419354839  3.33 3.28172043010753  4.2 4.09462365591398  C 4.23 4.1247311827957  7.62000000000001 7.34623655913978  8.52000000000001 11.9827956989247  L 2.31 11.9827956989247  C 1.11 11.9827956989247  0.120000000000002 12.9763440860215  0.120000000000002 14.1806451612903  C 0.120000000000002 15.3849462365591  1.11 16.3784946236559  2.31 16.3784946236559  L 8.49 16.3784946236559  C 7.95 19.0279569892473  6.48 21.647311827957  4.08 24.1763440860215  C 3.24 25.0494623655914  3.3 26.4344086021505  4.17 27.2774193548387  C 5.04 28.1204301075269  6.42 28.0602150537634  7.26 27.1870967741935  C 10.5 23.7548387096774  12.39 20.141935483871  12.93 16.3483870967742  L 16.89 16.3483870967742  C 17.43 20.1118279569892  19.32 23.7548387096774  22.56 27.1870967741935  C 23.37 28.0602150537634  24.78 28.1204301075269  25.65 27.2774193548387  C 26.52 26.4344086021505  26.55 25.0494623655914  25.74 24.1763440860215  C 23.34 21.647311827957  21.87 19.0279569892473  21.33 16.3784946236559  L 27.54 16.3784946236559  C 28.74 16.3784946236559  29.73 15.3849462365591  29.73 14.1806451612903  C 29.76 12.9763440860215  28.8 11.9827956989247  27.57 11.9827956989247  Z " fill-rule="nonzero" fill="#ffffff" stroke="none" transform="matrix(1 0 0 1 574 190 )" />
  </g>
</svg>