<?xml version="1.0" encoding="utf-8"?>
<svg version="1.1" xmlns:xlink="http://www.w3.org/1999/xlink" width="190px" height="190px" xmlns="http://www.w3.org/2000/svg">
  <g transform="matrix(1 0 0 1 -503 -499 )">
    <path d="M 107.825 30.81  C 110.705 30.815  113.035 33.145  113.035 36.02  C 113.035 38.915  110.7 41.23  107.825 41.23  C 104.95 41.23  102.615 38.915  102.615 36.02  C 102.615 33.145  104.945 30.81  107.825 30.81  Z M 107.825 33.1  C 106.3 33.1  105.05 34.33  105.05 35.86  C 105.05 37.405  106.3 38.635  107.825 38.635  C 109.355 38.635  110.585 37.405  110.585 35.86  C 110.585 34.33  109.355 33.1  107.825 33.1  Z M 190 95  C 190 147.465  147.465 190  95 190  C 60.145 190  29.76 171.17  13.23 143.185  C 14.515 144.22  16.63 145.095  19.985 146.08  C 23.055 146.98  25.855 147.36  28.445 147.36  C 34.12 147.36  38.805 145.535  43.25 143.37  C 48.935 140.61  46.77 134.04  43.99 127.745  C 41.165 121.355  38.995 116.95  37.205 114.105  L 37.845 113.085  C 41.74 106.825  47.885 97.295  57.45 86.89  C 61.855 81.715  67.08 76.72  73.025 72.12  C 73.585 71.66  76.755 69.44  77.2 69.095  C 80.535 63.705  83.05 57.97  86.925 54.39  C 84.855 58.465  79.775 68.85  80.305 71.97  C 80.875 75.425  85.345 78.185  90.065 78.185  C 90.66 78.185  91.26 78.14  91.86 78.05  C 100.34 76.75  104.58 67.075  102.95 64.79  C 101.7 63.05  97.215 55.11  95.18 51.465  C 96.1 51.96  98.335 53.8  100.67 55.85  C 113.47 47.24  118.365 46.305  124.02 41.885  C 129.95 37.25  133.4 28.805  116.41 22.345  C 110.14 20.655  103.91 19.8  97.745 19.8  C 84.24 19.8  71.015 23.89  58.14 32.25  C 44.945 40.825  35.3 52.82  29.63 66.33  C 27.36 66.64  23.63 67.595  21.48 70.39  C 18.225 74.63  20.51 78.045  22.3 78.045  C 22.58 78.045  22.96 78.03  23.37 77.96  C 25.475 77.4  29.385 75.445  29.385 75.445  L 25.605 78.895  C 24.935 81.835  24.44 84.81  24.125 87.815  C 21.265 91.35  18.685 96.21  18.555 100.695  C 18.43 104.49  18.585 105.245  19.155 105.245  C 19.34 105.245  19.57 105.165  19.855 105.08  C 20.135 104.995  20.74 104.715  21.48 104.275  C 23.6 102.4  26.21 99.705  26.21 99.705  L 24.22 104.455  C 24.53 107.115  24.975 109.765  25.57 112.39  C 22.86 115.185  15.415 123.71  12.145 136.315  C 11.68 138.11  11.495 139.48  11.69 140.635  C 4.25 127.105  0 111.55  0 95  C 0 42.535  42.535 0  95 0  C 147.465 0  190 42.535  190 95  Z M 178.985 61.495  C 180.42 56.005  179.62 54.26  171.155 51.765  C 168.085 50.865  165.295 50.485  162.705 50.485  C 157.03 50.485  152.335 52.31  147.89 54.475  C 142.205 57.25  144.375 63.805  147.15 70.115  C 149.975 76.49  152.145 80.91  153.955 83.735  L 153.315 84.77  C 149.405 91.015  143.26 100.545  133.695 110.945  C 129.31 116.12  124.065 121.115  118.115 125.715  C 117.555 126.175  114.385 128.395  113.945 128.74  C 110.61 134.13  108.095 139.88  104.22 143.445  C 106.29 139.37  111.37 129.005  110.84 125.88  C 110.27 122.41  105.8 119.645  101.08 119.645  C 100.485 119.645  99.885 119.69  99.285 119.78  C 90.805 121.08  86.57 130.755  88.195 133.04  C 89.445 134.78  93.93 142.735  95.965 146.365  C 95.045 145.87  92.81 144.03  90.475 141.975  C 77.66 150.585  72.775 151.54  67.125 155.96  C 61.195 160.575  57.745 169.04  74.75 175.495  C 81.01 177.175  87.225 178.025  93.38 178.025  C 106.89 178.025  120.13 173.935  133 165.57  C 146.195 156.995  155.84 145  161.51 131.51  C 163.795 131.18  167.51 130.225  169.66 127.435  C 172.915 123.195  170.63 119.78  168.84 119.78  C 168.56 119.78  168.185 119.815  167.77 119.86  C 165.67 120.435  161.755 122.39  161.755 122.39  L 165.55 118.92  C 166.21 115.98  166.7 113.005  167.01 110.015  C 169.87 106.465  172.45 101.6  172.58 97.135  C 172.705 93.325  172.55 92.57  171.98 92.57  C 171.79 92.57  171.56 92.65  171.28 92.73  C 171 92.81  170.41 93.11  169.67 93.535  C 167.535 95.425  164.92 98.105  164.92 98.105  L 166.91 93.355  C 166.615 90.695  166.155 88.05  165.56 85.42  C 168.27 82.625  175.715 74.1  178.985 61.495  Z M 88.52 161.82  C 88.52 164.695  86.185 167.03  83.31 167.03  C 80.435 167.03  78.1 164.7  78.1 161.82  C 78.1 158.945  80.435 156.61  83.31 156.61  C 86.185 156.61  88.52 158.945  88.52 161.82  Z M 86.085 161.985  C 86.09 160.46  84.84 159.21  83.31 159.21  C 81.78 159.21  80.55 160.46  80.55 161.985  C 80.55 163.515  81.78 164.745  83.31 164.745  C 84.84 164.745  86.085 163.515  86.085 161.985  Z " fill-rule="nonzero" fill="#efacda" stroke="none" fill-opacity="0.596078431372549" transform="matrix(1 0 0 1 503 499 )" />
  </g>
</svg>