<?xml version="1.0" encoding="utf-8"?>
<svg version="1.1" xmlns:xlink="http://www.w3.org/1999/xlink" width="10px" height="10px" xmlns="http://www.w3.org/2000/svg">
  <g transform="matrix(1 0 0 1 -584 -182 )">
    <path d="M 9.64705882352941 6.85294117647059  C 9.94117647058823 7.38235294117647  9.52941176470588 8.05882352941176  8.91176470588235 7.97058823529412  L 6.82352941176471 7.73529411764706  C 6.58823529411765 7.70588235294118  6.35294117647059 7.79411764705883  6.17647058823529 7.97058823529412  L 4.79411764705882 9.55882352941176  C 4.38235294117647 10.0294117647059  3.64705882352941 9.8235294117647  3.5 9.23529411764706  L 3.08823529411764 7.17647058823529  C 3.02941176470588 6.94117647058824  2.88235294117647 6.73529411764706  2.64705882352941 6.64705882352941  L 0.705882352941174 5.82352941176471  C 0.147058823529408 5.58823529411765  0.0882352941176462 4.79411764705883  0.617647058823528 4.5  L 2.44117647058823 3.47058823529412  C 2.64705882352941 3.35294117647059  2.79411764705882 3.14705882352941  2.8235294117647 2.88235294117647  L 3 0.794117647058824  C 3.05882352941176 0.176470588235295  3.79411764705882 -0.0882352941176462  4.23529411764706 0.323529411764706  L 5.79411764705882 1.73529411764706  C 5.97058823529411 1.91176470588235  6.23529411764706 1.97058823529412  6.47058823529411 1.91176470588235  L 8.52941176470588 1.44117647058823  C 9.11764705882353 1.29411764705882  9.61764705882353 1.91176470588235  9.38235294117647 2.47058823529412  L 8.5 4.38235294117647  C 8.41176470588235 4.58823529411765  8.41176470588235 4.85294117647059  8.55882352941176 5.05882352941176  L 9.64705882352941 6.85294117647059  Z " fill-rule="nonzero" fill="#efacda" stroke="none" transform="matrix(1 0 0 1 584 182 )" />
  </g>
</svg>