<?xml version="1.0" encoding="utf-8"?>
<svg version="1.1" xmlns:xlink="http://www.w3.org/1999/xlink" width="10px" height="10px" xmlns="http://www.w3.org/2000/svg">
  <g transform="matrix(1 0 0 1 -456 -179 )">
    <path d="M 9.64705882352941 6.93939393939394  C 9.94117647058823 7.48484848484849  9.52941176470588 8.18181818181818  8.91176470588235 8.09090909090909  L 6.82352941176471 7.84848484848485  C 6.58823529411765 7.81818181818182  6.35294117647059 7.90909090909091  6.17647058823529 8.09090909090909  L 4.79411764705882 9.72727272727273  C 4.38235294117647 10.2121212121212  3.64705882352941 10  3.5 9.39393939393939  L 3.08823529411764 7.27272727272727  C 3.02941176470588 7.03030303030303  2.88235294117647 6.81818181818182  2.64705882352941 6.72727272727273  L 0.705882352941174 5.87878787878788  C 0.147058823529408 5.63636363636364  0.0882352941176462 4.81818181818182  0.617647058823528 4.51515151515152  L 2.44117647058823 3.45454545454546  C 2.64705882352941 3.33333333333334  2.79411764705882 3.12121212121212  2.8235294117647 2.84848484848485  L 3 0.696969696969698  C 3.05882352941176 0.0606060606060615  3.79411764705882 -0.212121212121211  4.23529411764706 0.212121212121213  L 5.79411764705882 1.66666666666667  C 5.97058823529411 1.84848484848485  6.23529411764706 1.90909090909091  6.47058823529411 1.84848484848485  L 8.52941176470588 1.36363636363636  C 9.11764705882353 1.21212121212121  9.61764705882353 1.84848484848485  9.38235294117647 2.42424242424243  L 8.5 4.3939393939394  C 8.41176470588235 4.60606060606061  8.41176470588235 4.87878787878788  8.55882352941176 5.09090909090909  L 9.64705882352941 6.93939393939394  Z " fill-rule="nonzero" fill="#ba83ca" stroke="none" transform="matrix(1 0 0 1 456 179 )" />
  </g>
</svg>