<?xml version="1.0" encoding="utf-8"?>
<svg version="1.1" xmlns:xlink="http://www.w3.org/1999/xlink" width="39px" height="24px" xmlns="http://www.w3.org/2000/svg">
  <g transform="matrix(1 0 0 1 -696 -192 )">
    <path d="M 38.4641221374046 0.93  C 37.7198473282443 -0.0300000000000004  36.3503816793893 -0.18  35.4274809160305 0.57  L 29.6519083969466 5.13  L 23.8167938931298 0.539999999999999  C 23.0427480916031 -0.0600000000000009  21.9709923664122 -0.0900000000000013  21.1969465648855 0.509999999999999  L 15.0045801526718 5.13  L 9.34809160305344 0.569999999999997  C 8.48473282442748 -0.120000000000002  7.23435114503817 -0.060000000000003  6.46030534351145 0.719999999999998  L 0.893129770992366 6.36  C 0.0297709923664126 7.23  0.0297709923664126 8.61  0.893129770992366 9.45  C 1.75648854961832 10.32  3.12595419847328 10.32  3.95954198473282 9.45  L 8.15725190839695 5.22  L 13.6053435114504 9.6  C 14.3793893129771 10.23  15.4511450381679 10.23  16.2549618320611 9.66  L 22.4770992366412 5.04  L 28.3419847328244 9.63  C 29.1160305343511 10.26  30.2473282442748 10.26  31.0213740458015 9.63  L 38.1068702290076 3.99  C 39.0595419847328 3.24  39.2083969465649 1.89  38.4641221374046 0.93  Z M 38.4641221374046 14.64  C 37.7198473282443 13.68  36.3503816793893 13.53  35.4274809160305 14.28  L 29.6519083969466 18.84  L 23.8167938931298 14.28  C 23.0427480916031 13.68  21.9709923664122 13.65  21.1969465648855 14.25  L 15.0045801526718 18.87  L 9.34809160305344 14.31  C 8.48473282442748 13.62  7.23435114503817 13.68  6.46030534351145 14.46  L 0.893129770992366 20.07  C 0.0297709923664126 20.94  0.0297709923664126 22.32  0.893129770992366 23.16  C 1.75648854961832 24.03  3.12595419847328 24.03  3.95954198473282 23.16  L 8.15725190839695 18.93  L 13.6053435114504 23.31  C 14.3793893129771 23.94  15.4511450381679 23.94  16.2549618320611 23.37  L 22.4770992366412 18.75  L 28.3419847328244 23.34  C 29.1160305343511 23.97  30.2473282442748 23.97  31.0213740458015 23.34  L 38.1068702290076 17.73  C 39.0595419847328 16.98  39.2083969465649 15.6  38.4641221374046 14.64  Z " fill-rule="nonzero" fill="#ffffff" stroke="none" transform="matrix(1 0 0 1 696 192 )" />
  </g>
</svg>