<?xml version="1.0" encoding="utf-8"?>
<svg version="1.1" xmlns:xlink="http://www.w3.org/1999/xlink" width="28px" height="35px" xmlns="http://www.w3.org/2000/svg">
  <g transform="matrix(1 0 0 1 -447 -186 )">
    <path d="M 20.3225806451613 26.4279661016949  L 20 26.4279661016949  L 20 8.45338983050847  C 22.7010752688172 7.50423728813559  24.989247311828 5.99152542372881  27.2172043010753 3.91525423728814  C 28.0903225806452 3.08474576271187  28.1505376344086 1.72033898305085  27.3075268817204 0.860169491525425  C 26.4645161290323 0  25.0795698924731 -0.0593220338983038  24.2064516129032 0.771186440677969  C 22.189247311828 2.66949152542373  20.1118279569892 3.97457627118644  18.0043010752688 4.68644067796611  C 17.6430107526882 4.71610169491526  17.3118279569893 4.80508474576271  17.010752688172 4.98305084745763  C 15.9569892473118 5.25  14.8731182795699 5.36864406779661  13.7591397849462 5.33898305084746  C 12.6451612903226 5.30932203389831  11.5612903225807 5.10169491525424  10.5075268817204 4.77542372881356  C 6.68387096774194 3.58898305084746  4.1247311827957 0.949152542372886  4.09462365591399 0.88983050847458  C 3.25161290322581 0.0296610169491572  1.86666666666667 -0.0296610169491488  0.993548387096782 0.771186440677971  C 0.12043010752689 1.57203389830509  0.0602150537634481 2.93644067796611  0.873118279569901 3.79661016949153  C 1.0236559139785 3.94491525423729  3.61290322580646 6.70338983050848  8 8.36440677966102  L 8 26.5169491525424  C 3.61290322580646 28.2076271186441  1.0236559139785 30.9364406779661  0.873118279569903 31.0847457627119  C 0.0903225806451711 32.0042372881356  0.210752688172052 33.3686440677966  1.11397849462367 34.1398305084746  C 1.98709677419356 34.8813559322034  3.31182795698926 34.8220338983051  4.09462365591399 34.021186440678  C 5.84086021505377 32.3305084745763  7.91827956989249 31.0254237288136  10.236559139785 30.2245762711865  C 10.4774193548387 30.1949152542373  10.6881720430108 30.135593220339  10.8989247311828 30.0169491525424  C 11.8322580645161 29.75  12.7956989247312 29.6016949152542  13.789247311828 29.5720338983051  C 14.8430107526882 29.5423728813559  15.8967741935484 29.6313559322034  16.9505376344086 29.8983050847458  C 17.2817204301075 30.1059322033898  17.7032258064516 30.2542372881356  18.1247311827957 30.2542372881356  C 20.2021505376344 30.9957627118644  22.2193548387097 32.271186440678  24.236559139785 34.1398305084746  C 25.1096774193548 34.9703389830509  26.494623655914 34.9406779661017  27.3376344086022 34.0805084745763  C 28.1806451612903 33.2203389830509  28.1204301075269 31.8559322033898  27.247311827957 31.0254237288136  C 25.0193548387097 28.9194915254237  22.7010752688172 27.406779661017  20.3225806451613 26.4279661016949  Z M 16 9.58050847457627  L 16 25.3305084745763  C 14.6623655913979 25.1822033898305  13.3677419354839 25.2118644067797  12.1032258064516 25.3601694915254  L 12.1032258064516 9.55084745762712  C 13.3677419354839 9.69915254237288  14.6322580645161 9.72881355932203  16 9.58050847457627  Z " fill-rule="nonzero" fill="#ffffff" stroke="none" transform="matrix(1 0 0 1 447 186 )" />
  </g>
</svg>