<?xml version="1.0" encoding="utf-8"?>
<svg version="1.1" xmlns:xlink="http://www.w3.org/1999/xlink" width="10px" height="10px" xmlns="http://www.w3.org/2000/svg">
  <g transform="matrix(1 0 0 1 -711 -180 )">
    <path d="M 9.87878787878788 6.93939393939394  C 10.1818181818182 7.48484848484849  9.75757575757576 8.18181818181818  9.12121212121212 8.09090909090909  L 6.96969696969697 7.84848484848485  C 6.72727272727273 7.81818181818182  6.48484848484849 7.90909090909091  6.3030303030303 8.09090909090909  L 4.87878787878788 9.72727272727273  C 4.45454545454545 10.2121212121212  3.69696969696969 10  3.54545454545454 9.39393939393939  L 3.12121212121212 7.27272727272727  C 3.06060606060605 7.03030303030303  2.9090909090909 6.81818181818182  2.66666666666666 6.72727272727273  L 0.666666666666663 5.87878787878788  C 0.0909090909090857 5.63636363636364  0.0303030303030286 4.81818181818182  0.575757575757573 4.51515151515152  L 2.45454545454545 3.45454545454546  C 2.66666666666667 3.33333333333334  2.81818181818182 3.12121212121212  2.84848484848485 2.84848484848485  L 3.03030303030303 0.696969696969698  C 3.09090909090909 0.0606060606060615  3.84848484848485 -0.212121212121211  4.3030303030303 0.212121212121213  L 5.9090909090909 1.66666666666667  C 6.09090909090908 1.84848484848485  6.36363636363636 1.90909090909091  6.6060606060606 1.84848484848485  L 8.72727272727272 1.36363636363636  C 9.33333333333333 1.21212121212121  9.84848484848484 1.84848484848485  9.6060606060606 2.42424242424243  L 8.69696969696969 4.39393939393939  C 8.6060606060606 4.60606060606061  8.6060606060606 4.87878787878788  8.75757575757575 5.09090909090909  L 9.87878787878788 6.93939393939394  Z " fill-rule="nonzero" fill="#efacda" stroke="none" transform="matrix(1 0 0 1 711 180 )" />
  </g>
</svg>