<?xml version="1.0" encoding="utf-8"?>
<svg version="1.1" xmlns:xlink="http://www.w3.org/1999/xlink" width="13px" height="21px" xmlns="http://www.w3.org/2000/svg">
  <g transform="matrix(1 0 0 1 -752 -380 )">
    <path d="M 13 10.5  C 13 10.7258064516129  12.9205276705277 10.9212158808933  12.761583011583 11.0862282878412  L 3.4507722007722 20.7524813895782  C 3.29182754182754 20.9174937965261  3.1036036036036 21  2.88610038610039 21  C 2.66859716859717 21  2.48037323037323 20.9174937965261  2.32142857142857 20.7524813895782  L 0.238416988416988 18.5899503722084  C 0.0794723294723296 18.4249379652605  0 18.2295285359801  0 18.0037220843672  C 0 17.7779156327543  0.0794723294723296 17.5825062034739  0.238416988416988 17.4174937965261  L 6.9015444015444 10.5  L 0.238416988416988 3.58250620347395  C 0.0794723294723296 3.41749379652605  0 3.22208436724566  0 2.99627791563275  C 0 2.77047146401985  0.0794723294723296 2.57506203473945  0.238416988416988 2.41004962779156  L 2.32142857142857 0.247518610421836  C 2.48037323037323 0.0825062034739444  2.66859716859717 0  2.88610038610039 0  C 3.1036036036036 0  3.29182754182754 0.0825062034739444  3.4507722007722 0.247518610421836  L 12.761583011583 9.91377171215881  C 12.9205276705277 10.0787841191067  13 10.2741935483871  13 10.5  Z " fill-rule="nonzero" fill="#aaaaaa" stroke="none" transform="matrix(1 0 0 1 752 380 )" />
  </g>
</svg>