<?xml version="1.0" encoding="utf-8"?>
<svg version="1.1" xmlns:xlink="http://www.w3.org/1999/xlink" width="23px" height="27px" xmlns="http://www.w3.org/2000/svg">
  <g transform="matrix(1 0 0 1 -682 -515 )">
    <path d="M 22.6366 11.0253913043478  C 22.6366 11.0253913043478  22.3606 8.57426086956522  21.0772 7.15147826086956  C 21.0772 7.15147826086956  21.988 6.65843478260869  21.0082 5.79913043478261  C 21.0082 5.79913043478261  20.1388 5.58782608695652  19.9594 5.65826086956522  C 19.9594 5.65826086956522  19.504 4.09460869565217  18.607 3.70017391304348  C 18.607 3.70017391304348  17.8342 3.51704347826087  17.6686 4.26365217391304  C 17.6686 4.26365217391304  15.64 3.20713043478261  14.1634 2.93947826086956  C 14.1634 2.93947826086956  10.4098 2.20695652173913  9.40239999999999 0.41791304347826  C 9.40239999999999 0.41791304347826  9.18159999999999 -0.0328695652173916  8.47779999999999 0.234782608695652  C 8.47779999999999 0.234782608695652  7.80159999999999 0.784173913043478  8.00859999999999 2.98173913043478  C 8.00859999999999 2.98173913043478  8.06379999999999 3.43252173913043  5.16579999999999 1.54486956521739  C 5.16579999999999 1.54486956521739  4.44819999999999 1.36173913043478  4.24119999999999 1.92521739130435  C 4.24119999999999 1.92521739130435  3.86859999999999 3.2775652173913  4.33779999999999 4.26365217391304  C 4.33779999999999 4.26365217391304  2.66799999999999 4.5735652173913  1.95039999999999 5.30608695652174  C 1.95039999999999 5.30608695652174  1.13619999999999 6.37669565217391  2.50239999999999 6.53165217391304  C 2.50239999999999 6.53165217391304  0.459999999999992 7.71495652173913  0.114999999999991 11.0535652173913  C 0.114999999999991 11.0535652173913  0.0735999999999914 13.392  0.804999999999992 15.9980869565217  C 0.239199999999992 17.5335652173913  0.998199999999991 19.2380869565217  2.50239999999999 19.815652173913  C 2.70939999999999 19.9001739130435  2.91639999999999 19.9424347826087  3.12339999999999 19.9706086956522  C 3.55119999999999 21.2806956521739  4.26879999999999 22.4780869565217  5.23479999999999 23.4641739130435  C 6.86319999999999 25.1264347826087  9.07119999999999 26.0702608695652  11.3758 26.0561739130435  C 13.6942 26.0561739130435  15.8746 25.1264347826087  17.5168 23.4641739130435  C 18.4966 22.464  19.228 21.2384347826087  19.6558 19.8860869565217  C 21.2428 19.6888695652174  22.3744 18.195652173913  22.1812 16.575652173913  C 22.1398 16.2375652173913  22.0432 15.9135652173913  21.8914 15.6177391304348  C 22.3606 14.2653913043478  22.747 12.5749565217391  22.6366 11.0253913043478  Z " fill-rule="nonzero" fill="#aaaaaa" stroke="none" transform="matrix(1 0 0 1 682 515 )" />
  </g>
</svg>