<?xml version="1.0" encoding="utf-8"?>
<svg version="1.1" xmlns:xlink="http://www.w3.org/1999/xlink" width="26px" height="28px" xmlns="http://www.w3.org/2000/svg">
  <g transform="matrix(1 0 0 1 -727 -514 )">
    <path d="M 24.0192727272727 14.616  C 24.0192727272727 14.462  24.0192727272727 14.322  24.0050909090909 14.168  C 24.0050909090909 14.084  24.0192727272727 14.014  24.0192727272727 13.93  C 24.0334545454545 13.706  23.9909090909091 13.482  23.92 13.23  C 23.4378181818182 9.534  21.1261818181818 5.46  15.7796363636364 4.396  C 15.8505454545455 4.172  15.8789090909091 3.948  15.8789090909091 3.71  C 15.8647272727273 2.282  14.56 1.12  12.9574545454545 1.12  C 11.3549090909091 1.12  10.036 2.282  10.036 3.724  C 10.036 3.962  10.0785454545455 4.186  10.1352727272727 4.41  C 4.15054545454545 5.614  1.924 10.654  1.88145454545454 14.644  C 1.04472727272727 15.26  0.519999999999999 16.226  0.519999999999999 17.304  C 0.519999999999999 18.676  1.37090909090909 19.88  2.63309090909091 20.384  C 3.83854545454545 27.93  4.34909090909091 25.886  4.34909090909091 24.99  C 4.34909090909091 24.584  4.16472727272727 23.422  4.12218181818182 21.994  C 4.576 22.82  5.15745454545454 23.59  5.85236363636364 24.276  C 7.75272727272727 26.138  10.2770909090909 27.16  12.9432727272727 27.16  C 15.6094545454545 27.16  18.1338181818182 26.138  20.0341818181818 24.262  C 20.4738181818182 23.828  20.8709090909091 23.366  21.2254545454545 22.862  C 21.1829090909091 24.122  21.1403636363636 25.2  21.1403636363636 25.592  C 21.1403636363636 26.488  22.0196363636364 25.354  22.9414545454545 21.532  C 23.0265454545455 21.154  23.1116363636364 20.79  23.1967272727273 20.412  C 24.5156363636364 19.936  25.4090909090909 18.704  25.4090909090909 17.304  C 25.4090909090909 16.212  24.8701818181818 15.218  24.0192727272727 14.616  Z " fill-rule="nonzero" fill="#d16ba5" stroke="none" transform="matrix(1 0 0 1 727 514 )" />
  </g>
</svg>