<?xml version="1.0" encoding="utf-8"?>
<svg version="1.1" xmlns:xlink="http://www.w3.org/1999/xlink" width="18px" height="13px" xmlns="http://www.w3.org/2000/svg">
  <g transform="matrix(1 0 0 1 -684 -528 )">
    <path d="M 9.4704 12.8487272727273  C 5.424 12.8487272727273  1.9248 10.0832727272727  1.032 6.19745454545455  L 0.959999999999999 5.55927272727272  C 1.032 5.47418181818182  1.0896 5.38909090909091  1.1616 5.27563636363636  C 1.1616 5.27563636363636  1.2336 2.63781818181818  2.832 1.06363636363636  C 2.832 1.06363636363636  4.2288 1.44654545454545  6.0288 0.467999999999997  C 6.0288 0.467999999999997  5.28 1.37563636363636  4.6032 1.84363636363636  C 4.6032 1.84363636363636  4.2144 2.77963636363636  5.0928 2.86472727272727  C 5.0928 2.86472727272727  7.7712 3.36109090909091  10.464 1.63090909090909  C 10.464 1.63090909090909  10.32 2.51018181818182  11.6016 2.25490909090909  C 11.6016 2.25490909090909  12.6384 2.22654545454545  14.3088 0.964363636363635  C 14.3088 0.964363636363635  14.6688 1.56  16.0368 0.822545454545454  C 16.0368 0.822545454545454  16.008 1.99963636363636  17.088 3.82909090909091  C 17.088 3.82909090909091  17.5632 4.58072727272727  17.5632 5.928  C 17.5632 5.928  17.6928 6.02727272727272  17.88 6.11236363636364  L 17.7648 6.79309090909091  C 16.656 10.3810909090909  13.2864 12.8487272727273  9.4704 12.8487272727273  Z " fill-rule="nonzero" fill="#ffffff" stroke="none" transform="matrix(1 0 0 1 684 528 )" />
  </g>
</svg>