<?xml version="1.0" encoding="utf-8"?>
<svg version="1.1" xmlns:xlink="http://www.w3.org/1999/xlink" width="19px" height="18px" xmlns="http://www.w3.org/2000/svg">
  <g transform="matrix(1 0 0 1 -730 -524 )">
    <path d="M 17.7935 12.9648  C 16.1405 15.888  13.01975 17.8752  9.45725 17.8752  C 5.46725 17.8752  2.04725 15.4128  0.593749999999998 11.9136  C 0.6365 9.84  1.0355 7.536  2.546 6.24  C 4.15625 4.8288  4.94 2.5248  5.32475 0.7392  C 5.681 2.2944  6.479 4.1808  8.303 4.6128  C 11.39525 5.3472  12.7775 5.376  14.18825 5.4048  C 14.858 5.4192  17.708 5.2896  17.993 8.184  C 17.97875 8.1984  17.879 10.6608  17.7935 12.9648  Z " fill-rule="nonzero" fill="#ffffff" stroke="none" transform="matrix(1 0 0 1 730 524 )" />
  </g>
</svg>