<?xml version="1.0" encoding="utf-8"?>
<svg version="1.1" xmlns:xlink="http://www.w3.org/1999/xlink" width="24px" height="24px" xmlns="http://www.w3.org/2000/svg">
  <defs>
    <linearGradient gradientUnits="userSpaceOnUse" x1="16.8501901140685" y1="11.4346172921144" x2="12" y2="23.76" id="LinearGradient808">
      <stop id="Stop809" stop-color="#d16ba5" stop-opacity="0.745098039215686" offset="0" />
      <stop id="Stop810" stop-color="#5c38ad" stop-opacity="0.513725490196078" offset="1" />
    </linearGradient>
  </defs>
  <g transform="matrix(1 0 0 1 -602 -202 )">
    <path d="M 9.45625 10.9110576923077  C 10.1604166666667 10.0985576923077  11.0083333333333 9.69230769230769  12 9.69230769230769  C 12.9916666666667 9.69230769230769  13.8395833333333 10.0985576923077  14.54375 10.9110576923077  C 15.2479166666667 11.7235576923077  15.6 12.7019230769231  15.6 13.8461538461538  C 15.6 14.9903846153846  15.2479166666667 15.96875  14.54375 16.78125  C 13.8395833333333 17.59375  12.9916666666667 18  12 18  C 11.0083333333333 18  10.1604166666667 17.59375  9.45625 16.78125  C 8.75208333333334 15.96875  8.4 14.9903846153846  8.4 13.8461538461538  C 8.4 12.7019230769231  8.75208333333334 11.7235576923077  9.45625 10.9110576923077  Z M 18 3.69230769230769  L 20.8 3.69230769230769  C 21.6833333333333 3.69230769230769  22.4375 4.05288461538462  23.0625 4.77403846153846  C 23.6875 5.49519230769231  24 6.36538461538461  24 7.38461538461539  L 24 20.3076923076923  C 24 21.3269230769231  23.6875 22.1971153846154  23.0625 22.9182692307692  C 22.4375 23.6394230769231  21.6833333333333 24  20.8 24  L 3.2 24  C 2.31666666666667 24  1.5625 23.6394230769231  0.9375 22.9182692307692  C 0.3125 22.1971153846154  0 21.3269230769231  0 20.3076923076923  L 0 7.38461538461539  C 0 6.36538461538461  0.3125 5.49519230769231  0.9375 4.77403846153846  C 1.5625 4.05288461538462  2.31666666666667 3.69230769230769  3.2 3.69230769230769  L 6 3.69230769230769  L 6.6375 1.73076923076923  C 6.79583333333333 1.25961538461538  7.08541666666667 0.853365384615383  7.50625 0.51201923076923  C 7.92708333333333 0.170673076923079  8.35833333333333 0  8.8 0  L 15.2 0  C 15.6416666666667 0  16.0729166666667 0.170673076923079  16.49375 0.51201923076923  C 16.9145833333333 0.853365384615383  17.2041666666667 1.25961538461538  17.3625 1.73076923076923  L 18 3.69230769230769  Z M 8.04375 18.4110576923077  C 9.13958333333333 19.6754807692308  10.4583333333333 20.3076923076923  12 20.3076923076923  C 13.5416666666667 20.3076923076923  14.8604166666667 19.6754807692308  15.95625 18.4110576923077  C 17.0520833333333 17.1466346153846  17.6 15.625  17.6 13.8461538461538  C 17.6 12.0673076923077  17.0520833333333 10.5456730769231  15.95625 9.28125  C 14.8604166666667 8.01682692307692  13.5416666666667 7.38461538461539  12 7.38461538461539  C 10.4583333333333 7.38461538461539  9.13958333333333 8.01682692307692  8.04375 9.28125  C 6.94791666666667 10.5456730769231  6.4 12.0673076923077  6.4 13.8461538461538  C 6.4 15.625  6.94791666666667 17.1466346153846  8.04375 18.4110576923077  Z " fill-rule="nonzero" fill="url(#LinearGradient808)" stroke="none" transform="matrix(1 0 0 1 602 202 )" />
  </g>
</svg>