<?xml version="1.0" encoding="utf-8"?>
<svg version="1.1" xmlns:xlink="http://www.w3.org/1999/xlink" width="24px" height="8px" xmlns="http://www.w3.org/2000/svg">
  <g transform="matrix(1 0 0 1 -421 -477 )">
    <path d="M 23.54736 4.08300000000001  C 23.61072 6.756  17.59152 7.977  12 7.977  C 6.40848 7.977  0.389280000000001 6.756  0.389280000000001 4.08300000000001  C 0.389280000000001 2.202  3.27216 1.2285  5.64816 0.750000000000007  C 6.04416 0.684000000000005  6.42432 0.948000000000004  6.50352 1.37700000000001  C 6.56688 1.78950000000001  6.31344 2.16900000000001  5.93328 2.26800000000001  C 2.86032 2.87850000000001  1.83072 3.76950000000001  1.83072 4.08300000000001  C 1.83072 4.77600000000001  5.28384 6.44250000000001  11.95248 6.44250000000001  C 18.62112 6.44250000000001  22.07424 4.79250000000001  22.07424 4.08300000000001  C 22.07424 3.75300000000001  20.99712 2.84550000000001  17.81328 2.23500000000001  C 17.41728 2.15250000000001  17.148 1.75650000000001  17.2272 1.34400000000001  C 17.3064 0.93150000000001  17.68656 0.667500000000011  18.08256 0.73350000000001  C 20.58528 1.21200000000001  23.54736 2.16900000000001  23.54736 4.08300000000001  Z " fill-rule="nonzero" fill="#4d4b4b" stroke="none" transform="matrix(1 0 0 1 421 477 )" />
  </g>
</svg>