<?xml version="1.0" encoding="utf-8"?>
<svg version="1.1" xmlns:xlink="http://www.w3.org/1999/xlink" width="22px" height="28px" xmlns="http://www.w3.org/2000/svg">
  <g transform="matrix(1 0 0 1 -422 -455 )">
    <path d="M 11 27.4873103448276  C 10.7001304347826 27.4873103448276  10.4160434782609 27.3439310344828  10.2424347826087 27.0890344827586  L 3.75578260869565 17.4507586206897  C -0.174086956521739 13.4202068965517  -0.126739130434782 6.92034482758621  3.86626086956522 2.95351724137931  C 7.85926086956522 -1.01331034482759  14.2985652173913 -0.965517241379312  18.2284347826087 3.06503448275862  C 22.1109565217391 7.04779310344828  22.1109565217391 13.4520689655172  18.2284347826087 17.4507586206897  L 11.7417826086957 27.0890344827586  C 11.5839565217391 27.3439310344828  11.2998695652174 27.4873103448276  11 27.4873103448276  Z M 16.9026956521739 4.33951724137931  C 15.3402173913043 2.76234482758621  13.225347826087 1.87020689655172  11 1.87020689655172  C 6.40726086956522 1.85427586206897  2.66678260869565 5.59806896551724  2.651 10.2499310344828  C 2.651 12.4962068965517  3.51904347826087 14.6468965517241  5.09730434782609 16.2240689655172  L 5.20778260869565 16.3515172413793  L 10.9842173913043 24.9383448275862  L 16.760652173913 16.3515172413793  L 16.8711304347826 16.2240689655172  C 20.122347826087 12.9582068965517  20.1381304347826 7.63724137931034  16.9026956521739 4.33951724137931  Z " fill-rule="nonzero" fill="#4d4b4b" stroke="none" transform="matrix(1 0 0 1 422 455 )" />
  </g>
</svg>