<?xml version="1.0" encoding="utf-8"?>
<svg version="1.1" xmlns:xlink="http://www.w3.org/1999/xlink" width="13px" height="13px" xmlns="http://www.w3.org/2000/svg">
  <defs>
    <linearGradient gradientUnits="userSpaceOnUse" x1="2.57249132087951" y1="9.59429657794677" x2="9.35703422053236" y2="7.2142585551331" id="LinearGradient814">
      <stop id="Stop815" stop-color="#d16ba5" stop-opacity="0.745098039215686" offset="0" />
      <stop id="Stop816" stop-color="#5c38ad" stop-opacity="0.513725490196078" offset="1" />
    </linearGradient>
  </defs>
  <g transform="matrix(1 0 0 1 -432 -349 )">
    <path d="M 11.6352332028702 2.06199037834312  C 11.4364807566862 1.96923923679061  11.2244781474234 1.95598907371168  11.0124755381605 2.0089897260274  L 8.05768917155903 2.72449853228963  L 5.79191128506197 0.697223581213307  C 5.39440639269406 0.339469178082192  4.78489889106328 0.379219667318981  4.42714448793216 0.776724559686888  C 4.28139269406393 0.935726516634051  4.20189171559035 1.134478962818  4.18864155251142 1.34648157208089  L 3.9633887801696 4.3807689171559  L 1.33985649054142 5.90453767123287  C 0.876100782778866 6.16954093281148  0.717098825831704 6.76579827136334  0.995352250489238 7.21630381604697  C 1.10135355512068 7.40180609915199  1.27360567514677 7.54755789302022  1.45910795825179 7.62705887149381  L 4.268142530985 8.77982305936073  L 4.91740052185258 11.7478595890411  C 5.03665198956295 12.2646159491194  5.5401581865623 12.5958700260926  6.07016470971951 12.4898687214612  C 6.28216731898239 12.4501182322244  6.46766960208741 12.330866764514  6.60017123287672 12.1718648075669  L 8.56119536855839 9.85308626875407  L 11.5822325505545 10.1578400195695  C 12.1122390737117 10.2108406718852  12.5892449445532 9.82658594259622  12.6422455968689 9.29657941943901  C 12.6687459230267 9.08457681017612  12.615745270711 8.87257420091324  12.5097439660796 8.70032208088715  L 10.906474233529 6.11654028049576  L 12.1254892367906 3.33400603392042  C 12.3374918460535 2.84375  12.1254892367906 2.273992987606  11.6352332028702 2.06199037834312  Z M 10.535469667319 8.43531881930854  L 7.92518754076973 8.18356572080887  L 6.2424168297456 10.1843403457273  L 5.68590998043053 7.62705887149381  L 3.27438030006523 6.63329664057404  L 5.52690802348337 5.32153049575994  L 5.72566046966732 2.71124836921069  L 7.67343444227006 4.44701973255055  L 10.2174657534247 3.82426206784083  L 9.15745270711024 6.20929142204827  L 10.535469667319 8.43531881930854  Z " fill-rule="nonzero" fill="url(#LinearGradient814)" stroke="none" transform="matrix(1 0 0 1 432 349 )" />
  </g>
</svg>