<?xml version="1.0" encoding="utf-8"?>
<svg version="1.1" xmlns:xlink="http://www.w3.org/1999/xlink" width="21px" height="21px" xmlns="http://www.w3.org/2000/svg">
  <defs>
    <linearGradient gradientUnits="userSpaceOnUse" x1="14.7439163498099" y1="10.0052901306001" x2="10.5" y2="20.79" id="LinearGradient817">
      <stop id="Stop818" stop-color="#d16ba5" stop-opacity="0.745098039215686" offset="0" />
      <stop id="Stop819" stop-color="#5c38ad" stop-opacity="0.513725490196078" offset="1" />
    </linearGradient>
  </defs>
  <g transform="matrix(1 0 0 1 -421 -572 )">
    <path d="M 20.1228731161886 14.2820247933884  C 20.6758629071463 15.3667355371901  19.8463782207098 16.7492100145843  18.5915167719981 16.5577904715605  L 14.3164803111327 16.0686071949441  C 13.8272970345163 16.0048006806028  13.3593825960136 16.1962202236266  12.9978123480797 16.5577904715605  L 10.1690568789499 19.8119227029655  C 9.31830335439961 20.7690204180846  7.82948468643656 20.3436436558094  7.53172095284395 19.152588721439  L 6.68096742829363 14.9413587749149  C 6.55335439961108 14.4521754982985  6.25559066601847 14.0480675741371  5.7876762275158 13.8566480311133  L 1.81040350024307 12.1764098201264  C 0.661886242100146 11.68722654351  0.555542051531356 10.0707948468644  1.64025279533301 9.47526737967914  L 5.36229946524064 7.36965240641711  C 5.7876762275158 7.13569518716578  6.08543996110841 6.71031842489062  6.14924647544968 6.15732863393291  L 6.51081672338357 1.88229217306757  C 6.63842975206612 0.627430724355858  8.12724842002917 0.0744409333981528  9.04180845892076 0.925194457948469  L 12.2321341759844 3.81775644141954  C 12.5937044239183 4.17932668935343  13.1254253767623 4.30693971803597  13.6146086533787 4.17932668935343  L 17.8258385999028 3.22222897423432  C 19.038162372387 2.92446524064171  20.0590666018473 4.17932668935343  19.5698833252309 5.32784394749635  L 17.7620320855615 9.24131016042781  C 17.5918813806514 9.66668692270297  17.5918813806514 10.1984078755469  17.889645114244 10.6237846378221  L 20.1228731161886 14.2820247933884  Z " fill-rule="nonzero" fill="url(#LinearGradient817)" stroke="none" transform="matrix(1 0 0 1 421 572 )" />
  </g>
</svg>