<?xml version="1.0" encoding="utf-8"?>
<svg version="1.1" xmlns:xlink="http://www.w3.org/1999/xlink" width="7px" height="6px" xmlns="http://www.w3.org/2000/svg">
  <g transform="matrix(1 0 0 1 -430 -462 )">
    <path d="M 6.1235 3.7975  C 6.2885 4.0945  6.0575 4.474  5.711 4.4245  L 4.5395 4.2925  C 4.4075 4.276  4.2755 4.3255  4.1765 4.4245  L 3.401 5.3155  C 3.17 5.5795  2.7575 5.464  2.675 5.134  L 2.444 3.979  C 2.411 3.847  2.3285 3.7315  2.1965 3.682  L 1.1075 3.22  C 0.794 3.088  0.761000000000001 2.6425  1.058 2.4775  L 2.081 1.9  C 2.1965 1.834  2.279 1.7185  2.2955 1.57  L 2.3945 0.3985  C 2.4275 0.0519999999999996  2.84 -0.0964999999999998  3.0875 0.134499999999999  L 3.962 0.926499999999999  C 4.061 1.0255  4.2095 1.0585  4.3415 1.0255  L 5.4965 0.7615  C 5.8265 0.679  6.107 1.0255  5.975 1.339  L 5.48 2.4115  C 5.4305 2.527  5.4305 2.6755  5.513 2.791  L 6.1235 3.7975  Z " fill-rule="nonzero" fill="#efacda" stroke="none" transform="matrix(1 0 0 1 430 462 )" />
  </g>
</svg>