<?xml version="1.0" encoding="utf-8"?>
<svg version="1.1" xmlns:xlink="http://www.w3.org/1999/xlink" width="21px" height="24px" xmlns="http://www.w3.org/2000/svg">
  <g transform="matrix(1 0 0 1 -421 -338 )">
    <path d="M 11.9999221668742 23.9520547945205  C 11.9590597758406 23.9520547945205  11.918197384807 23.9520547945205  11.8773349937734 23.9520547945205  L 1.90691158156912 23.9520547945205  C 0.858110211706102 23.9520547945205  0 23.0890410958904  0 22.0342465753425  L 0 1.96575342465753  C 0 0.897260273972603  0.844489414694894 0.0479452054794518  1.90691158156912 0  L 19.0146326276463 0  C 20.0634339975093 0.0479452054794518  20.9215442092154 0.910958904109589  20.9215442092154 1.96575342465753  L 20.9215442092154 9.58219178082192  C 20.9351650062267 10.1027397260274  20.5265410958904 10.5547945205479  19.9953300124533 10.5821917808219  C 19.4641189290162 10.5958904109589  19.0282534246575 10.1849315068493  19.0146326276463 9.65068493150685  C 19.0146326276463 9.63698630136986  19.0146326276463 9.63698630136986  19.0146326276463 9.62328767123288  L 19.0146326276463 2  L 2 2  L 2 22.0479452054795  L 11.8500933997509 22.0479452054795  C 12.3404420921544 22.0342465753425  12.7626867995019 22.4041095890411  12.8307907845579 22.8835616438356  C 12.8988947696139 23.4041095890411  12.5175124533001 23.8835616438356  11.9999221668742 23.9520547945205  Z " fill-rule="nonzero" fill="#4d4b4b" stroke="none" transform="matrix(1 0 0 1 421 338 )" />
  </g>
</svg>