<?xml version="1.0" encoding="utf-8"?>
<svg version="1.1" xmlns:xlink="http://www.w3.org/1999/xlink" width="7px" height="7px" xmlns="http://www.w3.org/2000/svg">
  <g transform="matrix(1 0 0 1 -429 -283 )">
    <path d="M 6.56052079885248 4.54617676266137  C 6.75361359373276 4.89374379344588  6.48328368090036 5.33785722167053  6.07778881165177 5.27992938320644  L 4.70682996800176 5.12545514730222  C 4.55235573209754 5.10614586781419  4.39788149619331 5.16407370627828  4.28202581926514 5.27992938320644  L 3.37448968332781 6.32263047555997  C 3.10415977049542 6.63157894736842  2.62142778329471 6.49641399095222  2.52488138585457 6.11022840119166  L 2.25455147302218 4.75857883702968  C 2.21593291404612 4.60410460112545  2.11938651660598 4.46893964470926  1.96491228070175 4.41101180624517  L 0.690499834491888 3.87035198058038  C 0.323623524219352 3.71587774467616  0.285004965243295 3.19452719849939  0.632571996027805 3.00143440361911  L 1.82974732428556 2.32560962153812  C 1.96491228070176 2.24837250358601  2.0614586781419 2.11320754716981  2.08076795762992 1.93942403177756  L 2.19662363455809 0.568465188127552  C 2.23524219353415 0.162970318878958  2.71797418073486 -0.0108131965132959  3.00761337305528 0.259516716319099  L 4.03100518592078 1.18636213174446  C 4.14686086284895 1.30221780867262  4.3206443782412 1.34083636764868  4.47511861414543 1.30221780867262  L 5.8267681783074 0.993269336864173  C 6.21295376806797 0.896722939424032  6.54121151936445 1.30221780867262  6.38673728346022 1.66909411894516  L 5.80745889881937 2.924197285667  C 5.74953106035529 3.0593622420832  5.74953106035529 3.23314575747545  5.84607745779543 3.36831071389165  L 6.56052079885248 4.54617676266137  Z " fill-rule="nonzero" fill="#efacda" stroke="none" transform="matrix(1 0 0 1 429 283 )" />
  </g>
</svg>