<?xml version="1.0" encoding="utf-8"?>
<svg version="1.1" xmlns:xlink="http://www.w3.org/1999/xlink" width="23px" height="20px" xmlns="http://www.w3.org/2000/svg">
  <g transform="matrix(1 0 0 1 -422 -571 )">
    <path d="M 5.42884729649435 13.1436210847976  L 3.50705585264409 17.1755368814192  L 7.84176322043969 15.9871827518886  L 16.980949197861 8.34776334776335  L 17.8564319667261 7.58382140735082  L 19.7141636957813 6.03471691706986  C 19.7355169340463 6.01349630761396  19.7355169340463 5.97105508870215  19.7355169340463 5.94983447924625  L 17.386660724896 3.19115524997878  C 17.365307486631 3.16993464052288  17.322601010101 3.16993464052288  17.301247771836 3.19115524997878  L 15.4435160427807 4.74025974025974  L 15.3794563279857 4.82514217808335  L 5.42884729649435 13.1436210847976  Z M 20.2693478906714 8.644851880146  L 9.18701723113488 17.8545963840082  C 8.93077837195484 18.0880230880231  8.6104797979798 18.2153467447585  8.24747474747475 18.2577879636703  L 2.24721479500891 19.9129955012308  L 2.03368241235888 19.8917748917749  C 1.15819964349376 19.8068924539513  0.496249257278669 19.0429505135388  0.560308972073678 18.1516849163908  L 0.58166221033868 17.9394788218318  L 3.27217023172905 12.3584585349291  C 3.35758318478907 12.0189287836347  3.54976232917409 11.721840251252  3.82735442661913 11.509634156693  L 13.7993166963755 3.16993464052288  C 13.8633764111705 3.10627281215517  13.9274361259655 3.04261098378745  13.9914958407605 3.00016976487565  L 15.8492275698158 1.47228588405059  C 16.8314765300059 0.644682115270351  18.3262032085562 0.750785162549869  19.1589795008913 1.74815380697734  C 19.1589795008913 1.74815380697734  19.1589795008913 1.74815380697734  19.1803327391563 1.76937441643324  L 21.5291889483066 4.52805364570071  C 22.3619652406417 5.52542229012817  22.2338458110517 6.98964434258552  21.2515968508616 7.81724811136576  L 20.2693478906714 8.644851880146  Z " fill-rule="nonzero" fill="#4d4b4b" stroke="none" transform="matrix(1 0 0 1 422 571 )" />
  </g>
</svg>