<?xml version="1.0" encoding="utf-8"?>
<svg version="1.1" xmlns:xlink="http://www.w3.org/1999/xlink" width="24px" height="16px" xmlns="http://www.w3.org/2000/svg">
  <g transform="matrix(1 0 0 1 -421 -291 )">
    <path d="M 0 11.5017102504689  C 0.0229165075242533 5.34480856228622  5.17913070048125 0.379565265364669  11.5499197922237 0.379565265364669  C 17.9207088839661 0.401633013350987  23.0769230769231 5.36687631027254  23.0998395844473 11.5017102504689  L 23.0998395844473 13.3554010813196  C 23.0998395844473 14.4587884806356  22.3206783286227 15.2090919121704  21.17485295241 15  L 1.92498663203728 15  C 0.779161255824612 15.2090919121704  0 14.4587884806356  0 13.3554010813196  L 0 11.5017102504689  Z M 3.8270567565503 11.4796425024826  L 19.2269498128485 11.4796425024826  C 19.1582002902758 7.39710912501379  15.651974639065 4.13108242303873  11.3895042395539 4.19728566699768  C 7.24161637766404 4.26348891095664  3.89580627912306 7.48538011695907  3.8270567565503 11.4796425024826  Z " fill-rule="nonzero" fill="#4d4b4b" stroke="none" transform="matrix(1 0 0 1 421 291 )" />
  </g>
</svg>