<?xml version="1.0" encoding="utf-8"?>
<svg version="1.1" xmlns:xlink="http://www.w3.org/1999/xlink" width="24px" height="28px" xmlns="http://www.w3.org/2000/svg">
  <g transform="matrix(1 0 0 1 -421 -393 )">
    <path d="M 12.0258644664874 27.5218733916624  C 11.6982478909799 27.5218733916624  11.3878742931306 27.3782810087494  11.1982015388894 27.1230056613484  L 4.11133772133123 17.4704065877509  C -0.182163715583571 13.4338651569738  -0.130434782608694 6.92434379825013  4.23203856493928 2.95162120432321  C 8.59451191248726 -1.02110138960371  15.6296467970705 -0.973237261966032  19.9231482339854 3.06330416881112  C 24.1649207379253 7.05198147195059  24.1649207379253 13.4657745753989  19.9231482339854 17.4704065877509  L 12.8535273940855 27.1230056613484  C 12.6638546398443 27.3782810087494  12.353481041995 27.5218733916624  12.0258644664874 27.5218733916624  Z M 18.4919810883471 4.33968090581575  C 16.7676833225178 2.74420998455996  14.4571243163067 1.85074626865672  12.0258644664874 1.86670097786927  C 7.00815796792436 1.85074626865672  2.92157226290906 5.61605764282038  2.90432928525077 10.2588780236747  C 2.90432928525077 12.5084920226454  3.85269305645685 14.6623777663407  5.57699082228609 16.2418939783839  L 5.69769166589414 16.3695316520844  L 12.0258644664874 24.9691199176531  L 18.3367942894225 16.3695316520844  L 18.4574951330305 16.2418939783839  C 22.0095485306387 12.9711785898096  22.026791508297 7.64230571281523  18.4919810883471 4.33968090581575  Z " fill-rule="nonzero" fill="#4d4b4b" stroke="none" transform="matrix(1 0 0 1 421 393 )" />
  </g>
</svg>