<?xml version="1.0" encoding="utf-8"?>
<svg version="1.1" xmlns:xlink="http://www.w3.org/1999/xlink" width="11px" height="21px" xmlns="http://www.w3.org/2000/svg">
  <defs>
    <linearGradient gradientUnits="userSpaceOnUse" x1="0" y1="14.7272727272727" x2="7.91749049429661" y2="11.6538022813689" id="LinearGradient826">
      <stop id="Stop827" stop-color="#d16ba5" stop-opacity="0.745098039215686" offset="0" />
      <stop id="Stop828" stop-color="#5c38ad" stop-opacity="0.513725490196078" offset="1" />
    </linearGradient>
  </defs>
  <g transform="matrix(1 0 0 1 -434 -518 )">
    <path d="M 10.8625 16.675  C 11.525 13.7375  9.7 10.8125  6.7625 10.1375  L 6.7625 4.7  L 8.9875 6.925  L 10.7 5.2125  L 5.5625 0.0750000000000002  L 0.425000000000001 5.2125  L 2.1375 6.925  L 4.3625 4.7  L 4.3375 10.15  C 2.2875 10.6125  0.687500000000002 12.2125  0.225000000000001 14.2625  C -0.437499999999998 17.2  1.4 20.1375  4.3375 20.7875  C 7.275 21.45  10.1875 19.6125  10.8625 16.675  Z M 8.6125 17.05  C 8.8 17.4  8.525 17.85  8.125 17.7875  L 6.75 17.6375  C 6.6 17.6125  6.4375 17.675  6.325 17.7875  L 5.4125 18.825  C 5.1375 19.1375  4.6625 19  4.5625 18.6125  L 4.2875 17.2625  C 4.25 17.1125  4.15 16.975  4 16.9125  L 2.725 16.375  C 2.3625 16.225  2.325 15.7  2.6625 15.5  L 3.8625 14.825  C 4 14.75  4.1 14.6125  4.1125 14.4375  L 4.225 13.0625  C 4.2625 12.6625  4.75 12.4875  5.0375 12.75  L 6.0625 13.675  C 6.175 13.7875  6.35 13.825  6.5125 13.7875  L 7.875 13.5  C 8.2625 13.4  8.5875 13.8125  8.4375 14.175  L 7.8625 15.425  C 7.8 15.5625  7.8 15.7375  7.9 15.875  L 8.6125 17.05  Z " fill-rule="nonzero" fill="url(#LinearGradient826)" stroke="none" transform="matrix(1 0 0 1 434 518 )" />
  </g>
</svg>