<?xml version="1.0" encoding="utf-8"?>
<svg version="1.1" xmlns:xlink="http://www.w3.org/1999/xlink" width="12px" height="21px" xmlns="http://www.w3.org/2000/svg">
  <defs>
    <linearGradient gradientUnits="userSpaceOnUse" x1="0" y1="14.7272727272727" x2="8.63726235741449" y2="11.6538022813689" id="LinearGradient823">
      <stop id="Stop824" stop-color="#d16ba5" stop-opacity="0.745098039215686" offset="0" />
      <stop id="Stop825" stop-color="#5c38ad" stop-opacity="0.513725490196078" offset="1" />
    </linearGradient>
  </defs>
  <g transform="matrix(1 0 0 1 -421 -518 )">
    <path d="M 11.9125 13.0375  L 7.65 13.0375  L 7.65 11.0875  C 9.7 10.625  11.3 9.025  11.7625 6.975  C 12.425 4.0375  10.5875 1.125  7.65 0.450000000000001  C 4.725 -0.2  1.8 1.625  1.125 4.5625  C 0.475 7.5  2.3125 10.4125  5.2375 11.0875  L 5.2375 13.0375  L 1 13.0375  L 1 15.475  L 5.25 15.475  L 5.25 20.9375  L 7.6625 20.9375  L 7.6625 15.475  L 11.9125 15.475  L 11.9125 13.0375  Z M 9.0125 7.925  L 7.65 7.7875  C 7.5 7.7625  7.3375 7.825  7.225 7.9375  L 6.3125 8.975  C 6.0375 9.2875  5.5625 9.15  5.4625 8.7625  L 5.1875 7.4125  C 5.15 7.2625  5.05 7.125  4.9 7.0625  L 3.625 6.5375  C 3.2625 6.3875  3.225 5.8625  3.5625 5.6625  L 4.7625 4.9875  C 4.9 4.9125  5 4.775  5.0125 4.6  L 5.125 3.225  C 5.1625 2.825  5.65 2.65  5.9375 2.9125  L 6.9625 3.8375  C 7.075 3.95  7.25 3.9875  7.4125 3.95  L 8.7625 3.6375  C 9.15 3.5375  9.475 3.95  9.325 4.3125  L 8.75 5.5625  C 8.6875 5.7  8.6875 5.875  8.7875 6.0125  L 9.5 7.1875  C 9.6875 7.5375  9.425 7.975  9.0125 7.925  Z " fill-rule="nonzero" fill="url(#LinearGradient823)" stroke="none" transform="matrix(1 0 0 1 421 518 )" />
  </g>
</svg>