<?xml version="1.0" encoding="utf-8"?>
<svg version="1.1" xmlns:xlink="http://www.w3.org/1999/xlink" width="7px" height="6px" xmlns="http://www.w3.org/2000/svg">
  <g transform="matrix(1 0 0 1 -429 -400 )">
    <path d="M 6.11913646055437 3.80703624733475  C 6.28438166311301 4.1044776119403  6.05303837953092 4.48454157782516  5.70602345415779 4.43496801705757  L 4.53278251599147 4.30277185501066  C 4.40058635394457 4.2862473347548  4.26839019189766 4.33582089552239  4.16924307036248 4.43496801705757  L 3.39259061833689 5.3272921108742  C 3.1612473347548 5.59168443496802  2.74813432835821 5.47601279317698  2.66551172707889 5.1455223880597  L 2.4341684434968 3.98880597014926  C 2.40111940298507 3.85660980810235  2.31849680170576 3.7409381663113  2.18630063965885 3.69136460554371  L 1.09568230277186 3.22867803837953  C 0.781716417910449 3.09648187633262  0.748667377398721 2.65031982942431  1.04610874200427 2.48507462686567  L 2.07062899786781 1.90671641791045  C 2.18630063965885 1.84061833688699  2.26892324093817 1.72494669509595  2.28544776119403 1.57622601279318  L 2.38459488272921 0.402985074626865  C 2.41764392324094 0.0559701492537306  2.83075692963753 -0.092750533049041  3.07862473347548 0.138592750533048  L 3.95442430703625 0.931769722814498  C 4.05357142857143 1.03091684434968  4.2022921108742 1.06396588486141  4.33448827292111 1.03091684434968  L 5.49120469083156 0.766524520255863  C 5.82169509594883 0.683901918976544  6.10261194029851 1.03091684434968  5.9704157782516 1.34488272921109  L 5.4746801705757 2.41897654584222  C 5.4251066098081 2.53464818763326  5.4251066098081 2.68336886993603  5.50772921108742 2.79904051172708  L 6.11913646055437 3.80703624733475  Z " fill-rule="nonzero" fill="#efacda" stroke="none" transform="matrix(1 0 0 1 429 400 )" />
  </g>
</svg>