<?xml version="1.0" encoding="utf-8"?>
<svg version="1.1" xmlns:xlink="http://www.w3.org/1999/xlink" width="24px" height="24px" xmlns="http://www.w3.org/2000/svg">
  <g transform="matrix(1 0 0 1 -421 -742 )">
    <path d="M 11.6516923076923 7.57236363636363  C 12.2609230769231 7.57236363636363  12.6670769230769 7.09236363636364  12.6670769230769 6.35636363636364  C 12.6670769230769 5.62036363636364  12.2609230769231 5.14036363636364  11.6516923076923 5.14036363636364  C 11.0424615384615 5.14036363636364  10.4332307692308 5.62036363636364  10.4332307692308 6.35636363636364  C 10.4332307692308 7.09236363636364  11.0424615384615 7.57236363636363  11.6516923076923 7.57236363636363  Z M 5.99261538461538 5.15636363636364  C 5.38338461538461 5.15636363636364  4.77415384615385 5.63636363636364  4.77415384615385 6.37236363636364  C 4.77415384615385 7.09236363636364  5.38338461538461 7.58836363636363  5.99261538461538 7.58836363636363  C 6.60184615384615 7.58836363636363  6.99446153846154 7.09236363636364  6.99446153846154 6.37236363636364  C 7.008 5.63636363636364  6.60184615384615 5.15636363636364  5.99261538461538 5.15636363636364  Z M 23.7415384615385 15.3483636363636  C 23.7415384615385 11.5083636363636  20.7766153846154 8.24436363636364  17.1347692307692 7.89236363636364  C 17.1347692307692 7.84436363636364  17.1483076923077 7.79636363636364  17.1347692307692 7.74836363636363  C 16.4036923076923 3.66836363636363  12.7483076923077 0.580363636363635  8.61907692307692 0.580363636363635  C 3.96184615384615 0.580363636363635  0.171076923076921 4.48436363636364  0.171076923076921 9.28436363636363  C 0.171076923076921 11.8603636363636  1.26769230769231 14.1803636363636  3.33907692307692 16.0043636363636  L 2.62153846153846 18.6123636363636  C 2.58092307692308 18.7883636363636  2.62153846153846 18.9643636363636  2.72984615384615 19.0923636363636  C 2.79753846153846 19.1563636363636  2.87876923076923 19.2043636363636  2.97353846153846 19.2043636363636  C 3.02769230769231 19.2043636363636  3.08184615384615 19.1883636363636  3.136 19.1563636363636  L 5.84369230769231 17.5243636363636  L 6.18215384615385 17.6043636363636  C 7.02153846153846 17.8123636363636  7.73907692307692 17.9883636363636  8.63261538461539 17.9883636363636  C 8.88984615384615 17.9883636363636  9.16061538461539 17.9723636363636  9.41784615384615 17.9403636363636  C 9.52615384615385 17.9243636363636  9.60738461538462 17.8603636363636  9.67507692307692 17.7803636363636  C 10.6498461538462 20.7243636363636  13.344 22.8363636363636  16.5255384615385 22.8363636363636  C 17.3378461538462 22.8363636363636  18.1636923076923 22.5963636363636  18.8947692307692 22.3723636363636  L 20.9796923076923 23.7483636363636  C 21.0338461538462 23.7803636363636  21.1015384615385 23.7963636363636  21.1556923076923 23.7963636363636  C 21.2369230769231 23.7963636363636  21.3181538461538 23.7643636363636  21.3858461538462 23.7003636363636  C 21.5076923076923 23.5883636363636  21.5483076923077 23.3963636363636  21.5076923076923 23.2363636363636  L 20.9796923076923 21.1083636363636  C 22.7532307692308 19.3963636363636  23.7415384615385 17.3643636363636  23.7415384615385 15.3483636363636  Z M 9.35015384615385 17.0603636363636  C 9.10646153846154 17.0923636363636  8.86276923076923 17.0923636363636  8.61907692307692 17.0923636363636  C 7.80676923076923 17.0923636363636  7.11630769230769 16.9163636363636  6.31753846153846 16.7243636363636  L 5.85723076923077 16.6123636363636  C 5.776 16.5963636363636  5.69476923076923 16.6123636363636  5.62707692307692 16.6443636363636  L 3.59630769230769 17.8603636363636  L 4.12430769230769 15.9563636363636  C 4.17846153846154 15.7643636363636  4.12430769230769 15.5723636363636  3.98892307692308 15.4603636363636  C 1.94461538461538 13.7643636363636  0.902153846153846 11.6843636363636  0.902153846153846 9.28436363636363  C 0.902153846153846 4.98036363636364  4.368 1.47636363636364  8.61907692307692 1.47636363636364  C 12.3827692307692 1.47636363636364  15.7132307692308 4.22836363636364  16.3901538461538 7.87636363636364  C 12.4504615384615 7.94036363636364  9.25538461538461 11.2683636363636  9.25538461538461 15.3483636363636  C 9.25538461538461 15.9403636363636  9.33661538461539 16.5163636363636  9.45846153846154 17.0763636363636  C 9.43138461538462 17.0603636363636  9.39076923076923 17.0443636363636  9.35015384615385 17.0603636363636  Z M 20.3163076923077 20.5803636363636  C 20.1944615384615 20.6923636363636  20.1403076923077 20.8843636363636  20.1809230769231 21.0603636363636  L 20.5329230769231 22.4523636363636  L 19.0978461538462 21.5083636363636  C 19.0436923076923 21.4763636363636  18.9895384615385 21.4603636363636  18.9218461538462 21.4603636363636  C 18.8947692307692 21.4603636363636  18.8676923076923 21.4603636363636  18.8270769230769 21.4763636363636  C 18.0553846153846 21.7003636363636  17.2701538461538 21.9563636363636  16.4984615384615 21.9563636363636  C 12.9107692307692 21.9563636363636  9.98646153846154 18.9963636363636  9.98646153846154 15.3483636363636  C 9.98646153846154 11.7003636363636  12.9107692307692 8.75636363636364  16.4984615384615 8.75636363636364  C 20.0184615384615 8.75636363636364  22.9969230769231 11.7803636363636  22.9969230769231 15.3483636363636  C 23.0104615384615 17.1563636363636  22.0492307692308 19.0123636363636  20.3163076923077 20.5803636363636  Z M 14.2781538461538 12.1963636363636  C 13.872 12.1963636363636  13.4658461538462 12.6923636363636  13.4658461538462 13.1723636363636  C 13.4658461538462 13.6683636363636  13.872 14.1483636363636  14.2781538461538 14.1483636363636  C 14.8873846153846 14.1483636363636  15.2935384615385 13.6683636363636  15.2935384615385 13.1723636363636  C 15.2935384615385 12.6763636363636  14.8873846153846 12.1963636363636  14.2781538461538 12.1963636363636  Z M 18.7187692307692 12.1963636363636  C 18.3126153846154 12.1963636363636  17.92 12.6923636363636  17.92 13.1723636363636  C 17.92 13.6683636363636  18.3261538461538 14.1483636363636  18.7187692307692 14.1483636363636  C 19.328 14.1483636363636  19.7341538461538 13.6683636363636  19.7341538461538 13.1723636363636  C 19.7341538461538 12.6763636363636  19.328 12.1963636363636  18.7187692307692 12.1963636363636  Z " fill-rule="nonzero" fill="#898989" stroke="none" transform="matrix(1 0 0 1 421 742 )" />
  </g>
</svg>