<?xml version="1.0" encoding="utf-8"?>
<svg version="1.1" xmlns:xlink="http://www.w3.org/1999/xlink" width="5px" height="6px" xmlns="http://www.w3.org/2000/svg">
  <g transform="matrix(1 0 0 1 -436 -757 )">
    <path d="M 4.7475 4.12050000000001  C 4.885 4.4175  4.6925 4.797  4.40375 4.7475  L 3.4275 4.6155  C 3.3175 4.599  3.2075 4.6485  3.125 4.7475  L 2.47875000000001 5.6385  C 2.28625000000001 5.9025  1.9425 5.787  1.87375000000001 5.457  L 1.68125 4.302  C 1.65375 4.17  1.58500000000001 4.0545  1.475 4.005  L 0.567500000000005 3.543  C 0.306250000000003 3.411  0.278750000000005 2.9655  0.526250000000004 2.8005  L 1.37875 2.223  C 1.475 2.157  1.54375 2.0415  1.5575 1.893  L 1.64 0.7215  C 1.6675 0.375  2.01125 0.2265  2.2175 0.4575  L 2.94625 1.2495  C 3.02875 1.3485  3.1525 1.3815  3.2625 1.3485  L 4.225 1.0845  C 4.50000000000001 1.002  4.73375 1.3485  4.62375000000001 1.662  L 4.21125 2.7345  C 4.17 2.85  4.17 2.9985  4.23875 3.114  L 4.7475 4.12050000000001  Z " fill-rule="nonzero" fill="#c777b9" stroke="none" transform="matrix(1 0 0 1 436 757 )" />
  </g>
</svg>