<?xml version="1.0" encoding="utf-8"?>
<svg version="1.1" xmlns:xlink="http://www.w3.org/1999/xlink" width="2px" height="2px" xmlns="http://www.w3.org/2000/svg">
  <g transform="matrix(1 0 0 1 -432 -800 )">
    <path d="M 1.96 1.41333333333333  C 1.98666666666667 1.53333333333333  1.90666666666667 1.66666666666667  1.78666666666667 1.64  L 1.38666666666667 1.6  C 1.34666666666667 1.6  1.29333333333333 1.61333333333333  1.26666666666667 1.64  L 1 1.94666666666667  C 0.920000000000001 2.04  0.773333333333333 2  0.746666666666666 1.88  L 0.666666666666667 1.48  C 0.653333333333334 1.44  0.626666666666667 1.4  0.586666666666667 1.37333333333333  L 0.213333333333334 1.21333333333333  C 0.106666666666668 1.17333333333333  0.0933333333333337 1.01333333333333  0.200000000000002 0.959999999999999  L 0.546666666666668 0.759999999999998  C 0.586666666666667 0.733333333333331  0.613333333333335 0.693333333333332  0.626666666666667 0.639999999999998  L 0.666666666666667 0.239999999999998  C 0.679999999999999 0.119999999999997  0.813333333333333 0.0666666666666648  0.906666666666666 0.146666666666664  L 1.21333333333333 0.413333333333331  C 1.25333333333333 0.45333333333333  1.29333333333333 0.45333333333333  1.34666666666667 0.45333333333333  L 1.74666666666667 0.359999999999997  C 1.86666666666667 0.33333333333333  1.96 0.45333333333333  1.90666666666667 0.559999999999997  L 1.73333333333333 0.933333333333333  C 1.72 0.973333333333333  1.72 1.02666666666667  1.74666666666667 1.06666666666667  L 1.96 1.41333333333333  Z " fill-rule="nonzero" fill="#636fce" stroke="none" transform="matrix(1 0 0 1 432 800 )" />
  </g>
</svg>