<?xml version="1.0" encoding="utf-8"?>
<svg version="1.1" xmlns:xlink="http://www.w3.org/1999/xlink" width="5px" height="5px" xmlns="http://www.w3.org/2000/svg">
  <g transform="matrix(1 0 0 1 -426 -795 )">
    <path d="M 4.92424242424242 3.45588235294117  C 5.07575757575758 3.72058823529412  4.86363636363636 4.05882352941176  4.54545454545455 4.01470588235294  L 3.46969696969697 3.89705882352941  C 3.34848484848485 3.88235294117647  3.22727272727273 3.92647058823529  3.13636363636364 4.01470588235294  L 2.42424242424242 4.80882352941177  C 2.21212121212121 5.04411764705882  1.83333333333333 4.94117647058824  1.75757575757576 4.64705882352941  L 1.54545454545454 3.61764705882353  C 1.51515151515151 3.5  1.43939393939394 3.39705882352941  1.31818181818182 3.35294117647059  L 0.318181818181818 2.94117647058824  C 0.0303030303030307 2.82352941176471  0 2.42647058823529  0.272727272727273 2.27941176470588  L 1.21212121212121 1.76470588235294  C 1.31818181818182 1.70588235294118  1.39393939393939 1.60294117647059  1.40909090909091 1.47058823529412  L 1.5 0.426470588235294  C 1.53030303030303 0.117647058823529  1.90909090909091 -0.0147058823529414  2.13636363636364 0.191176470588235  L 2.93939393939394 0.897058823529411  C 3.03030303030303 0.985294117647058  3.16666666666667 1.01470588235294  3.28787878787879 0.985294117647058  L 4.34848484848485 0.749999999999999  C 4.65151515151515 0.676470588235293  4.90909090909091 0.985294117647058  4.78787878787879 1.26470588235294  L 4.33333333333333 2.22058823529412  C 4.28787878787879 2.32352941176471  4.28787878787879 2.45588235294117  4.36363636363636 2.55882352941176  L 4.92424242424242 3.45588235294117  Z " fill-rule="nonzero" fill="#636fce" stroke="none" transform="matrix(1 0 0 1 426 795 )" />
  </g>
</svg>