<?xml version="1.0" encoding="utf-8"?>
<svg version="1.1" xmlns:xlink="http://www.w3.org/1999/xlink" width="16px" height="17px" xmlns="http://www.w3.org/2000/svg">
  <g transform="matrix(1 0 0 1 -428 -796 )">
    <path d="M 15.7857142857143 12.0224  C 15.7285714285714 11.968  15.5714285714286 11.8728  15.4142857142857 11.6552  C 15.2 11.3968  14.9428571428571 11.288  14.6142857142857 11.288  L 14.5142857142857 11.288  C 14.1428571428571 11.3424  13.6142857142857 11.084  13.4571428571429 11.3832  C 13.3 11.6824  12.7 12.308  12.5428571428571 12.5664  C 12.3857142857143 12.7704  12.9857142857143 13.2464  13.0285714285714 13.4912  C 13.0857142857143 13.7496  13.2428571428571 14.008  13.5 14.1576  C 13.9714285714286 14.416  14.1857142857143 14.7696  14.1428571428571 15.1368  L 14.1428571428571 15.1912  C 14.1428571428571 15.1912  14.1428571428571 15.3  13.9857142857143 15.4496  C 13.7714285714286 15.6536  13.4857142857143 16.5376  12 16.5376  L 11.4285714285714 16.6056  C 11.4285714285714 16.6056  11.4285714285714 16.6056  11.4142857142857 16.6056  C 10.6142857142857 16.5512  9.74285714285715 17.272  9.21428571428572 16.8096  C 9 16.6056  8.57142857142857 16.728  8.31428571428572 16.728  C 8.30000000000001 16.728  8.30000000000001 16.728  8.28571428571429 16.7416  L 7.84285714285715 16.9728  C 7.82857142857143 16.9728  7.81428571428572 16.9864  7.81428571428572 16.9864  C 7.57142857142858 16.9728  7.52857142857143 16.8096  7.30000000000001 16.6736  C 7.28571428571429 16.6736  7.28571428571429 16.66  7.27142857142858 16.66  C 6.44285714285715 16.524  5.38571428571429 15.9936  4.58571428571429 16.048  L 4.24285714285715 16.048  C 2.70000000000001 16.048  2.11428571428572 15.6808  1.95714285714286 15.4768  C 1.80000000000001 15.3272  1.80000000000001 15.2184  1.80000000000001 15.2184  L 1.80000000000001 15.1776  C 1.74285714285715 14.8104  1.95714285714286 14.4568  2.44285714285715 14.1984  C 2.71428571428572 14.0488  2.87142857142858 13.7904  2.91428571428572 13.532  C 2.95714285714286 13.2736  2.91428571428572 12.9608  2.75714285714286 12.7568  C 2.54285714285715 12.4984  2.38571428571429 12.1856  2.22857142857143 11.8864  C 2.07142857142858 11.5872  1.75714285714286 11.3696  1.42857142857143 11.3152  L 1.32857142857143 11.3152  C 1.01428571428572 11.3152  0.742857142857149 11.4648  0.528571428571435 11.6824  C 0.414285714285721 11.832  0.314285714285721 11.9408  0.228571428571436 11.9952  C 0.200000000000007 12.0224  0.142857142857151 12.0088  0.128571428571435 11.968  C 0.0714285714285775 11.7912  0.0142857142857216 11.4512  0.057142857142864 10.9616  C 0.057142857142864 10.9616  0.057142857142864 10.9616  0.057142857142864 10.948  C 0.328571428571436 9.45200000000001  1.32857142857144 8.3776  1.75714285714286 8.0104  C 1.97142857142858 7.8064  2.07142857142858 7.49360000000001  2.07142857142858 7.18080000000001  C 2.01428571428572 6.14720000000001  2.28571428571429 5.84800000000001  2.38571428571429 5.73920000000001  C 2.60000000000001 5.53520000000001  2.70000000000001 5.33120000000001  2.75714285714286 5.01840000000001  C 2.75714285714286 5.01840000000001  2.75714285714286 5.01840000000001  2.75714285714286 5.00480000000001  C 2.97142857142858 0.217600000000007  7.38571428571429 0.0544000000000075  7.85714285714287 0.0544000000000075  L 8.07142857142858 0.0544000000000075  C 8.50000000000001 0.0544000000000075  9.92857142857144 0.108800000000007  11.2142857142857 1.03360000000001  C 12.4428571428572 1.90400000000001  13.0714285714286 3.25040000000001  13.1857142857143 5.00480000000001  C 13.1857142857143 5.26320000000001  13.3428571428572 5.52160000000001  13.5571428571429 5.72560000000001  C 13.6571428571429 5.83440000000001  14.6571428571429 5.48080000000001  14.6 6.51440000000001  C 14.6 6.82720000000001  14.6142857142857 7.61600000000001  14.8285714285714 7.82000000000001  C 15.2571428571429 8.22800000000001  15.5714285714286 9.47920000000001  15.9 10.9208  C 15.9 10.9208  15.9 10.9208  15.9 10.9344  C 15.9428571428571 11.56  15.8857142857143 11.8728  15.7857142857143 12.0224  Z " fill-rule="nonzero" fill="#9a9ae1" stroke="none" transform="matrix(1 0 0 1 428 796 )" />
  </g>
</svg>