<?xml version="1.0" encoding="utf-8"?>
<svg version="1.1" xmlns:xlink="http://www.w3.org/1999/xlink" width="24px" height="24px" xmlns="http://www.w3.org/2000/svg">
  <g transform="matrix(1 0 0 1 -421 -790 )">
    <path d="M 22.8988235294118 18.6818181818182  C 23.8870588235294 18.2727272727273  23.9576470588235 16.7045454545455  23.8870588235294 15.75  L 23.8870588235294 15.6818181818182  C 23.4635294117647 13.2954545454545  21.9105882352941 11.6590909090909  21.2047058823529 10.9772727272727  C 21.3458823529412 9.20454545454546  20.7811764705882 8.31818181818182  20.3576470588235 7.97727272727273  C 20.0047058823529 1.70454545454545  14.9223529411765 0.0681818181818182  12.1694117647059 0.0681818181818182  L 11.8870588235294 0.0681818181818182  C 9.0635294117647 0.0681818181818182  3.98117647058823 1.70454545454545  3.62823529411765 7.97727272727273  C 3.20470588235294 8.38636363636364  2.64 9.20454545454546  2.78117647058823 10.9772727272727  C 2.14588235294117 11.5909090909091  0.592941176470587 13.2954545454545  0.0988235294117631 15.6818181818182  L 0.0988235294117631 15.75  C 0.0282352941176455 16.7045454545455  0.0988235294117631 18.3409090909091  1.15764705882353 18.6818181818182  C 1.29882352941176 18.75  1.44 18.75  1.51058823529412 18.75  C 2.07529411764706 18.75  2.64 18.3409090909091  3.13411764705882 17.7272727272727  C 3.34588235294118 18.1363636363636  3.62823529411765 18.5454545454545  3.91058823529412 19.0227272727273  C 3.13411764705882 19.5  2.28705882352941 20.3863636363636  2.42823529411765 21.6136363636364  C 2.42823529411765 21.8181818181818  2.49882352941176 22.3636363636364  3.0635294117647 22.8409090909091  C 3.84 23.5909090909091  5.18117647058823 23.9318181818182  7.15764705882353 23.9318181818182  L 7.65176470588235 23.9318181818182  C 8.00470588235294 23.9318181818182  10.6870588235294 23.6590909090909  11.9576470588235 22.5  L 12.1694117647059 22.5  C 13.44 23.6590909090909  16.1929411764706 23.8636363636364  16.5458823529412 23.9318181818182  L 16.9694117647059 23.9318181818182  C 18.8752941176471 23.9318181818182  20.2870588235294 23.5227272727273  20.9929411764706 22.8409090909091  C 21.4870588235294 22.2954545454545  21.6282352941176 21.8181818181818  21.6282352941176 21.6136363636364  C 21.7694117647059 20.3863636363636  20.9223529411765 19.5  20.1458823529412 19.0227272727273  C 20.4988235294118 18.5454545454545  20.7105882352941 18.1363636363636  20.9223529411765 17.7272727272727  C 21.4164705882353 18.2727272727273  21.9811764705882 18.75  22.5458823529412 18.75  C 22.6870588235294 18.75  22.8282352941176 18.75  22.8988235294118 18.6818181818182  Z M 22.3341176470588 17.25  C 22.2635294117647 17.1818181818182  22.0517647058823 17.0454545454545  21.84 16.7727272727273  C 21.5576470588235 16.4318181818182  21.2047058823529 16.2954545454545  20.7811764705882 16.2954545454545  L 20.64 16.2954545454545  C 20.1458823529412 16.3636363636364  19.7929411764706 16.6363636363636  19.5811764705882 17.0454545454545  C 19.3694117647059 17.4545454545455  19.0870588235294 17.8636363636364  18.8752941176471 18.2045454545455  C 18.6635294117647 18.4772727272727  18.5929411764706 18.8863636363636  18.6635294117647 19.2272727272727  C 18.7341176470588 19.5681818181818  18.9458823529412 19.9090909090909  19.2988235294118 20.1136363636364  C 19.9341176470588 20.4545454545455  20.2164705882353 20.9318181818182  20.1458823529412 21.4090909090909  L 20.1458823529412 21.4772727272727  C 20.1458823529412 21.4772727272727  20.1458823529412 21.6136363636364  19.9341176470588 21.8181818181818  C 19.6517647058824 22.0909090909091  18.8752941176471 22.5681818181818  16.8988235294118 22.5681818181818  L 16.5458823529412 22.5681818181818  C 15.4870588235294 22.5  13.7929411764706 22.1590909090909  13.0870588235294 21.5454545454545  C 12.8047058823529 21.2727272727273  12.4517647058824 21.2045454545455  12.0988235294118 21.2045454545455  L 11.8870588235294 21.2045454545455  C 11.5341176470588 21.2045454545455  11.1811764705882 21.3409090909091  10.8988235294118 21.5454545454545  C 10.1929411764706 22.1590909090909  8.49882352941176 22.5  7.44 22.5681818181818  L 7.01647058823529 22.5681818181818  C 4.96941176470588 22.5681818181818  4.19294117647059 22.0909090909091  3.98117647058823 21.8181818181818  C 3.76941176470588 21.6136363636364  3.76941176470588 21.4772727272727  3.76941176470588 21.4772727272727  L 3.76941176470588 21.4090909090909  C 3.69882352941176 20.9318181818182  3.98117647058823 20.4545454545455  4.61647058823529 20.1136363636364  C 4.96941176470588 19.9090909090909  5.18117647058823 19.5681818181818  5.25176470588235 19.2272727272727  C 5.32235294117647 18.8863636363636  5.25176470588235 18.4772727272727  5.04 18.2045454545455  C 4.75764705882353 17.8636363636364  4.54588235294117 17.4545454545455  4.33411764705882 17.0454545454545  C 4.12235294117647 16.6363636363636  3.69882352941176 16.3636363636364  3.27529411764706 16.2954545454545  L 3.13411764705882 16.2954545454545  C 2.71058823529412 16.2954545454545  2.35764705882353 16.5  2.07529411764706 16.7727272727273  C 1.8635294117647 17.0454545454545  1.72235294117647 17.1818181818182  1.58117647058823 17.25  C 1.51058823529412 17.0454545454545  1.36941176470588 16.5681818181818  1.44 15.8181818181818  C 1.79294117647059 13.8409090909091  3.13411764705882 12.4090909090909  3.69882352941176 11.9318181818182  C 3.98117647058823 11.6590909090909  4.12235294117647 11.25  4.12235294117647 10.8409090909091  C 4.05176470588235 9.47727272727273  4.40470588235294 9.06818181818182  4.54588235294117 8.93181818181818  C 4.82823529411765 8.65909090909091  4.96941176470588 8.38636363636364  5.04 7.97727272727273  C 5.32235294117647 1.63636363636364  11.1811764705882 1.43181818181818  11.8164705882353 1.43181818181818  L 12.0988235294118 1.43181818181818  C 12.6635294117647 1.43181818181818  14.5694117647059 1.5  16.2635294117647 2.72727272727273  C 17.8870588235294 3.88636363636364  18.7341176470588 5.65909090909091  18.8752941176471 7.97727272727273  C 18.8752941176471 8.31818181818182  19.0870588235294 8.65909090909091  19.3694117647059 8.93181818181818  C 19.5105882352941 9.06818181818182  19.8635294117647 9.47727272727273  19.7929411764706 10.8409090909091  C 19.7929411764706 11.25  19.9341176470588 11.6590909090909  20.2164705882353 11.9318181818182  C 20.7811764705882 12.4772727272727  22.0517647058823 13.9090909090909  22.4752941176471 15.8181818181818  C 22.5458823529412 16.6363636363636  22.4752941176471 17.0454545454545  22.3341176470588 17.25  Z " fill-rule="nonzero" fill="#898989" stroke="none" transform="matrix(1 0 0 1 421 790 )" />
  </g>
</svg>