<?xml version="1.0" encoding="utf-8"?>
<svg version="1.1" xmlns:xlink="http://www.w3.org/1999/xlink" width="14px" height="22px" xmlns="http://www.w3.org/2000/svg">
  <g transform="matrix(1 0 0 1 -426 -690 )">
    <path d="M 13.864 2.372  C 13.864 1.328  13.024 0.488  11.98 0.488  L 1.984 0.488  C 0.939999999999999 0.488  0.0999999999999996 1.34  0 2.372  L 0 19.628  C 0.0999999999999996 20.672  0.952 21.512  1.984 21.512  L 11.98 21.512  C 13.024 21.512  13.864 20.66  13.864 19.628  L 13.864 2.372  Z M 13.06 17.528  L 13.06 19.82  C 13.06 20.372  12.64 20.816  12.112 20.816  L 1.864 20.816  C 1.348 20.816  0.928000000000001 20.372  0.928000000000001 19.82  L 0.928000000000001 17.528  L 13.06 17.528  Z M 13 4  L 13 16.724  L 1 16.724  L 1 4  L 13 4  Z M 13.072 3.212  L 13.06 3.212  L 0.928 3.212  L 0.928 2.252  C 0.928 1.676  1.348 1.196  1.876 1.196  L 12.124 1.196  C 12.64 1.196  13.072 1.664  13.072 2.252  L 13.072 3.212  Z " fill-rule="nonzero" fill="#898989" stroke="none" transform="matrix(1 0 0 1 426 690 )" />
  </g>
</svg>