<?xml version="1.0" encoding="utf-8"?>
<svg version="1.1" xmlns:xlink="http://www.w3.org/1999/xlink" width="7px" height="9px" xmlns="http://www.w3.org/2000/svg">
  <g transform="matrix(1 0 0 1 -427 -851 )">
    <path d="M 6.198 6.29485714285714  C 6.378 6.71142857142857  6.108 7.29  5.712 7.22057142857142  L 4.344 7.01228571428571  C 4.182 6.98914285714285  4.038 7.05857142857142  3.912 7.22057142857142  L 3.012 8.56285714285714  C 2.742 8.95628571428571  2.256 8.79428571428571  2.166 8.28514285714286  L 1.896 6.54942857142857  C 1.86 6.34114285714286  1.77 6.17914285714286  1.608 6.10971428571428  L 0.330000000000002 5.41542857142857  C -0.0299999999999976 5.20714285714286  -0.0659999999999989 4.55914285714286  0.276000000000003 4.30457142857143  L 1.464 3.44828571428571  C 1.59 3.35571428571429  1.698 3.17057142857143  1.716 2.96228571428572  L 1.824 1.20342857142858  C 1.86 0.694285714285718  2.346 0.462857142857147  2.634 0.810000000000003  L 3.66 1.99028571428572  C 3.768 2.12914285714286  3.948 2.19857142857143  4.11 2.12914285714286  L 5.46 1.73571428571428  C 5.838 1.62  6.18 2.12914285714286  6.018 2.592  L 5.442 4.212  C 5.388 4.374  5.388 4.60542857142857  5.478 4.79057142857143  L 6.198 6.29485714285714  Z " fill-rule="nonzero" fill="#ba83ca" stroke="none" transform="matrix(1 0 0 1 427 851 )" />
  </g>
</svg>