<?xml version="1.0" encoding="utf-8"?>
<svg version="1.1" xmlns:xlink="http://www.w3.org/1999/xlink" width="4px" height="4px" xmlns="http://www.w3.org/2000/svg">
  <g transform="matrix(1 0 0 1 -431 -707 )">
    <path d="M 3.32 2.748  C 3.44 2.88  3.32 3.084  3.128 3.06  L 2.516 2.988  C 2.444 2.976  2.372 3  2.324 3.06  L 1.916 3.528  C 1.796 3.672  1.58 3.6  1.532 3.432  L 1.412 2.832  C 1.4 2.76  1.352 2.7  1.28 2.676  L 0.704000000000002 2.436  C 0.536000000000001 2.364  0.524000000000001 2.136  0.680000000000001 2.052  L 1.22 1.752  C 1.28 1.716  1.328 1.656  1.328 1.584  L 1.376 0.971999999999998  C 1.388 0.791999999999998  1.604 0.707999999999998  1.736 0.827999999999999  L 2.192 1.248  C 2.24 1.296  2.324 1.32  2.396 1.296  L 2.996 1.152  C 3.164 1.104  3.32 1.296  3.248 1.452  L 2.984 2.016  C 2.96 2.076  2.96 2.16  2.996 2.22  L 3.32 2.748  Z " fill-rule="nonzero" fill="#e9b9d5" stroke="none" transform="matrix(1 0 0 1 431 707 )" />
  </g>
</svg>