<?xml version="1.0" encoding="utf-8"?>
<svg version="1.1" xmlns:xlink="http://www.w3.org/1999/xlink" width="20px" height="20px" xmlns="http://www.w3.org/2000/svg">
  <g transform="matrix(1 0 0 1 -421 -842 )">
    <path d="M 19.542 14.3075  C 21.072 10.3025  18.3 8.705  17.418 8.48  C 16.536 8.2775  16.968 7.67  16.968 7.67  C 16.968 7.67  17.832 5.8925  16.806 4.61  C 15.528 3.0125  12.432 4.8125  12.432 4.8125  C 11.244 5.2625  11.568 4.61  11.73 3.4625  C 11.73 2.135  11.37 -0.137499999999997  8.22 1.19  C 5.07 2.54  2.37 7.2425  2.37 7.2425  C 0.497999999999998 10.37  0.731999999999997 12.8  0.731999999999997 12.8  C 1.2 18.1325  5.736 19.6175  9.28199999999999 19.955  C 13.008 20.315  18.012 18.3575  19.542 14.3075  Z M 16.248 12.305  C 16.248 15.3875  13.26 18.2675  9.57 18.47  C 5.88 18.695  2.892 16.3775  2.892 13.295  C 2.892 10.2125  5.88 7.7375  9.57 7.535  C 13.26 7.3325  16.248 9.2225  16.248 12.305  Z " fill-rule="nonzero" fill="#898989" stroke="none" transform="matrix(1 0 0 1 421 842 )" />
  </g>
</svg>