<?xml version="1.0" encoding="utf-8"?>
<svg version="1.1" xmlns:xlink="http://www.w3.org/1999/xlink" width="10px" height="13px" xmlns="http://www.w3.org/2000/svg">
  <g transform="matrix(1 0 0 1 -435 -838 )">
    <path d="M 4.786 1.3468  C 3.47199999999999 0.949000000000001  2.122 1.3702  1.744 1.4638  C 1.70799999999999 1.4638  1.69 1.534  1.654 1.5574  C 1.636 1.5574  1.636 1.6042  1.636 1.6042  C 1.258 1.7446  0.988 2.1892  0.988 2.7274  C 0.988 3.3592  1.384 3.874  1.87 3.874  C 1.87 3.874  2.356 3.8038  2.68 3.64  C 3.004 3.4762  5.722 3.523  7.072 6.4714  C 7.81 8.6242  7.396 10.0516  7.342 10.2856  C 7.342 10.2856  7.162 10.8472  7.162 11.3854  C 7.162 12.0172  7.558 12.2512  8.044 12.2512  C 8.458 12.2512  8.8 12.0172  8.89 11.1046  C 10.348 4.7866  7.126 2.0488  4.786 1.3468  Z " fill-rule="nonzero" fill="#898989" stroke="none" transform="matrix(1 0 0 1 435 838 )" />
  </g>
</svg>