<?xml version="1.0" encoding="utf-8"?>
<svg version="1.1" xmlns:xlink="http://www.w3.org/1999/xlink" width="24px" height="24px" xmlns="http://www.w3.org/2000/svg">
  <g transform="matrix(1 0 0 1 -682 -184 )">
    <path d="M 4.05544554455446 21.9722772277228  L 5.75049504950495 21.9722772277228  L 7.19207920792079 20.5306930693069  L 3.46930693069307 16.8079207920792  L 2.02772277227723 18.2495049504951  L 2.02772277227723 19.9445544554455  L 4.05544554455446 19.9445544554455  L 4.05544554455446 21.9722772277228  Z M 13.9247524752475 7.54059405940594  C 13.9986798679868 7.46666666666667  14.0356435643564 7.37689768976898  14.0356435643564 7.27128712871287  C 14.0356435643564 7.03894389438944  13.9194719471947 6.92277227722772  13.6871287128713 6.92277227722772  C 13.5815181518152 6.92277227722772  13.4917491749175 6.95973597359736  13.4178217821782 7.03366336633663  L 4.83168316831683 15.619801980198  C 4.75775577557756 15.6937293729373  4.72079207920792 15.783498349835  4.72079207920792 15.8891089108911  C 4.72079207920792 16.1214521452145  4.83696369636964 16.2376237623762  5.06930693069307 16.2376237623762  C 5.17491749174918 16.2376237623762  5.26468646864686 16.2006600660066  5.33861386138614 16.1267326732673  L 13.9247524752475 7.54059405940594  Z M 0 17.409900990099  L 13.180198019802 4.22970297029703  L 19.770297029703 10.819801980198  L 6.59009900990099 24  L 0 24  L 0 17.409900990099  Z M 23.4138613861386 4.30891089108911  C 23.8046204620462 4.72079207920792  24 5.2013201320132  24 5.75049504950495  C 24 6.31023102310231  23.8046204620462 6.78547854785478  23.4138613861386 7.17623762376238  L 20.7841584158416 9.80594059405941  L 14.1940594059406 3.21584158415842  L 16.8237623762376 0.601980198019801  C 17.2039603960396 0.200660066006598  17.6792079207921 0  18.2495049504951 0  C 18.8092409240924 0  19.2897689768977 0.200660066006598  19.6910891089109 0.601980198019801  L 23.4138613861386 4.30891089108911  Z " fill-rule="nonzero" fill="#6e88da" stroke="none" transform="matrix(1 0 0 1 682 184 )" />
  </g>
</svg>