<?xml version="1.0" encoding="utf-8"?>
<svg version="1.1" xmlns:xlink="http://www.w3.org/1999/xlink" width="31px" height="31px" xmlns="http://www.w3.org/2000/svg">
  <g transform="matrix(1 0 0 1 -732 -204 )">
    <path d="M 28.9212239583333 7.7197265625  C 30.3070746527778 10.0945095486111  31 12.6879340277778  31 15.5  C 31 18.3120659722222  30.3070746527778 20.9054904513889  28.9212239583333 23.2802734375  C 27.5353732638889 25.6550564236111  25.6550564236111 27.5353732638889  23.2802734375 28.9212239583333  C 20.9054904513889 30.3070746527778  18.3120659722222 31  15.5 31  C 12.6879340277778 31  10.0945095486111 30.3070746527778  7.7197265625 28.9212239583333  C 5.34494357638889 27.5353732638889  3.46462673611111 25.6550564236111  2.07877604166667 23.2802734375  C 0.692925347222222 20.9054904513889  0 18.3120659722222  0 15.5  C 0 12.6879340277778  0.692925347222222 10.0945095486111  2.07877604166667 7.7197265625  C 3.46462673611111 5.34494357638889  5.34494357638889 3.46462673611111  7.7197265625 2.07877604166667  C 10.0945095486111 0.69292534722222  12.6879340277778 0  15.5 0  C 18.3120659722222 0  20.9054904513889 0.69292534722222  23.2802734375 2.07877604166667  C 25.6550564236111 3.46462673611111  27.5353732638889 5.34494357638889  28.9212239583333 7.7197265625  Z " fill-rule="nonzero" fill="#797979" stroke="none" transform="matrix(1 0 0 1 732 204 )" />
  </g>
</svg>