<?xml version="1.0" encoding="utf-8"?>
<svg version="1.1" xmlns:xlink="http://www.w3.org/1999/xlink" width="24px" height="24px" xmlns="http://www.w3.org/2000/svg">
  <g transform="matrix(1 0 0 1 -551 -393 )">
    <path d="M 8.06919642857148 8.58593749999996  C 8.40401785714286 8.9765625  8.57142857142852 9.44791666666685  8.57142857142852 10  C 8.57142857142852 10.5520833333335  8.40401785714286 11.0234375  8.06919642857148 11.4140625  C 7.734375 11.8046875  7.33035714285717 12  6.85714285714286 12  C 6.38392857142859 12  5.97991071428571 11.8046875  5.64508928571429 11.4140625  C 5.31026785714286 11.0234375  5.14285714285714 10.5520833333335  5.14285714285714 10  C 5.14285714285714 9.44791666666685  5.31026785714286 8.9765625  5.64508928571429 8.58593749999996  C 5.97991071428571 8.19531250000004  6.38392857142859 7.99999999999996  6.85714285714286 7.99999999999996  C 7.33035714285717 7.99999999999996  7.734375 8.19531250000004  8.06919642857148 8.58593749999996  Z M 13.2120535714285 8.58593749999996  C 13.546875 8.9765625  13.7142857142857 9.44791666666685  13.7142857142857 10  C 13.7142857142857 10.5520833333335  13.546875 11.0234375  13.2120535714285 11.4140625  C 12.8772321428571 11.8046875  12.4732142857143 12  12 12  C 11.5267857142857 12  11.1227678571429 11.8046875  10.7879464285715 11.4140625  C 10.453125 11.0234375  10.2857142857143 10.5520833333335  10.2857142857143 10  C 10.2857142857143 9.44791666666685  10.453125 8.9765625  10.7879464285715 8.58593749999996  C 11.1227678571429 8.19531250000004  11.5267857142857 7.99999999999996  12 7.99999999999996  C 12.4732142857143 7.99999999999996  12.8772321428571 8.19531250000004  13.2120535714285 8.58593749999996  Z M 18.3549107142857 8.58593749999996  C 18.6897321428571 8.9765625  18.8571428571429 9.44791666666685  18.8571428571429 10  C 18.8571428571429 10.5520833333335  18.6897321428571 11.0234375  18.3549107142857 11.4140625  C 18.0200892857143 11.8046875  17.6160714285715 12  17.1428571428571 12  C 16.6696428571428 12  16.265625 11.8046875  15.9308035714285 11.4140625  C 15.5959821428571 11.0234375  15.4285714285715 10.5520833333335  15.4285714285715 10  C 15.4285714285715 9.44791666666685  15.5959821428571 8.9765625  15.9308035714285 8.58593749999996  C 16.265625 8.19531250000004  16.6696428571428 7.99999999999996  17.1428571428571 7.99999999999996  C 17.6160714285715 7.99999999999996  18.0200892857143 8.19531250000004  18.3549107142857 8.58593749999996  Z M 17.109375 3.08593750000004  C 15.5245535714286 2.36197916666654  13.8214285714285 1.99999999999996  12 1.99999999999996  C 10.1785714285715 1.99999999999996  8.47544642857141 2.36197916666654  6.890625 3.08593750000004  C 5.30580357142859 3.80989583333331  4.04687500000002 4.78645833333347  3.11383928571429 6.01562500000004  C 2.18080357142856 7.24479166666685  1.71428571428571 8.57291666666653  1.71428571428571 10  C 1.71428571428571 11.1666666666667  2.03348214285713 12.2786458333332  2.671875 13.3359375  C 3.31026785714287 14.3932291666668  4.20982142857141 15.3072916666668  5.37053571428571 16.078125  L 6.53571428571428 16.859375  L 6.17410714285714 18.359375  C 5.95982142857143 19.3072916666665  5.64732142857144 20.203125  5.23660714285714 21.046875  C 6.59375000000003 20.390625  7.82142857142852 19.5  8.91964285714286 18.375  L 9.49553571428572 17.78125  L 10.2589285714285 17.875  C 10.875 17.9583333333335  11.4553571428572 18  12 18  C 13.8214285714285 18  15.5245535714286 17.6380208333333  17.109375 16.9140625  C 18.6941964285715 16.1901041666665  19.953125 15.2135416666668  20.8861607142857 13.984375  C 21.8191964285714 12.7552083333335  22.2857142857143 11.4270833333333  22.2857142857143 10  C 22.2857142857143 8.57291666666653  21.8191964285714 7.24479166666685  20.8861607142857 6.01562500000004  C 19.953125 4.78645833333347  18.6941964285715 3.80989583333331  17.109375 3.08593750000004  Z M 23.0491071428571 6.1171875  C 23.6830357142857 7.35156250000004  24 8.64583333333315  24 10  C 24 11.8125  23.4642857142857 13.4869791666667  22.3928571428571 15.0234375  C 21.3214285714285 16.5598958333333  19.8660714285715 17.7734375  18.0267857142857 18.6640625  C 16.1875 19.5546875  14.1785714285714 20  12 20  C 11.375 20  10.7276785714285 19.9583333333333  10.0580357142857 19.875  C 8.29017857142852 21.6979166666665  6.23660714285716 22.9583333333333  3.89732142857143 23.65625  C 3.45982142857141 23.8020833333333  2.95089285714284 23.9166666666667  2.37053571428571 24  L 2.30357142857143 24  C 2.16964285714286 24  2.04910714285714 23.9453125  1.94196428571429 23.8359375  C 1.83482142857143 23.7265625  1.76339285714287 23.5833333333335  1.72767857142857 23.40625  L 1.72767857142857 23.390625  C 1.70089285714286 23.3489583333335  1.6986607142857 23.2864583333333  1.72098214285714 23.203125  C 1.74330357142859 23.1197916666667  1.75223214285713 23.0677083333335  1.74776785714286 23.046875  C 1.74330357142859 23.0260416666667  1.76339285714287 22.9765625  1.80803571428571 22.8984375  L 1.88839285714286 22.7578125  C 1.88839285714286 22.7578125  1.91964285714284 22.7135416666668  1.98214285714286 22.625  C 2.04464285714287 22.5364583333333  2.08035714285713 22.4895833333333  2.08928571428571 22.484375  C 2.15178571428573 22.4010416666665  2.29017857142857 22.2213541666668  2.50446428571429 21.9453125  C 2.71875 21.6692708333333  2.87276785714286 21.4713541666668  2.96651785714286 21.3515625  C 3.06026785714286 21.2317708333332  3.1986607142857 21.0260416666668  3.38169642857143 20.734375  C 3.56473214285716 20.4427083333335  3.70982142857143 20.1770833333332  3.81696428571429 19.9375  C 3.92410714285714 19.6979166666667  4.04464285714286 19.390625  4.17857142857143 19.015625  C 4.3125 18.640625  4.42857142857144 18.2447916666667  4.52678571428571 17.828125  C 3.12499999999998 16.9010416666668  2.02008928571427 15.7552083333335  1.21205357142857 14.390625  C 0.404017857142873 13.0260416666665  0 11.5625  0 10  C 0 8.64583333333315  0.316964285714302 7.35156250000004  0.950892857142857 6.1171875  C 1.58482142857141 4.88281249999996  2.4375 3.81770833333315  3.50892857142857 2.92187500000004  C 4.58035714285714 2.02604166666669  5.85714285714284 1.31510416666685  7.33928571428572 0.78906250000004  C 8.82142857142859 0.263020833333465  10.375 0  12 0  C 13.625 0  15.1785714285714 0.263020833333465  16.6607142857143 0.78906250000004  C 18.1428571428572 1.31510416666685  19.4196428571429 2.02604166666669  20.4910714285715 2.92187500000004  C 21.5625 3.81770833333315  22.4151785714286 4.88281249999996  23.0491071428571 6.1171875  Z " fill-rule="nonzero" fill="#4d4b4b" stroke="none" transform="matrix(1 0 0 1 551 393 )" />
  </g>
</svg>