<?xml version="1.0" encoding="utf-8"?>
<svg version="1.1" xmlns:xlink="http://www.w3.org/1999/xlink" width="24px" height="24px" xmlns="http://www.w3.org/2000/svg">
  <g transform="matrix(1 0 0 1 -485 -393 )">
    <path d="M 3.703125 20.0336538461539  C 3.90104166666668 19.8509615384615  4.00000000000002 19.6346153846154  4.00000000000002 19.3846153846154  C 4.00000000000002 19.1346153846153  3.90104166666668 18.9182692307692  3.703125 18.7355769230768  C 3.50520833333332 18.5528846153847  3.27083333333332 18.4615384615385  3 18.4615384615385  C 2.72916666666668 18.4615384615385  2.49479166666668 18.5528846153847  2.296875 18.7355769230768  C 2.09895833333332 18.9182692307692  1.99999999999998 19.1346153846153  1.99999999999998 19.3846153846154  C 1.99999999999998 19.6346153846154  2.09895833333332 19.8509615384615  2.296875 20.0336538461539  C 2.49479166666668 20.2163461538462  2.72916666666668 20.3076923076923  3 20.3076923076923  C 3.27083333333332 20.3076923076923  3.50520833333332 20.2163461538462  3.703125 20.0336538461539  Z M 21.6640625 12.2451923076923  C 21.8880208333334 11.8028846153847  22 11.4134615384615  22 11.0769230769232  C 22 10.5865384615385  21.796875 10.15625  21.390625 9.78605769230765  C 20.984375 9.41586538461537  20.5208333333333 9.23076923076919  20 9.23076923076919  L 14.5 9.23076923076919  C 14.5 8.673076923077  14.75 7.90625000000003  15.25 6.93028846153847  C 15.75 5.954326923077  16 5.18269230769231  16 4.61538461538459  C 16 3.67307692307697  15.8333333333333 2.9759615384615  15.5 2.52403846153847  C 15.1666666666666 2.07211538461534  14.5 1.84615384615388  13.5 1.84615384615388  C 13.2291666666667 2.09615384615384  13.03125 2.50480769230769  12.90625 3.07211538461541  C 12.78125 3.63942307692303  12.6223958333333 4.2427884615385  12.4296875 4.88221153846153  C 12.2369791666666 5.52163461538466  11.9270833333334 6.048076923077  11.5 6.46153846153847  C 11.2708333333334 6.68269230769231  10.8697916666667 7.12019230769228  10.296875 7.77403846153847  C 10.2552083333333 7.82211538461537  10.1354166666667 7.96634615384619  9.9375 8.20673076923081  C 9.73958333333332 8.44711538461534  9.57552083333332 8.64423076923078  9.4453125 8.79807692307684  C 9.31510416666668 8.951923076923  9.13541666666666 9.15624999999997  8.90625 9.41105769230765  C 8.67708333333334 9.66586538461534  8.46874999999998 9.87740384615384  8.28124999999998 10.0456730769232  C 8.09374999999998 10.2139423076923  7.89322916666666 10.3846153846154  7.67968750000002 10.5576923076923  C 7.46614583333332 10.7307692307692  7.25781250000002 10.8605769230768  7.0546875 10.9471153846154  C 6.85156249999998 11.0336538461539  6.66666666666668 11.0769230769232  6.49999999999998 11.0769230769232  L 6 11.0769230769232  L 6 20.3076923076923  L 6.49999999999998 20.3076923076923  C 6.63541666666664 20.3076923076923  6.79947916666664 20.3221153846154  6.99218749999998 20.3509615384615  C 7.18489583333332 20.3798076923077  7.35677083333336 20.4110576923077  7.50781249999998 20.4447115384615  C 7.65885416666666 20.4783653846154  7.85677083333334 20.53125  8.10156250000002 20.6033653846154  C 8.34635416666664 20.6754807692308  8.52864583333336 20.7307692307693  8.6484375 20.7692307692308  C 8.76822916666664 20.8076923076923  8.953125 20.8677884615384  9.20312500000002 20.9495192307692  C 9.45312499999998 21.03125  9.60416666666666 21.0817307692307  9.65625 21.1009615384615  C 11.8541666666667 21.8028846153846  13.6354166666667 22.1538461538461  15 22.1538461538461  L 16.890625 22.1538461538461  C 18.890625 22.1538461538461  19.890625 21.3509615384615  19.890625 19.7451923076923  C 19.890625 19.4951923076923  19.8645833333333 19.2259615384615  19.8125 18.9375  C 20.125 18.7836538461538  20.3723958333333 18.53125  20.5546875 18.1802884615385  C 20.7369791666667 17.829326923077  20.828125 17.4759615384616  20.828125 17.1201923076923  C 20.828125 16.764423076923  20.734375 16.4326923076923  20.546875 16.125  C 21.0989583333333 15.6442307692307  21.375 15.0721153846154  21.375 14.4086538461539  C 21.375 14.1682692307693  21.3229166666667 13.9014423076923  21.21875 13.6081730769232  C 21.1145833333334 13.3149038461538  20.984375 13.0865384615384  20.828125 12.9230769230768  C 21.1614583333334 12.9134615384615  21.4401041666667 12.6875  21.6640625 12.2451923076923  Z M 22.8125 8.48076923076919  C 23.6041666666666 9.2115384615385  24 10.0721153846154  24 11.0625  C 24 11.9182692307693  23.7447916666666 12.701923076923  23.234375 13.4134615384615  C 23.328125 13.7307692307692  23.375 14.0625  23.375 14.4086538461539  C 23.375 15.1490384615384  23.1770833333334 15.8413461538462  22.78125 16.4855769230768  C 22.8125 16.6875  22.828125 16.8942307692308  22.828125 17.1057692307692  C 22.828125 18.076923076923  22.515625 18.9326923076923  21.890625 19.6730769230768  C 21.9010416666667 21.0096153846153  21.4583333333333 22.0649038461538  20.5625 22.8389423076923  C 19.6666666666666 23.6129807692307  18.484375 24  17.015625 24  L 16.453125 24  L 15 24  C 14 24  13.0130208333333 23.8918269230768  12.0390625 23.6754807692308  C 11.0651041666666 23.4591346153846  9.9375 23.1442307692307  8.65624999999998 22.7307692307692  C 7.44791666666666 22.3461538461538  6.72916666666664 22.1538461538461  6.49999999999998 22.1538461538461  L 1.99999999999998 22.1538461538461  C 1.44791666666666 22.1538461538461  0.976562500000018 21.9735576923077  0.5859375 21.6129807692308  C 0.195312499999982 21.2524038461539  0 20.8173076923077  0 20.3076923076923  L 0 11.0769230769232  C 0 10.5673076923077  0.195312499999982 10.1322115384615  0.5859375 9.77163461538459  C 0.976562500000018 9.41105769230765  1.44791666666666 9.23076923076919  1.99999999999998 9.23076923076919  L 6.28125 9.23076923076919  C 6.65625 9  7.36979166666668 8.25480769230772  8.42187499999998 6.99519230769234  C 9.02604166666664 6.27403846153847  9.58333333333336 5.65865384615384  10.09375 5.14903846153847  C 10.34375 4.90865384615384  10.5286458333333 4.49759615384619  10.6484375 3.91586538461541  C 10.7682291666667 3.33413461538463  10.9270833333333 2.72596153846153  11.125 2.09134615384612  C 11.3229166666666 1.45673076923081  11.6458333333334 0.9375  12.09375 0.533653846153876  C 12.5 0.177884615384658  12.96875 0  13.5 0  C 14.375 0  15.1614583333334 0.156249999999968  15.859375 0.46875  C 16.5572916666667 0.781250000000033  17.0885416666666 1.26923076923081  17.453125 1.93269230769235  C 17.8177083333333 2.59615384615388  18 3.49038461538459  18 4.61538461538459  C 18 5.50961538461541  17.75 6.43269230769234  17.25 7.38461538461541  L 20 7.38461538461541  C 21.0833333333333 7.38461538461541  22.0208333333333 7.74999999999997  22.8125 8.48076923076919  Z " fill-rule="nonzero" fill="#4d4b4b" stroke="none" transform="matrix(1 0 0 1 485 393 )" />
  </g>
</svg>