<?xml version="1.0" encoding="utf-8"?>
<svg version="1.1" xmlns:xlink="http://www.w3.org/1999/xlink" width="34px" height="34px" xmlns="http://www.w3.org/2000/svg">
  <defs>
    <linearGradient gradientUnits="userSpaceOnUse" x1="27.2" y1="10.3888888888889" x2="6.42222222222222" y2="22.6666666666666" id="LinearGradient855">
      <stop id="Stop856" stop-color="#d16ba5" offset="0" />
      <stop id="Stop857" stop-color="#636fce" offset="1" />
    </linearGradient>
  </defs>
  <g transform="matrix(1 0 0 1 -452 -294 )">
    <path d="M 25.0130208333333 19.888671875  C 25.1901041666667 20.2354600694444  25.2196180555556 20.5933159722222  25.1015625 20.9622395833333  C 24.5555555555556 22.7478298611111  23.5373263888889 24.1866319444444  22.046875 25.2786458333333  C 20.5564236111111 26.3706597222222  18.8741319444444 26.9166666666667  17 26.9166666666667  C 15.1258680555556 26.9166666666667  13.4435763888889 26.3706597222222  11.953125 25.2786458333333  C 10.4626736111111 24.1866319444444  9.44444444444444 22.7478298611111  8.8984375 20.9622395833333  C 8.78038194444444 20.5933159722222  8.80989583333333 20.2354600694444  8.98697916666667 19.888671875  C 9.1640625 19.5418836805556  9.44444444444444 19.3094618055556  9.828125 19.19140625  C 10.1970486111111 19.0733506944444  10.5549045138889 19.1028645833333  10.9016927083333 19.2799479166667  C 11.2484809027778 19.45703125  11.4809027777778 19.7374131944444  11.5989583333333 20.12109375  C 11.9678819444444 21.3016493055556  12.650390625 22.2571614583333  13.646484375 22.9876302083333  C 14.642578125 23.7180989583333  15.7604166666667 24.0833333333333  17 24.0833333333333  C 18.2395833333333 24.0833333333333  19.357421875 23.7180989583333  20.353515625 22.9876302083333  C 21.349609375 22.2571614583333  22.0321180555556 21.3016493055556  22.4010416666667 20.12109375  C 22.5190972222222 19.7374131944444  22.7552083333333 19.45703125  23.109375 19.2799479166667  C 23.4635416666667 19.1028645833333  23.8250868055556 19.0733506944444  24.1940104166667 19.19140625  C 24.5629340277778 19.3094618055556  24.8359375 19.5418836805556  25.0130208333333 19.888671875  Z M 13.3365885416667 9.330078125  C 13.8899739583333 9.88346354166667  14.1666666666667 10.5512152777778  14.1666666666667 11.3333333333333  C 14.1666666666667 12.1154513888889  13.8899739583333 12.783203125  13.3365885416667 13.3365885416667  C 12.783203125 13.8899739583333  12.1154513888889 14.1666666666667  11.3333333333333 14.1666666666667  C 10.5512152777778 14.1666666666667  9.88346354166667 13.8899739583333  9.330078125 13.3365885416667  C 8.77669270833333 12.783203125  8.5 12.1154513888889  8.5 11.3333333333333  C 8.5 10.5512152777778  8.77669270833333 9.88346354166667  9.330078125 9.330078125  C 9.88346354166667 8.77669270833333  10.5512152777778 8.5  11.3333333333333 8.5  C 12.1154513888889 8.5  12.783203125 8.77669270833333  13.3365885416667 9.330078125  Z M 24.669921875 9.330078125  C 25.2233072916667 9.88346354166667  25.5 10.5512152777778  25.5 11.3333333333333  C 25.5 12.1154513888889  25.2233072916667 12.783203125  24.669921875 13.3365885416667  C 24.1165364583333 13.8899739583333  23.4487847222222 14.1666666666667  22.6666666666667 14.1666666666667  C 21.8845486111111 14.1666666666667  21.216796875 13.8899739583333  20.6634114583333 13.3365885416667  C 20.1100260416667 12.783203125  19.8333333333333 12.1154513888889  19.8333333333333 11.3333333333333  C 19.8333333333333 10.5512152777778  20.1100260416667 9.88346354166667  20.6634114583333 9.330078125  C 21.216796875 8.77669270833333  21.8845486111111 8.5  22.6666666666667 8.5  C 23.4487847222222 8.5  24.1165364583333 8.77669270833333  24.669921875 9.330078125  Z M 30.0377604166667 22.5006510416667  C 30.7903645833333 20.751953125  31.1666666666667 18.9184027777778  31.1666666666667 17  C 31.1666666666667 15.0815972222222  30.7903645833333 13.248046875  30.0377604166667 11.4993489583333  C 29.28515625 9.75065104166667  28.2779947916667 8.24544270833333  27.0162760416667 6.98372395833333  C 25.7545572916667 5.72200520833333  24.2493489583333 4.71484375  22.5006510416667 3.96223958333333  C 20.751953125 3.20963541666667  18.9184027777778 2.83333333333333  17 2.83333333333333  C 15.0815972222222 2.83333333333333  13.248046875 3.20963541666667  11.4993489583333 3.96223958333333  C 9.75065104166667 4.71484375  8.24544270833333 5.72200520833333  6.98372395833333 6.98372395833333  C 5.72200520833333 8.24544270833333  4.71484375 9.75065104166667  3.96223958333333 11.4993489583333  C 3.20963541666667 13.248046875  2.83333333333333 15.0815972222222  2.83333333333333 17  C 2.83333333333333 18.9184027777778  3.20963541666667 20.751953125  3.96223958333333 22.5006510416667  C 4.71484375 24.2493489583333  5.72200520833333 25.7545572916667  6.98372395833333 27.0162760416667  C 8.24544270833333 28.2779947916667  9.75065104166667 29.28515625  11.4993489583333 30.0377604166667  C 13.248046875 30.7903645833333  15.0815972222222 31.1666666666667  17 31.1666666666667  C 18.9184027777778 31.1666666666667  20.751953125 30.7903645833333  22.5006510416667 30.0377604166667  C 24.2493489583333 29.28515625  25.7545572916667 28.2779947916667  27.0162760416667 27.0162760416667  C 28.2779947916667 25.7545572916667  29.28515625 24.2493489583333  30.0377604166667 22.5006510416667  Z M 31.7200520833333 8.466796875  C 33.2400173611111 11.0713975694444  34 13.9157986111111  34 17  C 34 20.0842013888889  33.2400173611111 22.9286024305556  31.7200520833333 25.533203125  C 30.2000868055556 28.1378038194444  28.1378038194444 30.2000868055556  25.533203125 31.7200520833333  C 22.9286024305556 33.2400173611111  20.0842013888889 34  17 34  C 13.9157986111111 34  11.0713975694444 33.2400173611111  8.466796875 31.7200520833333  C 5.86219618055556 30.2000868055556  3.79991319444444 28.1378038194444  2.27994791666667 25.533203125  C 0.759982638888889 22.9286024305556  0 20.0842013888889  0 17  C 0 13.9157986111111  0.759982638888889 11.0713975694444  2.27994791666667 8.466796875  C 3.79991319444444 5.86219618055556  5.86219618055556 3.79991319444444  8.466796875 2.27994791666667  C 11.0713975694444 0.759982638888886  13.9157986111111 0  17 0  C 20.0842013888889 0  22.9286024305556 0.759982638888886  25.533203125 2.27994791666667  C 28.1378038194444 3.79991319444444  30.2000868055556 5.86219618055556  31.7200520833333 8.466796875  Z " fill-rule="nonzero" fill="url(#LinearGradient855)" stroke="none" transform="matrix(1 0 0 1 452 294 )" />
  </g>
</svg>