<?xml version="1.0" encoding="utf-8"?>
<svg version="1.1" xmlns:xlink="http://www.w3.org/1999/xlink" width="34px" height="34px" xmlns="http://www.w3.org/2000/svg">
  <g transform="matrix(1 0 0 1 -576 -294 )">
    <path d="M 25.0794270833333 20.25390625  C 25.3598090277778 20.5342881944444  25.5 20.8663194444444  25.5 21.25  C 25.5 21.6336805555556  25.3598090277778 21.9657118055556  25.0794270833333 22.24609375  C 24.7990451388889 22.5264756944445  24.4670138888889 22.6666666666667  24.0833333333333 22  L 9.91666666666667 22  C 9.53298611111111 22.6666666666667  9.20095486111111 22.5264756944445  8.92057291666667 22.24609375  C 8.64019097222222 21.9657118055556  8.5 21.6336805555556  8.5 21.25  C 8.5 20.8663194444444  8.64019097222222 20.5342881944444  8.92057291666667 20.25390625  C 9.20095486111111 19.9735243055556  9.53298611111111 19.8333333333333  9.91666666666667 19.8333333333333  L 24.0833333333333 19.8333333333333  C 24.4670138888889 19.8333333333333  24.7990451388889 19.9735243055556  25.0794270833333 20.25390625  Z M 13.3365885416667 9.330078125  C 13.8899739583333 9.88346354166667  14.1666666666667 10.5512152777778  14.1666666666667 11.3333333333333  C 14.1666666666667 12.1154513888889  13.8899739583333 12.783203125  13.3365885416667 13.3365885416667  C 12.783203125 13.8899739583333  12.1154513888889 14.1666666666667  11.3333333333333 14.1666666666667  C 10.5512152777778 14.1666666666667  9.88346354166667 13.8899739583333  9.330078125 13.3365885416667  C 8.77669270833333 12.783203125  8.5 12.1154513888889  8.5 11.3333333333333  C 8.5 10.5512152777778  8.77669270833333 9.88346354166667  9.330078125 9.330078125  C 9.88346354166667 8.77669270833333  10.5512152777778 8.5  11.3333333333333 8.5  C 12.1154513888889 8.5  12.783203125 8.77669270833333  13.3365885416667 9.330078125  Z M 24.669921875 9.330078125  C 25.2233072916667 9.88346354166667  25.5 10.5512152777778  25.5 11.3333333333333  C 25.5 12.1154513888889  25.2233072916667 12.783203125  24.669921875 13.3365885416667  C 24.1165364583333 13.8899739583333  23.4487847222222 14.1666666666667  22.6666666666667 14.1666666666667  C 21.8845486111111 14.1666666666667  21.216796875 13.8899739583333  20.6634114583333 13.3365885416667  C 20.1100260416667 12.783203125  19.8333333333333 12.1154513888889  19.8333333333333 11.3333333333333  C 19.8333333333333 10.5512152777778  20.1100260416667 9.88346354166667  20.6634114583333 9.330078125  C 21.216796875 8.77669270833333  21.8845486111111 8.5  22.6666666666667 8.5  C 23.4487847222222 8.5  24.1165364583333 8.77669270833333  24.669921875 9.330078125  Z M 30.0377604166667 22.5006510416667  C 30.7903645833333 20.751953125  31.1666666666667 18.9184027777778  31.1666666666667 17  C 31.1666666666667 15.0815972222222  30.7903645833333 13.248046875  30.0377604166667 11.4993489583333  C 29.28515625 9.75065104166667  28.2779947916667 8.24544270833333  27.0162760416667 6.98372395833333  C 25.7545572916667 5.72200520833333  24.2493489583333 4.71484375  22.5006510416667 3.96223958333333  C 20.751953125 3.20963541666667  18.9184027777778 2.83333333333333  17 2.83333333333333  C 15.0815972222222 2.83333333333333  13.248046875 3.20963541666667  11.4993489583333 3.96223958333333  C 9.75065104166667 4.71484375  8.24544270833333 5.72200520833333  6.98372395833333 6.98372395833333  C 5.72200520833333 8.24544270833333  4.71484375 9.75065104166667  3.96223958333333 11.4993489583333  C 3.20963541666667 13.248046875  2.83333333333333 15.0815972222222  2.83333333333333 17  C 2.83333333333333 18.9184027777778  3.20963541666667 20.751953125  3.96223958333333 22.5006510416667  C 4.71484375 24.2493489583333  5.72200520833333 25.7545572916667  6.98372395833333 27.0162760416667  C 8.24544270833333 28.2779947916667  9.75065104166667 29.28515625  11.4993489583333 30.0377604166667  C 13.248046875 30.7903645833333  15.0815972222222 31.1666666666667  17 31.1666666666667  C 18.9184027777778 31.1666666666667  20.751953125 30.7903645833333  22.5006510416667 30.0377604166667  C 24.2493489583333 29.28515625  25.7545572916667 28.2779947916667  27.0162760416667 27.0162760416667  C 28.2779947916667 25.7545572916667  29.28515625 24.2493489583333  30.0377604166667 22.5006510416667  Z M 31.7200520833333 8.466796875  C 33.2400173611111 11.0713975694444  34 13.9157986111111  34 17  C 34 20.0842013888889  33.2400173611111 22.9286024305556  31.7200520833333 25.533203125  C 30.2000868055556 28.1378038194444  28.1378038194444 30.2000868055556  25.533203125 31.7200520833333  C 22.9286024305556 33.2400173611111  20.0842013888889 34  17 34  C 13.9157986111111 34  11.0713975694444 33.2400173611111  8.466796875 31.7200520833333  C 5.86219618055556 30.2000868055556  3.79991319444444 28.1378038194444  2.27994791666667 25.533203125  C 0.759982638888889 22.9286024305556  0 20.0842013888889  0 17  C 0 13.9157986111111  0.759982638888889 11.0713975694444  2.27994791666667 8.466796875  C 3.79991319444444 5.86219618055556  5.86219618055556 3.79991319444444  8.466796875 2.27994791666667  C 11.0713975694444 0.759982638888886  13.9157986111111 0  17 0  C 20.0842013888889 0  22.9286024305556 0.759982638888886  25.533203125 2.27994791666667  C 28.1378038194444 3.79991319444444  30.2000868055556 5.86219618055556  31.7200520833333 8.466796875  Z " fill-rule="nonzero" fill="#000000" stroke="none" transform="matrix(1 0 0 1 576 294 )" />
  </g>
</svg>