<?xml version="1.0" encoding="utf-8"?>
<svg version="1.1" xmlns:xlink="http://www.w3.org/1999/xlink" width="30px" height="17px" xmlns="http://www.w3.org/2000/svg">
  <g transform="matrix(1 0 0 1 -644 -143 )">
    <path d="M 29.6993987975952 1.75257731958763  C 29.8997995991984 1.94730813287514  30 2.17124856815579  30 2.42439862542956  C 30 2.67754868270332  29.8997995991984 2.90148911798396  29.6993987975952 3.09621993127148  L 15.691382765531 16.7079037800687  C 15.4909819639279 16.9026345933562  15.2605210420842 17  15 17  C 14.7394789579158 17  14.5090180360721 16.9026345933562  14.308617234469 16.7079037800687  L 0.300601202404835 3.09621993127148  C 0.100200400801612 2.90148911798396  0 2.67754868270332  0 2.42439862542956  C 0 2.17124856815579  0.100200400801612 1.94730813287514  0.300601202404835 1.75257731958763  L 1.80360721442884 0.292096219931267  C 2.00400801603206 0.0973654066437604  2.23446893787576 0  2.49498997995994 0  C 2.75551102204406 0  2.98597194388776 0.0973654066437604  3.18637274549098 0.292096219931267  L 15 11.7714776632302  L 26.813627254509 0.292096219931267  C 27.0140280561122 0.0973654066437604  27.2444889779559 0  27.5050100200401 0  C 27.7655310621243 0  27.995991983968 0.0973654066437604  28.1963927855711 0.292096219931267  L 29.6993987975952 1.75257731958763  Z " fill-rule="nonzero" fill="#000000" stroke="none" transform="matrix(1 0 0 1 644 143 )" />
  </g>
</svg>