<?xml version="1.0" encoding="utf-8"?>
<svg version="1.1" xmlns:xlink="http://www.w3.org/1999/xlink" width="30px" height="17px" xmlns="http://www.w3.org/2000/svg">
  <g transform="matrix(1 0 0 1 -717 -197 )">
    <path d="M 29.6993987975952 1.75257731958763  C 29.8997995991984 1.94730813287515  30 2.17124856815579  30 2.42439862542955  C 30 2.67754868270333  29.8997995991984 2.90148911798394  29.6993987975952 3.09621993127149  L 15.691382765531 16.7079037800687  C 15.4909819639279 16.9026345933563  15.2605210420842 17  15 17  C 14.7394789579158 17  14.5090180360721 16.9026345933563  14.308617234469 16.7079037800687  L 0.300601202404778 3.09621993127149  C 0.100200400801668 2.90148911798394  0 2.67754868270333  0 2.42439862542955  C 0 2.17124856815579  0.100200400801668 1.94730813287515  0.300601202404778 1.75257731958763  L 1.80360721442889 0.292096219931267  C 2.004008016032 0.0973654066437462  2.23446893787582 0  2.49498997995988 0  C 2.75551102204406 0  2.98597194388776 0.0973654066437462  3.18637274549098 0.292096219931267  L 14.308617234469 10  L 26.813627254509 0.292096219931267  C 27.0140280561122 0.0973654066437462  27.2444889779559 0  27.5050100200401 0  C 27.7655310621243 0  27.995991983968 0.0973654066437462  28.1963927855711 0.292096219931267  L 29.6993987975952 1.75257731958763  Z " fill-rule="nonzero" fill="#000000" stroke="none" transform="matrix(1 0 0 1 717 197 )" />
  </g>
</svg>