<?xml version="1.0" encoding="utf-8"?>
<svg version="1.1" xmlns:xlink="http://www.w3.org/1999/xlink" width="75px" height="33px" xmlns="http://www.w3.org/2000/svg">
  <defs>
    <mask fill="white" id="clip768">
      <path d="M 0 18  L 0 15  C 0 6.6  6.59999999999999 0  15 0  L 60 0  C 62.7369909753571 0  65.282881960939 0.700699962508907  67.4716288464583 1.93605577723928  C 69.63620380482 3.15776865730003  71.4514795096285 4.90239340978442  72.7568525584629 7.00932663227152  C 74.1825407670436 9.31045415612297  75 12.0437553644765  75 15  L 75 18  C 75 26.4  68.4 33  60 33  L 15 33  C 6.59999999999999 33  0 26.4  0 18  Z " fill-rule="evenodd" />
    </mask>
  </defs>
  <g transform="matrix(1 0 0 1 -197 -19 )">
    <path d="M 0 18  L 0 15  C 0 6.6  6.59999999999999 0  15 0  L 60 0  C 62.7369909753571 0  65.282881960939 0.700699962508907  67.4716288464583 1.93605577723928  C 69.63620380482 3.15776865730003  71.4514795096285 4.90239340978442  72.7568525584629 7.00932663227152  C 74.1825407670436 9.31045415612297  75 12.0437553644765  75 15  L 75 18  C 75 26.4  68.4 33  60 33  L 15 33  C 6.59999999999999 33  0 26.4  0 18  Z " fill-rule="nonzero" fill="#ec808d" stroke="none" transform="matrix(1 0 0 1 197 19 )" />
    <path d="M 0 18  L 0 15  C 0 6.6  6.59999999999999 0  15 0  L 60 0  C 62.7369909753571 0  65.282881960939 0.700699962508907  67.4716288464583 1.93605577723928  C 69.63620380482 3.15776865730003  71.4514795096285 4.90239340978442  72.7568525584629 7.00932663227152  C 74.1825407670436 9.31045415612297  75 12.0437553644765  75 15  L 75 18  C 75 26.4  68.4 33  60 33  L 15 33  C 6.59999999999999 33  0 26.4  0 18  Z " stroke-width="2" stroke="#ec808d" fill="none" transform="matrix(1 0 0 1 197 19 )" mask="url(#clip768)" />
  </g>
</svg>