<?xml version="1.0" encoding="utf-8"?>
<svg version="1.1" xmlns:xlink="http://www.w3.org/1999/xlink" width="12px" height="21px" xmlns="http://www.w3.org/2000/svg">
  <g transform="matrix(1 0 0 1 -751 -445 )">
    <path d="M 0.206185567010315 1.2625250501002  C 0.0687285223367882 1.40280561122244  0 1.56412825651302  0 1.74649298597195  C 0 1.92885771543087  0.0687285223367882 2.09018036072144  0.206185567010315 2.23046092184368  L 8.30927835051546 10.5  L 0.206185567010315 18.7695390781563  C 0.0687285223367882 18.9098196392786  0 19.0711422845691  0 19.2535070140281  C 0 19.435871743487  0.0687285223367882 19.5971943887776  0.206185567010315 19.7374749498998  L 1.23711340206184 20.7895791583166  C 1.37457044673541 20.9298597194389  1.53264604810996 21  1.71134020618558 21  C 1.89003436426115 21  2.04810996563575 20.9298597194389  2.18556701030928 20.7895791583166  L 11.7938144329897 10.9839679358717  C 11.9312714776632 10.8436873747495  12 10.6823647294589  12 10.5  C 12 10.3176352705411  11.9312714776632 10.1563126252505  11.7938144329897 10.0160320641283  L 2.18556701030928 0.210420841683372  C 2.04810996563575 0.0701402805611161  1.89003436426115 0  1.71134020618558 0  C 1.53264604810996 0  1.37457044673541 0.0701402805611161  1.23711340206184 0.210420841683372  L 0.206185567010315 1.2625250501002  Z " fill-rule="nonzero" fill="#000000" stroke="none" transform="matrix(1 0 0 1 751 445 )" />
  </g>
</svg>