<?xml version="1.0" encoding="utf-8"?>
<svg version="1.1" xmlns:xlink="http://www.w3.org/1999/xlink" width="16px" height="16px" xmlns="http://www.w3.org/2000/svg">
  <defs>
    <linearGradient gradientUnits="userSpaceOnUse" x1="8" y1="0" x2="8" y2="15.84" id="LinearGradient732">
      <stop id="Stop733" stop-color="#d16ba5" offset="0" />
      <stop id="Stop734" stop-color="#5c38ad" offset="1" />
    </linearGradient>
  </defs>
  <g transform="matrix(1 0 0 1 -421 -448 )">
    <path d="M 6.52777777777778 9.33333333333333  L 8.87962962962963 9.33333333333333  L 9.47222222222222 6.66666666666667  L 7.12037037037037 6.66666666666667  L 6.52777777777778 9.33333333333333  Z M 15.9351851851852 3.79166666666667  C 15.9907407407407 3.875  16.0092592592593 3.97222222222222  15.9907407407407 4.08333333333333  L 15.4722222222222 6.41666666666667  C 15.429012345679 6.58333333333333  15.3333333333333 6.66666666666667  15.1851851851852 6.66666666666667  L 12.1574074074074 6.66666666666667  L 11.5648148148148 9.33333333333333  L 14.4444444444444 9.33333333333333  C 14.537037037037 9.33333333333333  14.6141975308642 9.375  14.6759259259259 9.45833333333333  C 14.7376543209877 9.55555555555555  14.7561728395062 9.65277777777778  14.7314814814815 9.75  L 14.212962962963 12.0833333333333  C 14.1820987654321 12.25  14.0864197530864 12.3333333333333  13.9259259259259 12.3333333333333  L 10.8981481481481 12.3333333333333  L 10.1481481481481 15.75  C 10.1049382716049 15.9166666666667  10.0092592592593 16  9.86111111111111 16  L 7.78703703703704 16  C 7.68827160493827 16  7.60802469135803 15.9583333333333  7.5462962962963 15.875  C 7.49074074074074 15.7916666666667  7.47222222222222 15.6944444444444  7.49074074074074 15.5833333333333  L 8.21296296296296 12.3333333333333  L 5.86111111111111 12.3333333333333  L 5.11111111111111 15.75  C 5.0679012345679 15.9166666666667  4.97222222222222 16  4.82407407407407 16  L 2.74074074074074 16  C 2.64814814814815 16  2.57098765432099 15.9583333333333  2.50925925925926 15.875  C 2.4537037037037 15.7916666666667  2.43518518518519 15.6944444444444  2.4537037037037 15.5833333333333  L 3.17592592592593 12.3333333333333  L 0.296296296296296 12.3333333333333  C 0.203703703703704 12.3333333333333  0.126543209876543 12.2916666666667  0.0648148148148148 12.2083333333333  C 0.00925925925925926 12.125  -0.00925925925925923 12.0277777777778  0.00925925925925926 11.9166666666667  L 0.527777777777778 9.58333333333333  C 0.570987654320988 9.41666666666667  0.666666666666667 9.33333333333333  0.814814814814815 9.33333333333333  L 3.84259259259259 9.33333333333333  L 4.43518518518519 6.66666666666667  L 1.55555555555556 6.66666666666667  C 1.46296296296296 6.66666666666667  1.3858024691358 6.625  1.32407407407407 6.54166666666667  C 1.26234567901235 6.44444444444444  1.24382716049383 6.34722222222222  1.26851851851852 6.25  L 1.78703703703704 3.91666666666667  C 1.8179012345679 3.75  1.91358024691358 3.66666666666667  2.07407407407407 3.66666666666667  L 5.10185185185185 3.66666666666667  L 5.85185185185185 0.25  C 5.89506172839506 0.0833333333333339  5.99382716049383 0  6.14814814814815 0  L 8.22222222222222 0  C 8.31481481481481 0  8.39197530864198 0.0416666666666661  8.4537037037037 0.125  C 8.50925925925926 0.208333333333334  8.52777777777778 0.305555555555555  8.50925925925926 0.416666666666666  L 7.78703703703704 3.66666666666667  L 10.1388888888889 3.66666666666667  L 10.8888888888889 0.25  C 10.9320987654321 0.0833333333333339  11.0308641975309 0  11.1851851851852 0  L 13.2592592592593 0  C 13.3518518518519 0  13.429012345679 0.0416666666666661  13.4907407407407 0.125  C 13.5462962962963 0.208333333333334  13.5648148148148 0.305555555555555  13.5462962962963 0.416666666666666  L 12.8240740740741 3.66666666666667  L 15.7037037037037 3.66666666666667  C 15.7962962962963 3.66666666666667  15.8734567901235 3.70833333333333  15.9351851851852 3.79166666666667  Z " fill-rule="nonzero" fill="url(#LinearGradient732)" stroke="none" transform="matrix(1 0 0 1 421 448 )" />
  </g>
</svg>