<?xml version="1.0" encoding="utf-8"?>
<svg version="1.1" xmlns:xlink="http://www.w3.org/1999/xlink" width="24px" height="24px" xmlns="http://www.w3.org/2000/svg">
  <defs>
    <linearGradient gradientUnits="userSpaceOnUse" x1="12" y1="0" x2="12" y2="23.76" id="LinearGradient738">
      <stop id="Stop739" stop-color="#d16ba5" offset="0" />
      <stop id="Stop740" stop-color="#7e8edc" offset="1" />
    </linearGradient>
  </defs>
  <g transform="matrix(1 0 0 1 -433 -815 )">
    <path d="M 23.375 6.85714285714286  L 16 6.85714285714286  L 16 0.535714285714286  C 16.2291666666667 0.660714285714285  16.4166666666667 0.785714285714283  16.5625 0.910714285714286  L 22.9375 6.375  C 23.0833333333333 6.5  23.2291666666667 6.66071428571428  23.375 6.85714285714286  Z M 14 0  L 14 7.28571428571429  C 14 7.64285714285714  14.1458333333333 7.94642857142857  14.4375 8.19642857142857  C 14.7291666666667 8.44642857142857  15.0833333333333 8.57142857142857  15.5 8.57142857142857  L 24 8.57142857142857  L 24 22.7142857142857  C 24 23.0714285714286  23.8541666666667 23.375  23.5625 23.625  C 23.2708333333333 23.875  22.9166666666667 24  22.5 24  L 1.5 24  C 1.08333333333333 24  0.729166666666667 23.875  0.4375 23.625  C 0.145833333333333 23.375  0 23.0714285714286  0 22.7142857142857  L 0 1.28571428571429  C 0 0.928571428571428  0.145833333333333 0.624999999999999  0.4375 0.375  C 0.729166666666667 0.125000000000001  1.08333333333333 0  1.5 0  L 14 0  Z " fill-rule="nonzero" fill="url(#LinearGradient738)" stroke="none" transform="matrix(1 0 0 1 433 815 )" />
  </g>
</svg>